M48
; DRILL file {KiCad 8.0.6} date 2025-07-05T13:21:46+0530
; FORMAT={-:-/ absolute / metric / decimal}
; #@! TF.CreationDate,2025-07-05T13:21:46+05:30
; #@! TF.GenerationSoftware,Kicad,Pcbnew,8.0.6
; #@! TF.FileFunction,MixedPlating,1,2
FMAT,2
METRIC
; #@! TA.AperFunction,Plated,PTH,ViaDrill
T1C0.300
; #@! TA.AperFunction,Plated,PTH,ComponentDrill
T2C0.650
; #@! TA.AperFunction,Plated,PTH,ComponentDrill
T3C0.700
; #@! TA.AperFunction,Plated,PTH,ComponentDrill
T4C0.800
; #@! TA.AperFunction,Plated,PTH,ComponentDrill
T5C0.900
; #@! TA.AperFunction,Plated,PTH,ComponentDrill
T6C1.000
; #@! TA.AperFunction,Plated,PTH,ComponentDrill
T7C1.300
; #@! TA.AperFunction,Plated,PTH,ComponentDrill
T8C2.000
; #@! TA.AperFunction,NonPlated,NPTH,ComponentDrill
T9C2.200
%
G90
G05
T1
X140.5Y-78.0
X140.5Y-86.8
X161.8Y-82.66
X162.6Y-84.7
X170.397Y-88.503
X170.8Y-82.4
X173.2Y-82.3
T2
X181.35Y-97.74
X182.62Y-97.74
T3
X172.63Y-97.34
X177.71Y-97.34
X222.9Y-87.8
X227.98Y-87.8
T4
X172.5Y-86.28
X172.5Y-93.9
X175.04Y-86.28
X175.04Y-93.9
X177.58Y-86.28
X177.58Y-93.9
X180.12Y-86.28
X180.12Y-93.9
X182.66Y-86.28
X182.66Y-93.9
X185.2Y-86.28
X185.2Y-93.9
X187.74Y-86.28
X187.74Y-93.9
X190.25Y-97.1
X190.28Y-86.28
X190.28Y-93.9
X192.75Y-97.1
X192.82Y-86.28
X192.82Y-93.9
X195.36Y-86.28
X195.36Y-93.9
X195.4Y-97.1
X197.9Y-86.28
X197.9Y-93.9
X197.9Y-97.1
X200.44Y-86.28
X200.44Y-93.9
X202.98Y-86.28
X202.98Y-93.9
X205.52Y-86.28
X205.52Y-93.9
X210.9Y-89.8
X210.9Y-94.7
T5
X217.075Y-88.97
X219.615Y-88.97
T6
X133.16Y-80.12
X133.16Y-82.66
X133.16Y-85.2
X133.16Y-87.74
X134.9Y-71.6
X134.9Y-97.0
X135.7Y-80.12
X135.7Y-82.66
X135.7Y-85.2
X135.7Y-87.74
X137.4Y-71.6
X137.4Y-97.0
X151.49Y-72.6
X154.03Y-72.6
X156.57Y-72.6
X159.11Y-72.6
X217.88Y-96.52
X220.38Y-96.52
X228.2Y-93.4
X228.2Y-95.9
T7
X173.75Y-74.0
X173.75Y-79.0
X186.25Y-74.0
X186.25Y-79.0
X194.85Y-74.0
X194.85Y-79.0
X207.35Y-74.0
X207.35Y-79.0
X215.95Y-74.0
X215.95Y-79.0
X228.45Y-74.0
X228.45Y-79.0
T8
X144.3Y-73.1
X144.3Y-95.1
X166.3Y-73.1
X166.3Y-95.1
T9
X128.7Y-70.2
X128.7Y-97.3
X233.6Y-70.2
X233.6Y-97.3
M30
