%TF.GenerationSoftware,KiCad,Pcbnew,8.0.6*%
%TF.CreationDate,2025-05-07T12:12:09+05:30*%
%TF.ProjectId,interface_panel,696e7465-7266-4616-9365-5f70616e656c,rev?*%
%TF.SameCoordinates,Original*%
%TF.FileFunction,Profile,NP*%
%FSLAX46Y46*%
G04 Gerber Fmt 4.6, Leading zero omitted, Abs format (unit mm)*
G04 Created by KiCad (PCBNEW 8.0.6) date 2025-05-07 12:12:09*
%MOMM*%
%LPD*%
G01*
G04 APERTURE LIST*
%TA.AperFunction,Profile*%
%ADD10C,0.050000*%
%TD*%
%ADD11C,0.350000*%
G04 APERTURE END LIST*
D10*
X130400000Y-100800000D02*
X222900000Y-100700000D01*
X225800000Y-62500000D02*
X225900000Y-97700000D01*
X127700000Y-62900000D02*
G75*
G02*
X130700000Y-59900000I3000000J0D01*
G01*
X222800000Y-59500000D02*
G75*
G02*
X225800000Y-62500000I0J-3000000D01*
G01*
X130700000Y-59900000D02*
X222800000Y-59500000D01*
X127700000Y-62900000D02*
X127400000Y-97800000D01*
X225900000Y-97700000D02*
G75*
G02*
X222900000Y-100700000I-3000000J0D01*
G01*
X130400000Y-100800000D02*
G75*
G02*
X127400000Y-97800000I0J3000000D01*
G01*
D11*
X157490000Y-64312500D03*
X160030000Y-64312500D03*
X162570000Y-64312500D03*
X165110000Y-64312500D03*
X150300000Y-64812500D03*
X172300000Y-64812500D03*
X172300000Y-86812500D03*
X150300000Y-86812500D03*
X130300000Y-97800000D03*
X202900000Y-85460000D03*
X202900000Y-90540000D03*
X183250000Y-66600000D03*
X183250000Y-71600000D03*
X195750000Y-66600000D03*
X195750000Y-71600000D03*
X222800000Y-97800000D03*
X130600000Y-63000000D03*
X202350000Y-66500000D03*
X202350000Y-71500000D03*
X214850000Y-66500000D03*
X214850000Y-71500000D03*
X203000000Y-79160000D03*
X203000000Y-81700000D03*
X222700000Y-62600000D03*
X183300000Y-83900000D03*
X183300000Y-88900000D03*
X195800000Y-83900000D03*
X195800000Y-88900000D03*
X171000000Y-91040000D03*
X168460000Y-91040000D03*
X165920000Y-91040000D03*
X163380000Y-91040000D03*
X160840000Y-91040000D03*
X158300000Y-91040000D03*
X155760000Y-91040000D03*
X153220000Y-91040000D03*
X150680000Y-91040000D03*
X148140000Y-91040000D03*
X145600000Y-91040000D03*
X143060000Y-91040000D03*
X140520000Y-91040000D03*
X137980000Y-91040000D03*
X135440000Y-91040000D03*
X135440000Y-75800000D03*
X137980000Y-75800000D03*
X140520000Y-75800000D03*
X143060000Y-75800000D03*
X145600000Y-75800000D03*
X148140000Y-75800000D03*
X150680000Y-75800000D03*
X153220000Y-75800000D03*
X155760000Y-75800000D03*
X158300000Y-75800000D03*
X160840000Y-75800000D03*
X163380000Y-75800000D03*
X165920000Y-75800000D03*
X168460000Y-75800000D03*
X171000000Y-75800000D03*
X212140000Y-81720000D03*
X209600000Y-81720000D03*
X212140000Y-84260000D03*
X209600000Y-84260000D03*
X212140000Y-86800000D03*
X209600000Y-86800000D03*
X212140000Y-89340000D03*
X209600000Y-89340000D03*
M02*
