%TF.GenerationSoftware,KiCad,Pcbnew,8.0.6*%
%TF.CreationDate,2025-05-07T12:12:09+05:30*%
%TF.ProjectId,interface_panel,696e7465-7266-4616-9365-5f70616e656c,rev?*%
%TF.SameCoordinates,Original*%
%TF.FileFunction,Legend,Bot*%
%TF.FilePolarity,Positive*%
%FSLAX46Y46*%
G04 Gerber Fmt 4.6, Leading zero omitted, Abs format (unit mm)*
G04 Created by KiCad (PCBNEW 8.0.6) date 2025-05-07 12:12:09*
%MOMM*%
%LPD*%
G01*
G04 APERTURE LIST*
%ADD10C,0.150000*%
%ADD11C,0.120000*%
%ADD12C,0.350000*%
G04 APERTURE END LIST*
D10*
X176249104Y-82705714D02*
X176249104Y-83181904D01*
X176534819Y-82610476D02*
X175534819Y-82943809D01*
X175534819Y-82943809D02*
X176534819Y-83277142D01*
X176534819Y-84134285D02*
X176534819Y-83562857D01*
X176534819Y-83848571D02*
X175534819Y-83848571D01*
X175534819Y-83848571D02*
X175677676Y-83753333D01*
X175677676Y-83753333D02*
X175772914Y-83658095D01*
X175772914Y-83658095D02*
X175820533Y-83562857D01*
X135985180Y-84681904D02*
X135175657Y-84681904D01*
X135175657Y-84681904D02*
X135080419Y-84634285D01*
X135080419Y-84634285D02*
X135032800Y-84586666D01*
X135032800Y-84586666D02*
X134985180Y-84491428D01*
X134985180Y-84491428D02*
X134985180Y-84300952D01*
X134985180Y-84300952D02*
X135032800Y-84205714D01*
X135032800Y-84205714D02*
X135080419Y-84158095D01*
X135080419Y-84158095D02*
X135175657Y-84110476D01*
X135175657Y-84110476D02*
X135985180Y-84110476D01*
X135032800Y-83681904D02*
X134985180Y-83539047D01*
X134985180Y-83539047D02*
X134985180Y-83300952D01*
X134985180Y-83300952D02*
X135032800Y-83205714D01*
X135032800Y-83205714D02*
X135080419Y-83158095D01*
X135080419Y-83158095D02*
X135175657Y-83110476D01*
X135175657Y-83110476D02*
X135270895Y-83110476D01*
X135270895Y-83110476D02*
X135366133Y-83158095D01*
X135366133Y-83158095D02*
X135413752Y-83205714D01*
X135413752Y-83205714D02*
X135461371Y-83300952D01*
X135461371Y-83300952D02*
X135508990Y-83491428D01*
X135508990Y-83491428D02*
X135556609Y-83586666D01*
X135556609Y-83586666D02*
X135604228Y-83634285D01*
X135604228Y-83634285D02*
X135699466Y-83681904D01*
X135699466Y-83681904D02*
X135794704Y-83681904D01*
X135794704Y-83681904D02*
X135889942Y-83634285D01*
X135889942Y-83634285D02*
X135937561Y-83586666D01*
X135937561Y-83586666D02*
X135985180Y-83491428D01*
X135985180Y-83491428D02*
X135985180Y-83253333D01*
X135985180Y-83253333D02*
X135937561Y-83110476D01*
X135508990Y-82348571D02*
X135461371Y-82205714D01*
X135461371Y-82205714D02*
X135413752Y-82158095D01*
X135413752Y-82158095D02*
X135318514Y-82110476D01*
X135318514Y-82110476D02*
X135175657Y-82110476D01*
X135175657Y-82110476D02*
X135080419Y-82158095D01*
X135080419Y-82158095D02*
X135032800Y-82205714D01*
X135032800Y-82205714D02*
X134985180Y-82300952D01*
X134985180Y-82300952D02*
X134985180Y-82681904D01*
X134985180Y-82681904D02*
X135985180Y-82681904D01*
X135985180Y-82681904D02*
X135985180Y-82348571D01*
X135985180Y-82348571D02*
X135937561Y-82253333D01*
X135937561Y-82253333D02*
X135889942Y-82205714D01*
X135889942Y-82205714D02*
X135794704Y-82158095D01*
X135794704Y-82158095D02*
X135699466Y-82158095D01*
X135699466Y-82158095D02*
X135604228Y-82205714D01*
X135604228Y-82205714D02*
X135556609Y-82253333D01*
X135556609Y-82253333D02*
X135508990Y-82348571D01*
X135508990Y-82348571D02*
X135508990Y-82681904D01*
X211203333Y-75074819D02*
X211203333Y-75789104D01*
X211203333Y-75789104D02*
X211250952Y-75931961D01*
X211250952Y-75931961D02*
X211346190Y-76027200D01*
X211346190Y-76027200D02*
X211489047Y-76074819D01*
X211489047Y-76074819D02*
X211584285Y-76074819D01*
X210203333Y-76074819D02*
X210774761Y-76074819D01*
X210489047Y-76074819D02*
X210489047Y-75074819D01*
X210489047Y-75074819D02*
X210584285Y-75217676D01*
X210584285Y-75217676D02*
X210679523Y-75312914D01*
X210679523Y-75312914D02*
X210774761Y-75360533D01*
D11*
%TO.C,A1*%
X128960000Y-79480000D02*
X139380000Y-79480000D01*
X128960000Y-87360000D02*
X128960000Y-79480000D01*
X131500000Y-79480000D02*
X131500000Y-74400000D01*
X131500000Y-87360000D02*
X131500000Y-92440000D01*
X131500000Y-92440000D02*
X169730000Y-92440000D01*
X134170000Y-74400000D02*
X134170000Y-77070000D01*
X134170000Y-77070000D02*
X172270000Y-77070000D01*
X134170000Y-89770000D02*
X169730000Y-89770000D01*
X134170000Y-92440000D02*
X134170000Y-89770000D01*
X139380000Y-79480000D02*
X139380000Y-87360000D01*
X139380000Y-87360000D02*
X128960000Y-87360000D01*
X169730000Y-92440000D02*
X169730000Y-89770000D01*
X172270000Y-74400000D02*
X172270000Y-77070000D01*
X172270000Y-89770000D02*
X169730000Y-89770000D01*
X172270000Y-92440000D02*
X172270000Y-89770000D01*
X172270000Y-92440000D02*
X174940000Y-92440000D01*
X174940000Y-74400000D02*
X131500000Y-74400000D01*
X174940000Y-92440000D02*
X174940000Y-74400000D01*
%TO.C,J1*%
X206310000Y-76510000D02*
X215430000Y-76510000D01*
X206310000Y-94550000D02*
X206310000Y-76510000D01*
X207620000Y-77810000D02*
X214120000Y-77810000D01*
X207620000Y-93250000D02*
X207620000Y-77810000D01*
X214120000Y-77810000D02*
X214120000Y-83480000D01*
X214120000Y-83480000D02*
X215430000Y-83480000D01*
X214120000Y-87580000D02*
X214120000Y-87580000D01*
X214120000Y-87580000D02*
X214120000Y-93250000D01*
X214120000Y-93250000D02*
X207620000Y-93250000D01*
X215430000Y-76510000D02*
X215430000Y-94550000D01*
X215430000Y-87580000D02*
X214120000Y-87580000D01*
X215430000Y-94550000D02*
X206310000Y-94550000D01*
X215820000Y-81720000D02*
X216820000Y-82220000D01*
X216820000Y-81220000D02*
X215820000Y-81720000D01*
X216820000Y-82220000D02*
X216820000Y-81220000D01*
%TD*%
D12*
X157490000Y-64312500D03*
X160030000Y-64312500D03*
X162570000Y-64312500D03*
X165110000Y-64312500D03*
X150300000Y-64812500D03*
X172300000Y-64812500D03*
X172300000Y-86812500D03*
X150300000Y-86812500D03*
X130300000Y-97800000D03*
X202900000Y-85460000D03*
X202900000Y-90540000D03*
X183250000Y-66600000D03*
X183250000Y-71600000D03*
X195750000Y-66600000D03*
X195750000Y-71600000D03*
X222800000Y-97800000D03*
X130600000Y-63000000D03*
X202350000Y-66500000D03*
X202350000Y-71500000D03*
X214850000Y-66500000D03*
X214850000Y-71500000D03*
X203000000Y-79160000D03*
X203000000Y-81700000D03*
X222700000Y-62600000D03*
X183300000Y-83900000D03*
X183300000Y-88900000D03*
X195800000Y-83900000D03*
X195800000Y-88900000D03*
X171000000Y-91040000D03*
X168460000Y-91040000D03*
X165920000Y-91040000D03*
X163380000Y-91040000D03*
X160840000Y-91040000D03*
X158300000Y-91040000D03*
X155760000Y-91040000D03*
X153220000Y-91040000D03*
X150680000Y-91040000D03*
X148140000Y-91040000D03*
X145600000Y-91040000D03*
X143060000Y-91040000D03*
X140520000Y-91040000D03*
X137980000Y-91040000D03*
X135440000Y-91040000D03*
X135440000Y-75800000D03*
X137980000Y-75800000D03*
X140520000Y-75800000D03*
X143060000Y-75800000D03*
X145600000Y-75800000D03*
X148140000Y-75800000D03*
X150680000Y-75800000D03*
X153220000Y-75800000D03*
X155760000Y-75800000D03*
X158300000Y-75800000D03*
X160840000Y-75800000D03*
X163380000Y-75800000D03*
X165920000Y-75800000D03*
X168460000Y-75800000D03*
X171000000Y-75800000D03*
X212140000Y-81720000D03*
X209600000Y-81720000D03*
X212140000Y-84260000D03*
X209600000Y-84260000D03*
X212140000Y-86800000D03*
X209600000Y-86800000D03*
X212140000Y-89340000D03*
X209600000Y-89340000D03*
M02*
