M48
METRIC,TZ
T1C0.300
T2C0.700
T3C0.900
T4C1.000
T5C1.300
T6C2.000
T7C2.200
%
G90
G05
T1
X178200Y-91900
T2
X202900Y-85460
X202900Y-90540
T3
X203000Y-79160
X203000Y-81700
T4
X135440Y-75800
X135440Y-91040
X137980Y-75800
X137980Y-91040
X140520Y-75800
X140520Y-91040
X143060Y-75800
X143060Y-91040
X145600Y-75800
X145600Y-91040
X148140Y-75800
X148140Y-91040
X150680Y-75800
X150680Y-91040
X153220Y-75800
X153220Y-91040
X155760Y-75800
X155760Y-91040
X157490Y-64313
X158300Y-75800
X158300Y-91040
X160030Y-64313
X160840Y-75800
X160840Y-91040
X162570Y-64313
X163380Y-75800
X163380Y-91040
X165110Y-64313
X165920Y-75800
X165920Y-91040
X168460Y-75800
X168460Y-91040
X171000Y-75800
X171000Y-91040
X209600Y-81720
X209600Y-84260
X209600Y-86800
X209600Y-89340
X212140Y-81720
X212140Y-84260
X212140Y-86800
X212140Y-89340
T5
X183250Y-66600
X183250Y-71600
X183300Y-83900
X183300Y-88900
X195750Y-66600
X195750Y-71600
X195800Y-83900
X195800Y-88900
X202350Y-66500
X202350Y-71500
X214850Y-66500
X214850Y-71500
T6
X150300Y-64813
X150300Y-86813
X172300Y-64813
X172300Y-86813
T7
X130300Y-97800
X130600Y-63000
X222700Y-62600
X222800Y-97800
M30
