%TF.GenerationSoftware,KiCad,Pcbnew,8.0.6*%
%TF.CreationDate,2025-04-21T14:31:15+05:30*%
%TF.ProjectId,interface_panel,696e7465-7266-4616-9365-5f70616e656c,rev?*%
%TF.SameCoordinates,Original*%
%TF.FileFunction,Legend,Bot*%
%TF.FilePolarity,Positive*%
%FSLAX46Y46*%
G04 Gerber Fmt 4.6, Leading zero omitted, Abs format (unit mm)*
G04 Created by KiCad (PCBNEW 8.0.6) date 2025-04-21 14:31:15*
%MOMM*%
%LPD*%
G01*
G04 APERTURE LIST*
%ADD10C,0.250000*%
%ADD11C,0.150000*%
%ADD12C,0.120000*%
G04 APERTURE END LIST*
D10*
X146747431Y-65664619D02*
X146747431Y-64664619D01*
X146271241Y-65664619D02*
X146271241Y-64664619D01*
X146271241Y-64664619D02*
X145699813Y-65664619D01*
X145699813Y-65664619D02*
X145699813Y-64664619D01*
X145223622Y-65664619D02*
X145223622Y-64664619D01*
X145223622Y-64664619D02*
X144652194Y-65664619D01*
X144652194Y-65664619D02*
X144652194Y-64664619D01*
X143985527Y-64664619D02*
X143795051Y-64664619D01*
X143795051Y-64664619D02*
X143699813Y-64712238D01*
X143699813Y-64712238D02*
X143604575Y-64807476D01*
X143604575Y-64807476D02*
X143556956Y-64997952D01*
X143556956Y-64997952D02*
X143556956Y-65331285D01*
X143556956Y-65331285D02*
X143604575Y-65521761D01*
X143604575Y-65521761D02*
X143699813Y-65617000D01*
X143699813Y-65617000D02*
X143795051Y-65664619D01*
X143795051Y-65664619D02*
X143985527Y-65664619D01*
X143985527Y-65664619D02*
X144080765Y-65617000D01*
X144080765Y-65617000D02*
X144176003Y-65521761D01*
X144176003Y-65521761D02*
X144223622Y-65331285D01*
X144223622Y-65331285D02*
X144223622Y-64997952D01*
X144223622Y-64997952D02*
X144176003Y-64807476D01*
X144176003Y-64807476D02*
X144080765Y-64712238D01*
X144080765Y-64712238D02*
X143985527Y-64664619D01*
X143271241Y-64664619D02*
X142937908Y-65664619D01*
X142937908Y-65664619D02*
X142604575Y-64664619D01*
X142318860Y-65378904D02*
X141842670Y-65378904D01*
X142414098Y-65664619D02*
X142080765Y-64664619D01*
X142080765Y-64664619D02*
X141747432Y-65664619D01*
X141556955Y-64664619D02*
X140985527Y-64664619D01*
X141271241Y-65664619D02*
X141271241Y-64664619D01*
X140652193Y-65664619D02*
X140652193Y-64664619D01*
X139985527Y-64664619D02*
X139795051Y-64664619D01*
X139795051Y-64664619D02*
X139699813Y-64712238D01*
X139699813Y-64712238D02*
X139604575Y-64807476D01*
X139604575Y-64807476D02*
X139556956Y-64997952D01*
X139556956Y-64997952D02*
X139556956Y-65331285D01*
X139556956Y-65331285D02*
X139604575Y-65521761D01*
X139604575Y-65521761D02*
X139699813Y-65617000D01*
X139699813Y-65617000D02*
X139795051Y-65664619D01*
X139795051Y-65664619D02*
X139985527Y-65664619D01*
X139985527Y-65664619D02*
X140080765Y-65617000D01*
X140080765Y-65617000D02*
X140176003Y-65521761D01*
X140176003Y-65521761D02*
X140223622Y-65331285D01*
X140223622Y-65331285D02*
X140223622Y-64997952D01*
X140223622Y-64997952D02*
X140176003Y-64807476D01*
X140176003Y-64807476D02*
X140080765Y-64712238D01*
X140080765Y-64712238D02*
X139985527Y-64664619D01*
X139128384Y-65664619D02*
X139128384Y-64664619D01*
X139128384Y-64664619D02*
X138556956Y-65664619D01*
X138556956Y-65664619D02*
X138556956Y-64664619D01*
X138128384Y-65617000D02*
X137985527Y-65664619D01*
X137985527Y-65664619D02*
X137747432Y-65664619D01*
X137747432Y-65664619D02*
X137652194Y-65617000D01*
X137652194Y-65617000D02*
X137604575Y-65569380D01*
X137604575Y-65569380D02*
X137556956Y-65474142D01*
X137556956Y-65474142D02*
X137556956Y-65378904D01*
X137556956Y-65378904D02*
X137604575Y-65283666D01*
X137604575Y-65283666D02*
X137652194Y-65236047D01*
X137652194Y-65236047D02*
X137747432Y-65188428D01*
X137747432Y-65188428D02*
X137937908Y-65140809D01*
X137937908Y-65140809D02*
X138033146Y-65093190D01*
X138033146Y-65093190D02*
X138080765Y-65045571D01*
X138080765Y-65045571D02*
X138128384Y-64950333D01*
X138128384Y-64950333D02*
X138128384Y-64855095D01*
X138128384Y-64855095D02*
X138080765Y-64759857D01*
X138080765Y-64759857D02*
X138033146Y-64712238D01*
X138033146Y-64712238D02*
X137937908Y-64664619D01*
X137937908Y-64664619D02*
X137699813Y-64664619D01*
X137699813Y-64664619D02*
X137556956Y-64712238D01*
X146326003Y-63519380D02*
X146373622Y-63567000D01*
X146373622Y-63567000D02*
X146516479Y-63614619D01*
X146516479Y-63614619D02*
X146611717Y-63614619D01*
X146611717Y-63614619D02*
X146754574Y-63567000D01*
X146754574Y-63567000D02*
X146849812Y-63471761D01*
X146849812Y-63471761D02*
X146897431Y-63376523D01*
X146897431Y-63376523D02*
X146945050Y-63186047D01*
X146945050Y-63186047D02*
X146945050Y-63043190D01*
X146945050Y-63043190D02*
X146897431Y-62852714D01*
X146897431Y-62852714D02*
X146849812Y-62757476D01*
X146849812Y-62757476D02*
X146754574Y-62662238D01*
X146754574Y-62662238D02*
X146611717Y-62614619D01*
X146611717Y-62614619D02*
X146516479Y-62614619D01*
X146516479Y-62614619D02*
X146373622Y-62662238D01*
X146373622Y-62662238D02*
X146326003Y-62709857D01*
X145706955Y-62614619D02*
X145516479Y-62614619D01*
X145516479Y-62614619D02*
X145421241Y-62662238D01*
X145421241Y-62662238D02*
X145326003Y-62757476D01*
X145326003Y-62757476D02*
X145278384Y-62947952D01*
X145278384Y-62947952D02*
X145278384Y-63281285D01*
X145278384Y-63281285D02*
X145326003Y-63471761D01*
X145326003Y-63471761D02*
X145421241Y-63567000D01*
X145421241Y-63567000D02*
X145516479Y-63614619D01*
X145516479Y-63614619D02*
X145706955Y-63614619D01*
X145706955Y-63614619D02*
X145802193Y-63567000D01*
X145802193Y-63567000D02*
X145897431Y-63471761D01*
X145897431Y-63471761D02*
X145945050Y-63281285D01*
X145945050Y-63281285D02*
X145945050Y-62947952D01*
X145945050Y-62947952D02*
X145897431Y-62757476D01*
X145897431Y-62757476D02*
X145802193Y-62662238D01*
X145802193Y-62662238D02*
X145706955Y-62614619D01*
X144659336Y-62614619D02*
X144468860Y-62614619D01*
X144468860Y-62614619D02*
X144373622Y-62662238D01*
X144373622Y-62662238D02*
X144278384Y-62757476D01*
X144278384Y-62757476D02*
X144230765Y-62947952D01*
X144230765Y-62947952D02*
X144230765Y-63281285D01*
X144230765Y-63281285D02*
X144278384Y-63471761D01*
X144278384Y-63471761D02*
X144373622Y-63567000D01*
X144373622Y-63567000D02*
X144468860Y-63614619D01*
X144468860Y-63614619D02*
X144659336Y-63614619D01*
X144659336Y-63614619D02*
X144754574Y-63567000D01*
X144754574Y-63567000D02*
X144849812Y-63471761D01*
X144849812Y-63471761D02*
X144897431Y-63281285D01*
X144897431Y-63281285D02*
X144897431Y-62947952D01*
X144897431Y-62947952D02*
X144849812Y-62757476D01*
X144849812Y-62757476D02*
X144754574Y-62662238D01*
X144754574Y-62662238D02*
X144659336Y-62614619D01*
X143326003Y-63614619D02*
X143802193Y-63614619D01*
X143802193Y-63614619D02*
X143802193Y-62614619D01*
X142992669Y-63614619D02*
X142992669Y-62614619D01*
X142992669Y-62614619D02*
X142659336Y-63328904D01*
X142659336Y-63328904D02*
X142326003Y-62614619D01*
X142326003Y-62614619D02*
X142326003Y-63614619D01*
X141897431Y-63328904D02*
X141421241Y-63328904D01*
X141992669Y-63614619D02*
X141659336Y-62614619D01*
X141659336Y-62614619D02*
X141326003Y-63614619D01*
X141087907Y-62614619D02*
X140421241Y-63614619D01*
X140421241Y-62614619D02*
X141087907Y-63614619D01*
D11*
X131574819Y-76996666D02*
X132289104Y-76996666D01*
X132289104Y-76996666D02*
X132431961Y-76949047D01*
X132431961Y-76949047D02*
X132527200Y-76853809D01*
X132527200Y-76853809D02*
X132574819Y-76710952D01*
X132574819Y-76710952D02*
X132574819Y-76615714D01*
X132574819Y-77996666D02*
X132574819Y-77425238D01*
X132574819Y-77710952D02*
X131574819Y-77710952D01*
X131574819Y-77710952D02*
X131717676Y-77615714D01*
X131717676Y-77615714D02*
X131812914Y-77520476D01*
X131812914Y-77520476D02*
X131860533Y-77425238D01*
D12*
%TO.C,J1*%
X133010000Y-72770000D02*
X151050000Y-72770000D01*
X133010000Y-81890000D02*
X133010000Y-72770000D01*
X134310000Y-74080000D02*
X139980000Y-74080000D01*
X134310000Y-80580000D02*
X134310000Y-74080000D01*
X137720000Y-71380000D02*
X138220000Y-72380000D01*
X138220000Y-72380000D02*
X138720000Y-71380000D01*
X138720000Y-71380000D02*
X137720000Y-71380000D01*
X139980000Y-74080000D02*
X139980000Y-72770000D01*
X144080000Y-72770000D02*
X144080000Y-74080000D01*
X144080000Y-74080000D02*
X144080000Y-74080000D01*
X144080000Y-74080000D02*
X149750000Y-74080000D01*
X149750000Y-74080000D02*
X149750000Y-80580000D01*
X149750000Y-80580000D02*
X134310000Y-80580000D01*
X151050000Y-72770000D02*
X151050000Y-81890000D01*
X151050000Y-81890000D02*
X133010000Y-81890000D01*
%TD*%
M02*
