%TF.GenerationSoftware,KiCad,Pcbnew,8.0.6*%
%TF.CreationDate,2025-04-21T14:31:15+05:30*%
%TF.ProjectId,interface_panel,696e7465-7266-4616-9365-5f70616e656c,rev?*%
%TF.SameCoordinates,Original*%
%TF.FileFunction,Legend,Top*%
%TF.FilePolarity,Positive*%
%FSLAX46Y46*%
G04 Gerber Fmt 4.6, Leading zero omitted, Abs format (unit mm)*
G04 Created by KiCad (PCBNEW 8.0.6) date 2025-04-21 14:31:15*
%MOMM*%
%LPD*%
G01*
G04 APERTURE LIST*
%ADD10C,0.150000*%
%ADD11C,0.127000*%
%ADD12C,0.200000*%
%ADD13C,0.120000*%
G04 APERTURE END LIST*
D10*
X129254819Y-65590476D02*
X129207200Y-65685714D01*
X129207200Y-65685714D02*
X129159580Y-65733333D01*
X129159580Y-65733333D02*
X129064342Y-65780952D01*
X129064342Y-65780952D02*
X128778628Y-65780952D01*
X128778628Y-65780952D02*
X128683390Y-65733333D01*
X128683390Y-65733333D02*
X128635771Y-65685714D01*
X128635771Y-65685714D02*
X128588152Y-65590476D01*
X128588152Y-65590476D02*
X128588152Y-65447619D01*
X128588152Y-65447619D02*
X128635771Y-65352381D01*
X128635771Y-65352381D02*
X128683390Y-65304762D01*
X128683390Y-65304762D02*
X128778628Y-65257143D01*
X128778628Y-65257143D02*
X129064342Y-65257143D01*
X129064342Y-65257143D02*
X129159580Y-65304762D01*
X129159580Y-65304762D02*
X129207200Y-65352381D01*
X129207200Y-65352381D02*
X129254819Y-65447619D01*
X129254819Y-65447619D02*
X129254819Y-65590476D01*
X129254819Y-64685714D02*
X129207200Y-64780952D01*
X129207200Y-64780952D02*
X129111961Y-64828571D01*
X129111961Y-64828571D02*
X128254819Y-64828571D01*
X129207200Y-63923809D02*
X129254819Y-64019047D01*
X129254819Y-64019047D02*
X129254819Y-64209523D01*
X129254819Y-64209523D02*
X129207200Y-64304761D01*
X129207200Y-64304761D02*
X129111961Y-64352380D01*
X129111961Y-64352380D02*
X128731009Y-64352380D01*
X128731009Y-64352380D02*
X128635771Y-64304761D01*
X128635771Y-64304761D02*
X128588152Y-64209523D01*
X128588152Y-64209523D02*
X128588152Y-64019047D01*
X128588152Y-64019047D02*
X128635771Y-63923809D01*
X128635771Y-63923809D02*
X128731009Y-63876190D01*
X128731009Y-63876190D02*
X128826247Y-63876190D01*
X128826247Y-63876190D02*
X128921485Y-64352380D01*
X129254819Y-63019047D02*
X128254819Y-63019047D01*
X129207200Y-63019047D02*
X129254819Y-63114285D01*
X129254819Y-63114285D02*
X129254819Y-63304761D01*
X129254819Y-63304761D02*
X129207200Y-63399999D01*
X129207200Y-63399999D02*
X129159580Y-63447618D01*
X129159580Y-63447618D02*
X129064342Y-63495237D01*
X129064342Y-63495237D02*
X128778628Y-63495237D01*
X128778628Y-63495237D02*
X128683390Y-63447618D01*
X128683390Y-63447618D02*
X128635771Y-63399999D01*
X128635771Y-63399999D02*
X128588152Y-63304761D01*
X128588152Y-63304761D02*
X128588152Y-63114285D01*
X128588152Y-63114285D02*
X128635771Y-63019047D01*
X129254819Y-62019047D02*
X129254819Y-62590475D01*
X129254819Y-62304761D02*
X128254819Y-62304761D01*
X128254819Y-62304761D02*
X128397676Y-62399999D01*
X128397676Y-62399999D02*
X128492914Y-62495237D01*
X128492914Y-62495237D02*
X128540533Y-62590475D01*
X124803333Y-90244819D02*
X124470000Y-89768628D01*
X124231905Y-90244819D02*
X124231905Y-89244819D01*
X124231905Y-89244819D02*
X124612857Y-89244819D01*
X124612857Y-89244819D02*
X124708095Y-89292438D01*
X124708095Y-89292438D02*
X124755714Y-89340057D01*
X124755714Y-89340057D02*
X124803333Y-89435295D01*
X124803333Y-89435295D02*
X124803333Y-89578152D01*
X124803333Y-89578152D02*
X124755714Y-89673390D01*
X124755714Y-89673390D02*
X124708095Y-89721009D01*
X124708095Y-89721009D02*
X124612857Y-89768628D01*
X124612857Y-89768628D02*
X124231905Y-89768628D01*
X125755714Y-90244819D02*
X125184286Y-90244819D01*
X125470000Y-90244819D02*
X125470000Y-89244819D01*
X125470000Y-89244819D02*
X125374762Y-89387676D01*
X125374762Y-89387676D02*
X125279524Y-89482914D01*
X125279524Y-89482914D02*
X125184286Y-89530533D01*
X169716548Y-77859819D02*
X169716548Y-76859819D01*
X169716548Y-77336009D02*
X170287976Y-77336009D01*
X170287976Y-77859819D02*
X170287976Y-76859819D01*
X170764167Y-77478866D02*
X171526072Y-77478866D01*
X172526071Y-77859819D02*
X171954643Y-77859819D01*
X172240357Y-77859819D02*
X172240357Y-76859819D01*
X172240357Y-76859819D02*
X172145119Y-77002676D01*
X172145119Y-77002676D02*
X172049881Y-77097914D01*
X172049881Y-77097914D02*
X171954643Y-77145533D01*
X113189819Y-80005118D02*
X113189819Y-79909880D01*
X113189819Y-79909880D02*
X113237438Y-79814642D01*
X113237438Y-79814642D02*
X113285057Y-79767023D01*
X113285057Y-79767023D02*
X113380295Y-79719404D01*
X113380295Y-79719404D02*
X113570771Y-79671785D01*
X113570771Y-79671785D02*
X113808866Y-79671785D01*
X113808866Y-79671785D02*
X113999342Y-79719404D01*
X113999342Y-79719404D02*
X114094580Y-79767023D01*
X114094580Y-79767023D02*
X114142200Y-79814642D01*
X114142200Y-79814642D02*
X114189819Y-79909880D01*
X114189819Y-79909880D02*
X114189819Y-80005118D01*
X114189819Y-80005118D02*
X114142200Y-80100356D01*
X114142200Y-80100356D02*
X114094580Y-80147975D01*
X114094580Y-80147975D02*
X113999342Y-80195594D01*
X113999342Y-80195594D02*
X113808866Y-80243213D01*
X113808866Y-80243213D02*
X113570771Y-80243213D01*
X113570771Y-80243213D02*
X113380295Y-80195594D01*
X113380295Y-80195594D02*
X113285057Y-80147975D01*
X113285057Y-80147975D02*
X113237438Y-80100356D01*
X113237438Y-80100356D02*
X113189819Y-80005118D01*
X113142200Y-78528928D02*
X114427914Y-79386070D01*
X114189819Y-77671785D02*
X114189819Y-78243213D01*
X114189819Y-77957499D02*
X113189819Y-77957499D01*
X113189819Y-77957499D02*
X113332676Y-78052737D01*
X113332676Y-78052737D02*
X113427914Y-78147975D01*
X113427914Y-78147975D02*
X113475533Y-78243213D01*
X117624524Y-84202295D02*
X117624524Y-83402295D01*
X117624524Y-83402295D02*
X117815000Y-83402295D01*
X117815000Y-83402295D02*
X117929286Y-83440390D01*
X117929286Y-83440390D02*
X118005476Y-83516580D01*
X118005476Y-83516580D02*
X118043571Y-83592771D01*
X118043571Y-83592771D02*
X118081667Y-83745152D01*
X118081667Y-83745152D02*
X118081667Y-83859438D01*
X118081667Y-83859438D02*
X118043571Y-84011819D01*
X118043571Y-84011819D02*
X118005476Y-84088009D01*
X118005476Y-84088009D02*
X117929286Y-84164200D01*
X117929286Y-84164200D02*
X117815000Y-84202295D01*
X117815000Y-84202295D02*
X117624524Y-84202295D01*
X118843571Y-84202295D02*
X118386428Y-84202295D01*
X118615000Y-84202295D02*
X118615000Y-83402295D01*
X118615000Y-83402295D02*
X118538809Y-83516580D01*
X118538809Y-83516580D02*
X118462619Y-83592771D01*
X118462619Y-83592771D02*
X118386428Y-83630866D01*
X169806548Y-92289819D02*
X169806548Y-91289819D01*
X169806548Y-91766009D02*
X170377976Y-91766009D01*
X170377976Y-92289819D02*
X170377976Y-91289819D01*
X170854167Y-91908866D02*
X171616072Y-91908866D01*
X172044643Y-91385057D02*
X172092262Y-91337438D01*
X172092262Y-91337438D02*
X172187500Y-91289819D01*
X172187500Y-91289819D02*
X172425595Y-91289819D01*
X172425595Y-91289819D02*
X172520833Y-91337438D01*
X172520833Y-91337438D02*
X172568452Y-91385057D01*
X172568452Y-91385057D02*
X172616071Y-91480295D01*
X172616071Y-91480295D02*
X172616071Y-91575533D01*
X172616071Y-91575533D02*
X172568452Y-91718390D01*
X172568452Y-91718390D02*
X171997024Y-92289819D01*
X171997024Y-92289819D02*
X172616071Y-92289819D01*
D11*
%TO.C,oled1*%
X130050000Y-62150000D02*
X136050000Y-62150000D01*
X130050000Y-88150000D02*
X130050000Y-62150000D01*
X136050000Y-62150000D02*
X136050000Y-64150000D01*
X136050000Y-64150000D02*
X150050000Y-64150000D01*
X150050000Y-62150000D02*
X156050000Y-62150000D01*
X150050000Y-64150000D02*
X150050000Y-62150000D01*
X156050000Y-62150000D02*
X156050000Y-88150000D01*
X156050000Y-88150000D02*
X130050000Y-88150000D01*
D12*
X147150000Y-88650000D02*
G75*
G02*
X146950000Y-88650000I-100000J0D01*
G01*
X146950000Y-88650000D02*
G75*
G02*
X147150000Y-88650000I100000J0D01*
G01*
D13*
%TO.C,R1*%
X126050000Y-88960000D02*
X126050000Y-85120000D01*
X127890000Y-88960000D02*
X127890000Y-85120000D01*
D11*
%TO.C,H-1*%
X160797500Y-63520000D02*
X160797500Y-65725000D01*
X160797500Y-63520000D02*
X172797500Y-63520000D01*
X160797500Y-70725000D02*
X160797500Y-68315000D01*
X160797500Y-75520000D02*
X160797500Y-73315000D01*
X172797500Y-63520000D02*
X172797500Y-65725000D01*
X172797500Y-70725000D02*
X172797500Y-68315000D01*
X172797500Y-73315000D02*
X172797500Y-75520000D01*
X172797500Y-75520000D02*
X160797500Y-75520000D01*
D12*
X175122500Y-72020000D02*
G75*
G02*
X174922500Y-72020000I-100000J0D01*
G01*
X174922500Y-72020000D02*
G75*
G02*
X175122500Y-72020000I100000J0D01*
G01*
D11*
%TO.C,0/1*%
X115620000Y-68657500D02*
X117825000Y-68657500D01*
X115620000Y-80657500D02*
X115620000Y-68657500D01*
X117825000Y-80657500D02*
X115620000Y-80657500D01*
X120415000Y-68657500D02*
X122825000Y-68657500D01*
X120415000Y-80657500D02*
X122825000Y-80657500D01*
X127620000Y-68657500D02*
X125415000Y-68657500D01*
X127620000Y-68657500D02*
X127620000Y-80657500D01*
X127620000Y-80657500D02*
X125415000Y-80657500D01*
D12*
X119220000Y-82882500D02*
G75*
G02*
X119020000Y-82882500I-100000J0D01*
G01*
X119020000Y-82882500D02*
G75*
G02*
X119220000Y-82882500I100000J0D01*
G01*
D13*
%TO.C,D1*%
X120035000Y-84304000D02*
X120035000Y-84460000D01*
X120035000Y-86620000D02*
X120035000Y-86776000D01*
X120035000Y-84304484D02*
G75*
G02*
X123267335Y-84461392I1560000J-1235516D01*
G01*
X120554039Y-84460000D02*
G75*
G02*
X122636130Y-84460163I1040961J-1080000D01*
G01*
X122636130Y-86619837D02*
G75*
G02*
X120554039Y-86620000I-1041130J1079837D01*
G01*
X123267335Y-86618608D02*
G75*
G02*
X120035000Y-86775516I-1672335J1078608D01*
G01*
D11*
%TO.C,H-2*%
X160887500Y-77950000D02*
X160887500Y-80155000D01*
X160887500Y-77950000D02*
X172887500Y-77950000D01*
X160887500Y-85155000D02*
X160887500Y-82745000D01*
X160887500Y-89950000D02*
X160887500Y-87745000D01*
X172887500Y-77950000D02*
X172887500Y-80155000D01*
X172887500Y-85155000D02*
X172887500Y-82745000D01*
X172887500Y-87745000D02*
X172887500Y-89950000D01*
X172887500Y-89950000D02*
X160887500Y-89950000D01*
D12*
X175212500Y-86450000D02*
G75*
G02*
X175012500Y-86450000I-100000J0D01*
G01*
X175012500Y-86450000D02*
G75*
G02*
X175212500Y-86450000I100000J0D01*
G01*
%TD*%
M02*
