M48
METRIC,TZ
T1C0.700
T2C0.900
T3C1.000
T4C1.100
T5C2.000
T6C2.200
%
G90
G05
T1
X127550Y-79960
X127550Y-85040
T2
X121910Y-81150
X124450Y-81150
T3
X138220Y-76060
X138220Y-78600
X139240Y-86650
X140760Y-76060
X140760Y-78600
X141780Y-86650
X143300Y-76060
X143300Y-78600
X144320Y-86650
X145840Y-76060
X145840Y-78600
X146860Y-86650
T4
X122350Y-69200
X122350Y-75700
X126850Y-69200
X126850Y-75700
X159100Y-68450
X159100Y-72950
X159150Y-77550
X159150Y-82050
X165600Y-68450
X165600Y-72950
X165650Y-77550
X165650Y-82050
T5
X132050Y-64150
X132050Y-86150
X154050Y-64150
X154050Y-86150
T6
X121700Y-63550
X121700Y-86700
X166000Y-63650
X166000Y-86800
M30
