%TF.GenerationSoftware,KiCad,Pcbnew,8.0.6*%
%TF.CreationDate,2024-11-28T11:42:55+05:30*%
%TF.ProjectId,interface_panel,696e7465-7266-4616-9365-5f70616e656c,rev?*%
%TF.SameCoordinates,Original*%
%TF.FileFunction,Profile,NP*%
%FSLAX46Y46*%
G04 Gerber Fmt 4.6, Leading zero omitted, Abs format (unit mm)*
G04 Created by KiCad (PCBNEW 8.0.6) date 2024-11-28 11:42:55*
%MOMM*%
%LPD*%
G01*
G04 APERTURE LIST*
%TA.AperFunction,Profile*%
%ADD10C,0.050000*%
%TD*%
%ADD11C,0.350000*%
G04 APERTURE END LIST*
D10*
X123471254Y-89888384D02*
X164378746Y-90067130D01*
X123421254Y-60282870D02*
X164278746Y-60382870D01*
X118582870Y-65121254D02*
X118632870Y-85050000D01*
X169117130Y-65221254D02*
X169217130Y-85228746D01*
X164278746Y-60382870D02*
G75*
G02*
X169117130Y-65221254I-46J-4838430D01*
G01*
X118582870Y-65121254D02*
G75*
G02*
X123421254Y-60282870I4838380J4D01*
G01*
X123471254Y-89888384D02*
G75*
G02*
X118632916Y-85050000I46J4838384D01*
G01*
X169217130Y-85228746D02*
G75*
G02*
X164378746Y-90067130I-4838380J-4D01*
G01*
D11*
X146860000Y-86650000D03*
X144320000Y-86650000D03*
X141780000Y-86650000D03*
X139240000Y-86650000D03*
X154050000Y-86150000D03*
X132050000Y-86150000D03*
X132050000Y-64150000D03*
X154050000Y-64150000D03*
X166000000Y-63650000D03*
X127550000Y-85040000D03*
X127550000Y-79960000D03*
X165600000Y-72950000D03*
X159100000Y-72950000D03*
X165600000Y-68450000D03*
X159100000Y-68450000D03*
X121700000Y-63550000D03*
X166000000Y-86800000D03*
X126850000Y-69200000D03*
X126850000Y-75700000D03*
X122350000Y-69200000D03*
X122350000Y-75700000D03*
X121910000Y-81150000D03*
X124450000Y-81150000D03*
X121700000Y-86700000D03*
X165650000Y-82050000D03*
X159150000Y-82050000D03*
X165650000Y-77550000D03*
X159150000Y-77550000D03*
X145840000Y-78600000D03*
X145840000Y-76060000D03*
X143300000Y-78600000D03*
X143300000Y-76060000D03*
X140760000Y-78600000D03*
X140760000Y-76060000D03*
X138220000Y-78600000D03*
X138220000Y-76060000D03*
M02*
