%TF.GenerationSoftware,KiCad,Pcbnew,8.0.6*%
%TF.CreationDate,2025-07-15T15:38:20+05:30*%
%TF.ProjectId,_autosave-interface_panel,5f617574-6f73-4617-9665-2d696e746572,rev?*%
%TF.SameCoordinates,Original*%
%TF.FileFunction,Copper,L1,Top*%
%TF.FilePolarity,Positive*%
%FSLAX46Y46*%
G04 Gerber Fmt 4.6, Leading zero omitted, Abs format (unit mm)*
G04 Created by KiCad (PCBNEW 8.0.6) date 2025-07-15 15:38:20*
%MOMM*%
%LPD*%
G01*
G04 APERTURE LIST*
G04 Aperture macros list*
%AMRoundRect*
0 Rectangle with rounded corners*
0 $1 Rounding radius*
0 $2 $3 $4 $5 $6 $7 $8 $9 X,Y pos of 4 corners*
0 Add a 4 corners polygon primitive as box body*
4,1,4,$2,$3,$4,$5,$6,$7,$8,$9,$2,$3,0*
0 Add four circle primitives for the rounded corners*
1,1,$1+$1,$2,$3*
1,1,$1+$1,$4,$5*
1,1,$1+$1,$6,$7*
1,1,$1+$1,$8,$9*
0 Add four rect primitives between the rounded corners*
20,1,$1+$1,$2,$3,$4,$5,0*
20,1,$1+$1,$4,$5,$6,$7,0*
20,1,$1+$1,$6,$7,$8,$9,0*
20,1,$1+$1,$8,$9,$2,$3,0*%
G04 Aperture macros list end*
%TA.AperFunction,ComponentPad*%
%ADD10R,1.000000X1.000000*%
%TD*%
%TA.AperFunction,ComponentPad*%
%ADD11O,1.000000X1.000000*%
%TD*%
%TA.AperFunction,ComponentPad*%
%ADD12C,1.400000*%
%TD*%
%TA.AperFunction,ComponentPad*%
%ADD13O,1.400000X1.400000*%
%TD*%
%TA.AperFunction,ComponentPad*%
%ADD14C,1.500000*%
%TD*%
%TA.AperFunction,ComponentPad*%
%ADD15R,1.508000X1.508000*%
%TD*%
%TA.AperFunction,ComponentPad*%
%ADD16C,1.508000*%
%TD*%
%TA.AperFunction,ComponentPad*%
%ADD17C,3.000000*%
%TD*%
%TA.AperFunction,ComponentPad*%
%ADD18R,1.600000X1.600000*%
%TD*%
%TA.AperFunction,ComponentPad*%
%ADD19O,1.600000X1.600000*%
%TD*%
%TA.AperFunction,ComponentPad*%
%ADD20C,1.600000*%
%TD*%
%TA.AperFunction,ComponentPad*%
%ADD21R,1.950000X1.950000*%
%TD*%
%TA.AperFunction,ComponentPad*%
%ADD22C,1.950000*%
%TD*%
%TA.AperFunction,ComponentPad*%
%ADD23R,1.800000X1.800000*%
%TD*%
%TA.AperFunction,ComponentPad*%
%ADD24C,1.800000*%
%TD*%
%TA.AperFunction,ComponentPad*%
%ADD25RoundRect,0.250000X0.600000X0.750000X-0.600000X0.750000X-0.600000X-0.750000X0.600000X-0.750000X0*%
%TD*%
%TA.AperFunction,ComponentPad*%
%ADD26O,1.700000X2.000000*%
%TD*%
%TA.AperFunction,ComponentPad*%
%ADD27RoundRect,0.250000X0.750000X-0.600000X0.750000X0.600000X-0.750000X0.600000X-0.750000X-0.600000X0*%
%TD*%
%TA.AperFunction,ComponentPad*%
%ADD28O,2.000000X1.700000*%
%TD*%
%TA.AperFunction,ComponentPad*%
%ADD29RoundRect,0.250000X0.600000X0.600000X-0.600000X0.600000X-0.600000X-0.600000X0.600000X-0.600000X0*%
%TD*%
%TA.AperFunction,ComponentPad*%
%ADD30C,1.700000*%
%TD*%
%TA.AperFunction,ViaPad*%
%ADD31C,0.600000*%
%TD*%
%TA.AperFunction,Conductor*%
%ADD32C,0.200000*%
%TD*%
%ADD33C,0.300000*%
%ADD34C,0.350000*%
G04 APERTURE END LIST*
D10*
%TO.P,J6,1,Pin_1*%
%TO.N,Net-(J6-Pin_1)*%
X181350000Y-97740000D03*
D11*
%TO.P,J6,2,Pin_2*%
%TO.N,GND*%
X182620000Y-97740000D03*
%TD*%
D12*
%TO.P,R2,1*%
%TO.N,5V*%
X172630000Y-97340000D03*
D13*
%TO.P,R2,2*%
%TO.N,Net-(J6-Pin_1)*%
X177710000Y-97340000D03*
%TD*%
D14*
%TO.P,Y1,1,1*%
%TO.N,Net-(U2-XTAL2{slash}PB7)*%
X210900000Y-94700000D03*
%TO.P,Y1,2,2*%
%TO.N,Net-(U2-XTAL1{slash}PB6)*%
X210900000Y-89800000D03*
%TD*%
D15*
%TO.P,oled1,1,GND*%
%TO.N,GND*%
X151490000Y-72600000D03*
D16*
%TO.P,oled1,2,VCC*%
%TO.N,5V*%
X154030000Y-72600000D03*
%TO.P,oled1,3,SCL*%
%TO.N,SCL*%
X156570000Y-72600000D03*
%TO.P,oled1,4,SDA*%
%TO.N,SDA*%
X159110000Y-72600000D03*
D17*
%TO.P,oled1,S1*%
%TO.N,N/C*%
X144300000Y-73100000D03*
%TO.P,oled1,S2*%
X166300000Y-73100000D03*
%TO.P,oled1,S3*%
X166300000Y-95100000D03*
%TO.P,oled1,S4*%
X144300000Y-95100000D03*
%TD*%
D18*
%TO.P,U2,1,~{RESET}/PC6*%
%TO.N,Net-(J6-Pin_1)*%
X172500000Y-93900000D03*
D19*
%TO.P,U2,2,PD0*%
%TO.N,RX*%
X175040000Y-93900000D03*
%TO.P,U2,3,PD1*%
%TO.N,TX*%
X177580000Y-93900000D03*
%TO.P,U2,4,PD2*%
%TO.N,unconnected-(U2-PD2-Pad4)*%
X180120000Y-93900000D03*
%TO.P,U2,5,PD3*%
%TO.N,unconnected-(U2-PD3-Pad5)*%
X182660000Y-93900000D03*
%TO.P,U2,6,PD4*%
%TO.N,S. LED*%
X185200000Y-93900000D03*
%TO.P,U2,7,VCC*%
%TO.N,5V*%
X187740000Y-93900000D03*
%TO.P,U2,8,GND*%
%TO.N,GND*%
X190280000Y-93900000D03*
%TO.P,U2,9,XTAL1/PB6*%
%TO.N,Net-(U2-XTAL1{slash}PB6)*%
X192820000Y-93900000D03*
%TO.P,U2,10,XTAL2/PB7*%
%TO.N,Net-(U2-XTAL2{slash}PB7)*%
X195360000Y-93900000D03*
%TO.P,U2,11,PD5*%
%TO.N,unconnected-(U2-PD5-Pad11)*%
X197900000Y-93900000D03*
%TO.P,U2,12,PD6*%
%TO.N,unconnected-(U2-PD6-Pad12)*%
X200440000Y-93900000D03*
%TO.P,U2,13,PD7*%
%TO.N,D7*%
X202980000Y-93900000D03*
%TO.P,U2,14,PB0*%
%TO.N,unconnected-(U2-PB0-Pad14)*%
X205520000Y-93900000D03*
%TO.P,U2,15,PB1*%
%TO.N,unconnected-(U2-PB1-Pad15)*%
X205520000Y-86280000D03*
%TO.P,U2,16,PB2*%
%TO.N,unconnected-(U2-PB2-Pad16)*%
X202980000Y-86280000D03*
%TO.P,U2,17,PB3*%
%TO.N,D11*%
X200440000Y-86280000D03*
%TO.P,U2,18,PB4*%
%TO.N,unconnected-(U2-PB4-Pad18)*%
X197900000Y-86280000D03*
%TO.P,U2,19,PB5*%
%TO.N,unconnected-(U2-PB5-Pad19)*%
X195360000Y-86280000D03*
%TO.P,U2,20,AVCC*%
%TO.N,5V*%
X192820000Y-86280000D03*
%TO.P,U2,21,AREF*%
%TO.N,unconnected-(U2-AREF-Pad21)*%
X190280000Y-86280000D03*
%TO.P,U2,22,GND*%
%TO.N,GND*%
X187740000Y-86280000D03*
%TO.P,U2,23,PC0*%
%TO.N,unconnected-(U2-PC0-Pad23)*%
X185200000Y-86280000D03*
%TO.P,U2,24,PC1*%
%TO.N,unconnected-(U2-PC1-Pad24)*%
X182660000Y-86280000D03*
%TO.P,U2,25,PC2*%
%TO.N,unconnected-(U2-PC2-Pad25)*%
X180120000Y-86280000D03*
%TO.P,U2,26,PC3*%
%TO.N,unconnected-(U2-PC3-Pad26)*%
X177580000Y-86280000D03*
%TO.P,U2,27,PC4*%
%TO.N,SDA*%
X175040000Y-86280000D03*
%TO.P,U2,28,PC5*%
%TO.N,SCL*%
X172500000Y-86280000D03*
%TD*%
D12*
%TO.P,R1,1*%
%TO.N,Net-(D1-A)*%
X222900000Y-87800000D03*
D13*
%TO.P,R1,2*%
%TO.N,S. LED*%
X227980000Y-87800000D03*
%TD*%
D20*
%TO.P,C1,1*%
%TO.N,Net-(U2-XTAL1{slash}PB6)*%
X192750000Y-97100000D03*
%TO.P,C1,2*%
%TO.N,GND*%
X190250000Y-97100000D03*
%TD*%
D21*
%TO.P,H-1,1,1*%
%TO.N,GND*%
X173750000Y-74000000D03*
D22*
%TO.P,H-1,2,2*%
%TO.N,BT-1*%
X173750000Y-79000000D03*
%TO.P,H-1,3*%
%TO.N,N/C*%
X186250000Y-74000000D03*
%TO.P,H-1,4*%
X186250000Y-79000000D03*
%TD*%
D21*
%TO.P,0/1,1,1*%
%TO.N,GND*%
X194850000Y-74000000D03*
D22*
%TO.P,0/1,2,2*%
%TO.N,BT-Pwr*%
X194850000Y-79000000D03*
%TO.P,0/1,3*%
%TO.N,N/C*%
X207350000Y-74000000D03*
%TO.P,0/1,4*%
X207350000Y-79000000D03*
%TD*%
D23*
%TO.P,D1,1,K*%
%TO.N,GND*%
X217075000Y-88970000D03*
D24*
%TO.P,D1,2,A*%
%TO.N,Net-(D1-A)*%
X219615000Y-88970000D03*
%TD*%
D20*
%TO.P,C2,1*%
%TO.N,Net-(U2-XTAL2{slash}PB7)*%
X197900000Y-97100000D03*
%TO.P,C2,2*%
%TO.N,GND*%
X195400000Y-97100000D03*
%TD*%
D21*
%TO.P,H-2,1,1*%
%TO.N,GND*%
X215950000Y-74000000D03*
D22*
%TO.P,H-2,2,2*%
%TO.N,BT-2*%
X215950000Y-79000000D03*
%TO.P,H-2,3*%
%TO.N,N/C*%
X228450000Y-74000000D03*
%TO.P,H-2,4*%
X228450000Y-79000000D03*
%TD*%
D25*
%TO.P,J4,1,Pin_1*%
%TO.N,GND*%
X220380000Y-96520000D03*
D26*
%TO.P,J4,2,Pin_2*%
%TO.N,BT-Pwr*%
X217880000Y-96520000D03*
%TD*%
D27*
%TO.P,J5,1,Pin_1*%
%TO.N,GND*%
X228200000Y-95900000D03*
D28*
%TO.P,J5,2,Pin_2*%
%TO.N,S. LED*%
X228200000Y-93400000D03*
%TD*%
D25*
%TO.P,J2,1,Pin_1*%
%TO.N,GND*%
X149360000Y-79340000D03*
D26*
%TO.P,J2,2,Pin_2*%
%TO.N,BT-1*%
X146860000Y-79340000D03*
%TD*%
D25*
%TO.P,J3,1,Pin_1*%
%TO.N,GND*%
X149310000Y-86450000D03*
D26*
%TO.P,J3,2,Pin_2*%
%TO.N,BT-2*%
X146810000Y-86450000D03*
%TD*%
D29*
%TO.P,J7,1,Pin_1*%
%TO.N,5V*%
X136460000Y-78710000D03*
D30*
%TO.P,J7,2,Pin_2*%
%TO.N,GND*%
X133920000Y-78710000D03*
%TO.P,J7,3,Pin_3*%
%TO.N,BT-Pwr*%
X136460000Y-81250000D03*
%TO.P,J7,4,Pin_4*%
%TO.N,S. LED*%
X133920000Y-81250000D03*
%TO.P,J7,5,Pin_5*%
%TO.N,BT-1*%
X136460000Y-83790000D03*
%TO.P,J7,6,Pin_6*%
%TO.N,RX*%
X133920000Y-83790000D03*
%TO.P,J7,7,Pin_7*%
%TO.N,BT-2*%
X136460000Y-86330000D03*
%TO.P,J7,8,Pin_8*%
%TO.N,TX*%
X133920000Y-86330000D03*
%TO.P,J7,9,Pin_9*%
%TO.N,D11*%
X136460000Y-88870000D03*
%TO.P,J7,10,Pin_10*%
%TO.N,D7*%
X133920000Y-88870000D03*
%TD*%
D31*
%TO.N,S. LED*%
X203900000Y-97900000D03*
X201200000Y-97600000D03*
%TO.N,D11*%
X193700000Y-88800000D03*
X190000000Y-88400000D03*
X171000000Y-88100000D03*
X166000000Y-87700000D03*
%TO.N,BT-Pwr*%
X141320000Y-79070000D03*
X140935000Y-74185000D03*
X197390000Y-84130000D03*
%TO.N,BT-1*%
X158290000Y-81030000D03*
%TO.N,BT-2*%
X176765000Y-83225000D03*
X158970000Y-83980000D03*
%TO.N,S. LED*%
X136160000Y-94560000D03*
X131800000Y-94600000D03*
%TO.N,5V*%
X169398566Y-89101434D03*
%TO.N,D7*%
X152615000Y-93835000D03*
X157630000Y-98060000D03*
%TD*%
D32*
%TO.N,D11*%
X138090000Y-90500000D02*
X136460000Y-88870000D01*
X166000000Y-87700000D02*
X158900000Y-87700000D01*
X156100000Y-90500000D02*
X138090000Y-90500000D01*
X158900000Y-87700000D02*
X156100000Y-90500000D01*
%TO.N,5V*%
X138790000Y-78710000D02*
X136460000Y-78710000D01*
X141300000Y-76200000D02*
X138790000Y-78710000D01*
X151500000Y-76200000D02*
X141300000Y-76200000D01*
X154030000Y-73670000D02*
X151500000Y-76200000D01*
X154030000Y-72600000D02*
X154030000Y-73670000D01*
%TO.N,S. LED*%
X224700000Y-98400000D02*
X224700000Y-94100000D01*
X225400000Y-93400000D02*
X228200000Y-93400000D01*
X224000000Y-99100000D02*
X224700000Y-98400000D01*
X224700000Y-94100000D02*
X225400000Y-93400000D01*
X205100000Y-99100000D02*
X224000000Y-99100000D01*
X203900000Y-97900000D02*
X205100000Y-99100000D01*
X199900000Y-98900000D02*
X201200000Y-97600000D01*
X187800000Y-98900000D02*
X199900000Y-98900000D01*
X185200000Y-96300000D02*
X187800000Y-98900000D01*
X185200000Y-93900000D02*
X185200000Y-96300000D01*
%TO.N,D11*%
X171300000Y-88400000D02*
X190000000Y-88400000D01*
X171000000Y-88100000D02*
X171300000Y-88400000D01*
X199100000Y-88800000D02*
X200440000Y-87460000D01*
X200440000Y-87460000D02*
X200440000Y-86280000D01*
X193700000Y-88800000D02*
X199100000Y-88800000D01*
%TO.N,5V*%
X169467132Y-89170000D02*
X184540000Y-89170000D01*
X169398566Y-89101434D02*
X169467132Y-89170000D01*
X184540000Y-89170000D02*
X187740000Y-92370000D01*
X169398566Y-89101434D02*
X169398566Y-88998566D01*
X169398566Y-88998566D02*
X154030000Y-73630000D01*
X154030000Y-73630000D02*
X154030000Y-72600000D01*
%TO.N,TX*%
X131940000Y-86330000D02*
X133920000Y-86330000D01*
X131500000Y-91420000D02*
X131500000Y-86770000D01*
X138680000Y-98600000D02*
X131500000Y-91420000D01*
X131500000Y-86770000D02*
X131940000Y-86330000D01*
X151540000Y-98600000D02*
X138680000Y-98600000D01*
X159190000Y-90950000D02*
X151540000Y-98600000D01*
X175880000Y-90950000D02*
X159190000Y-90950000D01*
X177580000Y-92650000D02*
X175880000Y-90950000D01*
X177580000Y-93900000D02*
X177580000Y-92650000D01*
%TO.N,RX*%
X130640000Y-91750000D02*
X130640000Y-85220000D01*
X132070000Y-83790000D02*
X133920000Y-83790000D01*
X138390000Y-99500000D02*
X130640000Y-91750000D01*
X159590000Y-91850000D02*
X151940000Y-99500000D01*
X130640000Y-85220000D02*
X132070000Y-83790000D01*
X174050000Y-91850000D02*
X159590000Y-91850000D01*
X151940000Y-99500000D02*
X138390000Y-99500000D01*
X175040000Y-92840000D02*
X174050000Y-91850000D01*
X175040000Y-93900000D02*
X175040000Y-92840000D01*
%TO.N,S. LED*%
X131790000Y-81250000D02*
X133920000Y-81250000D01*
X129800000Y-83240000D02*
X131790000Y-81250000D01*
X131800000Y-94600000D02*
X131770000Y-94600000D01*
X131770000Y-94600000D02*
X129800000Y-92630000D01*
X129800000Y-92630000D02*
X129800000Y-83240000D01*
%TO.N,BT-Pwr*%
X197390000Y-84130000D02*
X197110000Y-84130000D01*
X213110000Y-84350000D02*
X212890000Y-84130000D01*
X190860000Y-78130000D02*
X191730000Y-79000000D01*
X188360000Y-68840000D02*
X190860000Y-71340000D01*
X212890000Y-84130000D02*
X197390000Y-84130000D01*
X214300000Y-85540000D02*
X213110000Y-84350000D01*
X214300000Y-92660000D02*
X214300000Y-85540000D01*
X140935000Y-73919415D02*
X140930000Y-73914415D01*
X191730000Y-79000000D02*
X194850000Y-79000000D01*
X214300000Y-92940000D02*
X214300000Y-92660000D01*
X190860000Y-71340000D02*
X190860000Y-78130000D01*
X136460000Y-81250000D02*
X139140000Y-81250000D01*
X217880000Y-96520000D02*
X214300000Y-92940000D01*
X140935000Y-74185000D02*
X140935000Y-73919415D01*
X139140000Y-81250000D02*
X141320000Y-79070000D01*
X140930000Y-73914415D02*
X140930000Y-70840000D01*
X140930000Y-70840000D02*
X142930000Y-68840000D01*
X142930000Y-68840000D02*
X188360000Y-68840000D01*
%TO.N,Net-(D1-A)*%
X220785000Y-87800000D02*
X219615000Y-88970000D01*
X222900000Y-87800000D02*
X220785000Y-87800000D01*
%TO.N,BT-1*%
X158290000Y-81030000D02*
X158410000Y-81030000D01*
X147770000Y-81030000D02*
X158290000Y-81030000D01*
X146860000Y-80120000D02*
X147770000Y-81030000D01*
X142410000Y-83790000D02*
X146860000Y-79340000D01*
X146860000Y-79340000D02*
X146860000Y-80120000D01*
X136460000Y-83790000D02*
X142410000Y-83790000D01*
%TO.N,BT-2*%
X176765000Y-83225000D02*
X211725000Y-83225000D01*
X146690000Y-86330000D02*
X146810000Y-86450000D01*
X148440000Y-83980000D02*
X158970000Y-83980000D01*
X146810000Y-86450000D02*
X146810000Y-85610000D01*
X136460000Y-86330000D02*
X146690000Y-86330000D01*
X211725000Y-83225000D02*
X215950000Y-79000000D01*
X146810000Y-85610000D02*
X148440000Y-83980000D01*
%TO.N,S. LED*%
X158128529Y-90270000D02*
X150940000Y-97458529D01*
X150940000Y-97520000D02*
X139120000Y-97520000D01*
X182850000Y-90730000D02*
X182390000Y-90270000D01*
X227980000Y-87800000D02*
X227980000Y-93180000D01*
X182850000Y-90770000D02*
X182850000Y-90730000D01*
X139120000Y-97520000D02*
X136160000Y-94560000D01*
X182390000Y-90270000D02*
X165430000Y-90270000D01*
X165430000Y-90270000D02*
X158128529Y-90270000D01*
X227980000Y-93180000D02*
X228200000Y-93400000D01*
X185200000Y-93120000D02*
X182850000Y-90770000D01*
X185200000Y-93900000D02*
X185200000Y-93120000D01*
X150940000Y-97458529D02*
X150940000Y-97520000D01*
%TO.N,SDA*%
X170710000Y-84200000D02*
X173500000Y-84200000D01*
X175040000Y-85740000D02*
X175040000Y-86280000D01*
X173500000Y-84200000D02*
X175040000Y-85740000D01*
X159110000Y-72600000D02*
X170710000Y-84200000D01*
%TO.N,5V*%
X192820000Y-86280000D02*
X192820000Y-87290000D01*
X192820000Y-87290000D02*
X187740000Y-92370000D01*
X187740000Y-92370000D02*
X187740000Y-92610000D01*
X187740000Y-92610000D02*
X187740000Y-93900000D01*
%TO.N,SCL*%
X156570000Y-73170000D02*
X169680000Y-86280000D01*
X169680000Y-86280000D02*
X172500000Y-86280000D01*
X156570000Y-72600000D02*
X156570000Y-73170000D01*
%TO.N,Net-(U2-XTAL2{slash}PB7)*%
X197000000Y-91300000D02*
X208900000Y-91300000D01*
X208900000Y-91300000D02*
X210900000Y-93300000D01*
X195360000Y-93900000D02*
X195360000Y-92940000D01*
X195360000Y-94560000D02*
X195360000Y-93900000D01*
X210900000Y-93300000D02*
X210900000Y-94700000D01*
X197900000Y-97100000D02*
X195360000Y-94560000D01*
X195360000Y-92940000D02*
X197000000Y-91300000D01*
%TO.N,Net-(J6-Pin_1)*%
X172500000Y-93900000D02*
X172500000Y-93920000D01*
X175920000Y-97340000D02*
X177710000Y-97340000D01*
X172500000Y-93920000D02*
X175920000Y-97340000D01*
X180950000Y-97340000D02*
X181350000Y-97740000D01*
X177710000Y-97340000D02*
X180950000Y-97340000D01*
%TO.N,D7*%
X200210000Y-99550000D02*
X159120000Y-99550000D01*
X202980000Y-96780000D02*
X200210000Y-99550000D01*
X152615000Y-93835000D02*
X150730000Y-91950000D01*
X202980000Y-93900000D02*
X202980000Y-96780000D01*
X159120000Y-99550000D02*
X157630000Y-98060000D01*
X150730000Y-91950000D02*
X134780000Y-91950000D01*
X134780000Y-91950000D02*
X133920000Y-91090000D01*
X133920000Y-91090000D02*
X133920000Y-88870000D01*
%TO.N,Net-(U2-XTAL1{slash}PB6)*%
X192820000Y-93080000D02*
X196100000Y-89800000D01*
X196100000Y-89800000D02*
X210900000Y-89800000D01*
X192750000Y-97100000D02*
X192750000Y-93970000D01*
X192820000Y-93900000D02*
X192820000Y-93080000D01*
X192750000Y-93970000D02*
X192820000Y-93900000D01*
%TD*%
D33*
X203900000Y-97900000D03*
X201200000Y-97600000D03*
X193700000Y-88800000D03*
X190000000Y-88400000D03*
X171000000Y-88100000D03*
X166000000Y-87700000D03*
X141320000Y-79070000D03*
X140935000Y-74185000D03*
X197390000Y-84130000D03*
X158290000Y-81030000D03*
X176765000Y-83225000D03*
X158970000Y-83980000D03*
X136160000Y-94560000D03*
X131800000Y-94600000D03*
X169398566Y-89101434D03*
X152615000Y-93835000D03*
X157630000Y-98060000D03*
D34*
X181350000Y-97740000D03*
X182620000Y-97740000D03*
X172630000Y-97340000D03*
X177710000Y-97340000D03*
X210900000Y-94700000D03*
X210900000Y-89800000D03*
X151490000Y-72600000D03*
X154030000Y-72600000D03*
X156570000Y-72600000D03*
X159110000Y-72600000D03*
X144300000Y-73100000D03*
X166300000Y-73100000D03*
X166300000Y-95100000D03*
X144300000Y-95100000D03*
X172500000Y-93900000D03*
X175040000Y-93900000D03*
X177580000Y-93900000D03*
X180120000Y-93900000D03*
X182660000Y-93900000D03*
X185200000Y-93900000D03*
X187740000Y-93900000D03*
X190280000Y-93900000D03*
X192820000Y-93900000D03*
X195360000Y-93900000D03*
X197900000Y-93900000D03*
X200440000Y-93900000D03*
X202980000Y-93900000D03*
X205520000Y-93900000D03*
X205520000Y-86280000D03*
X202980000Y-86280000D03*
X200440000Y-86280000D03*
X197900000Y-86280000D03*
X195360000Y-86280000D03*
X192820000Y-86280000D03*
X190280000Y-86280000D03*
X187740000Y-86280000D03*
X185200000Y-86280000D03*
X182660000Y-86280000D03*
X180120000Y-86280000D03*
X177580000Y-86280000D03*
X175040000Y-86280000D03*
X172500000Y-86280000D03*
X233600000Y-97300000D03*
X222900000Y-87800000D03*
X227980000Y-87800000D03*
X192750000Y-97100000D03*
X190250000Y-97100000D03*
X233600000Y-70200000D03*
X173750000Y-74000000D03*
X173750000Y-79000000D03*
X186250000Y-74000000D03*
X186250000Y-79000000D03*
X128700000Y-70200000D03*
X128700000Y-97300000D03*
X194850000Y-74000000D03*
X194850000Y-79000000D03*
X207350000Y-74000000D03*
X207350000Y-79000000D03*
X217075000Y-88970000D03*
X219615000Y-88970000D03*
X197900000Y-97100000D03*
X195400000Y-97100000D03*
X215950000Y-74000000D03*
X215950000Y-79000000D03*
X228450000Y-74000000D03*
X228450000Y-79000000D03*
X220380000Y-96520000D03*
X217880000Y-96520000D03*
X228200000Y-95900000D03*
X228200000Y-93400000D03*
X149360000Y-79340000D03*
X146860000Y-79340000D03*
X149310000Y-86450000D03*
X146810000Y-86450000D03*
X136460000Y-78710000D03*
X133920000Y-78710000D03*
X136460000Y-81250000D03*
X133920000Y-81250000D03*
X136460000Y-83790000D03*
X133920000Y-83790000D03*
X136460000Y-86330000D03*
X133920000Y-86330000D03*
X136460000Y-88870000D03*
X133920000Y-88870000D03*
M02*
