%TF.GenerationSoftware,KiCad,Pcbnew,8.0.6*%
%TF.CreationDate,2024-11-26T12:02:11+05:30*%
%TF.ProjectId,interface_panel,696e7465-7266-4616-9365-5f70616e656c,rev?*%
%TF.SameCoordinates,Original*%
%TF.FileFunction,Profile,NP*%
%FSLAX46Y46*%
G04 Gerber Fmt 4.6, Leading zero omitted, Abs format (unit mm)*
G04 Created by KiCad (PCBNEW 8.0.6) date 2024-11-26 12:02:11*
%MOMM*%
%LPD*%
G01*
G04 APERTURE LIST*
%TA.AperFunction,Profile*%
%ADD10C,0.050000*%
%TD*%
%ADD11C,0.350000*%
G04 APERTURE END LIST*
D10*
X126971254Y-89988384D02*
X164378746Y-90067130D01*
X126921254Y-60382870D02*
X164278746Y-60382870D01*
X122082870Y-65221254D02*
X122132870Y-85150000D01*
X169117130Y-65221254D02*
X169217130Y-85228746D01*
X164278746Y-60382870D02*
G75*
G02*
X169117130Y-65221254I-46J-4838430D01*
G01*
X122082870Y-65221254D02*
G75*
G02*
X126921254Y-60382870I4838380J4D01*
G01*
X126971254Y-89988384D02*
G75*
G02*
X122132916Y-85150000I46J4838384D01*
G01*
X169217130Y-85228746D02*
G75*
G02*
X164378746Y-90067130I-4838380J-4D01*
G01*
D11*
X166000000Y-63650000D03*
X166350000Y-76400000D03*
X166350000Y-71320000D03*
X137600000Y-86350000D03*
X131100000Y-86350000D03*
X137600000Y-81850000D03*
X131100000Y-81850000D03*
X125200000Y-63650000D03*
X166000000Y-86800000D03*
X141550000Y-81850000D03*
X148050000Y-81850000D03*
X141550000Y-86350000D03*
X148050000Y-86350000D03*
X163325000Y-81400000D03*
X165865000Y-81400000D03*
X125200000Y-86800000D03*
X158700000Y-86300000D03*
X152200000Y-86300000D03*
X158700000Y-81800000D03*
X152200000Y-81800000D03*
X148040000Y-71540000D03*
X148040000Y-69000000D03*
X145500000Y-71540000D03*
X145500000Y-69000000D03*
X142960000Y-71540000D03*
X142960000Y-69000000D03*
X140420000Y-71540000D03*
X140420000Y-69000000D03*
X126600000Y-68390000D03*
X126600000Y-70930000D03*
X126600000Y-73470000D03*
X126600000Y-76010000D03*
M02*
