%TF.GenerationSoftware,KiCad,Pcbnew,8.0.6*%
%TF.CreationDate,2025-05-07T12:12:08+05:30*%
%TF.ProjectId,interface_panel,696e7465-7266-4616-9365-5f70616e656c,rev?*%
%TF.SameCoordinates,Original*%
%TF.FileFunction,Soldermask,Top*%
%TF.FilePolarity,Negative*%
%FSLAX46Y46*%
G04 Gerber Fmt 4.6, Leading zero omitted, Abs format (unit mm)*
G04 Created by KiCad (PCBNEW 8.0.6) date 2025-05-07 12:12:08*
%MOMM*%
%LPD*%
G01*
G04 APERTURE LIST*
G04 Aperture macros list*
%AMRoundRect*
0 Rectangle with rounded corners*
0 $1 Rounding radius*
0 $2 $3 $4 $5 $6 $7 $8 $9 X,Y pos of 4 corners*
0 Add a 4 corners polygon primitive as box body*
4,1,4,$2,$3,$4,$5,$6,$7,$8,$9,$2,$3,0*
0 Add four circle primitives for the rounded corners*
1,1,$1+$1,$2,$3*
1,1,$1+$1,$4,$5*
1,1,$1+$1,$6,$7*
1,1,$1+$1,$8,$9*
0 Add four rect primitives between the rounded corners*
20,1,$1+$1,$2,$3,$4,$5,0*
20,1,$1+$1,$4,$5,$6,$7,0*
20,1,$1+$1,$6,$7,$8,$9,0*
20,1,$1+$1,$8,$9,$2,$3,0*%
G04 Aperture macros list end*
%ADD10RoundRect,0.102000X-0.754000X-0.754000X0.754000X-0.754000X0.754000X0.754000X-0.754000X0.754000X0*%
%ADD11C,1.712000*%
%ADD12C,3.204000*%
%ADD13C,3.800000*%
%ADD14C,1.400000*%
%ADD15O,1.400000X1.400000*%
%ADD16RoundRect,0.102000X-0.975000X-0.975000X0.975000X-0.975000X0.975000X0.975000X-0.975000X0.975000X0*%
%ADD17C,2.154000*%
%ADD18R,1.800000X1.800000*%
%ADD19C,1.800000*%
%ADD20R,1.600000X1.600000*%
%ADD21O,1.600000X1.600000*%
%ADD22RoundRect,0.250000X0.600000X0.600000X-0.600000X0.600000X-0.600000X-0.600000X0.600000X-0.600000X0*%
%ADD23C,1.700000*%
G04 APERTURE END LIST*
D10*
%TO.C,oled1*%
X157490000Y-64312500D03*
D11*
X160030000Y-64312500D03*
X162570000Y-64312500D03*
X165110000Y-64312500D03*
D12*
X150300000Y-64812500D03*
X172300000Y-64812500D03*
X172300000Y-86812500D03*
X150300000Y-86812500D03*
%TD*%
D13*
%TO.C,REF\u002A\u002A*%
X130300000Y-97800000D03*
%TD*%
D14*
%TO.C,R1*%
X202900000Y-85460000D03*
D15*
X202900000Y-90540000D03*
%TD*%
D16*
%TO.C,H-1*%
X183250000Y-66600000D03*
D17*
X183250000Y-71600000D03*
X195750000Y-66600000D03*
X195750000Y-71600000D03*
%TD*%
D13*
%TO.C,REF\u002A\u002A*%
X222800000Y-97800000D03*
%TD*%
%TO.C,REF\u002A\u002A*%
X130600000Y-63000000D03*
%TD*%
D16*
%TO.C,0/1*%
X202350000Y-66500000D03*
D17*
X202350000Y-71500000D03*
X214850000Y-66500000D03*
X214850000Y-71500000D03*
%TD*%
D18*
%TO.C,D1*%
X203000000Y-79160000D03*
D19*
X203000000Y-81700000D03*
%TD*%
D13*
%TO.C,REF\u002A\u002A*%
X222700000Y-62600000D03*
%TD*%
D16*
%TO.C,H-2*%
X183300000Y-83900000D03*
D17*
X183300000Y-88900000D03*
X195800000Y-83900000D03*
X195800000Y-88900000D03*
%TD*%
D20*
%TO.C,A1*%
X171000000Y-91040000D03*
D21*
X168460000Y-91040000D03*
X165920000Y-91040000D03*
X163380000Y-91040000D03*
X160840000Y-91040000D03*
X158300000Y-91040000D03*
X155760000Y-91040000D03*
X153220000Y-91040000D03*
X150680000Y-91040000D03*
X148140000Y-91040000D03*
X145600000Y-91040000D03*
X143060000Y-91040000D03*
X140520000Y-91040000D03*
X137980000Y-91040000D03*
X135440000Y-91040000D03*
X135440000Y-75800000D03*
X137980000Y-75800000D03*
X140520000Y-75800000D03*
X143060000Y-75800000D03*
X145600000Y-75800000D03*
X148140000Y-75800000D03*
X150680000Y-75800000D03*
X153220000Y-75800000D03*
X155760000Y-75800000D03*
X158300000Y-75800000D03*
X160840000Y-75800000D03*
X163380000Y-75800000D03*
X165920000Y-75800000D03*
X168460000Y-75800000D03*
X171000000Y-75800000D03*
%TD*%
D22*
%TO.C,J1*%
X212140000Y-81720000D03*
D23*
X209600000Y-81720000D03*
X212140000Y-84260000D03*
X209600000Y-84260000D03*
X212140000Y-86800000D03*
X209600000Y-86800000D03*
X212140000Y-89340000D03*
X209600000Y-89340000D03*
%TD*%
M02*
