%TF.GenerationSoftware,KiCad,Pcbnew,8.0.6*%
%TF.CreationDate,2025-05-07T12:12:08+05:30*%
%TF.ProjectId,interface_panel,696e7465-7266-4616-9365-5f70616e656c,rev?*%
%TF.SameCoordinates,Original*%
%TF.FileFunction,Copper,L2,Bot*%
%TF.FilePolarity,Positive*%
%FSLAX46Y46*%
G04 Gerber Fmt 4.6, Leading zero omitted, Abs format (unit mm)*
G04 Created by KiCad (PCBNEW 8.0.6) date 2025-05-07 12:12:08*
%MOMM*%
%LPD*%
G01*
G04 APERTURE LIST*
G04 Aperture macros list*
%AMRoundRect*
0 Rectangle with rounded corners*
0 $1 Rounding radius*
0 $2 $3 $4 $5 $6 $7 $8 $9 X,Y pos of 4 corners*
0 Add a 4 corners polygon primitive as box body*
4,1,4,$2,$3,$4,$5,$6,$7,$8,$9,$2,$3,0*
0 Add four circle primitives for the rounded corners*
1,1,$1+$1,$2,$3*
1,1,$1+$1,$4,$5*
1,1,$1+$1,$6,$7*
1,1,$1+$1,$8,$9*
0 Add four rect primitives between the rounded corners*
20,1,$1+$1,$2,$3,$4,$5,0*
20,1,$1+$1,$4,$5,$6,$7,0*
20,1,$1+$1,$6,$7,$8,$9,0*
20,1,$1+$1,$8,$9,$2,$3,0*%
G04 Aperture macros list end*
%TA.AperFunction,ComponentPad*%
%ADD10R,1.508000X1.508000*%
%TD*%
%TA.AperFunction,ComponentPad*%
%ADD11C,1.508000*%
%TD*%
%TA.AperFunction,ComponentPad*%
%ADD12C,3.000000*%
%TD*%
%TA.AperFunction,ComponentPad*%
%ADD13C,3.800000*%
%TD*%
%TA.AperFunction,ComponentPad*%
%ADD14C,1.400000*%
%TD*%
%TA.AperFunction,ComponentPad*%
%ADD15O,1.400000X1.400000*%
%TD*%
%TA.AperFunction,ComponentPad*%
%ADD16R,1.950000X1.950000*%
%TD*%
%TA.AperFunction,ComponentPad*%
%ADD17C,1.950000*%
%TD*%
%TA.AperFunction,ComponentPad*%
%ADD18R,1.800000X1.800000*%
%TD*%
%TA.AperFunction,ComponentPad*%
%ADD19C,1.800000*%
%TD*%
%TA.AperFunction,ComponentPad*%
%ADD20R,1.600000X1.600000*%
%TD*%
%TA.AperFunction,ComponentPad*%
%ADD21O,1.600000X1.600000*%
%TD*%
%TA.AperFunction,ComponentPad*%
%ADD22RoundRect,0.250000X0.600000X0.600000X-0.600000X0.600000X-0.600000X-0.600000X0.600000X-0.600000X0*%
%TD*%
%TA.AperFunction,ComponentPad*%
%ADD23C,1.700000*%
%TD*%
%TA.AperFunction,ViaPad*%
%ADD24C,0.600000*%
%TD*%
%TA.AperFunction,Conductor*%
%ADD25C,0.200000*%
%TD*%
%ADD26C,0.300000*%
%ADD27C,0.350000*%
G04 APERTURE END LIST*
D10*
%TO.P,oled1,1,GND*%
%TO.N,GND*%
X157490000Y-64312500D03*
D11*
%TO.P,oled1,2,VCC*%
%TO.N,5V*%
X160030000Y-64312500D03*
%TO.P,oled1,3,SCL*%
%TO.N,SCL*%
X162570000Y-64312500D03*
%TO.P,oled1,4,SDA*%
%TO.N,SDA*%
X165110000Y-64312500D03*
D12*
%TO.P,oled1,S1*%
%TO.N,N/C*%
X150300000Y-64812500D03*
%TO.P,oled1,S2*%
X172300000Y-64812500D03*
%TO.P,oled1,S3*%
X172300000Y-86812500D03*
%TO.P,oled1,S4*%
X150300000Y-86812500D03*
%TD*%
D13*
%TO.P,REF\u002A\u002A,1*%
%TO.N,N/C*%
X130300000Y-97800000D03*
%TD*%
D14*
%TO.P,R1,1*%
%TO.N,Net-(D1-A)*%
X202900000Y-85460000D03*
D15*
%TO.P,R1,2*%
%TO.N,S. LED*%
X202900000Y-90540000D03*
%TD*%
D16*
%TO.P,H-1,1,1*%
%TO.N,GND*%
X183250000Y-66600000D03*
D17*
%TO.P,H-1,2,2*%
%TO.N,BT-1*%
X183250000Y-71600000D03*
%TO.P,H-1,3*%
%TO.N,N/C*%
X195750000Y-66600000D03*
%TO.P,H-1,4*%
X195750000Y-71600000D03*
%TD*%
D13*
%TO.P,REF\u002A\u002A,1*%
%TO.N,N/C*%
X222800000Y-97800000D03*
%TD*%
%TO.P,REF\u002A\u002A,1*%
%TO.N,N/C*%
X130600000Y-63000000D03*
%TD*%
D16*
%TO.P,0/1,1,1*%
%TO.N,GND*%
X202350000Y-66500000D03*
D17*
%TO.P,0/1,2,2*%
%TO.N,BT-Pwr*%
X202350000Y-71500000D03*
%TO.P,0/1,3*%
%TO.N,N/C*%
X214850000Y-66500000D03*
%TO.P,0/1,4*%
X214850000Y-71500000D03*
%TD*%
D18*
%TO.P,D1,1,K*%
%TO.N,GND*%
X203000000Y-79160000D03*
D19*
%TO.P,D1,2,A*%
%TO.N,Net-(D1-A)*%
X203000000Y-81700000D03*
%TD*%
D13*
%TO.P,REF\u002A\u002A,1*%
%TO.N,N/C*%
X222700000Y-62600000D03*
%TD*%
D16*
%TO.P,H-2,1,1*%
%TO.N,GND*%
X183300000Y-83900000D03*
D17*
%TO.P,H-2,2,2*%
%TO.N,BT-2*%
X183300000Y-88900000D03*
%TO.P,H-2,3*%
%TO.N,N/C*%
X195800000Y-83900000D03*
%TO.P,H-2,4*%
X195800000Y-88900000D03*
%TD*%
D20*
%TO.P,A1,1,TX1*%
%TO.N,RX*%
X171000000Y-91040000D03*
D21*
%TO.P,A1,2,RX1*%
%TO.N,TX*%
X168460000Y-91040000D03*
%TO.P,A1,3,~{RESET}*%
%TO.N,unconnected-(A1-~{RESET}-Pad3)*%
X165920000Y-91040000D03*
%TO.P,A1,4,GND*%
%TO.N,GND*%
X163380000Y-91040000D03*
%TO.P,A1,5,D2*%
%TO.N,unconnected-(A1-D2-Pad5)*%
X160840000Y-91040000D03*
%TO.P,A1,6,D3*%
%TO.N,unconnected-(A1-D3-Pad6)*%
X158300000Y-91040000D03*
%TO.P,A1,7,D4*%
%TO.N,S. LED*%
X155760000Y-91040000D03*
%TO.P,A1,8,D5*%
%TO.N,unconnected-(A1-D5-Pad8)*%
X153220000Y-91040000D03*
%TO.P,A1,9,D6*%
%TO.N,unconnected-(A1-D6-Pad9)*%
X150680000Y-91040000D03*
%TO.P,A1,10,D7*%
%TO.N,unconnected-(A1-D7-Pad10)*%
X148140000Y-91040000D03*
%TO.P,A1,11,D8*%
%TO.N,unconnected-(A1-D8-Pad11)*%
X145600000Y-91040000D03*
%TO.P,A1,12,D9*%
%TO.N,unconnected-(A1-D9-Pad12)*%
X143060000Y-91040000D03*
%TO.P,A1,13,D10*%
%TO.N,unconnected-(A1-D10-Pad13)*%
X140520000Y-91040000D03*
%TO.P,A1,14,MOSI*%
%TO.N,unconnected-(A1-MOSI-Pad14)*%
X137980000Y-91040000D03*
%TO.P,A1,15,MISO*%
%TO.N,unconnected-(A1-MISO-Pad15)*%
X135440000Y-91040000D03*
%TO.P,A1,16,SCK*%
%TO.N,unconnected-(A1-SCK-Pad16)*%
X135440000Y-75800000D03*
%TO.P,A1,17,3V3*%
%TO.N,unconnected-(A1-3V3-Pad17)*%
X137980000Y-75800000D03*
%TO.P,A1,18,AREF*%
%TO.N,unconnected-(A1-AREF-Pad18)*%
X140520000Y-75800000D03*
%TO.P,A1,19,A0*%
%TO.N,unconnected-(A1-A0-Pad19)*%
X143060000Y-75800000D03*
%TO.P,A1,20,A1*%
%TO.N,unconnected-(A1-A1-Pad20)*%
X145600000Y-75800000D03*
%TO.P,A1,21,A2*%
%TO.N,unconnected-(A1-A2-Pad21)*%
X148140000Y-75800000D03*
%TO.P,A1,22,A3*%
%TO.N,unconnected-(A1-A3-Pad22)*%
X150680000Y-75800000D03*
%TO.P,A1,23,SDA/A4*%
%TO.N,SDA*%
X153220000Y-75800000D03*
%TO.P,A1,24,SCL/A5*%
%TO.N,SCL*%
X155760000Y-75800000D03*
%TO.P,A1,25,A6*%
%TO.N,unconnected-(A1-A6-Pad25)*%
X158300000Y-75800000D03*
%TO.P,A1,26,A7*%
%TO.N,unconnected-(A1-A7-Pad26)*%
X160840000Y-75800000D03*
%TO.P,A1,27,+5V*%
%TO.N,unconnected-(A1-+5V-Pad27)*%
X163380000Y-75800000D03*
%TO.P,A1,28,~{RESET}*%
%TO.N,unconnected-(A1-~{RESET}-Pad28)*%
X165920000Y-75800000D03*
%TO.P,A1,29,GND*%
%TO.N,GND*%
X168460000Y-75800000D03*
%TO.P,A1,30,VIN*%
%TO.N,5V*%
X171000000Y-75800000D03*
%TD*%
D22*
%TO.P,J1,1,Pin_1*%
%TO.N,5V*%
X212140000Y-81720000D03*
D23*
%TO.P,J1,2,Pin_2*%
%TO.N,GND*%
X209600000Y-81720000D03*
%TO.P,J1,3,Pin_3*%
%TO.N,BT-Pwr*%
X212140000Y-84260000D03*
%TO.P,J1,4,Pin_4*%
%TO.N,S. LED*%
X209600000Y-84260000D03*
%TO.P,J1,5,Pin_5*%
%TO.N,BT-1*%
X212140000Y-86800000D03*
%TO.P,J1,6,Pin_6*%
%TO.N,RX*%
X209600000Y-86800000D03*
%TO.P,J1,7,Pin_7*%
%TO.N,BT-2*%
X212140000Y-89340000D03*
%TO.P,J1,8,Pin_8*%
%TO.N,TX*%
X209600000Y-89340000D03*
%TD*%
D24*
%TO.N,S. LED*%
X178200000Y-91900000D03*
%TD*%
D25*
%TO.N,BT-2*%
X210200000Y-92600000D02*
X212140000Y-90660000D01*
X212140000Y-90660000D02*
X212140000Y-89340000D01*
X183300000Y-88900000D02*
X187000000Y-92600000D01*
X187000000Y-92600000D02*
X210200000Y-92600000D01*
%TO.N,S. LED*%
X202900000Y-90000000D02*
X208640000Y-84260000D01*
X208640000Y-84260000D02*
X209600000Y-84260000D01*
X202900000Y-90540000D02*
X202900000Y-90000000D01*
X155760000Y-92260000D02*
X155760000Y-91040000D01*
X178200000Y-91900000D02*
X176300000Y-93800000D01*
X176300000Y-93800000D02*
X157300000Y-93800000D01*
X157300000Y-93800000D02*
X155760000Y-92260000D01*
%TD*%
%TA.AperFunction,Conductor*%
%TO.N,GND*%
G36*
X210719341Y-82485789D02*
G01*
X210771191Y-82496209D01*
X210821375Y-82544823D01*
X210831205Y-82566966D01*
X210855186Y-82639334D01*
X210947288Y-82788656D01*
X211071344Y-82912712D01*
X211220666Y-83004814D01*
X211229264Y-83007663D01*
X211286707Y-83047433D01*
X211313531Y-83111948D01*
X211301217Y-83180724D01*
X211272234Y-83217483D01*
X211272427Y-83217676D01*
X211270798Y-83219304D01*
X211269975Y-83220349D01*
X211268599Y-83221503D01*
X211101505Y-83388597D01*
X210971575Y-83574158D01*
X210916998Y-83617783D01*
X210847500Y-83624977D01*
X210785145Y-83593454D01*
X210768425Y-83574158D01*
X210638494Y-83388597D01*
X210471402Y-83221506D01*
X210471401Y-83221505D01*
X210285405Y-83091269D01*
X210241781Y-83036692D01*
X210234588Y-82967193D01*
X210266110Y-82904839D01*
X210285405Y-82888119D01*
X210361373Y-82834925D01*
X209729409Y-82202962D01*
X209792993Y-82185925D01*
X209907007Y-82120099D01*
X210000099Y-82027007D01*
X210065925Y-81912993D01*
X210082962Y-81849410D01*
X210719341Y-82485789D01*
G37*
%TD.AperFunction*%
%TA.AperFunction,Conductor*%
G36*
X220525148Y-61329563D02*
G01*
X220571132Y-61382168D01*
X220581375Y-61451283D01*
X220570761Y-61486965D01*
X220463659Y-61714569D01*
X220370320Y-62001835D01*
X220313719Y-62298546D01*
X220313718Y-62298553D01*
X220294754Y-62599994D01*
X220294754Y-62600005D01*
X220313718Y-62901446D01*
X220313719Y-62901453D01*
X220326107Y-62966392D01*
X220356415Y-63125275D01*
X220370320Y-63198164D01*
X220463659Y-63485431D01*
X220463661Y-63485436D01*
X220592265Y-63758732D01*
X220592268Y-63758738D01*
X220754111Y-64013763D01*
X220946652Y-64246505D01*
X221166836Y-64453272D01*
X221166846Y-64453280D01*
X221411193Y-64630808D01*
X221411198Y-64630810D01*
X221411205Y-64630816D01*
X221675896Y-64776332D01*
X221675901Y-64776334D01*
X221675903Y-64776335D01*
X221675904Y-64776336D01*
X221956734Y-64887524D01*
X221956737Y-64887525D01*
X222054259Y-64912564D01*
X222249302Y-64962642D01*
X222396039Y-64981179D01*
X222548963Y-65000499D01*
X222548969Y-65000499D01*
X222548973Y-65000500D01*
X222548975Y-65000500D01*
X222676000Y-65000500D01*
X222743039Y-65020185D01*
X222788794Y-65072989D01*
X222800000Y-65124500D01*
X222800000Y-95275500D01*
X222780315Y-95342539D01*
X222727511Y-95388294D01*
X222676000Y-95399500D01*
X222648963Y-95399500D01*
X222349304Y-95437357D01*
X222056737Y-95512474D01*
X222056734Y-95512475D01*
X221775904Y-95623663D01*
X221775903Y-95623664D01*
X221511205Y-95769184D01*
X221511193Y-95769191D01*
X221266846Y-95946719D01*
X221266836Y-95946727D01*
X221046652Y-96153494D01*
X220854111Y-96386236D01*
X220692268Y-96641261D01*
X220692265Y-96641267D01*
X220563661Y-96914563D01*
X220563659Y-96914568D01*
X220470320Y-97201835D01*
X220413719Y-97498546D01*
X220413718Y-97498553D01*
X220402065Y-97683786D01*
X220378210Y-97749457D01*
X220322638Y-97791806D01*
X220278310Y-97800000D01*
X132821690Y-97800000D01*
X132754651Y-97780315D01*
X132708896Y-97727511D01*
X132697935Y-97683786D01*
X132686281Y-97498553D01*
X132686280Y-97498546D01*
X132686280Y-97498543D01*
X132629681Y-97201840D01*
X132536341Y-96914570D01*
X132407733Y-96641264D01*
X132245885Y-96386232D01*
X132053349Y-96153496D01*
X131833162Y-95946726D01*
X131833159Y-95946724D01*
X131833153Y-95946719D01*
X131588806Y-95769191D01*
X131588799Y-95769186D01*
X131588795Y-95769184D01*
X131324104Y-95623668D01*
X131324101Y-95623666D01*
X131324096Y-95623664D01*
X131324095Y-95623663D01*
X131043265Y-95512475D01*
X131043262Y-95512474D01*
X130750695Y-95437357D01*
X130451036Y-95399500D01*
X130447144Y-95399256D01*
X130447216Y-95398101D01*
X130384940Y-95379815D01*
X130339185Y-95327011D01*
X130327987Y-95274128D01*
X130374903Y-91039998D01*
X134134532Y-91039998D01*
X134134532Y-91040001D01*
X134154364Y-91266686D01*
X134154366Y-91266697D01*
X134213258Y-91486488D01*
X134213261Y-91486497D01*
X134309431Y-91692732D01*
X134309432Y-91692734D01*
X134439954Y-91879141D01*
X134600858Y-92040045D01*
X134606535Y-92044020D01*
X134787266Y-92170568D01*
X134993504Y-92266739D01*
X135213308Y-92325635D01*
X135366688Y-92339054D01*
X135439998Y-92345468D01*
X135440000Y-92345468D01*
X135440002Y-92345468D01*
X135496807Y-92340498D01*
X135666692Y-92325635D01*
X135886496Y-92266739D01*
X136092734Y-92170568D01*
X136279139Y-92040047D01*
X136440047Y-91879139D01*
X136570568Y-91692734D01*
X136597618Y-91634724D01*
X136643790Y-91582285D01*
X136710983Y-91563133D01*
X136777865Y-91583348D01*
X136822382Y-91634725D01*
X136849429Y-91692728D01*
X136849432Y-91692734D01*
X136979954Y-91879141D01*
X137140858Y-92040045D01*
X137146535Y-92044020D01*
X137327266Y-92170568D01*
X137533504Y-92266739D01*
X137753308Y-92325635D01*
X137906688Y-92339054D01*
X137979998Y-92345468D01*
X137980000Y-92345468D01*
X137980002Y-92345468D01*
X138036807Y-92340498D01*
X138206692Y-92325635D01*
X138426496Y-92266739D01*
X138632734Y-92170568D01*
X138819139Y-92040047D01*
X138980047Y-91879139D01*
X139110568Y-91692734D01*
X139137618Y-91634724D01*
X139183790Y-91582285D01*
X139250983Y-91563133D01*
X139317865Y-91583348D01*
X139362382Y-91634725D01*
X139389429Y-91692728D01*
X139389432Y-91692734D01*
X139519954Y-91879141D01*
X139680858Y-92040045D01*
X139686535Y-92044020D01*
X139867266Y-92170568D01*
X140073504Y-92266739D01*
X140293308Y-92325635D01*
X140446688Y-92339054D01*
X140519998Y-92345468D01*
X140520000Y-92345468D01*
X140520002Y-92345468D01*
X140576807Y-92340498D01*
X140746692Y-92325635D01*
X140966496Y-92266739D01*
X141172734Y-92170568D01*
X141359139Y-92040047D01*
X141520047Y-91879139D01*
X141650568Y-91692734D01*
X141677618Y-91634724D01*
X141723790Y-91582285D01*
X141790983Y-91563133D01*
X141857865Y-91583348D01*
X141902382Y-91634725D01*
X141929429Y-91692728D01*
X141929432Y-91692734D01*
X142059954Y-91879141D01*
X142220858Y-92040045D01*
X142226535Y-92044020D01*
X142407266Y-92170568D01*
X142613504Y-92266739D01*
X142833308Y-92325635D01*
X142986688Y-92339054D01*
X143059998Y-92345468D01*
X143060000Y-92345468D01*
X143060002Y-92345468D01*
X143116807Y-92340498D01*
X143286692Y-92325635D01*
X143506496Y-92266739D01*
X143712734Y-92170568D01*
X143899139Y-92040047D01*
X144060047Y-91879139D01*
X144190568Y-91692734D01*
X144217618Y-91634724D01*
X144263790Y-91582285D01*
X144330983Y-91563133D01*
X144397865Y-91583348D01*
X144442382Y-91634725D01*
X144469429Y-91692728D01*
X144469432Y-91692734D01*
X144599954Y-91879141D01*
X144760858Y-92040045D01*
X144766535Y-92044020D01*
X144947266Y-92170568D01*
X145153504Y-92266739D01*
X145373308Y-92325635D01*
X145526688Y-92339054D01*
X145599998Y-92345468D01*
X145600000Y-92345468D01*
X145600002Y-92345468D01*
X145656807Y-92340498D01*
X145826692Y-92325635D01*
X146046496Y-92266739D01*
X146252734Y-92170568D01*
X146439139Y-92040047D01*
X146600047Y-91879139D01*
X146730568Y-91692734D01*
X146757618Y-91634724D01*
X146803790Y-91582285D01*
X146870983Y-91563133D01*
X146937865Y-91583348D01*
X146982382Y-91634725D01*
X147009429Y-91692728D01*
X147009432Y-91692734D01*
X147139954Y-91879141D01*
X147300858Y-92040045D01*
X147306535Y-92044020D01*
X147487266Y-92170568D01*
X147693504Y-92266739D01*
X147913308Y-92325635D01*
X148066688Y-92339054D01*
X148139998Y-92345468D01*
X148140000Y-92345468D01*
X148140002Y-92345468D01*
X148196807Y-92340498D01*
X148366692Y-92325635D01*
X148586496Y-92266739D01*
X148792734Y-92170568D01*
X148979139Y-92040047D01*
X149140047Y-91879139D01*
X149270568Y-91692734D01*
X149297618Y-91634724D01*
X149343790Y-91582285D01*
X149410983Y-91563133D01*
X149477865Y-91583348D01*
X149522382Y-91634725D01*
X149549429Y-91692728D01*
X149549432Y-91692734D01*
X149679954Y-91879141D01*
X149840858Y-92040045D01*
X149846535Y-92044020D01*
X150027266Y-92170568D01*
X150233504Y-92266739D01*
X150453308Y-92325635D01*
X150606688Y-92339054D01*
X150679998Y-92345468D01*
X150680000Y-92345468D01*
X150680002Y-92345468D01*
X150736807Y-92340498D01*
X150906692Y-92325635D01*
X151126496Y-92266739D01*
X151332734Y-92170568D01*
X151519139Y-92040047D01*
X151680047Y-91879139D01*
X151810568Y-91692734D01*
X151837618Y-91634724D01*
X151883790Y-91582285D01*
X151950983Y-91563133D01*
X152017865Y-91583348D01*
X152062382Y-91634725D01*
X152089429Y-91692728D01*
X152089432Y-91692734D01*
X152219954Y-91879141D01*
X152380858Y-92040045D01*
X152386535Y-92044020D01*
X152567266Y-92170568D01*
X152773504Y-92266739D01*
X152993308Y-92325635D01*
X153146688Y-92339054D01*
X153219998Y-92345468D01*
X153220000Y-92345468D01*
X153220002Y-92345468D01*
X153276807Y-92340498D01*
X153446692Y-92325635D01*
X153666496Y-92266739D01*
X153872734Y-92170568D01*
X154059139Y-92040047D01*
X154220047Y-91879139D01*
X154350568Y-91692734D01*
X154377618Y-91634724D01*
X154423790Y-91582285D01*
X154490983Y-91563133D01*
X154557865Y-91583348D01*
X154602382Y-91634725D01*
X154629429Y-91692728D01*
X154629432Y-91692734D01*
X154759954Y-91879141D01*
X154920858Y-92040045D01*
X155106622Y-92170117D01*
X155150247Y-92224693D01*
X155159499Y-92271692D01*
X155159499Y-92339054D01*
X155159498Y-92339054D01*
X155200423Y-92491785D01*
X155229358Y-92541900D01*
X155229359Y-92541904D01*
X155229360Y-92541904D01*
X155279479Y-92628714D01*
X155279481Y-92628717D01*
X155398349Y-92747585D01*
X155398355Y-92747590D01*
X156815139Y-94164374D01*
X156815149Y-94164385D01*
X156819479Y-94168715D01*
X156819480Y-94168716D01*
X156931284Y-94280520D01*
X157018095Y-94330639D01*
X157018097Y-94330641D01*
X157056151Y-94352611D01*
X157068215Y-94359577D01*
X157220943Y-94400501D01*
X157220946Y-94400501D01*
X157386653Y-94400501D01*
X157386669Y-94400500D01*
X176213331Y-94400500D01*
X176213347Y-94400501D01*
X176220943Y-94400501D01*
X176379054Y-94400501D01*
X176379057Y-94400501D01*
X176531785Y-94359577D01*
X176581904Y-94330639D01*
X176668716Y-94280520D01*
X176780520Y-94168716D01*
X176780520Y-94168714D01*
X176790728Y-94158507D01*
X176790729Y-94158504D01*
X178218536Y-92730698D01*
X178279857Y-92697215D01*
X178292310Y-92695163D01*
X178379255Y-92685368D01*
X178549522Y-92625789D01*
X178702262Y-92529816D01*
X178829816Y-92402262D01*
X178925789Y-92249522D01*
X178985368Y-92079255D01*
X178989338Y-92044020D01*
X179005565Y-91900003D01*
X179005565Y-91899996D01*
X178985369Y-91720750D01*
X178985368Y-91720745D01*
X178975567Y-91692736D01*
X178925789Y-91550478D01*
X178897794Y-91505925D01*
X178829815Y-91397737D01*
X178702262Y-91270184D01*
X178549523Y-91174211D01*
X178379254Y-91114631D01*
X178379249Y-91114630D01*
X178200004Y-91094435D01*
X178199996Y-91094435D01*
X178020750Y-91114630D01*
X178020745Y-91114631D01*
X177850476Y-91174211D01*
X177697737Y-91270184D01*
X177570184Y-91397737D01*
X177474210Y-91550478D01*
X177414630Y-91720750D01*
X177404837Y-91807667D01*
X177377770Y-91872081D01*
X177369298Y-91881464D01*
X176087584Y-93163181D01*
X176026261Y-93196666D01*
X175999903Y-93199500D01*
X157600097Y-93199500D01*
X157533058Y-93179815D01*
X157512416Y-93163181D01*
X156580203Y-92230968D01*
X156546718Y-92169645D01*
X156551702Y-92099953D01*
X156593574Y-92044020D01*
X156596766Y-92041709D01*
X156599140Y-92040046D01*
X156760045Y-91879141D01*
X156760046Y-91879140D01*
X156760047Y-91879139D01*
X156890568Y-91692734D01*
X156917618Y-91634724D01*
X156963790Y-91582285D01*
X157030983Y-91563133D01*
X157097865Y-91583348D01*
X157142382Y-91634725D01*
X157169429Y-91692728D01*
X157169432Y-91692734D01*
X157299954Y-91879141D01*
X157460858Y-92040045D01*
X157466535Y-92044020D01*
X157647266Y-92170568D01*
X157853504Y-92266739D01*
X158073308Y-92325635D01*
X158226688Y-92339054D01*
X158299998Y-92345468D01*
X158300000Y-92345468D01*
X158300002Y-92345468D01*
X158356807Y-92340498D01*
X158526692Y-92325635D01*
X158746496Y-92266739D01*
X158952734Y-92170568D01*
X159139139Y-92040047D01*
X159300047Y-91879139D01*
X159430568Y-91692734D01*
X159457618Y-91634724D01*
X159503790Y-91582285D01*
X159570983Y-91563133D01*
X159637865Y-91583348D01*
X159682382Y-91634725D01*
X159709429Y-91692728D01*
X159709432Y-91692734D01*
X159839954Y-91879141D01*
X160000858Y-92040045D01*
X160006535Y-92044020D01*
X160187266Y-92170568D01*
X160393504Y-92266739D01*
X160613308Y-92325635D01*
X160766688Y-92339054D01*
X160839998Y-92345468D01*
X160840000Y-92345468D01*
X160840002Y-92345468D01*
X160896807Y-92340498D01*
X161066692Y-92325635D01*
X161286496Y-92266739D01*
X161492734Y-92170568D01*
X161679139Y-92040047D01*
X161840047Y-91879139D01*
X161970568Y-91692734D01*
X161997895Y-91634129D01*
X162044064Y-91581695D01*
X162111257Y-91562542D01*
X162178139Y-91582757D01*
X162222657Y-91634133D01*
X162249865Y-91692482D01*
X162380342Y-91878820D01*
X162541179Y-92039657D01*
X162727517Y-92170134D01*
X162933673Y-92266265D01*
X162933682Y-92266269D01*
X163129999Y-92318872D01*
X163130000Y-92318871D01*
X163130000Y-91473012D01*
X163187007Y-91505925D01*
X163314174Y-91540000D01*
X163445826Y-91540000D01*
X163572993Y-91505925D01*
X163630000Y-91473012D01*
X163630000Y-92318872D01*
X163826317Y-92266269D01*
X163826326Y-92266265D01*
X164032482Y-92170134D01*
X164218820Y-92039657D01*
X164379657Y-91878820D01*
X164510132Y-91692484D01*
X164537341Y-91634134D01*
X164583513Y-91581695D01*
X164650707Y-91562542D01*
X164717588Y-91582757D01*
X164762106Y-91634133D01*
X164789431Y-91692732D01*
X164789432Y-91692734D01*
X164919954Y-91879141D01*
X165080858Y-92040045D01*
X165086535Y-92044020D01*
X165267266Y-92170568D01*
X165473504Y-92266739D01*
X165693308Y-92325635D01*
X165846688Y-92339054D01*
X165919998Y-92345468D01*
X165920000Y-92345468D01*
X165920002Y-92345468D01*
X165976807Y-92340498D01*
X166146692Y-92325635D01*
X166366496Y-92266739D01*
X166572734Y-92170568D01*
X166759139Y-92040047D01*
X166920047Y-91879139D01*
X167050568Y-91692734D01*
X167077618Y-91634724D01*
X167123790Y-91582285D01*
X167190983Y-91563133D01*
X167257865Y-91583348D01*
X167302382Y-91634725D01*
X167329429Y-91692728D01*
X167329432Y-91692734D01*
X167459954Y-91879141D01*
X167620858Y-92040045D01*
X167626535Y-92044020D01*
X167807266Y-92170568D01*
X168013504Y-92266739D01*
X168233308Y-92325635D01*
X168386688Y-92339054D01*
X168459998Y-92345468D01*
X168460000Y-92345468D01*
X168460002Y-92345468D01*
X168516807Y-92340498D01*
X168686692Y-92325635D01*
X168906496Y-92266739D01*
X169112734Y-92170568D01*
X169299139Y-92040047D01*
X169460047Y-91879139D01*
X169477272Y-91854539D01*
X169531848Y-91810913D01*
X169601346Y-91803718D01*
X169663701Y-91835239D01*
X169699116Y-91895468D01*
X169702138Y-91912406D01*
X169705908Y-91947483D01*
X169756202Y-92082328D01*
X169756206Y-92082335D01*
X169842452Y-92197544D01*
X169842455Y-92197547D01*
X169957664Y-92283793D01*
X169957671Y-92283797D01*
X170092517Y-92334091D01*
X170092516Y-92334091D01*
X170099444Y-92334835D01*
X170152127Y-92340500D01*
X171847872Y-92340499D01*
X171907483Y-92334091D01*
X172042331Y-92283796D01*
X172157546Y-92197546D01*
X172243796Y-92082331D01*
X172294091Y-91947483D01*
X172300500Y-91887873D01*
X172300499Y-90192128D01*
X172294091Y-90132517D01*
X172283632Y-90104476D01*
X172243797Y-89997671D01*
X172243793Y-89997664D01*
X172157547Y-89882455D01*
X172157544Y-89882452D01*
X172042335Y-89796206D01*
X172042328Y-89796202D01*
X171907482Y-89745908D01*
X171907483Y-89745908D01*
X171847883Y-89739501D01*
X171847881Y-89739500D01*
X171847873Y-89739500D01*
X171847864Y-89739500D01*
X170152129Y-89739500D01*
X170152123Y-89739501D01*
X170092516Y-89745908D01*
X169957671Y-89796202D01*
X169957664Y-89796206D01*
X169842455Y-89882452D01*
X169842452Y-89882455D01*
X169756206Y-89997664D01*
X169756202Y-89997671D01*
X169705908Y-90132516D01*
X169702137Y-90167596D01*
X169675398Y-90232146D01*
X169618006Y-90271994D01*
X169548180Y-90274487D01*
X169488092Y-90238834D01*
X169477273Y-90225462D01*
X169460045Y-90200858D01*
X169299141Y-90039954D01*
X169112734Y-89909432D01*
X169112732Y-89909431D01*
X168906497Y-89813261D01*
X168906488Y-89813258D01*
X168686697Y-89754366D01*
X168686693Y-89754365D01*
X168686692Y-89754365D01*
X168686691Y-89754364D01*
X168686686Y-89754364D01*
X168460002Y-89734532D01*
X168459998Y-89734532D01*
X168233313Y-89754364D01*
X168233302Y-89754366D01*
X168013511Y-89813258D01*
X168013502Y-89813261D01*
X167807267Y-89909431D01*
X167807265Y-89909432D01*
X167620858Y-90039954D01*
X167459954Y-90200858D01*
X167329432Y-90387265D01*
X167329431Y-90387267D01*
X167302382Y-90445275D01*
X167256209Y-90497714D01*
X167189016Y-90516866D01*
X167122135Y-90496650D01*
X167077618Y-90445275D01*
X167050686Y-90387520D01*
X167050568Y-90387266D01*
X166920047Y-90200861D01*
X166920045Y-90200858D01*
X166759141Y-90039954D01*
X166572734Y-89909432D01*
X166572732Y-89909431D01*
X166366497Y-89813261D01*
X166366488Y-89813258D01*
X166146697Y-89754366D01*
X166146693Y-89754365D01*
X166146692Y-89754365D01*
X166146691Y-89754364D01*
X166146686Y-89754364D01*
X165920002Y-89734532D01*
X165919998Y-89734532D01*
X165693313Y-89754364D01*
X165693302Y-89754366D01*
X165473511Y-89813258D01*
X165473502Y-89813261D01*
X165267267Y-89909431D01*
X165267265Y-89909432D01*
X165080858Y-90039954D01*
X164919954Y-90200858D01*
X164795573Y-90378495D01*
X164789432Y-90387266D01*
X164789315Y-90387518D01*
X164762106Y-90445867D01*
X164715933Y-90498306D01*
X164648739Y-90517457D01*
X164581858Y-90497241D01*
X164537342Y-90445865D01*
X164510135Y-90387520D01*
X164510134Y-90387518D01*
X164379657Y-90201179D01*
X164218820Y-90040342D01*
X164032482Y-89909865D01*
X163826328Y-89813734D01*
X163630000Y-89761127D01*
X163630000Y-90606988D01*
X163572993Y-90574075D01*
X163445826Y-90540000D01*
X163314174Y-90540000D01*
X163187007Y-90574075D01*
X163130000Y-90606988D01*
X163130000Y-89761127D01*
X162933671Y-89813734D01*
X162727517Y-89909865D01*
X162541179Y-90040342D01*
X162380342Y-90201179D01*
X162249867Y-90387515D01*
X162222657Y-90445867D01*
X162176484Y-90498306D01*
X162109290Y-90517457D01*
X162042409Y-90497241D01*
X161997893Y-90445865D01*
X161970685Y-90387518D01*
X161970568Y-90387266D01*
X161840047Y-90200861D01*
X161840045Y-90200858D01*
X161679141Y-90039954D01*
X161492734Y-89909432D01*
X161492732Y-89909431D01*
X161286497Y-89813261D01*
X161286488Y-89813258D01*
X161066697Y-89754366D01*
X161066693Y-89754365D01*
X161066692Y-89754365D01*
X161066691Y-89754364D01*
X161066686Y-89754364D01*
X160840002Y-89734532D01*
X160839998Y-89734532D01*
X160613313Y-89754364D01*
X160613302Y-89754366D01*
X160393511Y-89813258D01*
X160393502Y-89813261D01*
X160187267Y-89909431D01*
X160187265Y-89909432D01*
X160000858Y-90039954D01*
X159839954Y-90200858D01*
X159709432Y-90387265D01*
X159709431Y-90387267D01*
X159682382Y-90445275D01*
X159636209Y-90497714D01*
X159569016Y-90516866D01*
X159502135Y-90496650D01*
X159457618Y-90445275D01*
X159430686Y-90387520D01*
X159430568Y-90387266D01*
X159300047Y-90200861D01*
X159300045Y-90200858D01*
X159139141Y-90039954D01*
X158952734Y-89909432D01*
X158952732Y-89909431D01*
X158746497Y-89813261D01*
X158746488Y-89813258D01*
X158526697Y-89754366D01*
X158526693Y-89754365D01*
X158526692Y-89754365D01*
X158526691Y-89754364D01*
X158526686Y-89754364D01*
X158300002Y-89734532D01*
X158299998Y-89734532D01*
X158073313Y-89754364D01*
X158073302Y-89754366D01*
X157853511Y-89813258D01*
X157853502Y-89813261D01*
X157647267Y-89909431D01*
X157647265Y-89909432D01*
X157460858Y-90039954D01*
X157299954Y-90200858D01*
X157169432Y-90387265D01*
X157169431Y-90387267D01*
X157142382Y-90445275D01*
X157096209Y-90497714D01*
X157029016Y-90516866D01*
X156962135Y-90496650D01*
X156917618Y-90445275D01*
X156890686Y-90387520D01*
X156890568Y-90387266D01*
X156760047Y-90200861D01*
X156760045Y-90200858D01*
X156599141Y-90039954D01*
X156412734Y-89909432D01*
X156412732Y-89909431D01*
X156206497Y-89813261D01*
X156206488Y-89813258D01*
X155986697Y-89754366D01*
X155986693Y-89754365D01*
X155986692Y-89754365D01*
X155986691Y-89754364D01*
X155986686Y-89754364D01*
X155760002Y-89734532D01*
X155759998Y-89734532D01*
X155533313Y-89754364D01*
X155533302Y-89754366D01*
X155313511Y-89813258D01*
X155313502Y-89813261D01*
X155107267Y-89909431D01*
X155107265Y-89909432D01*
X154920858Y-90039954D01*
X154759954Y-90200858D01*
X154629432Y-90387265D01*
X154629431Y-90387267D01*
X154602382Y-90445275D01*
X154556209Y-90497714D01*
X154489016Y-90516866D01*
X154422135Y-90496650D01*
X154377618Y-90445275D01*
X154350686Y-90387520D01*
X154350568Y-90387266D01*
X154220047Y-90200861D01*
X154220045Y-90200858D01*
X154059141Y-90039954D01*
X153872734Y-89909432D01*
X153872732Y-89909431D01*
X153666497Y-89813261D01*
X153666488Y-89813258D01*
X153446697Y-89754366D01*
X153446693Y-89754365D01*
X153446692Y-89754365D01*
X153446691Y-89754364D01*
X153446686Y-89754364D01*
X153220002Y-89734532D01*
X153219998Y-89734532D01*
X152993313Y-89754364D01*
X152993302Y-89754366D01*
X152773511Y-89813258D01*
X152773502Y-89813261D01*
X152567267Y-89909431D01*
X152567265Y-89909432D01*
X152380858Y-90039954D01*
X152219954Y-90200858D01*
X152089432Y-90387265D01*
X152089431Y-90387267D01*
X152062382Y-90445275D01*
X152016209Y-90497714D01*
X151949016Y-90516866D01*
X151882135Y-90496650D01*
X151837618Y-90445275D01*
X151810686Y-90387520D01*
X151810568Y-90387266D01*
X151680047Y-90200861D01*
X151680045Y-90200858D01*
X151519141Y-90039954D01*
X151332734Y-89909432D01*
X151332732Y-89909431D01*
X151126497Y-89813261D01*
X151126488Y-89813258D01*
X150906697Y-89754366D01*
X150906693Y-89754365D01*
X150906692Y-89754365D01*
X150906691Y-89754364D01*
X150906686Y-89754364D01*
X150680002Y-89734532D01*
X150679998Y-89734532D01*
X150453313Y-89754364D01*
X150453302Y-89754366D01*
X150233511Y-89813258D01*
X150233502Y-89813261D01*
X150027267Y-89909431D01*
X150027265Y-89909432D01*
X149840858Y-90039954D01*
X149679954Y-90200858D01*
X149549432Y-90387265D01*
X149549431Y-90387267D01*
X149522382Y-90445275D01*
X149476209Y-90497714D01*
X149409016Y-90516866D01*
X149342135Y-90496650D01*
X149297618Y-90445275D01*
X149270686Y-90387520D01*
X149270568Y-90387266D01*
X149140047Y-90200861D01*
X149140045Y-90200858D01*
X148979141Y-90039954D01*
X148792734Y-89909432D01*
X148792732Y-89909431D01*
X148586497Y-89813261D01*
X148586488Y-89813258D01*
X148366697Y-89754366D01*
X148366693Y-89754365D01*
X148366692Y-89754365D01*
X148366691Y-89754364D01*
X148366686Y-89754364D01*
X148140002Y-89734532D01*
X148139998Y-89734532D01*
X147913313Y-89754364D01*
X147913302Y-89754366D01*
X147693511Y-89813258D01*
X147693502Y-89813261D01*
X147487267Y-89909431D01*
X147487265Y-89909432D01*
X147300858Y-90039954D01*
X147139954Y-90200858D01*
X147009432Y-90387265D01*
X147009431Y-90387267D01*
X146982382Y-90445275D01*
X146936209Y-90497714D01*
X146869016Y-90516866D01*
X146802135Y-90496650D01*
X146757618Y-90445275D01*
X146730686Y-90387520D01*
X146730568Y-90387266D01*
X146600047Y-90200861D01*
X146600045Y-90200858D01*
X146439141Y-90039954D01*
X146252734Y-89909432D01*
X146252732Y-89909431D01*
X146046497Y-89813261D01*
X146046488Y-89813258D01*
X145826697Y-89754366D01*
X145826693Y-89754365D01*
X145826692Y-89754365D01*
X145826691Y-89754364D01*
X145826686Y-89754364D01*
X145600002Y-89734532D01*
X145599998Y-89734532D01*
X145373313Y-89754364D01*
X145373302Y-89754366D01*
X145153511Y-89813258D01*
X145153502Y-89813261D01*
X144947267Y-89909431D01*
X144947265Y-89909432D01*
X144760858Y-90039954D01*
X144599954Y-90200858D01*
X144469432Y-90387265D01*
X144469431Y-90387267D01*
X144442382Y-90445275D01*
X144396209Y-90497714D01*
X144329016Y-90516866D01*
X144262135Y-90496650D01*
X144217618Y-90445275D01*
X144190686Y-90387520D01*
X144190568Y-90387266D01*
X144060047Y-90200861D01*
X144060045Y-90200858D01*
X143899141Y-90039954D01*
X143712734Y-89909432D01*
X143712732Y-89909431D01*
X143506497Y-89813261D01*
X143506488Y-89813258D01*
X143286697Y-89754366D01*
X143286693Y-89754365D01*
X143286692Y-89754365D01*
X143286691Y-89754364D01*
X143286686Y-89754364D01*
X143060002Y-89734532D01*
X143059998Y-89734532D01*
X142833313Y-89754364D01*
X142833302Y-89754366D01*
X142613511Y-89813258D01*
X142613502Y-89813261D01*
X142407267Y-89909431D01*
X142407265Y-89909432D01*
X142220858Y-90039954D01*
X142059954Y-90200858D01*
X141929432Y-90387265D01*
X141929431Y-90387267D01*
X141902382Y-90445275D01*
X141856209Y-90497714D01*
X141789016Y-90516866D01*
X141722135Y-90496650D01*
X141677618Y-90445275D01*
X141650686Y-90387520D01*
X141650568Y-90387266D01*
X141520047Y-90200861D01*
X141520045Y-90200858D01*
X141359141Y-90039954D01*
X141172734Y-89909432D01*
X141172732Y-89909431D01*
X140966497Y-89813261D01*
X140966488Y-89813258D01*
X140746697Y-89754366D01*
X140746693Y-89754365D01*
X140746692Y-89754365D01*
X140746691Y-89754364D01*
X140746686Y-89754364D01*
X140520002Y-89734532D01*
X140519998Y-89734532D01*
X140293313Y-89754364D01*
X140293302Y-89754366D01*
X140073511Y-89813258D01*
X140073502Y-89813261D01*
X139867267Y-89909431D01*
X139867265Y-89909432D01*
X139680858Y-90039954D01*
X139519954Y-90200858D01*
X139389432Y-90387265D01*
X139389431Y-90387267D01*
X139362382Y-90445275D01*
X139316209Y-90497714D01*
X139249016Y-90516866D01*
X139182135Y-90496650D01*
X139137618Y-90445275D01*
X139110686Y-90387520D01*
X139110568Y-90387266D01*
X138980047Y-90200861D01*
X138980045Y-90200858D01*
X138819141Y-90039954D01*
X138632734Y-89909432D01*
X138632732Y-89909431D01*
X138426497Y-89813261D01*
X138426488Y-89813258D01*
X138206697Y-89754366D01*
X138206693Y-89754365D01*
X138206692Y-89754365D01*
X138206691Y-89754364D01*
X138206686Y-89754364D01*
X137980002Y-89734532D01*
X137979998Y-89734532D01*
X137753313Y-89754364D01*
X137753302Y-89754366D01*
X137533511Y-89813258D01*
X137533502Y-89813261D01*
X137327267Y-89909431D01*
X137327265Y-89909432D01*
X137140858Y-90039954D01*
X136979954Y-90200858D01*
X136849432Y-90387265D01*
X136849431Y-90387267D01*
X136822382Y-90445275D01*
X136776209Y-90497714D01*
X136709016Y-90516866D01*
X136642135Y-90496650D01*
X136597618Y-90445275D01*
X136570686Y-90387520D01*
X136570568Y-90387266D01*
X136440047Y-90200861D01*
X136440045Y-90200858D01*
X136279141Y-90039954D01*
X136092734Y-89909432D01*
X136092732Y-89909431D01*
X135886497Y-89813261D01*
X135886488Y-89813258D01*
X135666697Y-89754366D01*
X135666693Y-89754365D01*
X135666692Y-89754365D01*
X135666691Y-89754364D01*
X135666686Y-89754364D01*
X135440002Y-89734532D01*
X135439998Y-89734532D01*
X135213313Y-89754364D01*
X135213302Y-89754366D01*
X134993511Y-89813258D01*
X134993502Y-89813261D01*
X134787267Y-89909431D01*
X134787265Y-89909432D01*
X134600858Y-90039954D01*
X134439954Y-90200858D01*
X134309432Y-90387265D01*
X134309431Y-90387267D01*
X134213261Y-90593502D01*
X134213258Y-90593511D01*
X134154366Y-90813302D01*
X134154364Y-90813313D01*
X134134532Y-91039998D01*
X130374903Y-91039998D01*
X130398615Y-88899994D01*
X181819443Y-88899994D01*
X181819443Y-88900005D01*
X181839634Y-89143683D01*
X181839636Y-89143695D01*
X181899663Y-89380734D01*
X181997888Y-89604666D01*
X182131632Y-89809378D01*
X182297242Y-89989277D01*
X182297252Y-89989286D01*
X182344219Y-90025842D01*
X182490212Y-90139473D01*
X182705267Y-90255855D01*
X182705270Y-90255856D01*
X182936541Y-90335251D01*
X182936543Y-90335251D01*
X182936545Y-90335252D01*
X183177737Y-90375500D01*
X183177738Y-90375500D01*
X183422262Y-90375500D01*
X183422263Y-90375500D01*
X183663455Y-90335252D01*
X183755928Y-90303505D01*
X183825725Y-90300356D01*
X183883871Y-90333106D01*
X186515139Y-92964374D01*
X186515149Y-92964385D01*
X186519479Y-92968715D01*
X186519480Y-92968716D01*
X186631284Y-93080520D01*
X186718095Y-93130639D01*
X186718097Y-93130641D01*
X186756151Y-93152611D01*
X186768215Y-93159577D01*
X186920943Y-93200500D01*
X210113331Y-93200500D01*
X210113347Y-93200501D01*
X210120943Y-93200501D01*
X210279054Y-93200501D01*
X210279057Y-93200501D01*
X210431785Y-93159577D01*
X210481904Y-93130639D01*
X210568716Y-93080520D01*
X210680520Y-92968716D01*
X210680520Y-92968714D01*
X210690728Y-92958507D01*
X210690730Y-92958504D01*
X212498506Y-91150728D01*
X212498511Y-91150724D01*
X212508714Y-91140520D01*
X212508716Y-91140520D01*
X212620520Y-91028716D01*
X212670897Y-90941459D01*
X212699577Y-90891785D01*
X212740500Y-90739058D01*
X212740500Y-90629090D01*
X212760185Y-90562051D01*
X212812101Y-90516706D01*
X212817830Y-90514035D01*
X213011401Y-90378495D01*
X213178495Y-90211401D01*
X213314035Y-90017830D01*
X213413903Y-89803663D01*
X213475063Y-89575408D01*
X213495659Y-89340000D01*
X213475063Y-89104592D01*
X213413903Y-88876337D01*
X213314035Y-88662171D01*
X213309936Y-88656316D01*
X213178494Y-88468597D01*
X213011402Y-88301506D01*
X213011396Y-88301501D01*
X212825842Y-88171575D01*
X212782217Y-88116998D01*
X212775023Y-88047500D01*
X212806546Y-87985145D01*
X212825842Y-87968425D01*
X212848026Y-87952891D01*
X213011401Y-87838495D01*
X213178495Y-87671401D01*
X213314035Y-87477830D01*
X213413903Y-87263663D01*
X213475063Y-87035408D01*
X213495659Y-86800000D01*
X213475063Y-86564592D01*
X213413903Y-86336337D01*
X213314035Y-86122171D01*
X213308425Y-86114158D01*
X213178494Y-85928597D01*
X213011402Y-85761506D01*
X213011396Y-85761501D01*
X212825842Y-85631575D01*
X212782217Y-85576998D01*
X212775023Y-85507500D01*
X212806546Y-85445145D01*
X212825842Y-85428425D01*
X212848026Y-85412891D01*
X213011401Y-85298495D01*
X213178495Y-85131401D01*
X213314035Y-84937830D01*
X213413903Y-84723663D01*
X213475063Y-84495408D01*
X213495659Y-84260000D01*
X213475063Y-84024592D01*
X213413903Y-83796337D01*
X213314035Y-83582171D01*
X213308425Y-83574158D01*
X213178494Y-83388597D01*
X213011398Y-83221501D01*
X213010030Y-83220354D01*
X213009592Y-83219696D01*
X213007573Y-83217677D01*
X213007978Y-83217271D01*
X212971330Y-83162182D01*
X212970224Y-83092321D01*
X213007063Y-83032952D01*
X213050737Y-83007662D01*
X213059334Y-83004814D01*
X213208656Y-82912712D01*
X213332712Y-82788656D01*
X213424814Y-82639334D01*
X213479999Y-82472797D01*
X213490500Y-82370009D01*
X213490499Y-81069992D01*
X213479999Y-80967203D01*
X213424814Y-80800666D01*
X213332712Y-80651344D01*
X213208656Y-80527288D01*
X213059334Y-80435186D01*
X212892797Y-80380001D01*
X212892795Y-80380000D01*
X212790010Y-80369500D01*
X211489998Y-80369500D01*
X211489981Y-80369501D01*
X211387203Y-80380000D01*
X211387200Y-80380001D01*
X211220668Y-80435185D01*
X211220663Y-80435187D01*
X211071342Y-80527289D01*
X210947289Y-80651342D01*
X210855187Y-80800663D01*
X210855182Y-80800674D01*
X210831205Y-80873032D01*
X210791432Y-80930477D01*
X210726916Y-80957299D01*
X210716138Y-80957412D01*
X210082962Y-81590589D01*
X210065925Y-81527007D01*
X210000099Y-81412993D01*
X209907007Y-81319901D01*
X209792993Y-81254075D01*
X209729410Y-81237037D01*
X210361373Y-80605073D01*
X210361373Y-80605072D01*
X210277583Y-80546402D01*
X210277579Y-80546400D01*
X210063492Y-80446570D01*
X210063483Y-80446566D01*
X209835326Y-80385432D01*
X209835315Y-80385430D01*
X209600002Y-80364843D01*
X209599998Y-80364843D01*
X209364684Y-80385430D01*
X209364673Y-80385432D01*
X209136516Y-80446566D01*
X209136507Y-80446570D01*
X208922419Y-80546401D01*
X208838625Y-80605072D01*
X209470590Y-81237037D01*
X209407007Y-81254075D01*
X209292993Y-81319901D01*
X209199901Y-81412993D01*
X209134075Y-81527007D01*
X209117037Y-81590589D01*
X208485073Y-80958625D01*
X208485072Y-80958625D01*
X208426401Y-81042419D01*
X208326570Y-81256507D01*
X208326566Y-81256516D01*
X208265432Y-81484673D01*
X208265430Y-81484684D01*
X208244843Y-81719998D01*
X208244843Y-81720001D01*
X208265430Y-81955315D01*
X208265432Y-81955326D01*
X208326566Y-82183483D01*
X208326570Y-82183492D01*
X208426400Y-82397579D01*
X208426402Y-82397583D01*
X208485072Y-82481373D01*
X208485073Y-82481373D01*
X209117037Y-81849409D01*
X209134075Y-81912993D01*
X209199901Y-82027007D01*
X209292993Y-82120099D01*
X209407007Y-82185925D01*
X209470590Y-82202962D01*
X208838625Y-82834925D01*
X208914594Y-82888119D01*
X208958219Y-82942696D01*
X208965413Y-83012194D01*
X208933890Y-83074549D01*
X208914595Y-83091269D01*
X208728594Y-83221508D01*
X208561505Y-83388597D01*
X208425965Y-83582169D01*
X208425963Y-83582172D01*
X208373567Y-83694533D01*
X208327394Y-83746971D01*
X208323188Y-83749512D01*
X208271287Y-83779478D01*
X208271281Y-83779482D01*
X208159478Y-83891286D01*
X202720600Y-89330163D01*
X202659277Y-89363648D01*
X202655706Y-89364370D01*
X202570068Y-89380380D01*
X202570064Y-89380381D01*
X202570062Y-89380381D01*
X202570060Y-89380382D01*
X202453907Y-89425380D01*
X202362601Y-89460752D01*
X202362595Y-89460754D01*
X202173439Y-89577874D01*
X202173437Y-89577876D01*
X202009020Y-89727761D01*
X201874943Y-89905308D01*
X201874938Y-89905316D01*
X201775775Y-90104461D01*
X201775769Y-90104476D01*
X201714885Y-90318462D01*
X201714884Y-90318464D01*
X201694357Y-90539999D01*
X201694357Y-90540000D01*
X201714884Y-90761535D01*
X201714885Y-90761537D01*
X201775769Y-90975523D01*
X201775775Y-90975538D01*
X201874938Y-91174683D01*
X201874943Y-91174691D01*
X202009020Y-91352238D01*
X202173437Y-91502123D01*
X202173439Y-91502125D01*
X202362595Y-91619245D01*
X202362596Y-91619245D01*
X202362599Y-91619247D01*
X202570060Y-91699618D01*
X202788757Y-91740500D01*
X202788759Y-91740500D01*
X203011241Y-91740500D01*
X203011243Y-91740500D01*
X203229940Y-91699618D01*
X203437401Y-91619247D01*
X203626562Y-91502124D01*
X203790981Y-91352236D01*
X203925058Y-91174689D01*
X204024229Y-90975528D01*
X204085115Y-90761536D01*
X204105643Y-90540000D01*
X204085115Y-90318464D01*
X204024229Y-90104472D01*
X203992103Y-90039954D01*
X203937856Y-89931011D01*
X203925595Y-89862225D01*
X203952468Y-89797730D01*
X203961165Y-89788068D01*
X208501988Y-85247246D01*
X208563311Y-85213761D01*
X208633003Y-85218745D01*
X208677350Y-85247246D01*
X208728597Y-85298493D01*
X208728603Y-85298498D01*
X208914158Y-85428425D01*
X208957783Y-85483002D01*
X208964977Y-85552500D01*
X208933454Y-85614855D01*
X208914158Y-85631575D01*
X208728597Y-85761505D01*
X208561505Y-85928597D01*
X208425965Y-86122169D01*
X208425964Y-86122171D01*
X208326098Y-86336335D01*
X208326094Y-86336344D01*
X208264938Y-86564586D01*
X208264936Y-86564596D01*
X208244341Y-86799999D01*
X208244341Y-86800000D01*
X208264936Y-87035403D01*
X208264938Y-87035413D01*
X208326094Y-87263655D01*
X208326096Y-87263659D01*
X208326097Y-87263663D01*
X208379202Y-87377546D01*
X208425965Y-87477830D01*
X208425967Y-87477834D01*
X208472399Y-87544145D01*
X208561501Y-87671396D01*
X208561506Y-87671402D01*
X208728597Y-87838493D01*
X208728603Y-87838498D01*
X208914158Y-87968425D01*
X208957783Y-88023002D01*
X208964977Y-88092500D01*
X208933454Y-88154855D01*
X208914158Y-88171575D01*
X208728597Y-88301505D01*
X208561505Y-88468597D01*
X208425965Y-88662169D01*
X208425964Y-88662171D01*
X208326098Y-88876335D01*
X208326094Y-88876344D01*
X208264938Y-89104586D01*
X208264936Y-89104596D01*
X208244341Y-89339999D01*
X208244341Y-89340000D01*
X208264936Y-89575403D01*
X208264938Y-89575413D01*
X208326094Y-89803655D01*
X208326096Y-89803659D01*
X208326097Y-89803663D01*
X208412652Y-89989281D01*
X208425965Y-90017830D01*
X208425967Y-90017834D01*
X208486632Y-90104472D01*
X208561505Y-90211401D01*
X208728599Y-90378495D01*
X208786152Y-90418794D01*
X208922165Y-90514032D01*
X208922167Y-90514033D01*
X208922170Y-90514035D01*
X209136337Y-90613903D01*
X209364592Y-90675063D01*
X209552918Y-90691539D01*
X209599999Y-90695659D01*
X209600000Y-90695659D01*
X209600001Y-90695659D01*
X209639234Y-90692226D01*
X209835408Y-90675063D01*
X210063663Y-90613903D01*
X210277830Y-90514035D01*
X210471401Y-90378495D01*
X210638495Y-90211401D01*
X210768425Y-90025842D01*
X210823002Y-89982217D01*
X210892500Y-89975023D01*
X210954855Y-90006546D01*
X210971575Y-90025842D01*
X211101501Y-90211396D01*
X211101506Y-90211402D01*
X211268593Y-90378490D01*
X211268596Y-90378492D01*
X211268599Y-90378495D01*
X211326156Y-90418796D01*
X211369779Y-90473371D01*
X211376973Y-90542869D01*
X211345451Y-90605224D01*
X211342712Y-90608051D01*
X209987584Y-91963181D01*
X209926261Y-91996666D01*
X209899903Y-91999500D01*
X187300097Y-91999500D01*
X187233058Y-91979815D01*
X187212416Y-91963181D01*
X184735938Y-89486703D01*
X184702453Y-89425380D01*
X184703414Y-89368581D01*
X184760361Y-89143704D01*
X184760363Y-89143695D01*
X184760364Y-89143692D01*
X184763604Y-89104592D01*
X184780557Y-88900005D01*
X184780557Y-88899994D01*
X194319443Y-88899994D01*
X194319443Y-88900005D01*
X194339634Y-89143683D01*
X194339636Y-89143695D01*
X194399663Y-89380734D01*
X194497888Y-89604666D01*
X194631632Y-89809378D01*
X194797242Y-89989277D01*
X194797252Y-89989286D01*
X194844219Y-90025842D01*
X194990212Y-90139473D01*
X195205267Y-90255855D01*
X195205270Y-90255856D01*
X195436541Y-90335251D01*
X195436543Y-90335251D01*
X195436545Y-90335252D01*
X195677737Y-90375500D01*
X195677738Y-90375500D01*
X195922262Y-90375500D01*
X195922263Y-90375500D01*
X196163455Y-90335252D01*
X196394733Y-90255855D01*
X196609788Y-90139473D01*
X196802754Y-89989281D01*
X196968368Y-89809377D01*
X197102111Y-89604667D01*
X197200336Y-89380736D01*
X197260364Y-89143692D01*
X197263604Y-89104592D01*
X197280557Y-88900005D01*
X197280557Y-88899994D01*
X197260365Y-88656316D01*
X197260363Y-88656304D01*
X197255440Y-88636864D01*
X197200336Y-88419264D01*
X197102111Y-88195333D01*
X197056740Y-88125887D01*
X196968367Y-87990621D01*
X196802757Y-87810722D01*
X196802747Y-87810713D01*
X196609791Y-87660529D01*
X196609787Y-87660526D01*
X196394734Y-87544145D01*
X196394729Y-87544143D01*
X196163458Y-87464748D01*
X195982561Y-87434562D01*
X195922263Y-87424500D01*
X195677737Y-87424500D01*
X195629498Y-87432549D01*
X195436541Y-87464748D01*
X195205270Y-87544143D01*
X195205265Y-87544145D01*
X194990212Y-87660526D01*
X194990208Y-87660529D01*
X194797252Y-87810713D01*
X194797242Y-87810722D01*
X194631632Y-87990621D01*
X194497888Y-88195333D01*
X194399663Y-88419265D01*
X194339636Y-88656304D01*
X194339634Y-88656316D01*
X194319443Y-88899994D01*
X184780557Y-88899994D01*
X184760365Y-88656316D01*
X184760363Y-88656304D01*
X184755440Y-88636864D01*
X184700336Y-88419264D01*
X184602111Y-88195333D01*
X184556740Y-88125887D01*
X184468367Y-87990621D01*
X184302757Y-87810722D01*
X184302747Y-87810713D01*
X184109791Y-87660529D01*
X184109787Y-87660526D01*
X183894734Y-87544145D01*
X183894729Y-87544143D01*
X183663458Y-87464748D01*
X183482561Y-87434562D01*
X183422263Y-87424500D01*
X183177737Y-87424500D01*
X183129498Y-87432549D01*
X182936541Y-87464748D01*
X182705270Y-87544143D01*
X182705265Y-87544145D01*
X182490212Y-87660526D01*
X182490208Y-87660529D01*
X182297252Y-87810713D01*
X182297242Y-87810722D01*
X182131632Y-87990621D01*
X181997888Y-88195333D01*
X181899663Y-88419265D01*
X181839636Y-88656304D01*
X181839634Y-88656316D01*
X181819443Y-88899994D01*
X130398615Y-88899994D01*
X130421745Y-86812498D01*
X148294390Y-86812498D01*
X148294390Y-86812501D01*
X148314804Y-87097933D01*
X148375628Y-87377537D01*
X148375630Y-87377543D01*
X148375631Y-87377546D01*
X148475633Y-87645661D01*
X148475635Y-87645666D01*
X148612770Y-87896809D01*
X148612775Y-87896817D01*
X148784254Y-88125887D01*
X148784270Y-88125905D01*
X148986594Y-88328229D01*
X148986612Y-88328245D01*
X149215682Y-88499724D01*
X149215690Y-88499729D01*
X149466833Y-88636864D01*
X149466832Y-88636864D01*
X149466836Y-88636865D01*
X149466839Y-88636867D01*
X149734954Y-88736869D01*
X149734960Y-88736870D01*
X149734962Y-88736871D01*
X150014566Y-88797695D01*
X150014568Y-88797695D01*
X150014572Y-88797696D01*
X150268220Y-88815837D01*
X150299999Y-88818110D01*
X150300000Y-88818110D01*
X150300001Y-88818110D01*
X150328595Y-88816064D01*
X150585428Y-88797696D01*
X150865046Y-88736869D01*
X151133161Y-88636867D01*
X151384315Y-88499726D01*
X151613395Y-88328239D01*
X151815739Y-88125895D01*
X151987226Y-87896815D01*
X152124367Y-87645661D01*
X152224369Y-87377546D01*
X152247322Y-87272032D01*
X152285195Y-87097933D01*
X152285195Y-87097932D01*
X152285196Y-87097928D01*
X152305610Y-86812500D01*
X152305610Y-86812498D01*
X170294390Y-86812498D01*
X170294390Y-86812501D01*
X170314804Y-87097933D01*
X170375628Y-87377537D01*
X170375630Y-87377543D01*
X170375631Y-87377546D01*
X170475633Y-87645661D01*
X170475635Y-87645666D01*
X170612770Y-87896809D01*
X170612775Y-87896817D01*
X170784254Y-88125887D01*
X170784270Y-88125905D01*
X170986594Y-88328229D01*
X170986612Y-88328245D01*
X171215682Y-88499724D01*
X171215690Y-88499729D01*
X171466833Y-88636864D01*
X171466832Y-88636864D01*
X171466836Y-88636865D01*
X171466839Y-88636867D01*
X171734954Y-88736869D01*
X171734960Y-88736870D01*
X171734962Y-88736871D01*
X172014566Y-88797695D01*
X172014568Y-88797695D01*
X172014572Y-88797696D01*
X172268220Y-88815837D01*
X172299999Y-88818110D01*
X172300000Y-88818110D01*
X172300001Y-88818110D01*
X172328595Y-88816064D01*
X172585428Y-88797696D01*
X172865046Y-88736869D01*
X173133161Y-88636867D01*
X173384315Y-88499726D01*
X173613395Y-88328239D01*
X173815739Y-88125895D01*
X173987226Y-87896815D01*
X174124367Y-87645661D01*
X174224369Y-87377546D01*
X174247322Y-87272032D01*
X174285195Y-87097933D01*
X174285195Y-87097932D01*
X174285196Y-87097928D01*
X174305610Y-86812500D01*
X174285196Y-86527072D01*
X174262366Y-86422125D01*
X174224371Y-86247462D01*
X174224370Y-86247460D01*
X174224369Y-86247454D01*
X174124367Y-85979339D01*
X173987226Y-85728185D01*
X173952305Y-85681536D01*
X173815745Y-85499112D01*
X173815729Y-85499094D01*
X173776634Y-85459999D01*
X201694357Y-85459999D01*
X201694357Y-85460000D01*
X201714884Y-85681535D01*
X201714885Y-85681537D01*
X201775769Y-85895523D01*
X201775775Y-85895538D01*
X201874938Y-86094683D01*
X201874943Y-86094691D01*
X202009020Y-86272238D01*
X202173437Y-86422123D01*
X202173439Y-86422125D01*
X202362595Y-86539245D01*
X202362596Y-86539245D01*
X202362599Y-86539247D01*
X202570060Y-86619618D01*
X202788757Y-86660500D01*
X202788759Y-86660500D01*
X203011241Y-86660500D01*
X203011243Y-86660500D01*
X203229940Y-86619618D01*
X203437401Y-86539247D01*
X203626562Y-86422124D01*
X203790981Y-86272236D01*
X203925058Y-86094689D01*
X204024229Y-85895528D01*
X204085115Y-85681536D01*
X204105643Y-85460000D01*
X204097173Y-85368598D01*
X204085115Y-85238464D01*
X204085114Y-85238460D01*
X204024230Y-85024476D01*
X204024229Y-85024472D01*
X204024224Y-85024461D01*
X203925061Y-84825316D01*
X203925056Y-84825308D01*
X203790979Y-84647761D01*
X203626562Y-84497876D01*
X203626560Y-84497874D01*
X203437404Y-84380754D01*
X203437398Y-84380752D01*
X203437352Y-84380734D01*
X203229940Y-84300382D01*
X203011243Y-84259500D01*
X202788757Y-84259500D01*
X202570060Y-84300382D01*
X202438864Y-84351207D01*
X202362601Y-84380752D01*
X202362595Y-84380754D01*
X202173439Y-84497874D01*
X202173437Y-84497876D01*
X202009020Y-84647761D01*
X201874943Y-84825308D01*
X201874938Y-84825316D01*
X201775775Y-85024461D01*
X201775769Y-85024476D01*
X201714886Y-85238460D01*
X201714884Y-85238464D01*
X201694357Y-85459999D01*
X173776634Y-85459999D01*
X173613405Y-85296770D01*
X173613387Y-85296754D01*
X173384317Y-85125275D01*
X173384309Y-85125270D01*
X173133166Y-84988135D01*
X173133167Y-84988135D01*
X173019775Y-84945842D01*
X172865046Y-84888131D01*
X172865043Y-84888130D01*
X172865037Y-84888128D01*
X172585433Y-84827304D01*
X172300001Y-84806890D01*
X172299999Y-84806890D01*
X172014566Y-84827304D01*
X171734962Y-84888128D01*
X171466833Y-84988135D01*
X171215690Y-85125270D01*
X171215682Y-85125275D01*
X170986612Y-85296754D01*
X170986594Y-85296770D01*
X170784270Y-85499094D01*
X170784254Y-85499112D01*
X170612775Y-85728182D01*
X170612770Y-85728190D01*
X170475635Y-85979333D01*
X170375628Y-86247462D01*
X170314804Y-86527066D01*
X170294390Y-86812498D01*
X152305610Y-86812498D01*
X152285196Y-86527072D01*
X152262366Y-86422125D01*
X152224371Y-86247462D01*
X152224370Y-86247460D01*
X152224369Y-86247454D01*
X152124367Y-85979339D01*
X151987226Y-85728185D01*
X151952305Y-85681536D01*
X151815745Y-85499112D01*
X151815729Y-85499094D01*
X151613405Y-85296770D01*
X151613387Y-85296754D01*
X151384317Y-85125275D01*
X151384309Y-85125270D01*
X151133166Y-84988135D01*
X151133167Y-84988135D01*
X151019775Y-84945842D01*
X150865046Y-84888131D01*
X150865043Y-84888130D01*
X150865037Y-84888128D01*
X150585433Y-84827304D01*
X150300001Y-84806890D01*
X150299999Y-84806890D01*
X150014566Y-84827304D01*
X149734962Y-84888128D01*
X149466833Y-84988135D01*
X149215690Y-85125270D01*
X149215682Y-85125275D01*
X148986612Y-85296754D01*
X148986594Y-85296770D01*
X148784270Y-85499094D01*
X148784254Y-85499112D01*
X148612775Y-85728182D01*
X148612770Y-85728190D01*
X148475635Y-85979333D01*
X148375628Y-86247462D01*
X148314804Y-86527066D01*
X148294390Y-86812498D01*
X130421745Y-86812498D01*
X130465350Y-82877155D01*
X181825000Y-82877155D01*
X181825000Y-83650000D01*
X182699999Y-83650000D01*
X182674979Y-83710402D01*
X182650000Y-83835981D01*
X182650000Y-83964019D01*
X182674979Y-84089598D01*
X182699999Y-84150000D01*
X181825000Y-84150000D01*
X181825000Y-84922844D01*
X181831401Y-84982372D01*
X181831403Y-84982379D01*
X181881645Y-85117086D01*
X181881649Y-85117093D01*
X181967809Y-85232187D01*
X181967812Y-85232190D01*
X182082906Y-85318350D01*
X182082913Y-85318354D01*
X182217620Y-85368596D01*
X182217627Y-85368598D01*
X182277155Y-85374999D01*
X182277172Y-85375000D01*
X183050000Y-85375000D01*
X183050000Y-84500001D01*
X183110402Y-84525021D01*
X183235981Y-84550000D01*
X183364019Y-84550000D01*
X183489598Y-84525021D01*
X183550000Y-84500001D01*
X183550000Y-85375000D01*
X184322828Y-85375000D01*
X184322844Y-85374999D01*
X184382372Y-85368598D01*
X184382379Y-85368596D01*
X184517086Y-85318354D01*
X184517093Y-85318350D01*
X184632187Y-85232190D01*
X184632190Y-85232187D01*
X184718350Y-85117093D01*
X184718354Y-85117086D01*
X184768596Y-84982379D01*
X184768598Y-84982372D01*
X184774999Y-84922844D01*
X184775000Y-84922827D01*
X184775000Y-84150000D01*
X183900001Y-84150000D01*
X183925021Y-84089598D01*
X183950000Y-83964019D01*
X183950000Y-83899994D01*
X194319443Y-83899994D01*
X194319443Y-83900005D01*
X194339634Y-84143683D01*
X194339636Y-84143695D01*
X194399663Y-84380734D01*
X194497888Y-84604666D01*
X194631632Y-84809378D01*
X194790892Y-84982379D01*
X194797246Y-84989281D01*
X194990212Y-85139473D01*
X195205267Y-85255855D01*
X195205270Y-85255856D01*
X195436541Y-85335251D01*
X195436543Y-85335251D01*
X195436545Y-85335252D01*
X195677737Y-85375500D01*
X195677738Y-85375500D01*
X195922262Y-85375500D01*
X195922263Y-85375500D01*
X196163455Y-85335252D01*
X196394733Y-85255855D01*
X196609788Y-85139473D01*
X196802754Y-84989281D01*
X196968368Y-84809377D01*
X197102111Y-84604667D01*
X197200336Y-84380736D01*
X197260364Y-84143692D01*
X197260365Y-84143683D01*
X197280557Y-83900005D01*
X197280557Y-83899994D01*
X197260365Y-83656316D01*
X197260363Y-83656304D01*
X197200336Y-83419265D01*
X197113591Y-83221506D01*
X197102111Y-83195333D01*
X197092567Y-83180724D01*
X196968367Y-82990621D01*
X196802757Y-82810722D01*
X196802747Y-82810713D01*
X196609791Y-82660529D01*
X196609787Y-82660526D01*
X196394734Y-82544145D01*
X196394729Y-82544143D01*
X196163458Y-82464748D01*
X195963618Y-82431401D01*
X195922263Y-82424500D01*
X195677737Y-82424500D01*
X195636382Y-82431401D01*
X195436541Y-82464748D01*
X195205270Y-82544143D01*
X195205265Y-82544145D01*
X194990212Y-82660526D01*
X194990208Y-82660529D01*
X194797252Y-82810713D01*
X194797242Y-82810722D01*
X194631632Y-82990621D01*
X194497888Y-83195333D01*
X194399663Y-83419265D01*
X194339636Y-83656304D01*
X194339634Y-83656316D01*
X194319443Y-83899994D01*
X183950000Y-83899994D01*
X183950000Y-83835981D01*
X183925021Y-83710402D01*
X183900001Y-83650000D01*
X184775000Y-83650000D01*
X184775000Y-82877172D01*
X184774999Y-82877155D01*
X184768598Y-82817627D01*
X184768596Y-82817620D01*
X184718354Y-82682913D01*
X184718350Y-82682906D01*
X184632190Y-82567812D01*
X184632187Y-82567809D01*
X184517093Y-82481649D01*
X184517086Y-82481645D01*
X184382379Y-82431403D01*
X184382372Y-82431401D01*
X184322844Y-82425000D01*
X183550000Y-82425000D01*
X183550000Y-83299998D01*
X183489598Y-83274979D01*
X183364019Y-83250000D01*
X183235981Y-83250000D01*
X183110402Y-83274979D01*
X183050000Y-83299998D01*
X183050000Y-82425000D01*
X182277155Y-82425000D01*
X182217627Y-82431401D01*
X182217620Y-82431403D01*
X182082913Y-82481645D01*
X182082906Y-82481649D01*
X181967812Y-82567809D01*
X181967809Y-82567812D01*
X181881649Y-82682906D01*
X181881645Y-82682913D01*
X181831403Y-82817620D01*
X181831401Y-82817627D01*
X181825000Y-82877155D01*
X130465350Y-82877155D01*
X130478393Y-81699993D01*
X201594700Y-81699993D01*
X201594700Y-81700006D01*
X201613864Y-81931297D01*
X201613866Y-81931308D01*
X201670842Y-82156300D01*
X201764075Y-82368848D01*
X201891016Y-82563147D01*
X201891019Y-82563151D01*
X201891021Y-82563153D01*
X202048216Y-82733913D01*
X202048219Y-82733915D01*
X202048222Y-82733918D01*
X202231365Y-82876464D01*
X202231371Y-82876468D01*
X202231374Y-82876470D01*
X202435497Y-82986936D01*
X202495867Y-83007661D01*
X202655015Y-83062297D01*
X202655017Y-83062297D01*
X202655019Y-83062298D01*
X202883951Y-83100500D01*
X202883952Y-83100500D01*
X203116048Y-83100500D01*
X203116049Y-83100500D01*
X203344981Y-83062298D01*
X203564503Y-82986936D01*
X203768626Y-82876470D01*
X203951784Y-82733913D01*
X204108979Y-82563153D01*
X204235924Y-82368849D01*
X204329157Y-82156300D01*
X204386134Y-81931305D01*
X204386135Y-81931297D01*
X204405300Y-81700006D01*
X204405300Y-81699993D01*
X204386135Y-81468702D01*
X204386133Y-81468691D01*
X204329157Y-81243699D01*
X204235924Y-81031151D01*
X204108981Y-80836849D01*
X204013832Y-80733489D01*
X203982910Y-80670835D01*
X203990770Y-80601409D01*
X204034918Y-80547253D01*
X204061730Y-80533325D01*
X204142084Y-80503355D01*
X204142093Y-80503350D01*
X204257187Y-80417190D01*
X204257190Y-80417187D01*
X204343350Y-80302093D01*
X204343354Y-80302086D01*
X204393596Y-80167379D01*
X204393598Y-80167372D01*
X204399999Y-80107844D01*
X204400000Y-80107827D01*
X204400000Y-79410000D01*
X203375278Y-79410000D01*
X203419333Y-79333694D01*
X203450000Y-79219244D01*
X203450000Y-79100756D01*
X203419333Y-78986306D01*
X203375278Y-78910000D01*
X204400000Y-78910000D01*
X204400000Y-78212172D01*
X204399999Y-78212155D01*
X204393598Y-78152627D01*
X204393596Y-78152620D01*
X204343354Y-78017913D01*
X204343350Y-78017906D01*
X204257190Y-77902812D01*
X204257187Y-77902809D01*
X204142093Y-77816649D01*
X204142086Y-77816645D01*
X204007379Y-77766403D01*
X204007372Y-77766401D01*
X203947844Y-77760000D01*
X203250000Y-77760000D01*
X203250000Y-78784722D01*
X203173694Y-78740667D01*
X203059244Y-78710000D01*
X202940756Y-78710000D01*
X202826306Y-78740667D01*
X202750000Y-78784722D01*
X202750000Y-77760000D01*
X202052155Y-77760000D01*
X201992627Y-77766401D01*
X201992620Y-77766403D01*
X201857913Y-77816645D01*
X201857906Y-77816649D01*
X201742812Y-77902809D01*
X201742809Y-77902812D01*
X201656649Y-78017906D01*
X201656645Y-78017913D01*
X201606403Y-78152620D01*
X201606401Y-78152627D01*
X201600000Y-78212155D01*
X201600000Y-78910000D01*
X202624722Y-78910000D01*
X202580667Y-78986306D01*
X202550000Y-79100756D01*
X202550000Y-79219244D01*
X202580667Y-79333694D01*
X202624722Y-79410000D01*
X201600000Y-79410000D01*
X201600000Y-80107844D01*
X201606401Y-80167372D01*
X201606403Y-80167379D01*
X201656645Y-80302086D01*
X201656649Y-80302093D01*
X201742809Y-80417187D01*
X201742812Y-80417190D01*
X201857906Y-80503350D01*
X201857913Y-80503354D01*
X201938270Y-80533325D01*
X201994204Y-80575196D01*
X202018621Y-80640660D01*
X202003770Y-80708933D01*
X201986168Y-80733489D01*
X201891021Y-80836847D01*
X201891019Y-80836848D01*
X201891016Y-80836853D01*
X201764075Y-81031151D01*
X201670842Y-81243699D01*
X201613866Y-81468691D01*
X201613864Y-81468702D01*
X201594700Y-81699993D01*
X130478393Y-81699993D01*
X130543767Y-75799998D01*
X134134532Y-75799998D01*
X134134532Y-75800001D01*
X134154364Y-76026686D01*
X134154366Y-76026697D01*
X134213258Y-76246488D01*
X134213261Y-76246497D01*
X134309431Y-76452732D01*
X134309432Y-76452734D01*
X134439954Y-76639141D01*
X134600858Y-76800045D01*
X134600861Y-76800047D01*
X134787266Y-76930568D01*
X134993504Y-77026739D01*
X135213308Y-77085635D01*
X135375230Y-77099801D01*
X135439998Y-77105468D01*
X135440000Y-77105468D01*
X135440002Y-77105468D01*
X135496673Y-77100509D01*
X135666692Y-77085635D01*
X135886496Y-77026739D01*
X136092734Y-76930568D01*
X136279139Y-76800047D01*
X136440047Y-76639139D01*
X136570568Y-76452734D01*
X136597618Y-76394724D01*
X136643790Y-76342285D01*
X136710983Y-76323133D01*
X136777865Y-76343348D01*
X136822382Y-76394725D01*
X136849429Y-76452728D01*
X136849432Y-76452734D01*
X136979954Y-76639141D01*
X137140858Y-76800045D01*
X137140861Y-76800047D01*
X137327266Y-76930568D01*
X137533504Y-77026739D01*
X137753308Y-77085635D01*
X137915230Y-77099801D01*
X137979998Y-77105468D01*
X137980000Y-77105468D01*
X137980002Y-77105468D01*
X138036673Y-77100509D01*
X138206692Y-77085635D01*
X138426496Y-77026739D01*
X138632734Y-76930568D01*
X138819139Y-76800047D01*
X138980047Y-76639139D01*
X139110568Y-76452734D01*
X139137618Y-76394724D01*
X139183790Y-76342285D01*
X139250983Y-76323133D01*
X139317865Y-76343348D01*
X139362382Y-76394725D01*
X139389429Y-76452728D01*
X139389432Y-76452734D01*
X139519954Y-76639141D01*
X139680858Y-76800045D01*
X139680861Y-76800047D01*
X139867266Y-76930568D01*
X140073504Y-77026739D01*
X140293308Y-77085635D01*
X140455230Y-77099801D01*
X140519998Y-77105468D01*
X140520000Y-77105468D01*
X140520002Y-77105468D01*
X140576673Y-77100509D01*
X140746692Y-77085635D01*
X140966496Y-77026739D01*
X141172734Y-76930568D01*
X141359139Y-76800047D01*
X141520047Y-76639139D01*
X141650568Y-76452734D01*
X141677618Y-76394724D01*
X141723790Y-76342285D01*
X141790983Y-76323133D01*
X141857865Y-76343348D01*
X141902382Y-76394725D01*
X141929429Y-76452728D01*
X141929432Y-76452734D01*
X142059954Y-76639141D01*
X142220858Y-76800045D01*
X142220861Y-76800047D01*
X142407266Y-76930568D01*
X142613504Y-77026739D01*
X142833308Y-77085635D01*
X142995230Y-77099801D01*
X143059998Y-77105468D01*
X143060000Y-77105468D01*
X143060002Y-77105468D01*
X143116673Y-77100509D01*
X143286692Y-77085635D01*
X143506496Y-77026739D01*
X143712734Y-76930568D01*
X143899139Y-76800047D01*
X144060047Y-76639139D01*
X144190568Y-76452734D01*
X144217618Y-76394724D01*
X144263790Y-76342285D01*
X144330983Y-76323133D01*
X144397865Y-76343348D01*
X144442382Y-76394725D01*
X144469429Y-76452728D01*
X144469432Y-76452734D01*
X144599954Y-76639141D01*
X144760858Y-76800045D01*
X144760861Y-76800047D01*
X144947266Y-76930568D01*
X145153504Y-77026739D01*
X145373308Y-77085635D01*
X145535230Y-77099801D01*
X145599998Y-77105468D01*
X145600000Y-77105468D01*
X145600002Y-77105468D01*
X145656673Y-77100509D01*
X145826692Y-77085635D01*
X146046496Y-77026739D01*
X146252734Y-76930568D01*
X146439139Y-76800047D01*
X146600047Y-76639139D01*
X146730568Y-76452734D01*
X146757618Y-76394724D01*
X146803790Y-76342285D01*
X146870983Y-76323133D01*
X146937865Y-76343348D01*
X146982382Y-76394725D01*
X147009429Y-76452728D01*
X147009432Y-76452734D01*
X147139954Y-76639141D01*
X147300858Y-76800045D01*
X147300861Y-76800047D01*
X147487266Y-76930568D01*
X147693504Y-77026739D01*
X147913308Y-77085635D01*
X148075230Y-77099801D01*
X148139998Y-77105468D01*
X148140000Y-77105468D01*
X148140002Y-77105468D01*
X148196673Y-77100509D01*
X148366692Y-77085635D01*
X148586496Y-77026739D01*
X148792734Y-76930568D01*
X148979139Y-76800047D01*
X149140047Y-76639139D01*
X149270568Y-76452734D01*
X149297618Y-76394724D01*
X149343790Y-76342285D01*
X149410983Y-76323133D01*
X149477865Y-76343348D01*
X149522382Y-76394725D01*
X149549429Y-76452728D01*
X149549432Y-76452734D01*
X149679954Y-76639141D01*
X149840858Y-76800045D01*
X149840861Y-76800047D01*
X150027266Y-76930568D01*
X150233504Y-77026739D01*
X150453308Y-77085635D01*
X150615230Y-77099801D01*
X150679998Y-77105468D01*
X150680000Y-77105468D01*
X150680002Y-77105468D01*
X150736673Y-77100509D01*
X150906692Y-77085635D01*
X151126496Y-77026739D01*
X151332734Y-76930568D01*
X151519139Y-76800047D01*
X151680047Y-76639139D01*
X151810568Y-76452734D01*
X151837618Y-76394724D01*
X151883790Y-76342285D01*
X151950983Y-76323133D01*
X152017865Y-76343348D01*
X152062382Y-76394725D01*
X152089429Y-76452728D01*
X152089432Y-76452734D01*
X152219954Y-76639141D01*
X152380858Y-76800045D01*
X152380861Y-76800047D01*
X152567266Y-76930568D01*
X152773504Y-77026739D01*
X152993308Y-77085635D01*
X153155230Y-77099801D01*
X153219998Y-77105468D01*
X153220000Y-77105468D01*
X153220002Y-77105468D01*
X153276673Y-77100509D01*
X153446692Y-77085635D01*
X153666496Y-77026739D01*
X153872734Y-76930568D01*
X154059139Y-76800047D01*
X154220047Y-76639139D01*
X154350568Y-76452734D01*
X154377618Y-76394724D01*
X154423790Y-76342285D01*
X154490983Y-76323133D01*
X154557865Y-76343348D01*
X154602382Y-76394725D01*
X154629429Y-76452728D01*
X154629432Y-76452734D01*
X154759954Y-76639141D01*
X154920858Y-76800045D01*
X154920861Y-76800047D01*
X155107266Y-76930568D01*
X155313504Y-77026739D01*
X155533308Y-77085635D01*
X155695230Y-77099801D01*
X155759998Y-77105468D01*
X155760000Y-77105468D01*
X155760002Y-77105468D01*
X155816673Y-77100509D01*
X155986692Y-77085635D01*
X156206496Y-77026739D01*
X156412734Y-76930568D01*
X156599139Y-76800047D01*
X156760047Y-76639139D01*
X156890568Y-76452734D01*
X156917618Y-76394724D01*
X156963790Y-76342285D01*
X157030983Y-76323133D01*
X157097865Y-76343348D01*
X157142382Y-76394725D01*
X157169429Y-76452728D01*
X157169432Y-76452734D01*
X157299954Y-76639141D01*
X157460858Y-76800045D01*
X157460861Y-76800047D01*
X157647266Y-76930568D01*
X157853504Y-77026739D01*
X158073308Y-77085635D01*
X158235230Y-77099801D01*
X158299998Y-77105468D01*
X158300000Y-77105468D01*
X158300002Y-77105468D01*
X158356673Y-77100509D01*
X158526692Y-77085635D01*
X158746496Y-77026739D01*
X158952734Y-76930568D01*
X159139139Y-76800047D01*
X159300047Y-76639139D01*
X159430568Y-76452734D01*
X159457618Y-76394724D01*
X159503790Y-76342285D01*
X159570983Y-76323133D01*
X159637865Y-76343348D01*
X159682382Y-76394725D01*
X159709429Y-76452728D01*
X159709432Y-76452734D01*
X159839954Y-76639141D01*
X160000858Y-76800045D01*
X160000861Y-76800047D01*
X160187266Y-76930568D01*
X160393504Y-77026739D01*
X160613308Y-77085635D01*
X160775230Y-77099801D01*
X160839998Y-77105468D01*
X160840000Y-77105468D01*
X160840002Y-77105468D01*
X160896673Y-77100509D01*
X161066692Y-77085635D01*
X161286496Y-77026739D01*
X161492734Y-76930568D01*
X161679139Y-76800047D01*
X161840047Y-76639139D01*
X161970568Y-76452734D01*
X161997618Y-76394724D01*
X162043790Y-76342285D01*
X162110983Y-76323133D01*
X162177865Y-76343348D01*
X162222382Y-76394725D01*
X162249429Y-76452728D01*
X162249432Y-76452734D01*
X162379954Y-76639141D01*
X162540858Y-76800045D01*
X162540861Y-76800047D01*
X162727266Y-76930568D01*
X162933504Y-77026739D01*
X163153308Y-77085635D01*
X163315230Y-77099801D01*
X163379998Y-77105468D01*
X163380000Y-77105468D01*
X163380002Y-77105468D01*
X163436673Y-77100509D01*
X163606692Y-77085635D01*
X163826496Y-77026739D01*
X164032734Y-76930568D01*
X164219139Y-76800047D01*
X164380047Y-76639139D01*
X164510568Y-76452734D01*
X164537618Y-76394724D01*
X164583790Y-76342285D01*
X164650983Y-76323133D01*
X164717865Y-76343348D01*
X164762382Y-76394725D01*
X164789429Y-76452728D01*
X164789432Y-76452734D01*
X164919954Y-76639141D01*
X165080858Y-76800045D01*
X165080861Y-76800047D01*
X165267266Y-76930568D01*
X165473504Y-77026739D01*
X165693308Y-77085635D01*
X165855230Y-77099801D01*
X165919998Y-77105468D01*
X165920000Y-77105468D01*
X165920002Y-77105468D01*
X165976673Y-77100509D01*
X166146692Y-77085635D01*
X166366496Y-77026739D01*
X166572734Y-76930568D01*
X166759139Y-76800047D01*
X166920047Y-76639139D01*
X167050568Y-76452734D01*
X167077895Y-76394129D01*
X167124064Y-76341695D01*
X167191257Y-76322542D01*
X167258139Y-76342757D01*
X167302657Y-76394133D01*
X167329865Y-76452482D01*
X167460342Y-76638820D01*
X167621179Y-76799657D01*
X167807517Y-76930134D01*
X168013673Y-77026265D01*
X168013682Y-77026269D01*
X168209999Y-77078872D01*
X168210000Y-77078871D01*
X168210000Y-76233012D01*
X168267007Y-76265925D01*
X168394174Y-76300000D01*
X168525826Y-76300000D01*
X168652993Y-76265925D01*
X168710000Y-76233012D01*
X168710000Y-77078872D01*
X168906317Y-77026269D01*
X168906326Y-77026265D01*
X169112482Y-76930134D01*
X169298820Y-76799657D01*
X169459657Y-76638820D01*
X169590132Y-76452484D01*
X169617341Y-76394134D01*
X169663513Y-76341695D01*
X169730707Y-76322542D01*
X169797588Y-76342757D01*
X169842106Y-76394133D01*
X169869431Y-76452732D01*
X169869432Y-76452734D01*
X169999954Y-76639141D01*
X170160858Y-76800045D01*
X170160861Y-76800047D01*
X170347266Y-76930568D01*
X170553504Y-77026739D01*
X170773308Y-77085635D01*
X170935230Y-77099801D01*
X170999998Y-77105468D01*
X171000000Y-77105468D01*
X171000002Y-77105468D01*
X171056673Y-77100509D01*
X171226692Y-77085635D01*
X171446496Y-77026739D01*
X171652734Y-76930568D01*
X171839139Y-76800047D01*
X172000047Y-76639139D01*
X172130568Y-76452734D01*
X172226739Y-76246496D01*
X172285635Y-76026692D01*
X172305468Y-75800000D01*
X172285635Y-75573308D01*
X172226739Y-75353504D01*
X172130568Y-75147266D01*
X172000047Y-74960861D01*
X172000045Y-74960858D01*
X171839141Y-74799954D01*
X171652734Y-74669432D01*
X171652732Y-74669431D01*
X171446497Y-74573261D01*
X171446488Y-74573258D01*
X171226697Y-74514366D01*
X171226693Y-74514365D01*
X171226692Y-74514365D01*
X171226691Y-74514364D01*
X171226686Y-74514364D01*
X171000002Y-74494532D01*
X170999998Y-74494532D01*
X170773313Y-74514364D01*
X170773302Y-74514366D01*
X170553511Y-74573258D01*
X170553502Y-74573261D01*
X170347267Y-74669431D01*
X170347265Y-74669432D01*
X170160858Y-74799954D01*
X169999954Y-74960858D01*
X169869433Y-75147264D01*
X169869432Y-75147266D01*
X169869315Y-75147518D01*
X169842106Y-75205867D01*
X169795933Y-75258306D01*
X169728739Y-75277457D01*
X169661858Y-75257241D01*
X169617342Y-75205865D01*
X169590135Y-75147520D01*
X169590134Y-75147518D01*
X169459657Y-74961179D01*
X169298820Y-74800342D01*
X169112482Y-74669865D01*
X168906328Y-74573734D01*
X168710000Y-74521127D01*
X168710000Y-75366988D01*
X168652993Y-75334075D01*
X168525826Y-75300000D01*
X168394174Y-75300000D01*
X168267007Y-75334075D01*
X168210000Y-75366988D01*
X168210000Y-74521127D01*
X168013671Y-74573734D01*
X167807517Y-74669865D01*
X167621179Y-74800342D01*
X167460342Y-74961179D01*
X167329867Y-75147515D01*
X167302657Y-75205867D01*
X167256484Y-75258306D01*
X167189290Y-75277457D01*
X167122409Y-75257241D01*
X167077893Y-75205865D01*
X167050685Y-75147518D01*
X167050568Y-75147266D01*
X166920047Y-74960861D01*
X166920045Y-74960858D01*
X166759141Y-74799954D01*
X166572734Y-74669432D01*
X166572732Y-74669431D01*
X166366497Y-74573261D01*
X166366488Y-74573258D01*
X166146697Y-74514366D01*
X166146693Y-74514365D01*
X166146692Y-74514365D01*
X166146691Y-74514364D01*
X166146686Y-74514364D01*
X165920002Y-74494532D01*
X165919998Y-74494532D01*
X165693313Y-74514364D01*
X165693302Y-74514366D01*
X165473511Y-74573258D01*
X165473502Y-74573261D01*
X165267267Y-74669431D01*
X165267265Y-74669432D01*
X165080858Y-74799954D01*
X164919954Y-74960858D01*
X164789432Y-75147265D01*
X164789431Y-75147267D01*
X164762382Y-75205275D01*
X164716209Y-75257714D01*
X164649016Y-75276866D01*
X164582135Y-75256650D01*
X164537618Y-75205275D01*
X164510686Y-75147520D01*
X164510568Y-75147266D01*
X164380047Y-74960861D01*
X164380045Y-74960858D01*
X164219141Y-74799954D01*
X164032734Y-74669432D01*
X164032732Y-74669431D01*
X163826497Y-74573261D01*
X163826488Y-74573258D01*
X163606697Y-74514366D01*
X163606693Y-74514365D01*
X163606692Y-74514365D01*
X163606691Y-74514364D01*
X163606686Y-74514364D01*
X163380002Y-74494532D01*
X163379998Y-74494532D01*
X163153313Y-74514364D01*
X163153302Y-74514366D01*
X162933511Y-74573258D01*
X162933502Y-74573261D01*
X162727267Y-74669431D01*
X162727265Y-74669432D01*
X162540858Y-74799954D01*
X162379954Y-74960858D01*
X162249432Y-75147265D01*
X162249431Y-75147267D01*
X162222382Y-75205275D01*
X162176209Y-75257714D01*
X162109016Y-75276866D01*
X162042135Y-75256650D01*
X161997618Y-75205275D01*
X161970686Y-75147520D01*
X161970568Y-75147266D01*
X161840047Y-74960861D01*
X161840045Y-74960858D01*
X161679141Y-74799954D01*
X161492734Y-74669432D01*
X161492732Y-74669431D01*
X161286497Y-74573261D01*
X161286488Y-74573258D01*
X161066697Y-74514366D01*
X161066693Y-74514365D01*
X161066692Y-74514365D01*
X161066691Y-74514364D01*
X161066686Y-74514364D01*
X160840002Y-74494532D01*
X160839998Y-74494532D01*
X160613313Y-74514364D01*
X160613302Y-74514366D01*
X160393511Y-74573258D01*
X160393502Y-74573261D01*
X160187267Y-74669431D01*
X160187265Y-74669432D01*
X160000858Y-74799954D01*
X159839954Y-74960858D01*
X159709432Y-75147265D01*
X159709431Y-75147267D01*
X159682382Y-75205275D01*
X159636209Y-75257714D01*
X159569016Y-75276866D01*
X159502135Y-75256650D01*
X159457618Y-75205275D01*
X159430686Y-75147520D01*
X159430568Y-75147266D01*
X159300047Y-74960861D01*
X159300045Y-74960858D01*
X159139141Y-74799954D01*
X158952734Y-74669432D01*
X158952732Y-74669431D01*
X158746497Y-74573261D01*
X158746488Y-74573258D01*
X158526697Y-74514366D01*
X158526693Y-74514365D01*
X158526692Y-74514365D01*
X158526691Y-74514364D01*
X158526686Y-74514364D01*
X158300002Y-74494532D01*
X158299998Y-74494532D01*
X158073313Y-74514364D01*
X158073302Y-74514366D01*
X157853511Y-74573258D01*
X157853502Y-74573261D01*
X157647267Y-74669431D01*
X157647265Y-74669432D01*
X157460858Y-74799954D01*
X157299954Y-74960858D01*
X157169432Y-75147265D01*
X157169431Y-75147267D01*
X157142382Y-75205275D01*
X157096209Y-75257714D01*
X157029016Y-75276866D01*
X156962135Y-75256650D01*
X156917618Y-75205275D01*
X156890686Y-75147520D01*
X156890568Y-75147266D01*
X156760047Y-74960861D01*
X156760045Y-74960858D01*
X156599141Y-74799954D01*
X156412734Y-74669432D01*
X156412732Y-74669431D01*
X156206497Y-74573261D01*
X156206488Y-74573258D01*
X155986697Y-74514366D01*
X155986693Y-74514365D01*
X155986692Y-74514365D01*
X155986691Y-74514364D01*
X155986686Y-74514364D01*
X155760002Y-74494532D01*
X155759998Y-74494532D01*
X155533313Y-74514364D01*
X155533302Y-74514366D01*
X155313511Y-74573258D01*
X155313502Y-74573261D01*
X155107267Y-74669431D01*
X155107265Y-74669432D01*
X154920858Y-74799954D01*
X154759954Y-74960858D01*
X154629432Y-75147265D01*
X154629431Y-75147267D01*
X154602382Y-75205275D01*
X154556209Y-75257714D01*
X154489016Y-75276866D01*
X154422135Y-75256650D01*
X154377618Y-75205275D01*
X154350686Y-75147520D01*
X154350568Y-75147266D01*
X154220047Y-74960861D01*
X154220045Y-74960858D01*
X154059141Y-74799954D01*
X153872734Y-74669432D01*
X153872732Y-74669431D01*
X153666497Y-74573261D01*
X153666488Y-74573258D01*
X153446697Y-74514366D01*
X153446693Y-74514365D01*
X153446692Y-74514365D01*
X153446691Y-74514364D01*
X153446686Y-74514364D01*
X153220002Y-74494532D01*
X153219998Y-74494532D01*
X152993313Y-74514364D01*
X152993302Y-74514366D01*
X152773511Y-74573258D01*
X152773502Y-74573261D01*
X152567267Y-74669431D01*
X152567265Y-74669432D01*
X152380858Y-74799954D01*
X152219954Y-74960858D01*
X152089432Y-75147265D01*
X152089431Y-75147267D01*
X152062382Y-75205275D01*
X152016209Y-75257714D01*
X151949016Y-75276866D01*
X151882135Y-75256650D01*
X151837618Y-75205275D01*
X151810686Y-75147520D01*
X151810568Y-75147266D01*
X151680047Y-74960861D01*
X151680045Y-74960858D01*
X151519141Y-74799954D01*
X151332734Y-74669432D01*
X151332732Y-74669431D01*
X151126497Y-74573261D01*
X151126488Y-74573258D01*
X150906697Y-74514366D01*
X150906693Y-74514365D01*
X150906692Y-74514365D01*
X150906691Y-74514364D01*
X150906686Y-74514364D01*
X150680002Y-74494532D01*
X150679998Y-74494532D01*
X150453313Y-74514364D01*
X150453302Y-74514366D01*
X150233511Y-74573258D01*
X150233502Y-74573261D01*
X150027267Y-74669431D01*
X150027265Y-74669432D01*
X149840858Y-74799954D01*
X149679954Y-74960858D01*
X149549432Y-75147265D01*
X149549431Y-75147267D01*
X149522382Y-75205275D01*
X149476209Y-75257714D01*
X149409016Y-75276866D01*
X149342135Y-75256650D01*
X149297618Y-75205275D01*
X149270686Y-75147520D01*
X149270568Y-75147266D01*
X149140047Y-74960861D01*
X149140045Y-74960858D01*
X148979141Y-74799954D01*
X148792734Y-74669432D01*
X148792732Y-74669431D01*
X148586497Y-74573261D01*
X148586488Y-74573258D01*
X148366697Y-74514366D01*
X148366693Y-74514365D01*
X148366692Y-74514365D01*
X148366691Y-74514364D01*
X148366686Y-74514364D01*
X148140002Y-74494532D01*
X148139998Y-74494532D01*
X147913313Y-74514364D01*
X147913302Y-74514366D01*
X147693511Y-74573258D01*
X147693502Y-74573261D01*
X147487267Y-74669431D01*
X147487265Y-74669432D01*
X147300858Y-74799954D01*
X147139954Y-74960858D01*
X147009432Y-75147265D01*
X147009431Y-75147267D01*
X146982382Y-75205275D01*
X146936209Y-75257714D01*
X146869016Y-75276866D01*
X146802135Y-75256650D01*
X146757618Y-75205275D01*
X146730686Y-75147520D01*
X146730568Y-75147266D01*
X146600047Y-74960861D01*
X146600045Y-74960858D01*
X146439141Y-74799954D01*
X146252734Y-74669432D01*
X146252732Y-74669431D01*
X146046497Y-74573261D01*
X146046488Y-74573258D01*
X145826697Y-74514366D01*
X145826693Y-74514365D01*
X145826692Y-74514365D01*
X145826691Y-74514364D01*
X145826686Y-74514364D01*
X145600002Y-74494532D01*
X145599998Y-74494532D01*
X145373313Y-74514364D01*
X145373302Y-74514366D01*
X145153511Y-74573258D01*
X145153502Y-74573261D01*
X144947267Y-74669431D01*
X144947265Y-74669432D01*
X144760858Y-74799954D01*
X144599954Y-74960858D01*
X144469432Y-75147265D01*
X144469431Y-75147267D01*
X144442382Y-75205275D01*
X144396209Y-75257714D01*
X144329016Y-75276866D01*
X144262135Y-75256650D01*
X144217618Y-75205275D01*
X144190686Y-75147520D01*
X144190568Y-75147266D01*
X144060047Y-74960861D01*
X144060045Y-74960858D01*
X143899141Y-74799954D01*
X143712734Y-74669432D01*
X143712732Y-74669431D01*
X143506497Y-74573261D01*
X143506488Y-74573258D01*
X143286697Y-74514366D01*
X143286693Y-74514365D01*
X143286692Y-74514365D01*
X143286691Y-74514364D01*
X143286686Y-74514364D01*
X143060002Y-74494532D01*
X143059998Y-74494532D01*
X142833313Y-74514364D01*
X142833302Y-74514366D01*
X142613511Y-74573258D01*
X142613502Y-74573261D01*
X142407267Y-74669431D01*
X142407265Y-74669432D01*
X142220858Y-74799954D01*
X142059954Y-74960858D01*
X141929432Y-75147265D01*
X141929431Y-75147267D01*
X141902382Y-75205275D01*
X141856209Y-75257714D01*
X141789016Y-75276866D01*
X141722135Y-75256650D01*
X141677618Y-75205275D01*
X141650686Y-75147520D01*
X141650568Y-75147266D01*
X141520047Y-74960861D01*
X141520045Y-74960858D01*
X141359141Y-74799954D01*
X141172734Y-74669432D01*
X141172732Y-74669431D01*
X140966497Y-74573261D01*
X140966488Y-74573258D01*
X140746697Y-74514366D01*
X140746693Y-74514365D01*
X140746692Y-74514365D01*
X140746691Y-74514364D01*
X140746686Y-74514364D01*
X140520002Y-74494532D01*
X140519998Y-74494532D01*
X140293313Y-74514364D01*
X140293302Y-74514366D01*
X140073511Y-74573258D01*
X140073502Y-74573261D01*
X139867267Y-74669431D01*
X139867265Y-74669432D01*
X139680858Y-74799954D01*
X139519954Y-74960858D01*
X139389432Y-75147265D01*
X139389431Y-75147267D01*
X139362382Y-75205275D01*
X139316209Y-75257714D01*
X139249016Y-75276866D01*
X139182135Y-75256650D01*
X139137618Y-75205275D01*
X139110686Y-75147520D01*
X139110568Y-75147266D01*
X138980047Y-74960861D01*
X138980045Y-74960858D01*
X138819141Y-74799954D01*
X138632734Y-74669432D01*
X138632732Y-74669431D01*
X138426497Y-74573261D01*
X138426488Y-74573258D01*
X138206697Y-74514366D01*
X138206693Y-74514365D01*
X138206692Y-74514365D01*
X138206691Y-74514364D01*
X138206686Y-74514364D01*
X137980002Y-74494532D01*
X137979998Y-74494532D01*
X137753313Y-74514364D01*
X137753302Y-74514366D01*
X137533511Y-74573258D01*
X137533502Y-74573261D01*
X137327267Y-74669431D01*
X137327265Y-74669432D01*
X137140858Y-74799954D01*
X136979954Y-74960858D01*
X136849432Y-75147265D01*
X136849431Y-75147267D01*
X136822382Y-75205275D01*
X136776209Y-75257714D01*
X136709016Y-75276866D01*
X136642135Y-75256650D01*
X136597618Y-75205275D01*
X136570686Y-75147520D01*
X136570568Y-75147266D01*
X136440047Y-74960861D01*
X136440045Y-74960858D01*
X136279141Y-74799954D01*
X136092734Y-74669432D01*
X136092732Y-74669431D01*
X135886497Y-74573261D01*
X135886488Y-74573258D01*
X135666697Y-74514366D01*
X135666693Y-74514365D01*
X135666692Y-74514365D01*
X135666691Y-74514364D01*
X135666686Y-74514364D01*
X135440002Y-74494532D01*
X135439998Y-74494532D01*
X135213313Y-74514364D01*
X135213302Y-74514366D01*
X134993511Y-74573258D01*
X134993502Y-74573261D01*
X134787267Y-74669431D01*
X134787265Y-74669432D01*
X134600858Y-74799954D01*
X134439954Y-74960858D01*
X134309432Y-75147265D01*
X134309431Y-75147267D01*
X134213261Y-75353502D01*
X134213258Y-75353511D01*
X134154366Y-75573302D01*
X134154364Y-75573313D01*
X134134532Y-75799998D01*
X130543767Y-75799998D01*
X130590304Y-71599994D01*
X181769443Y-71599994D01*
X181769443Y-71600005D01*
X181789634Y-71843683D01*
X181789636Y-71843695D01*
X181849663Y-72080734D01*
X181947888Y-72304666D01*
X182081632Y-72509378D01*
X182247242Y-72689277D01*
X182247252Y-72689286D01*
X182311732Y-72739473D01*
X182440212Y-72839473D01*
X182655267Y-72955855D01*
X182655270Y-72955856D01*
X182886541Y-73035251D01*
X182886543Y-73035251D01*
X182886545Y-73035252D01*
X183127737Y-73075500D01*
X183127738Y-73075500D01*
X183372262Y-73075500D01*
X183372263Y-73075500D01*
X183613455Y-73035252D01*
X183844733Y-72955855D01*
X184059788Y-72839473D01*
X184252754Y-72689281D01*
X184418368Y-72509377D01*
X184552111Y-72304667D01*
X184650336Y-72080736D01*
X184710364Y-71843692D01*
X184718650Y-71743695D01*
X184730557Y-71600005D01*
X184730557Y-71599994D01*
X194269443Y-71599994D01*
X194269443Y-71600005D01*
X194289634Y-71843683D01*
X194289636Y-71843695D01*
X194349663Y-72080734D01*
X194447888Y-72304666D01*
X194581632Y-72509378D01*
X194747242Y-72689277D01*
X194747252Y-72689286D01*
X194811732Y-72739473D01*
X194940212Y-72839473D01*
X195155267Y-72955855D01*
X195155270Y-72955856D01*
X195386541Y-73035251D01*
X195386543Y-73035251D01*
X195386545Y-73035252D01*
X195627737Y-73075500D01*
X195627738Y-73075500D01*
X195872262Y-73075500D01*
X195872263Y-73075500D01*
X196113455Y-73035252D01*
X196344733Y-72955855D01*
X196559788Y-72839473D01*
X196752754Y-72689281D01*
X196918368Y-72509377D01*
X197052111Y-72304667D01*
X197150336Y-72080736D01*
X197210364Y-71843692D01*
X197218650Y-71743695D01*
X197230557Y-71600005D01*
X197230557Y-71599994D01*
X197222271Y-71499994D01*
X200869443Y-71499994D01*
X200869443Y-71500005D01*
X200889634Y-71743683D01*
X200889636Y-71743695D01*
X200949663Y-71980734D01*
X201047888Y-72204666D01*
X201181632Y-72409378D01*
X201347242Y-72589277D01*
X201347252Y-72589286D01*
X201475732Y-72689286D01*
X201540212Y-72739473D01*
X201755267Y-72855855D01*
X201755270Y-72855856D01*
X201986541Y-72935251D01*
X201986543Y-72935251D01*
X201986545Y-72935252D01*
X202227737Y-72975500D01*
X202227738Y-72975500D01*
X202472262Y-72975500D01*
X202472263Y-72975500D01*
X202713455Y-72935252D01*
X202944733Y-72855855D01*
X203159788Y-72739473D01*
X203352754Y-72589281D01*
X203518368Y-72409377D01*
X203652111Y-72204667D01*
X203750336Y-71980736D01*
X203810364Y-71743692D01*
X203810365Y-71743683D01*
X203830557Y-71500005D01*
X203830557Y-71499994D01*
X213369443Y-71499994D01*
X213369443Y-71500005D01*
X213389634Y-71743683D01*
X213389636Y-71743695D01*
X213449663Y-71980734D01*
X213547888Y-72204666D01*
X213681632Y-72409378D01*
X213847242Y-72589277D01*
X213847252Y-72589286D01*
X213975732Y-72689286D01*
X214040212Y-72739473D01*
X214255267Y-72855855D01*
X214255270Y-72855856D01*
X214486541Y-72935251D01*
X214486543Y-72935251D01*
X214486545Y-72935252D01*
X214727737Y-72975500D01*
X214727738Y-72975500D01*
X214972262Y-72975500D01*
X214972263Y-72975500D01*
X215213455Y-72935252D01*
X215444733Y-72855855D01*
X215659788Y-72739473D01*
X215852754Y-72589281D01*
X216018368Y-72409377D01*
X216152111Y-72204667D01*
X216250336Y-71980736D01*
X216310364Y-71743692D01*
X216310365Y-71743683D01*
X216330557Y-71500005D01*
X216330557Y-71499994D01*
X216310365Y-71256316D01*
X216310363Y-71256304D01*
X216275660Y-71119265D01*
X216250336Y-71019264D01*
X216152111Y-70795333D01*
X216018368Y-70590623D01*
X216018367Y-70590621D01*
X215852757Y-70410722D01*
X215852747Y-70410713D01*
X215659791Y-70260529D01*
X215659787Y-70260526D01*
X215444734Y-70144145D01*
X215444729Y-70144143D01*
X215213458Y-70064748D01*
X215032561Y-70034562D01*
X214972263Y-70024500D01*
X214727737Y-70024500D01*
X214679498Y-70032549D01*
X214486541Y-70064748D01*
X214255270Y-70144143D01*
X214255265Y-70144145D01*
X214040212Y-70260526D01*
X214040208Y-70260529D01*
X213847252Y-70410713D01*
X213847242Y-70410722D01*
X213681632Y-70590621D01*
X213547888Y-70795333D01*
X213449663Y-71019265D01*
X213389636Y-71256304D01*
X213389634Y-71256316D01*
X213369443Y-71499994D01*
X203830557Y-71499994D01*
X203810365Y-71256316D01*
X203810363Y-71256304D01*
X203775660Y-71119265D01*
X203750336Y-71019264D01*
X203652111Y-70795333D01*
X203518368Y-70590623D01*
X203518367Y-70590621D01*
X203352757Y-70410722D01*
X203352747Y-70410713D01*
X203159791Y-70260529D01*
X203159787Y-70260526D01*
X202944734Y-70144145D01*
X202944729Y-70144143D01*
X202713458Y-70064748D01*
X202532561Y-70034562D01*
X202472263Y-70024500D01*
X202227737Y-70024500D01*
X202179498Y-70032549D01*
X201986541Y-70064748D01*
X201755270Y-70144143D01*
X201755265Y-70144145D01*
X201540212Y-70260526D01*
X201540208Y-70260529D01*
X201347252Y-70410713D01*
X201347242Y-70410722D01*
X201181632Y-70590621D01*
X201047888Y-70795333D01*
X200949663Y-71019265D01*
X200889636Y-71256304D01*
X200889634Y-71256316D01*
X200869443Y-71499994D01*
X197222271Y-71499994D01*
X197210365Y-71356316D01*
X197210363Y-71356304D01*
X197150336Y-71119265D01*
X197052111Y-70895333D01*
X196918367Y-70690621D01*
X196752757Y-70510722D01*
X196752747Y-70510713D01*
X196559791Y-70360529D01*
X196559787Y-70360526D01*
X196344734Y-70244145D01*
X196344729Y-70244143D01*
X196113458Y-70164748D01*
X195932561Y-70134562D01*
X195872263Y-70124500D01*
X195627737Y-70124500D01*
X195579498Y-70132549D01*
X195386541Y-70164748D01*
X195155270Y-70244143D01*
X195155265Y-70244145D01*
X194940212Y-70360526D01*
X194940208Y-70360529D01*
X194747252Y-70510713D01*
X194747242Y-70510722D01*
X194581632Y-70690621D01*
X194447888Y-70895333D01*
X194349663Y-71119265D01*
X194289636Y-71356304D01*
X194289634Y-71356316D01*
X194269443Y-71599994D01*
X184730557Y-71599994D01*
X184710365Y-71356316D01*
X184710363Y-71356304D01*
X184650336Y-71119265D01*
X184552111Y-70895333D01*
X184418367Y-70690621D01*
X184252757Y-70510722D01*
X184252747Y-70510713D01*
X184059791Y-70360529D01*
X184059787Y-70360526D01*
X183844734Y-70244145D01*
X183844729Y-70244143D01*
X183613458Y-70164748D01*
X183432561Y-70134562D01*
X183372263Y-70124500D01*
X183127737Y-70124500D01*
X183079498Y-70132549D01*
X182886541Y-70164748D01*
X182655270Y-70244143D01*
X182655265Y-70244145D01*
X182440212Y-70360526D01*
X182440208Y-70360529D01*
X182247252Y-70510713D01*
X182247242Y-70510722D01*
X182081632Y-70690621D01*
X181947888Y-70895333D01*
X181849663Y-71119265D01*
X181789636Y-71356304D01*
X181789634Y-71356316D01*
X181769443Y-71599994D01*
X130590304Y-71599994D01*
X130657670Y-65520239D01*
X130678096Y-65453424D01*
X130731403Y-65408257D01*
X130766120Y-65398593D01*
X130831191Y-65390372D01*
X131050694Y-65362643D01*
X131343262Y-65287525D01*
X131343265Y-65287524D01*
X131624095Y-65176336D01*
X131624096Y-65176335D01*
X131624094Y-65176335D01*
X131624104Y-65176332D01*
X131888795Y-65030816D01*
X132133162Y-64853274D01*
X132176584Y-64812498D01*
X148294390Y-64812498D01*
X148294390Y-64812501D01*
X148314804Y-65097933D01*
X148375628Y-65377537D01*
X148375630Y-65377543D01*
X148375631Y-65377546D01*
X148448081Y-65571792D01*
X148475635Y-65645666D01*
X148612770Y-65896809D01*
X148612775Y-65896817D01*
X148784254Y-66125887D01*
X148784270Y-66125905D01*
X148986594Y-66328229D01*
X148986612Y-66328245D01*
X149215682Y-66499724D01*
X149215690Y-66499729D01*
X149466833Y-66636864D01*
X149466832Y-66636864D01*
X149466836Y-66636865D01*
X149466839Y-66636867D01*
X149734954Y-66736869D01*
X149734960Y-66736870D01*
X149734962Y-66736871D01*
X150014566Y-66797695D01*
X150014568Y-66797695D01*
X150014572Y-66797696D01*
X150268220Y-66815837D01*
X150299999Y-66818110D01*
X150300000Y-66818110D01*
X150300001Y-66818110D01*
X150328595Y-66816064D01*
X150585428Y-66797696D01*
X150833668Y-66743695D01*
X150865037Y-66736871D01*
X150865037Y-66736870D01*
X150865046Y-66736869D01*
X151133161Y-66636867D01*
X151384315Y-66499726D01*
X151613395Y-66328239D01*
X151815739Y-66125895D01*
X151987226Y-65896815D01*
X152124367Y-65645661D01*
X152224369Y-65377546D01*
X152228071Y-65360527D01*
X152285195Y-65097933D01*
X152285195Y-65097932D01*
X152285196Y-65097928D01*
X152305610Y-64812500D01*
X152303023Y-64776335D01*
X152300926Y-64747002D01*
X152285196Y-64527072D01*
X152269142Y-64453274D01*
X152224371Y-64247462D01*
X152224370Y-64247460D01*
X152224369Y-64247454D01*
X152124367Y-63979339D01*
X152069610Y-63879060D01*
X151987229Y-63728190D01*
X151987224Y-63728182D01*
X151824386Y-63510655D01*
X156236000Y-63510655D01*
X156236000Y-64062500D01*
X157056988Y-64062500D01*
X157024075Y-64119507D01*
X156990000Y-64246674D01*
X156990000Y-64378326D01*
X157024075Y-64505493D01*
X157056988Y-64562500D01*
X156236000Y-64562500D01*
X156236000Y-65114344D01*
X156242401Y-65173872D01*
X156242403Y-65173879D01*
X156292645Y-65308586D01*
X156292649Y-65308593D01*
X156378809Y-65423687D01*
X156378812Y-65423690D01*
X156493906Y-65509850D01*
X156493913Y-65509854D01*
X156628620Y-65560096D01*
X156628627Y-65560098D01*
X156688155Y-65566499D01*
X156688172Y-65566500D01*
X157240000Y-65566500D01*
X157240000Y-64745512D01*
X157297007Y-64778425D01*
X157424174Y-64812500D01*
X157555826Y-64812500D01*
X157682993Y-64778425D01*
X157740000Y-64745512D01*
X157740000Y-65566500D01*
X158291828Y-65566500D01*
X158291844Y-65566499D01*
X158351372Y-65560098D01*
X158351379Y-65560096D01*
X158486086Y-65509854D01*
X158486093Y-65509850D01*
X158601187Y-65423690D01*
X158601190Y-65423687D01*
X158687350Y-65308593D01*
X158687354Y-65308586D01*
X158737596Y-65173879D01*
X158737598Y-65173872D01*
X158743999Y-65114344D01*
X158744000Y-65114327D01*
X158744000Y-65056333D01*
X158763685Y-64989294D01*
X158816489Y-64943539D01*
X158885647Y-64933595D01*
X158949203Y-64962620D01*
X158969573Y-64985208D01*
X158997086Y-65024500D01*
X159065322Y-65121952D01*
X159065327Y-65121958D01*
X159220541Y-65277172D01*
X159220547Y-65277177D01*
X159400349Y-65403076D01*
X159400351Y-65403077D01*
X159400354Y-65403079D01*
X159599297Y-65495847D01*
X159811326Y-65552661D01*
X159967521Y-65566326D01*
X160029998Y-65571792D01*
X160030000Y-65571792D01*
X160030002Y-65571792D01*
X160090501Y-65566499D01*
X160248674Y-65552661D01*
X160460703Y-65495847D01*
X160659646Y-65403079D01*
X160839457Y-65277174D01*
X160994674Y-65121957D01*
X161120579Y-64942146D01*
X161187618Y-64798378D01*
X161233790Y-64745939D01*
X161300983Y-64726787D01*
X161367864Y-64747002D01*
X161412381Y-64798378D01*
X161418967Y-64812501D01*
X161479419Y-64942142D01*
X161479423Y-64942150D01*
X161605322Y-65121952D01*
X161605327Y-65121958D01*
X161760541Y-65277172D01*
X161760547Y-65277177D01*
X161940349Y-65403076D01*
X161940351Y-65403077D01*
X161940354Y-65403079D01*
X162139297Y-65495847D01*
X162351326Y-65552661D01*
X162507521Y-65566326D01*
X162569998Y-65571792D01*
X162570000Y-65571792D01*
X162570002Y-65571792D01*
X162630501Y-65566499D01*
X162788674Y-65552661D01*
X163000703Y-65495847D01*
X163199646Y-65403079D01*
X163379457Y-65277174D01*
X163534674Y-65121957D01*
X163660579Y-64942146D01*
X163727618Y-64798378D01*
X163773790Y-64745939D01*
X163840983Y-64726787D01*
X163907864Y-64747002D01*
X163952381Y-64798378D01*
X163958967Y-64812501D01*
X164019419Y-64942142D01*
X164019423Y-64942150D01*
X164145322Y-65121952D01*
X164145327Y-65121958D01*
X164300541Y-65277172D01*
X164300547Y-65277177D01*
X164480349Y-65403076D01*
X164480351Y-65403077D01*
X164480354Y-65403079D01*
X164679297Y-65495847D01*
X164891326Y-65552661D01*
X165047521Y-65566326D01*
X165109998Y-65571792D01*
X165110000Y-65571792D01*
X165110002Y-65571792D01*
X165170501Y-65566499D01*
X165328674Y-65552661D01*
X165540703Y-65495847D01*
X165739646Y-65403079D01*
X165919457Y-65277174D01*
X166074674Y-65121957D01*
X166200579Y-64942146D01*
X166261034Y-64812498D01*
X170294390Y-64812498D01*
X170294390Y-64812501D01*
X170314804Y-65097933D01*
X170375628Y-65377537D01*
X170375630Y-65377543D01*
X170375631Y-65377546D01*
X170448081Y-65571792D01*
X170475635Y-65645666D01*
X170612770Y-65896809D01*
X170612775Y-65896817D01*
X170784254Y-66125887D01*
X170784270Y-66125905D01*
X170986594Y-66328229D01*
X170986612Y-66328245D01*
X171215682Y-66499724D01*
X171215690Y-66499729D01*
X171466833Y-66636864D01*
X171466832Y-66636864D01*
X171466836Y-66636865D01*
X171466839Y-66636867D01*
X171734954Y-66736869D01*
X171734960Y-66736870D01*
X171734962Y-66736871D01*
X172014566Y-66797695D01*
X172014568Y-66797695D01*
X172014572Y-66797696D01*
X172268220Y-66815837D01*
X172299999Y-66818110D01*
X172300000Y-66818110D01*
X172300001Y-66818110D01*
X172328595Y-66816064D01*
X172585428Y-66797696D01*
X172833668Y-66743695D01*
X172865037Y-66736871D01*
X172865037Y-66736870D01*
X172865046Y-66736869D01*
X173133161Y-66636867D01*
X173384315Y-66499726D01*
X173613395Y-66328239D01*
X173815739Y-66125895D01*
X173987226Y-65896815D01*
X174124367Y-65645661D01*
X174149918Y-65577155D01*
X181775000Y-65577155D01*
X181775000Y-66350000D01*
X182649999Y-66350000D01*
X182624979Y-66410402D01*
X182600000Y-66535981D01*
X182600000Y-66664019D01*
X182624979Y-66789598D01*
X182649999Y-66850000D01*
X181775000Y-66850000D01*
X181775000Y-67622844D01*
X181781401Y-67682372D01*
X181781403Y-67682379D01*
X181831645Y-67817086D01*
X181831649Y-67817093D01*
X181917809Y-67932187D01*
X181917812Y-67932190D01*
X182032906Y-68018350D01*
X182032913Y-68018354D01*
X182167620Y-68068596D01*
X182167627Y-68068598D01*
X182227155Y-68074999D01*
X182227172Y-68075000D01*
X183000000Y-68075000D01*
X183000000Y-67200001D01*
X183060402Y-67225021D01*
X183185981Y-67250000D01*
X183314019Y-67250000D01*
X183439598Y-67225021D01*
X183500000Y-67200001D01*
X183500000Y-68075000D01*
X184272828Y-68075000D01*
X184272844Y-68074999D01*
X184332372Y-68068598D01*
X184332379Y-68068596D01*
X184467086Y-68018354D01*
X184467093Y-68018350D01*
X184582187Y-67932190D01*
X184582190Y-67932187D01*
X184668350Y-67817093D01*
X184668354Y-67817086D01*
X184718596Y-67682379D01*
X184718598Y-67682372D01*
X184724999Y-67622844D01*
X184725000Y-67622827D01*
X184725000Y-66850000D01*
X183850001Y-66850000D01*
X183875021Y-66789598D01*
X183900000Y-66664019D01*
X183900000Y-66599994D01*
X194269443Y-66599994D01*
X194269443Y-66600005D01*
X194289634Y-66843683D01*
X194289636Y-66843695D01*
X194349663Y-67080734D01*
X194447888Y-67304666D01*
X194581632Y-67509378D01*
X194747242Y-67689277D01*
X194747252Y-67689286D01*
X194811732Y-67739473D01*
X194940212Y-67839473D01*
X195155267Y-67955855D01*
X195155270Y-67955856D01*
X195386541Y-68035251D01*
X195386543Y-68035251D01*
X195386545Y-68035252D01*
X195627737Y-68075500D01*
X195627738Y-68075500D01*
X195872262Y-68075500D01*
X195872263Y-68075500D01*
X196113455Y-68035252D01*
X196344733Y-67955855D01*
X196559788Y-67839473D01*
X196752754Y-67689281D01*
X196918368Y-67509377D01*
X197052111Y-67304667D01*
X197150336Y-67080736D01*
X197210364Y-66843692D01*
X197213331Y-66807890D01*
X197230557Y-66600005D01*
X197230557Y-66599994D01*
X197210365Y-66356316D01*
X197210363Y-66356304D01*
X197167147Y-66185649D01*
X197150336Y-66119264D01*
X197052111Y-65895333D01*
X196918368Y-65690623D01*
X196918367Y-65690621D01*
X196752757Y-65510722D01*
X196752747Y-65510713D01*
X196709632Y-65477155D01*
X200875000Y-65477155D01*
X200875000Y-66250000D01*
X201749999Y-66250000D01*
X201724979Y-66310402D01*
X201700000Y-66435981D01*
X201700000Y-66564019D01*
X201724979Y-66689598D01*
X201749999Y-66750000D01*
X200875000Y-66750000D01*
X200875000Y-67522844D01*
X200881401Y-67582372D01*
X200881403Y-67582379D01*
X200931645Y-67717086D01*
X200931649Y-67717093D01*
X201017809Y-67832187D01*
X201017812Y-67832190D01*
X201132906Y-67918350D01*
X201132913Y-67918354D01*
X201267620Y-67968596D01*
X201267627Y-67968598D01*
X201327155Y-67974999D01*
X201327172Y-67975000D01*
X202100000Y-67975000D01*
X202100000Y-67100001D01*
X202160402Y-67125021D01*
X202285981Y-67150000D01*
X202414019Y-67150000D01*
X202539598Y-67125021D01*
X202600000Y-67100001D01*
X202600000Y-67975000D01*
X203372828Y-67975000D01*
X203372844Y-67974999D01*
X203432372Y-67968598D01*
X203432379Y-67968596D01*
X203567086Y-67918354D01*
X203567093Y-67918350D01*
X203682187Y-67832190D01*
X203682190Y-67832187D01*
X203768350Y-67717093D01*
X203768354Y-67717086D01*
X203818596Y-67582379D01*
X203818598Y-67582372D01*
X203824999Y-67522844D01*
X203825000Y-67522827D01*
X203825000Y-66750000D01*
X202950001Y-66750000D01*
X202975021Y-66689598D01*
X203000000Y-66564019D01*
X203000000Y-66499994D01*
X213369443Y-66499994D01*
X213369443Y-66500005D01*
X213389634Y-66743683D01*
X213389636Y-66743695D01*
X213449663Y-66980734D01*
X213547888Y-67204666D01*
X213681632Y-67409378D01*
X213847242Y-67589277D01*
X213847252Y-67589286D01*
X213975732Y-67689286D01*
X214040212Y-67739473D01*
X214255267Y-67855855D01*
X214255270Y-67855856D01*
X214486541Y-67935251D01*
X214486543Y-67935251D01*
X214486545Y-67935252D01*
X214727737Y-67975500D01*
X214727738Y-67975500D01*
X214972262Y-67975500D01*
X214972263Y-67975500D01*
X215213455Y-67935252D01*
X215444733Y-67855855D01*
X215659788Y-67739473D01*
X215852754Y-67589281D01*
X216018368Y-67409377D01*
X216152111Y-67204667D01*
X216250336Y-66980736D01*
X216310364Y-66743692D01*
X216310929Y-66736871D01*
X216330557Y-66500005D01*
X216330557Y-66499994D01*
X216310365Y-66256316D01*
X216310363Y-66256304D01*
X216275660Y-66119265D01*
X216250336Y-66019264D01*
X216152111Y-65795333D01*
X216018368Y-65590623D01*
X216018367Y-65590621D01*
X215852757Y-65410722D01*
X215852747Y-65410713D01*
X215659791Y-65260529D01*
X215659787Y-65260526D01*
X215444734Y-65144145D01*
X215444729Y-65144143D01*
X215213458Y-65064748D01*
X215013618Y-65031401D01*
X214972263Y-65024500D01*
X214727737Y-65024500D01*
X214686382Y-65031401D01*
X214486541Y-65064748D01*
X214255270Y-65144143D01*
X214255265Y-65144145D01*
X214040212Y-65260526D01*
X214040208Y-65260529D01*
X213847252Y-65410713D01*
X213847242Y-65410722D01*
X213681632Y-65590621D01*
X213547888Y-65795333D01*
X213449663Y-66019265D01*
X213389636Y-66256304D01*
X213389634Y-66256316D01*
X213369443Y-66499994D01*
X203000000Y-66499994D01*
X203000000Y-66435981D01*
X202975021Y-66310402D01*
X202950001Y-66250000D01*
X203825000Y-66250000D01*
X203825000Y-65477172D01*
X203824999Y-65477155D01*
X203818598Y-65417627D01*
X203818596Y-65417620D01*
X203768354Y-65282913D01*
X203768350Y-65282906D01*
X203682190Y-65167812D01*
X203682187Y-65167809D01*
X203567093Y-65081649D01*
X203567086Y-65081645D01*
X203432379Y-65031403D01*
X203432372Y-65031401D01*
X203372844Y-65025000D01*
X202600000Y-65025000D01*
X202600000Y-65899998D01*
X202539598Y-65874979D01*
X202414019Y-65850000D01*
X202285981Y-65850000D01*
X202160402Y-65874979D01*
X202100000Y-65899998D01*
X202100000Y-65025000D01*
X201327155Y-65025000D01*
X201267627Y-65031401D01*
X201267620Y-65031403D01*
X201132913Y-65081645D01*
X201132906Y-65081649D01*
X201017812Y-65167809D01*
X201017809Y-65167812D01*
X200931649Y-65282906D01*
X200931645Y-65282913D01*
X200881403Y-65417620D01*
X200881401Y-65417627D01*
X200875000Y-65477155D01*
X196709632Y-65477155D01*
X196559791Y-65360529D01*
X196559787Y-65360526D01*
X196344734Y-65244145D01*
X196344729Y-65244143D01*
X196113458Y-65164748D01*
X195913618Y-65131401D01*
X195872263Y-65124500D01*
X195627737Y-65124500D01*
X195586382Y-65131401D01*
X195386541Y-65164748D01*
X195155270Y-65244143D01*
X195155265Y-65244145D01*
X194940212Y-65360526D01*
X194940208Y-65360529D01*
X194747252Y-65510713D01*
X194747242Y-65510722D01*
X194581632Y-65690621D01*
X194447888Y-65895333D01*
X194349663Y-66119265D01*
X194289636Y-66356304D01*
X194289634Y-66356316D01*
X194269443Y-66599994D01*
X183900000Y-66599994D01*
X183900000Y-66535981D01*
X183875021Y-66410402D01*
X183850001Y-66350000D01*
X184725000Y-66350000D01*
X184725000Y-65577172D01*
X184724999Y-65577155D01*
X184718598Y-65517627D01*
X184718596Y-65517620D01*
X184668354Y-65382913D01*
X184668350Y-65382906D01*
X184582190Y-65267812D01*
X184582187Y-65267809D01*
X184467093Y-65181649D01*
X184467086Y-65181645D01*
X184332379Y-65131403D01*
X184332372Y-65131401D01*
X184272844Y-65125000D01*
X183500000Y-65125000D01*
X183500000Y-65999998D01*
X183439598Y-65974979D01*
X183314019Y-65950000D01*
X183185981Y-65950000D01*
X183060402Y-65974979D01*
X183000000Y-65999998D01*
X183000000Y-65125000D01*
X182227155Y-65125000D01*
X182167627Y-65131401D01*
X182167620Y-65131403D01*
X182032913Y-65181645D01*
X182032906Y-65181649D01*
X181917812Y-65267809D01*
X181917809Y-65267812D01*
X181831649Y-65382906D01*
X181831645Y-65382913D01*
X181781403Y-65517620D01*
X181781401Y-65517627D01*
X181775000Y-65577155D01*
X174149918Y-65577155D01*
X174224369Y-65377546D01*
X174228071Y-65360527D01*
X174285195Y-65097933D01*
X174285195Y-65097932D01*
X174285196Y-65097928D01*
X174305610Y-64812500D01*
X174303023Y-64776335D01*
X174300926Y-64747002D01*
X174285196Y-64527072D01*
X174269142Y-64453274D01*
X174224371Y-64247462D01*
X174224370Y-64247460D01*
X174224369Y-64247454D01*
X174124367Y-63979339D01*
X174069610Y-63879060D01*
X173987229Y-63728190D01*
X173987224Y-63728182D01*
X173815745Y-63499112D01*
X173815729Y-63499094D01*
X173613405Y-63296770D01*
X173613387Y-63296754D01*
X173384317Y-63125275D01*
X173384309Y-63125270D01*
X173133166Y-62988135D01*
X173133167Y-62988135D01*
X172900774Y-62901457D01*
X172865046Y-62888131D01*
X172865043Y-62888130D01*
X172865037Y-62888128D01*
X172585433Y-62827304D01*
X172300001Y-62806890D01*
X172299999Y-62806890D01*
X172014566Y-62827304D01*
X171734962Y-62888128D01*
X171466833Y-62988135D01*
X171215690Y-63125270D01*
X171215682Y-63125275D01*
X170986612Y-63296754D01*
X170986594Y-63296770D01*
X170784270Y-63499094D01*
X170784254Y-63499112D01*
X170612775Y-63728182D01*
X170612770Y-63728190D01*
X170475635Y-63979333D01*
X170375628Y-64247462D01*
X170314804Y-64527066D01*
X170294390Y-64812498D01*
X166261034Y-64812498D01*
X166293347Y-64743203D01*
X166350161Y-64531174D01*
X166369292Y-64312500D01*
X166350161Y-64093826D01*
X166293347Y-63881797D01*
X166200579Y-63682854D01*
X166200577Y-63682851D01*
X166200576Y-63682849D01*
X166074677Y-63503047D01*
X166074672Y-63503041D01*
X165919458Y-63347827D01*
X165919452Y-63347822D01*
X165739650Y-63221923D01*
X165739642Y-63221919D01*
X165540708Y-63129155D01*
X165540706Y-63129154D01*
X165540703Y-63129153D01*
X165389885Y-63088740D01*
X165328675Y-63072339D01*
X165328668Y-63072338D01*
X165110002Y-63053208D01*
X165109998Y-63053208D01*
X164891331Y-63072338D01*
X164891324Y-63072339D01*
X164813525Y-63093186D01*
X164679297Y-63129153D01*
X164679295Y-63129153D01*
X164679291Y-63129155D01*
X164480357Y-63221919D01*
X164480349Y-63221923D01*
X164300547Y-63347822D01*
X164300541Y-63347827D01*
X164145327Y-63503041D01*
X164145322Y-63503047D01*
X164019423Y-63682849D01*
X164019419Y-63682857D01*
X163952382Y-63826620D01*
X163906210Y-63879060D01*
X163839017Y-63898212D01*
X163772135Y-63877996D01*
X163727618Y-63826620D01*
X163681717Y-63728185D01*
X163660579Y-63682854D01*
X163660577Y-63682851D01*
X163660576Y-63682849D01*
X163534677Y-63503047D01*
X163534672Y-63503041D01*
X163379458Y-63347827D01*
X163379452Y-63347822D01*
X163199650Y-63221923D01*
X163199642Y-63221919D01*
X163000708Y-63129155D01*
X163000706Y-63129154D01*
X163000703Y-63129153D01*
X162849885Y-63088740D01*
X162788675Y-63072339D01*
X162788668Y-63072338D01*
X162570002Y-63053208D01*
X162569998Y-63053208D01*
X162351331Y-63072338D01*
X162351324Y-63072339D01*
X162273525Y-63093186D01*
X162139297Y-63129153D01*
X162139295Y-63129153D01*
X162139291Y-63129155D01*
X161940357Y-63221919D01*
X161940349Y-63221923D01*
X161760547Y-63347822D01*
X161760541Y-63347827D01*
X161605327Y-63503041D01*
X161605322Y-63503047D01*
X161479423Y-63682849D01*
X161479419Y-63682857D01*
X161412382Y-63826620D01*
X161366210Y-63879060D01*
X161299017Y-63898212D01*
X161232135Y-63877996D01*
X161187618Y-63826620D01*
X161141717Y-63728185D01*
X161120579Y-63682854D01*
X161120577Y-63682851D01*
X161120576Y-63682849D01*
X160994677Y-63503047D01*
X160994672Y-63503041D01*
X160839458Y-63347827D01*
X160839452Y-63347822D01*
X160659650Y-63221923D01*
X160659642Y-63221919D01*
X160460708Y-63129155D01*
X160460706Y-63129154D01*
X160460703Y-63129153D01*
X160309885Y-63088740D01*
X160248675Y-63072339D01*
X160248668Y-63072338D01*
X160030002Y-63053208D01*
X160029998Y-63053208D01*
X159811331Y-63072338D01*
X159811324Y-63072339D01*
X159733525Y-63093186D01*
X159599297Y-63129153D01*
X159599295Y-63129153D01*
X159599291Y-63129155D01*
X159400357Y-63221919D01*
X159400349Y-63221923D01*
X159220547Y-63347822D01*
X159220541Y-63347827D01*
X159065327Y-63503041D01*
X159065322Y-63503048D01*
X158969575Y-63639789D01*
X158914998Y-63683414D01*
X158845500Y-63690607D01*
X158783145Y-63659085D01*
X158747731Y-63598855D01*
X158744000Y-63568666D01*
X158744000Y-63510672D01*
X158743999Y-63510655D01*
X158737598Y-63451127D01*
X158737596Y-63451120D01*
X158687354Y-63316413D01*
X158687350Y-63316406D01*
X158601190Y-63201312D01*
X158601187Y-63201309D01*
X158486093Y-63115149D01*
X158486086Y-63115145D01*
X158351379Y-63064903D01*
X158351372Y-63064901D01*
X158291844Y-63058500D01*
X157740000Y-63058500D01*
X157740000Y-63879488D01*
X157682993Y-63846575D01*
X157555826Y-63812500D01*
X157424174Y-63812500D01*
X157297007Y-63846575D01*
X157240000Y-63879488D01*
X157240000Y-63058500D01*
X156688155Y-63058500D01*
X156628627Y-63064901D01*
X156628620Y-63064903D01*
X156493913Y-63115145D01*
X156493906Y-63115149D01*
X156378812Y-63201309D01*
X156378809Y-63201312D01*
X156292649Y-63316406D01*
X156292645Y-63316413D01*
X156242403Y-63451120D01*
X156242401Y-63451127D01*
X156236000Y-63510655D01*
X151824386Y-63510655D01*
X151815745Y-63499112D01*
X151815729Y-63499094D01*
X151613405Y-63296770D01*
X151613387Y-63296754D01*
X151384317Y-63125275D01*
X151384309Y-63125270D01*
X151133166Y-62988135D01*
X151133167Y-62988135D01*
X150900774Y-62901457D01*
X150865046Y-62888131D01*
X150865043Y-62888130D01*
X150865037Y-62888128D01*
X150585433Y-62827304D01*
X150300001Y-62806890D01*
X150299999Y-62806890D01*
X150014566Y-62827304D01*
X149734962Y-62888128D01*
X149466833Y-62988135D01*
X149215690Y-63125270D01*
X149215682Y-63125275D01*
X148986612Y-63296754D01*
X148986594Y-63296770D01*
X148784270Y-63499094D01*
X148784254Y-63499112D01*
X148612775Y-63728182D01*
X148612770Y-63728190D01*
X148475635Y-63979333D01*
X148375628Y-64247462D01*
X148314804Y-64527066D01*
X148294390Y-64812498D01*
X132176584Y-64812498D01*
X132353349Y-64646504D01*
X132545885Y-64413768D01*
X132707733Y-64158736D01*
X132836341Y-63885430D01*
X132929681Y-63598160D01*
X132986280Y-63301457D01*
X132986281Y-63301446D01*
X133005246Y-63000005D01*
X133005246Y-62999994D01*
X132986281Y-62698553D01*
X132986280Y-62698546D01*
X132986280Y-62698543D01*
X132929681Y-62401840D01*
X132836341Y-62114570D01*
X132720095Y-61867536D01*
X132709363Y-61798497D01*
X132737659Y-61734613D01*
X132796002Y-61696170D01*
X132831751Y-61690741D01*
X220458027Y-61310171D01*
X220525148Y-61329563D01*
G37*
%TD.AperFunction*%
%TD*%
D26*
X178200000Y-91900000D03*
D27*
X157490000Y-64312500D03*
X160030000Y-64312500D03*
X162570000Y-64312500D03*
X165110000Y-64312500D03*
X150300000Y-64812500D03*
X172300000Y-64812500D03*
X172300000Y-86812500D03*
X150300000Y-86812500D03*
X130300000Y-97800000D03*
X202900000Y-85460000D03*
X202900000Y-90540000D03*
X183250000Y-66600000D03*
X183250000Y-71600000D03*
X195750000Y-66600000D03*
X195750000Y-71600000D03*
X222800000Y-97800000D03*
X130600000Y-63000000D03*
X202350000Y-66500000D03*
X202350000Y-71500000D03*
X214850000Y-66500000D03*
X214850000Y-71500000D03*
X203000000Y-79160000D03*
X203000000Y-81700000D03*
X222700000Y-62600000D03*
X183300000Y-83900000D03*
X183300000Y-88900000D03*
X195800000Y-83900000D03*
X195800000Y-88900000D03*
X171000000Y-91040000D03*
X168460000Y-91040000D03*
X165920000Y-91040000D03*
X163380000Y-91040000D03*
X160840000Y-91040000D03*
X158300000Y-91040000D03*
X155760000Y-91040000D03*
X153220000Y-91040000D03*
X150680000Y-91040000D03*
X148140000Y-91040000D03*
X145600000Y-91040000D03*
X143060000Y-91040000D03*
X140520000Y-91040000D03*
X137980000Y-91040000D03*
X135440000Y-91040000D03*
X135440000Y-75800000D03*
X137980000Y-75800000D03*
X140520000Y-75800000D03*
X143060000Y-75800000D03*
X145600000Y-75800000D03*
X148140000Y-75800000D03*
X150680000Y-75800000D03*
X153220000Y-75800000D03*
X155760000Y-75800000D03*
X158300000Y-75800000D03*
X160840000Y-75800000D03*
X163380000Y-75800000D03*
X165920000Y-75800000D03*
X168460000Y-75800000D03*
X171000000Y-75800000D03*
X212140000Y-81720000D03*
X209600000Y-81720000D03*
X212140000Y-84260000D03*
X209600000Y-84260000D03*
X212140000Y-86800000D03*
X209600000Y-86800000D03*
X212140000Y-89340000D03*
X209600000Y-89340000D03*
M02*
