M48
; DRILL file {KiCad 8.0.6} date 2025-07-15T15:38:21+0530
; FORMAT={-:-/ absolute / metric / decimal}
; #@! TF.CreationDate,2025-07-15T15:38:21+05:30
; #@! TF.GenerationSoftware,Kicad,Pcbnew,8.0.6
; #@! TF.FileFunction,MixedPlating,1,2
FMAT,2
METRIC
; #@! TA.AperFunction,Plated,PTH,ViaDrill
T1C0.300
; #@! TA.AperFunction,Plated,PTH,ComponentDrill
T2C0.650
; #@! TA.AperFunction,Plated,PTH,ComponentDrill
T3C0.700
; #@! TA.AperFunction,Plated,PTH,ComponentDrill
T4C0.800
; #@! TA.AperFunction,Plated,PTH,ComponentDrill
T5C0.900
; #@! TA.AperFunction,Plated,PTH,ComponentDrill
T6C1.000
; #@! TA.AperFunction,Plated,PTH,ComponentDrill
T7C1.300
; #@! TA.AperFunction,Plated,PTH,ComponentDrill
T8C2.000
; #@! TA.AperFunction,NonPlated,NPTH,ComponentDrill
T9C2.200
%
G90
G05
T1
X131.8Y-94.6
X136.16Y-94.56
X140.935Y-74.185
X141.32Y-79.07
X152.615Y-93.835
X157.63Y-98.06
X158.29Y-81.03
X158.97Y-83.98
X166.0Y-87.7
X169.399Y-89.101
X171.0Y-88.1
X176.765Y-83.225
X190.0Y-88.4
X193.7Y-88.8
X197.39Y-84.13
X201.2Y-97.6
X203.9Y-97.9
T2
X181.35Y-97.74
X182.62Y-97.74
T3
X172.63Y-97.34
X177.71Y-97.34
X222.9Y-87.8
X227.98Y-87.8
T4
X172.5Y-86.28
X172.5Y-93.9
X175.04Y-86.28
X175.04Y-93.9
X177.58Y-86.28
X177.58Y-93.9
X180.12Y-86.28
X180.12Y-93.9
X182.66Y-86.28
X182.66Y-93.9
X185.2Y-86.28
X185.2Y-93.9
X187.74Y-86.28
X187.74Y-93.9
X190.25Y-97.1
X190.28Y-86.28
X190.28Y-93.9
X192.75Y-97.1
X192.82Y-86.28
X192.82Y-93.9
X195.36Y-86.28
X195.36Y-93.9
X195.4Y-97.1
X197.9Y-86.28
X197.9Y-93.9
X197.9Y-97.1
X200.44Y-86.28
X200.44Y-93.9
X202.98Y-86.28
X202.98Y-93.9
X205.52Y-86.28
X205.52Y-93.9
X210.9Y-89.8
X210.9Y-94.7
T5
X217.075Y-88.97
X219.615Y-88.97
T6
X133.92Y-78.71
X133.92Y-81.25
X133.92Y-83.79
X133.92Y-86.33
X133.92Y-88.87
X136.46Y-78.71
X136.46Y-81.25
X136.46Y-83.79
X136.46Y-86.33
X136.46Y-88.87
X146.81Y-86.45
X146.86Y-79.34
X149.31Y-86.45
X149.36Y-79.34
X151.49Y-72.6
X154.03Y-72.6
X156.57Y-72.6
X159.11Y-72.6
X217.88Y-96.52
X220.38Y-96.52
X228.2Y-93.4
X228.2Y-95.9
T7
X173.75Y-74.0
X173.75Y-79.0
X186.25Y-74.0
X186.25Y-79.0
X194.85Y-74.0
X194.85Y-79.0
X207.35Y-74.0
X207.35Y-79.0
X215.95Y-74.0
X215.95Y-79.0
X228.45Y-74.0
X228.45Y-79.0
T8
X144.3Y-73.1
X144.3Y-95.1
X166.3Y-73.1
X166.3Y-95.1
T9
X128.7Y-70.2
X128.7Y-97.3
X233.6Y-70.2
X233.6Y-97.3
M30
