%TF.GenerationSoftware,KiCad,Pcbnew,8.0.6*%
%TF.CreationDate,2025-07-15T15:38:21+05:30*%
%TF.ProjectId,_autosave-interface_panel,5f617574-6f73-4617-9665-2d696e746572,rev?*%
%TF.SameCoordinates,Original*%
%TF.FileFunction,Copper,L2,Bot*%
%TF.FilePolarity,Positive*%
%FSLAX46Y46*%
G04 Gerber Fmt 4.6, Leading zero omitted, Abs format (unit mm)*
G04 Created by KiCad (PCBNEW 8.0.6) date 2025-07-15 15:38:21*
%MOMM*%
%LPD*%
G01*
G04 APERTURE LIST*
G04 Aperture macros list*
%AMRoundRect*
0 Rectangle with rounded corners*
0 $1 Rounding radius*
0 $2 $3 $4 $5 $6 $7 $8 $9 X,Y pos of 4 corners*
0 Add a 4 corners polygon primitive as box body*
4,1,4,$2,$3,$4,$5,$6,$7,$8,$9,$2,$3,0*
0 Add four circle primitives for the rounded corners*
1,1,$1+$1,$2,$3*
1,1,$1+$1,$4,$5*
1,1,$1+$1,$6,$7*
1,1,$1+$1,$8,$9*
0 Add four rect primitives between the rounded corners*
20,1,$1+$1,$2,$3,$4,$5,0*
20,1,$1+$1,$4,$5,$6,$7,0*
20,1,$1+$1,$6,$7,$8,$9,0*
20,1,$1+$1,$8,$9,$2,$3,0*%
G04 Aperture macros list end*
%TA.AperFunction,ComponentPad*%
%ADD10R,1.000000X1.000000*%
%TD*%
%TA.AperFunction,ComponentPad*%
%ADD11O,1.000000X1.000000*%
%TD*%
%TA.AperFunction,ComponentPad*%
%ADD12C,1.400000*%
%TD*%
%TA.AperFunction,ComponentPad*%
%ADD13O,1.400000X1.400000*%
%TD*%
%TA.AperFunction,ComponentPad*%
%ADD14C,1.500000*%
%TD*%
%TA.AperFunction,ComponentPad*%
%ADD15R,1.508000X1.508000*%
%TD*%
%TA.AperFunction,ComponentPad*%
%ADD16C,1.508000*%
%TD*%
%TA.AperFunction,ComponentPad*%
%ADD17C,3.000000*%
%TD*%
%TA.AperFunction,ComponentPad*%
%ADD18R,1.600000X1.600000*%
%TD*%
%TA.AperFunction,ComponentPad*%
%ADD19O,1.600000X1.600000*%
%TD*%
%TA.AperFunction,ComponentPad*%
%ADD20C,1.600000*%
%TD*%
%TA.AperFunction,ComponentPad*%
%ADD21R,1.950000X1.950000*%
%TD*%
%TA.AperFunction,ComponentPad*%
%ADD22C,1.950000*%
%TD*%
%TA.AperFunction,ComponentPad*%
%ADD23R,1.800000X1.800000*%
%TD*%
%TA.AperFunction,ComponentPad*%
%ADD24C,1.800000*%
%TD*%
%TA.AperFunction,ComponentPad*%
%ADD25RoundRect,0.250000X0.600000X0.750000X-0.600000X0.750000X-0.600000X-0.750000X0.600000X-0.750000X0*%
%TD*%
%TA.AperFunction,ComponentPad*%
%ADD26O,1.700000X2.000000*%
%TD*%
%TA.AperFunction,ComponentPad*%
%ADD27RoundRect,0.250000X0.750000X-0.600000X0.750000X0.600000X-0.750000X0.600000X-0.750000X-0.600000X0*%
%TD*%
%TA.AperFunction,ComponentPad*%
%ADD28O,2.000000X1.700000*%
%TD*%
%TA.AperFunction,ComponentPad*%
%ADD29RoundRect,0.250000X0.600000X0.600000X-0.600000X0.600000X-0.600000X-0.600000X0.600000X-0.600000X0*%
%TD*%
%TA.AperFunction,ComponentPad*%
%ADD30C,1.700000*%
%TD*%
%TA.AperFunction,ViaPad*%
%ADD31C,0.600000*%
%TD*%
%TA.AperFunction,Conductor*%
%ADD32C,0.200000*%
%TD*%
%ADD33C,0.300000*%
%ADD34C,0.350000*%
G04 APERTURE END LIST*
D10*
%TO.P,J6,1,Pin_1*%
%TO.N,Net-(J6-Pin_1)*%
X181350000Y-97740000D03*
D11*
%TO.P,J6,2,Pin_2*%
%TO.N,GND*%
X182620000Y-97740000D03*
%TD*%
D12*
%TO.P,R2,1*%
%TO.N,5V*%
X172630000Y-97340000D03*
D13*
%TO.P,R2,2*%
%TO.N,Net-(J6-Pin_1)*%
X177710000Y-97340000D03*
%TD*%
D14*
%TO.P,Y1,1,1*%
%TO.N,Net-(U2-XTAL2{slash}PB7)*%
X210900000Y-94700000D03*
%TO.P,Y1,2,2*%
%TO.N,Net-(U2-XTAL1{slash}PB6)*%
X210900000Y-89800000D03*
%TD*%
D15*
%TO.P,oled1,1,GND*%
%TO.N,GND*%
X151490000Y-72600000D03*
D16*
%TO.P,oled1,2,VCC*%
%TO.N,5V*%
X154030000Y-72600000D03*
%TO.P,oled1,3,SCL*%
%TO.N,SCL*%
X156570000Y-72600000D03*
%TO.P,oled1,4,SDA*%
%TO.N,SDA*%
X159110000Y-72600000D03*
D17*
%TO.P,oled1,S1*%
%TO.N,N/C*%
X144300000Y-73100000D03*
%TO.P,oled1,S2*%
X166300000Y-73100000D03*
%TO.P,oled1,S3*%
X166300000Y-95100000D03*
%TO.P,oled1,S4*%
X144300000Y-95100000D03*
%TD*%
D18*
%TO.P,U2,1,~{RESET}/PC6*%
%TO.N,Net-(J6-Pin_1)*%
X172500000Y-93900000D03*
D19*
%TO.P,U2,2,PD0*%
%TO.N,RX*%
X175040000Y-93900000D03*
%TO.P,U2,3,PD1*%
%TO.N,TX*%
X177580000Y-93900000D03*
%TO.P,U2,4,PD2*%
%TO.N,unconnected-(U2-PD2-Pad4)*%
X180120000Y-93900000D03*
%TO.P,U2,5,PD3*%
%TO.N,unconnected-(U2-PD3-Pad5)*%
X182660000Y-93900000D03*
%TO.P,U2,6,PD4*%
%TO.N,S. LED*%
X185200000Y-93900000D03*
%TO.P,U2,7,VCC*%
%TO.N,5V*%
X187740000Y-93900000D03*
%TO.P,U2,8,GND*%
%TO.N,GND*%
X190280000Y-93900000D03*
%TO.P,U2,9,XTAL1/PB6*%
%TO.N,Net-(U2-XTAL1{slash}PB6)*%
X192820000Y-93900000D03*
%TO.P,U2,10,XTAL2/PB7*%
%TO.N,Net-(U2-XTAL2{slash}PB7)*%
X195360000Y-93900000D03*
%TO.P,U2,11,PD5*%
%TO.N,unconnected-(U2-PD5-Pad11)*%
X197900000Y-93900000D03*
%TO.P,U2,12,PD6*%
%TO.N,unconnected-(U2-PD6-Pad12)*%
X200440000Y-93900000D03*
%TO.P,U2,13,PD7*%
%TO.N,D7*%
X202980000Y-93900000D03*
%TO.P,U2,14,PB0*%
%TO.N,unconnected-(U2-PB0-Pad14)*%
X205520000Y-93900000D03*
%TO.P,U2,15,PB1*%
%TO.N,unconnected-(U2-PB1-Pad15)*%
X205520000Y-86280000D03*
%TO.P,U2,16,PB2*%
%TO.N,unconnected-(U2-PB2-Pad16)*%
X202980000Y-86280000D03*
%TO.P,U2,17,PB3*%
%TO.N,D11*%
X200440000Y-86280000D03*
%TO.P,U2,18,PB4*%
%TO.N,unconnected-(U2-PB4-Pad18)*%
X197900000Y-86280000D03*
%TO.P,U2,19,PB5*%
%TO.N,unconnected-(U2-PB5-Pad19)*%
X195360000Y-86280000D03*
%TO.P,U2,20,AVCC*%
%TO.N,5V*%
X192820000Y-86280000D03*
%TO.P,U2,21,AREF*%
%TO.N,unconnected-(U2-AREF-Pad21)*%
X190280000Y-86280000D03*
%TO.P,U2,22,GND*%
%TO.N,GND*%
X187740000Y-86280000D03*
%TO.P,U2,23,PC0*%
%TO.N,unconnected-(U2-PC0-Pad23)*%
X185200000Y-86280000D03*
%TO.P,U2,24,PC1*%
%TO.N,unconnected-(U2-PC1-Pad24)*%
X182660000Y-86280000D03*
%TO.P,U2,25,PC2*%
%TO.N,unconnected-(U2-PC2-Pad25)*%
X180120000Y-86280000D03*
%TO.P,U2,26,PC3*%
%TO.N,unconnected-(U2-PC3-Pad26)*%
X177580000Y-86280000D03*
%TO.P,U2,27,PC4*%
%TO.N,SDA*%
X175040000Y-86280000D03*
%TO.P,U2,28,PC5*%
%TO.N,SCL*%
X172500000Y-86280000D03*
%TD*%
D12*
%TO.P,R1,1*%
%TO.N,Net-(D1-A)*%
X222900000Y-87800000D03*
D13*
%TO.P,R1,2*%
%TO.N,S. LED*%
X227980000Y-87800000D03*
%TD*%
D20*
%TO.P,C1,1*%
%TO.N,Net-(U2-XTAL1{slash}PB6)*%
X192750000Y-97100000D03*
%TO.P,C1,2*%
%TO.N,GND*%
X190250000Y-97100000D03*
%TD*%
D21*
%TO.P,H-1,1,1*%
%TO.N,GND*%
X173750000Y-74000000D03*
D22*
%TO.P,H-1,2,2*%
%TO.N,BT-1*%
X173750000Y-79000000D03*
%TO.P,H-1,3*%
%TO.N,N/C*%
X186250000Y-74000000D03*
%TO.P,H-1,4*%
X186250000Y-79000000D03*
%TD*%
D21*
%TO.P,0/1,1,1*%
%TO.N,GND*%
X194850000Y-74000000D03*
D22*
%TO.P,0/1,2,2*%
%TO.N,BT-Pwr*%
X194850000Y-79000000D03*
%TO.P,0/1,3*%
%TO.N,N/C*%
X207350000Y-74000000D03*
%TO.P,0/1,4*%
X207350000Y-79000000D03*
%TD*%
D23*
%TO.P,D1,1,K*%
%TO.N,GND*%
X217075000Y-88970000D03*
D24*
%TO.P,D1,2,A*%
%TO.N,Net-(D1-A)*%
X219615000Y-88970000D03*
%TD*%
D20*
%TO.P,C2,1*%
%TO.N,Net-(U2-XTAL2{slash}PB7)*%
X197900000Y-97100000D03*
%TO.P,C2,2*%
%TO.N,GND*%
X195400000Y-97100000D03*
%TD*%
D21*
%TO.P,H-2,1,1*%
%TO.N,GND*%
X215950000Y-74000000D03*
D22*
%TO.P,H-2,2,2*%
%TO.N,BT-2*%
X215950000Y-79000000D03*
%TO.P,H-2,3*%
%TO.N,N/C*%
X228450000Y-74000000D03*
%TO.P,H-2,4*%
X228450000Y-79000000D03*
%TD*%
D25*
%TO.P,J4,1,Pin_1*%
%TO.N,GND*%
X220380000Y-96520000D03*
D26*
%TO.P,J4,2,Pin_2*%
%TO.N,BT-Pwr*%
X217880000Y-96520000D03*
%TD*%
D27*
%TO.P,J5,1,Pin_1*%
%TO.N,GND*%
X228200000Y-95900000D03*
D28*
%TO.P,J5,2,Pin_2*%
%TO.N,S. LED*%
X228200000Y-93400000D03*
%TD*%
D25*
%TO.P,J2,1,Pin_1*%
%TO.N,GND*%
X149360000Y-79340000D03*
D26*
%TO.P,J2,2,Pin_2*%
%TO.N,BT-1*%
X146860000Y-79340000D03*
%TD*%
D25*
%TO.P,J3,1,Pin_1*%
%TO.N,GND*%
X149310000Y-86450000D03*
D26*
%TO.P,J3,2,Pin_2*%
%TO.N,BT-2*%
X146810000Y-86450000D03*
%TD*%
D29*
%TO.P,J7,1,Pin_1*%
%TO.N,5V*%
X136460000Y-78710000D03*
D30*
%TO.P,J7,2,Pin_2*%
%TO.N,GND*%
X133920000Y-78710000D03*
%TO.P,J7,3,Pin_3*%
%TO.N,BT-Pwr*%
X136460000Y-81250000D03*
%TO.P,J7,4,Pin_4*%
%TO.N,S. LED*%
X133920000Y-81250000D03*
%TO.P,J7,5,Pin_5*%
%TO.N,BT-1*%
X136460000Y-83790000D03*
%TO.P,J7,6,Pin_6*%
%TO.N,RX*%
X133920000Y-83790000D03*
%TO.P,J7,7,Pin_7*%
%TO.N,BT-2*%
X136460000Y-86330000D03*
%TO.P,J7,8,Pin_8*%
%TO.N,TX*%
X133920000Y-86330000D03*
%TO.P,J7,9,Pin_9*%
%TO.N,D11*%
X136460000Y-88870000D03*
%TO.P,J7,10,Pin_10*%
%TO.N,D7*%
X133920000Y-88870000D03*
%TD*%
D31*
%TO.N,S. LED*%
X203900000Y-97900000D03*
X201200000Y-97600000D03*
%TO.N,D11*%
X193700000Y-88800000D03*
X190000000Y-88400000D03*
X171000000Y-88100000D03*
X166000000Y-87700000D03*
%TO.N,BT-Pwr*%
X141320000Y-79070000D03*
X140935000Y-74185000D03*
X197390000Y-84130000D03*
%TO.N,BT-1*%
X158290000Y-81030000D03*
%TO.N,BT-2*%
X176765000Y-83225000D03*
X158970000Y-83980000D03*
%TO.N,S. LED*%
X136160000Y-94560000D03*
X131800000Y-94600000D03*
%TO.N,5V*%
X169398566Y-89101434D03*
%TO.N,D7*%
X152615000Y-93835000D03*
X157630000Y-98060000D03*
%TD*%
D32*
%TO.N,D11*%
X170800000Y-87900000D02*
X171000000Y-88100000D01*
X166200000Y-87900000D02*
X170800000Y-87900000D01*
X166000000Y-87700000D02*
X166200000Y-87900000D01*
%TO.N,S. LED*%
X203600000Y-97600000D02*
X203900000Y-97900000D01*
X201200000Y-97600000D02*
X203600000Y-97600000D01*
%TO.N,D11*%
X190400000Y-88800000D02*
X193700000Y-88800000D01*
X190000000Y-88400000D02*
X190400000Y-88800000D01*
%TO.N,5V*%
X171640000Y-97340000D02*
X172630000Y-97340000D01*
X168900000Y-89600000D02*
X168900000Y-94600000D01*
X169398566Y-89101434D02*
X168900000Y-89600000D01*
X168900000Y-94600000D02*
X171640000Y-97340000D01*
%TO.N,S. LED*%
X136120000Y-94600000D02*
X136160000Y-94560000D01*
X131800000Y-94600000D02*
X136120000Y-94600000D01*
%TO.N,BT-Pwr*%
X141320000Y-79070000D02*
X141320000Y-74570000D01*
X141320000Y-74570000D02*
X140935000Y-74185000D01*
X140935000Y-74185000D02*
X140930000Y-74180000D01*
X195090000Y-81830000D02*
X195090000Y-79240000D01*
X195090000Y-79240000D02*
X194850000Y-79000000D01*
X197390000Y-84130000D02*
X195090000Y-81830000D01*
%TO.N,BT-1*%
X171720000Y-81030000D02*
X173750000Y-79000000D01*
X158290000Y-81030000D02*
X171720000Y-81030000D01*
%TO.N,BT-2*%
X176010000Y-83980000D02*
X176765000Y-83225000D01*
X176765000Y-83225000D02*
X176800000Y-83190000D01*
X158970000Y-83980000D02*
X176010000Y-83980000D01*
%TO.N,D7*%
X152615000Y-93835000D02*
X156840000Y-98060000D01*
X156840000Y-98060000D02*
X157630000Y-98060000D01*
%TD*%
%TA.AperFunction,Conductor*%
%TO.N,GND*%
G36*
X135039341Y-79475789D02*
G01*
X135091191Y-79486209D01*
X135141375Y-79534823D01*
X135151205Y-79556966D01*
X135175186Y-79629334D01*
X135267288Y-79778656D01*
X135391344Y-79902712D01*
X135540666Y-79994814D01*
X135549264Y-79997663D01*
X135606707Y-80037433D01*
X135633531Y-80101948D01*
X135621217Y-80170724D01*
X135592234Y-80207483D01*
X135592427Y-80207676D01*
X135590798Y-80209304D01*
X135589975Y-80210349D01*
X135588599Y-80211503D01*
X135421505Y-80378597D01*
X135291575Y-80564158D01*
X135236998Y-80607783D01*
X135167500Y-80614977D01*
X135105145Y-80583454D01*
X135088425Y-80564158D01*
X134958494Y-80378597D01*
X134791402Y-80211506D01*
X134791401Y-80211505D01*
X134616846Y-80089280D01*
X134605405Y-80081269D01*
X134561781Y-80026692D01*
X134554588Y-79957193D01*
X134586110Y-79894839D01*
X134605405Y-79878119D01*
X134681373Y-79824925D01*
X134049409Y-79192962D01*
X134112993Y-79175925D01*
X134227007Y-79110099D01*
X134320099Y-79017007D01*
X134385925Y-78902993D01*
X134402962Y-78839410D01*
X135039341Y-79475789D01*
G37*
%TD.AperFunction*%
%TA.AperFunction,Conductor*%
G36*
X233703730Y-67600725D02*
G01*
X233993795Y-67618271D01*
X234008657Y-67620075D01*
X234124987Y-67641394D01*
X234290798Y-67671780D01*
X234305335Y-67675363D01*
X234579172Y-67760695D01*
X234593163Y-67766000D01*
X234854743Y-67883727D01*
X234867989Y-67890680D01*
X235113465Y-68039075D01*
X235125776Y-68047573D01*
X235152987Y-68068891D01*
X235351573Y-68224473D01*
X235362781Y-68234403D01*
X235565596Y-68437218D01*
X235575526Y-68448426D01*
X235633811Y-68522821D01*
X235695481Y-68601538D01*
X235752422Y-68674217D01*
X235760926Y-68686537D01*
X235773813Y-68707855D01*
X235909316Y-68932004D01*
X235916275Y-68945263D01*
X236033997Y-69206831D01*
X236039306Y-69220832D01*
X236124635Y-69494663D01*
X236128219Y-69509201D01*
X236179923Y-69791340D01*
X236181728Y-69806205D01*
X236199256Y-70095983D01*
X236199481Y-70103922D01*
X236099544Y-97543912D01*
X236099160Y-97553220D01*
X236076698Y-97837709D01*
X236074656Y-97852360D01*
X236018864Y-98130216D01*
X236015093Y-98144519D01*
X235926608Y-98413768D01*
X235921160Y-98427520D01*
X235801244Y-98684315D01*
X235794197Y-98697320D01*
X235644558Y-98938006D01*
X235636012Y-98950080D01*
X235458780Y-99171231D01*
X235448858Y-99182201D01*
X235246551Y-99380677D01*
X235235393Y-99390388D01*
X235010890Y-99563363D01*
X234998655Y-99571676D01*
X234755153Y-99716687D01*
X234742015Y-99723484D01*
X234482979Y-99838466D01*
X234469126Y-99843650D01*
X234198242Y-99926969D01*
X234183870Y-99930467D01*
X233904984Y-99980940D01*
X233890297Y-99982701D01*
X233612865Y-99999277D01*
X233605494Y-99999498D01*
X128525071Y-100020818D01*
X128517560Y-100020592D01*
X128234434Y-100003468D01*
X128219569Y-100001663D01*
X127944255Y-99951211D01*
X127929716Y-99947628D01*
X127713211Y-99880164D01*
X127662477Y-99864354D01*
X127648483Y-99859047D01*
X127552677Y-99815929D01*
X127393234Y-99744170D01*
X127379976Y-99737211D01*
X127140440Y-99592408D01*
X127128116Y-99583902D01*
X126907777Y-99411277D01*
X126896569Y-99401347D01*
X126698652Y-99203430D01*
X126688722Y-99192222D01*
X126680871Y-99182201D01*
X126516093Y-98971877D01*
X126507591Y-98959559D01*
X126362788Y-98720023D01*
X126355829Y-98706765D01*
X126351578Y-98697320D01*
X126240948Y-98451507D01*
X126235647Y-98437532D01*
X126152370Y-98170280D01*
X126148788Y-98155744D01*
X126145442Y-98137487D01*
X126098335Y-97880428D01*
X126096531Y-97865564D01*
X126096334Y-97862315D01*
X126079405Y-97582428D01*
X126079180Y-97574941D01*
X126079180Y-97546317D01*
X126079181Y-97512791D01*
X126079180Y-97512787D01*
X126079180Y-97506040D01*
X126079024Y-97503695D01*
X126078376Y-97193713D01*
X127349500Y-97193713D01*
X127349500Y-97406286D01*
X127382486Y-97614555D01*
X127382754Y-97616243D01*
X127434512Y-97775538D01*
X127448444Y-97818414D01*
X127544951Y-98007820D01*
X127669890Y-98179786D01*
X127820213Y-98330109D01*
X127992179Y-98455048D01*
X127992181Y-98455049D01*
X127992184Y-98455051D01*
X128181588Y-98551557D01*
X128383757Y-98617246D01*
X128593713Y-98650500D01*
X128593714Y-98650500D01*
X128806286Y-98650500D01*
X128806287Y-98650500D01*
X129016243Y-98617246D01*
X129218412Y-98551557D01*
X129407816Y-98455051D01*
X129444067Y-98428713D01*
X129579786Y-98330109D01*
X129579788Y-98330106D01*
X129579792Y-98330104D01*
X129730104Y-98179792D01*
X129730106Y-98179788D01*
X129730109Y-98179786D01*
X129855048Y-98007820D01*
X129855047Y-98007820D01*
X129855051Y-98007816D01*
X129951557Y-97818412D01*
X130017246Y-97616243D01*
X130050500Y-97406287D01*
X130050500Y-97193713D01*
X130017246Y-96983757D01*
X129951557Y-96781588D01*
X129855051Y-96592184D01*
X129855049Y-96592181D01*
X129855048Y-96592179D01*
X129730109Y-96420213D01*
X129579786Y-96269890D01*
X129407820Y-96144951D01*
X129218414Y-96048444D01*
X129218413Y-96048443D01*
X129218412Y-96048443D01*
X129016243Y-95982754D01*
X129016241Y-95982753D01*
X129016240Y-95982753D01*
X128842761Y-95955277D01*
X128806287Y-95949500D01*
X128593713Y-95949500D01*
X128557239Y-95955277D01*
X128383760Y-95982753D01*
X128383757Y-95982754D01*
X128266129Y-96020974D01*
X128181585Y-96048444D01*
X127992179Y-96144951D01*
X127820213Y-96269890D01*
X127669890Y-96420213D01*
X127544951Y-96592179D01*
X127448444Y-96781585D01*
X127382753Y-96983760D01*
X127349500Y-97193713D01*
X126078376Y-97193713D01*
X126072958Y-94599996D01*
X130994435Y-94599996D01*
X130994435Y-94600003D01*
X131014630Y-94779249D01*
X131014631Y-94779254D01*
X131074211Y-94949523D01*
X131156523Y-95080521D01*
X131170184Y-95102262D01*
X131297738Y-95229816D01*
X131450478Y-95325789D01*
X131620745Y-95385368D01*
X131620750Y-95385369D01*
X131799996Y-95405565D01*
X131800000Y-95405565D01*
X131800004Y-95405565D01*
X131979249Y-95385369D01*
X131979252Y-95385368D01*
X131979255Y-95385368D01*
X132149522Y-95325789D01*
X132302262Y-95229816D01*
X132302267Y-95229810D01*
X132305097Y-95227555D01*
X132307275Y-95226665D01*
X132308158Y-95226111D01*
X132308255Y-95226265D01*
X132369783Y-95201145D01*
X132382412Y-95200500D01*
X135639017Y-95200500D01*
X135704989Y-95219506D01*
X135810477Y-95285789D01*
X135810481Y-95285790D01*
X135980737Y-95345366D01*
X135980743Y-95345367D01*
X135980745Y-95345368D01*
X135980746Y-95345368D01*
X135980750Y-95345369D01*
X136159996Y-95365565D01*
X136160000Y-95365565D01*
X136160004Y-95365565D01*
X136339249Y-95345369D01*
X136339252Y-95345368D01*
X136339255Y-95345368D01*
X136509522Y-95285789D01*
X136662262Y-95189816D01*
X136752080Y-95099998D01*
X142294390Y-95099998D01*
X142294390Y-95100001D01*
X142314804Y-95385433D01*
X142375628Y-95665037D01*
X142375630Y-95665043D01*
X142375631Y-95665046D01*
X142455647Y-95879577D01*
X142475635Y-95933166D01*
X142612770Y-96184309D01*
X142612775Y-96184317D01*
X142784254Y-96413387D01*
X142784270Y-96413405D01*
X142986594Y-96615729D01*
X142986612Y-96615745D01*
X143215682Y-96787224D01*
X143215690Y-96787229D01*
X143466833Y-96924364D01*
X143466832Y-96924364D01*
X143466836Y-96924365D01*
X143466839Y-96924367D01*
X143734954Y-97024369D01*
X143734960Y-97024370D01*
X143734962Y-97024371D01*
X144014566Y-97085195D01*
X144014568Y-97085195D01*
X144014572Y-97085196D01*
X144268220Y-97103337D01*
X144299999Y-97105610D01*
X144300000Y-97105610D01*
X144300001Y-97105610D01*
X144328595Y-97103564D01*
X144585428Y-97085196D01*
X144586123Y-97085045D01*
X144865037Y-97024371D01*
X144865037Y-97024370D01*
X144865046Y-97024369D01*
X145133161Y-96924367D01*
X145384315Y-96787226D01*
X145613395Y-96615739D01*
X145815739Y-96413395D01*
X145987226Y-96184315D01*
X146124367Y-95933161D01*
X146224369Y-95665046D01*
X146258776Y-95506881D01*
X146285195Y-95385433D01*
X146285195Y-95385432D01*
X146285196Y-95385428D01*
X146305610Y-95100000D01*
X146304722Y-95087590D01*
X146294848Y-94949523D01*
X146285196Y-94814572D01*
X146277513Y-94779255D01*
X146224371Y-94534962D01*
X146224370Y-94534960D01*
X146224369Y-94534954D01*
X146124367Y-94266839D01*
X146093591Y-94210478D01*
X145987229Y-94015690D01*
X145987224Y-94015682D01*
X145851965Y-93834996D01*
X151809435Y-93834996D01*
X151809435Y-93835003D01*
X151829630Y-94014249D01*
X151829631Y-94014254D01*
X151889211Y-94184523D01*
X151949068Y-94279784D01*
X151985184Y-94337262D01*
X152112738Y-94464816D01*
X152265478Y-94560789D01*
X152435745Y-94620368D01*
X152522669Y-94630161D01*
X152587080Y-94657226D01*
X152596465Y-94665700D01*
X156355139Y-98424374D01*
X156355149Y-98424385D01*
X156359479Y-98428715D01*
X156359480Y-98428716D01*
X156471284Y-98540520D01*
X156531857Y-98575491D01*
X156558095Y-98590639D01*
X156558097Y-98590641D01*
X156608213Y-98619576D01*
X156608215Y-98619577D01*
X156760942Y-98660500D01*
X156760943Y-98660500D01*
X157047588Y-98660500D01*
X157114627Y-98680185D01*
X157124903Y-98687555D01*
X157127736Y-98689814D01*
X157127738Y-98689816D01*
X157280478Y-98785789D01*
X157450745Y-98845368D01*
X157450750Y-98845369D01*
X157629996Y-98865565D01*
X157630000Y-98865565D01*
X157630004Y-98865565D01*
X157809249Y-98845369D01*
X157809252Y-98845368D01*
X157809255Y-98845368D01*
X157979522Y-98785789D01*
X158132262Y-98689816D01*
X158259816Y-98562262D01*
X158355789Y-98409522D01*
X158415368Y-98239255D01*
X158416347Y-98230567D01*
X158435565Y-98060003D01*
X158435565Y-98059996D01*
X158415369Y-97880750D01*
X158415368Y-97880745D01*
X158402894Y-97845096D01*
X158355789Y-97710478D01*
X158349274Y-97700110D01*
X158296575Y-97616239D01*
X158259816Y-97557738D01*
X158132262Y-97430184D01*
X158090489Y-97403936D01*
X157979523Y-97334211D01*
X157809254Y-97274631D01*
X157809249Y-97274630D01*
X157630004Y-97254435D01*
X157629996Y-97254435D01*
X157450750Y-97274630D01*
X157450745Y-97274631D01*
X157280476Y-97334211D01*
X157169511Y-97403936D01*
X157102274Y-97422936D01*
X157035439Y-97402568D01*
X157015858Y-97386623D01*
X154729233Y-95099998D01*
X164294390Y-95099998D01*
X164294390Y-95100001D01*
X164314804Y-95385433D01*
X164375628Y-95665037D01*
X164375630Y-95665043D01*
X164375631Y-95665046D01*
X164455647Y-95879577D01*
X164475635Y-95933166D01*
X164612770Y-96184309D01*
X164612775Y-96184317D01*
X164784254Y-96413387D01*
X164784270Y-96413405D01*
X164986594Y-96615729D01*
X164986612Y-96615745D01*
X165215682Y-96787224D01*
X165215690Y-96787229D01*
X165466833Y-96924364D01*
X165466832Y-96924364D01*
X165466836Y-96924365D01*
X165466839Y-96924367D01*
X165734954Y-97024369D01*
X165734960Y-97024370D01*
X165734962Y-97024371D01*
X166014566Y-97085195D01*
X166014568Y-97085195D01*
X166014572Y-97085196D01*
X166268220Y-97103337D01*
X166299999Y-97105610D01*
X166300000Y-97105610D01*
X166300001Y-97105610D01*
X166328595Y-97103564D01*
X166585428Y-97085196D01*
X166586123Y-97085045D01*
X166865037Y-97024371D01*
X166865037Y-97024370D01*
X166865046Y-97024369D01*
X167133161Y-96924367D01*
X167384315Y-96787226D01*
X167613395Y-96615739D01*
X167815739Y-96413395D01*
X167987226Y-96184315D01*
X168124367Y-95933161D01*
X168224369Y-95665046D01*
X168258776Y-95506881D01*
X168285195Y-95385433D01*
X168285195Y-95385432D01*
X168285196Y-95385428D01*
X168302603Y-95142037D01*
X168327020Y-95076575D01*
X168382953Y-95034703D01*
X168452645Y-95029719D01*
X168513968Y-95063204D01*
X168538349Y-95087585D01*
X168538355Y-95087590D01*
X171155139Y-97704374D01*
X171155149Y-97704385D01*
X171159479Y-97708715D01*
X171159480Y-97708716D01*
X171271284Y-97820520D01*
X171301057Y-97837709D01*
X171313850Y-97845095D01*
X171313849Y-97845095D01*
X171313852Y-97845096D01*
X171408209Y-97899574D01*
X171408210Y-97899574D01*
X171408215Y-97899577D01*
X171542562Y-97935575D01*
X171602222Y-97971939D01*
X171609422Y-97980622D01*
X171739020Y-98152238D01*
X171903437Y-98302123D01*
X171903439Y-98302125D01*
X172092595Y-98419245D01*
X172092596Y-98419245D01*
X172092599Y-98419247D01*
X172300060Y-98499618D01*
X172518757Y-98540500D01*
X172518759Y-98540500D01*
X172741241Y-98540500D01*
X172741243Y-98540500D01*
X172959940Y-98499618D01*
X173167401Y-98419247D01*
X173356562Y-98302124D01*
X173520981Y-98152236D01*
X173655058Y-97974689D01*
X173754229Y-97775528D01*
X173815115Y-97561536D01*
X173835643Y-97340000D01*
X173835643Y-97339999D01*
X176504357Y-97339999D01*
X176504357Y-97340000D01*
X176524884Y-97561535D01*
X176524885Y-97561537D01*
X176585769Y-97775523D01*
X176585775Y-97775538D01*
X176684938Y-97974683D01*
X176684943Y-97974691D01*
X176819020Y-98152238D01*
X176983437Y-98302123D01*
X176983439Y-98302125D01*
X177172595Y-98419245D01*
X177172596Y-98419245D01*
X177172599Y-98419247D01*
X177380060Y-98499618D01*
X177598757Y-98540500D01*
X177598759Y-98540500D01*
X177821241Y-98540500D01*
X177821243Y-98540500D01*
X178039940Y-98499618D01*
X178247401Y-98419247D01*
X178436562Y-98302124D01*
X178600981Y-98152236D01*
X178735058Y-97974689D01*
X178834229Y-97775528D01*
X178895115Y-97561536D01*
X178915643Y-97340000D01*
X178913788Y-97319986D01*
X178901941Y-97192135D01*
X180349500Y-97192135D01*
X180349500Y-98287870D01*
X180349501Y-98287876D01*
X180355908Y-98347483D01*
X180406202Y-98482328D01*
X180406206Y-98482335D01*
X180492452Y-98597544D01*
X180492455Y-98597547D01*
X180607664Y-98683793D01*
X180607671Y-98683797D01*
X180742517Y-98734091D01*
X180742516Y-98734091D01*
X180749444Y-98734835D01*
X180802127Y-98740500D01*
X181897872Y-98740499D01*
X181957483Y-98734091D01*
X182012412Y-98713604D01*
X182092329Y-98683797D01*
X182092329Y-98683796D01*
X182092331Y-98683796D01*
X182100822Y-98677439D01*
X182166284Y-98653021D01*
X182229628Y-98666502D01*
X182229830Y-98666016D01*
X182232461Y-98667105D01*
X182233585Y-98667345D01*
X182235462Y-98668348D01*
X182370000Y-98709159D01*
X182870000Y-98709159D01*
X183004534Y-98668349D01*
X183178260Y-98575491D01*
X183330528Y-98450528D01*
X183455492Y-98298260D01*
X183455496Y-98298253D01*
X183548347Y-98124541D01*
X183589160Y-97990000D01*
X182870000Y-97990000D01*
X182870000Y-98709159D01*
X182370000Y-98709159D01*
X182370000Y-97949618D01*
X182420446Y-98000064D01*
X182494555Y-98042851D01*
X182577213Y-98065000D01*
X182662787Y-98065000D01*
X182745445Y-98042851D01*
X182819554Y-98000064D01*
X182880064Y-97939554D01*
X182922851Y-97865445D01*
X182945000Y-97782787D01*
X182945000Y-97697213D01*
X182922851Y-97614555D01*
X182880064Y-97540446D01*
X182829618Y-97490000D01*
X182870000Y-97490000D01*
X183589160Y-97490000D01*
X183589160Y-97489999D01*
X183548347Y-97355458D01*
X183455496Y-97181746D01*
X183455492Y-97181739D01*
X183388408Y-97099997D01*
X188945034Y-97099997D01*
X188945034Y-97100002D01*
X188964858Y-97326599D01*
X188964860Y-97326610D01*
X189023730Y-97546317D01*
X189023735Y-97546331D01*
X189119863Y-97752478D01*
X189170974Y-97825472D01*
X189850000Y-97146446D01*
X189850000Y-97152661D01*
X189877259Y-97254394D01*
X189929920Y-97345606D01*
X190004394Y-97420080D01*
X190095606Y-97472741D01*
X190197339Y-97500000D01*
X190203553Y-97500000D01*
X189524526Y-98179025D01*
X189597513Y-98230132D01*
X189597521Y-98230136D01*
X189803668Y-98326264D01*
X189803682Y-98326269D01*
X190023389Y-98385139D01*
X190023400Y-98385141D01*
X190249998Y-98404966D01*
X190250002Y-98404966D01*
X190476599Y-98385141D01*
X190476610Y-98385139D01*
X190696317Y-98326269D01*
X190696331Y-98326264D01*
X190902478Y-98230136D01*
X190975471Y-98179024D01*
X190296447Y-97500000D01*
X190302661Y-97500000D01*
X190404394Y-97472741D01*
X190495606Y-97420080D01*
X190570080Y-97345606D01*
X190622741Y-97254394D01*
X190650000Y-97152661D01*
X190650000Y-97146447D01*
X191329024Y-97825471D01*
X191380134Y-97752481D01*
X191387340Y-97737028D01*
X191433511Y-97684587D01*
X191500704Y-97665433D01*
X191567585Y-97685646D01*
X191612105Y-97737022D01*
X191619430Y-97752730D01*
X191619432Y-97752734D01*
X191749954Y-97939141D01*
X191910858Y-98100045D01*
X191910861Y-98100047D01*
X192097266Y-98230568D01*
X192303504Y-98326739D01*
X192523308Y-98385635D01*
X192685230Y-98399801D01*
X192749998Y-98405468D01*
X192750000Y-98405468D01*
X192750002Y-98405468D01*
X192806673Y-98400509D01*
X192976692Y-98385635D01*
X193196496Y-98326739D01*
X193402734Y-98230568D01*
X193589139Y-98100047D01*
X193750047Y-97939139D01*
X193880568Y-97752734D01*
X193962894Y-97576185D01*
X194009065Y-97523747D01*
X194076259Y-97504595D01*
X194143140Y-97524811D01*
X194187657Y-97576186D01*
X194269864Y-97752480D01*
X194320974Y-97825472D01*
X195000000Y-97146446D01*
X195000000Y-97152661D01*
X195027259Y-97254394D01*
X195079920Y-97345606D01*
X195154394Y-97420080D01*
X195245606Y-97472741D01*
X195347339Y-97500000D01*
X195353553Y-97500000D01*
X194674526Y-98179025D01*
X194747513Y-98230132D01*
X194747521Y-98230136D01*
X194953668Y-98326264D01*
X194953682Y-98326269D01*
X195173389Y-98385139D01*
X195173400Y-98385141D01*
X195399998Y-98404966D01*
X195400002Y-98404966D01*
X195626599Y-98385141D01*
X195626610Y-98385139D01*
X195846317Y-98326269D01*
X195846331Y-98326264D01*
X196052478Y-98230136D01*
X196125471Y-98179024D01*
X195446447Y-97500000D01*
X195452661Y-97500000D01*
X195554394Y-97472741D01*
X195645606Y-97420080D01*
X195720080Y-97345606D01*
X195772741Y-97254394D01*
X195800000Y-97152661D01*
X195800000Y-97146447D01*
X196479024Y-97825471D01*
X196530134Y-97752481D01*
X196537340Y-97737028D01*
X196583511Y-97684587D01*
X196650704Y-97665433D01*
X196717585Y-97685646D01*
X196762105Y-97737022D01*
X196769430Y-97752730D01*
X196769432Y-97752734D01*
X196899954Y-97939141D01*
X197060858Y-98100045D01*
X197060861Y-98100047D01*
X197247266Y-98230568D01*
X197453504Y-98326739D01*
X197673308Y-98385635D01*
X197835230Y-98399801D01*
X197899998Y-98405468D01*
X197900000Y-98405468D01*
X197900002Y-98405468D01*
X197956673Y-98400509D01*
X198126692Y-98385635D01*
X198346496Y-98326739D01*
X198552734Y-98230568D01*
X198739139Y-98100047D01*
X198900047Y-97939139D01*
X199030568Y-97752734D01*
X199101791Y-97599996D01*
X200394435Y-97599996D01*
X200394435Y-97600003D01*
X200414630Y-97779249D01*
X200414631Y-97779254D01*
X200474211Y-97949523D01*
X200543626Y-98059996D01*
X200570184Y-98102262D01*
X200697738Y-98229816D01*
X200743433Y-98258528D01*
X200790133Y-98287872D01*
X200850478Y-98325789D01*
X200912476Y-98347483D01*
X201020745Y-98385368D01*
X201020750Y-98385369D01*
X201199996Y-98405565D01*
X201200000Y-98405565D01*
X201200004Y-98405565D01*
X201379249Y-98385369D01*
X201379252Y-98385368D01*
X201379255Y-98385368D01*
X201549522Y-98325789D01*
X201702262Y-98229816D01*
X201702267Y-98229810D01*
X201705097Y-98227555D01*
X201707275Y-98226665D01*
X201708158Y-98226111D01*
X201708255Y-98226265D01*
X201769783Y-98201145D01*
X201782412Y-98200500D01*
X203074876Y-98200500D01*
X203141915Y-98220185D01*
X203179869Y-98258527D01*
X203270184Y-98402262D01*
X203397738Y-98529816D01*
X203470429Y-98575491D01*
X203540591Y-98619577D01*
X203550478Y-98625789D01*
X203716255Y-98683797D01*
X203720745Y-98685368D01*
X203720750Y-98685369D01*
X203899996Y-98705565D01*
X203900000Y-98705565D01*
X203900004Y-98705565D01*
X204079249Y-98685369D01*
X204079252Y-98685368D01*
X204079255Y-98685368D01*
X204249522Y-98625789D01*
X204402262Y-98529816D01*
X204529816Y-98402262D01*
X204625789Y-98249522D01*
X204685368Y-98079255D01*
X204685369Y-98079249D01*
X204705565Y-97900003D01*
X204705565Y-97899996D01*
X204685369Y-97720750D01*
X204685368Y-97720745D01*
X204679640Y-97704374D01*
X204625789Y-97550478D01*
X204624591Y-97548572D01*
X204581464Y-97479936D01*
X204529816Y-97397738D01*
X204402262Y-97270184D01*
X204353437Y-97239505D01*
X204249521Y-97174210D01*
X204090206Y-97118464D01*
X204079255Y-97114632D01*
X204079254Y-97114631D01*
X204079249Y-97114630D01*
X203957189Y-97100877D01*
X203909075Y-97085045D01*
X203858232Y-97055692D01*
X203858232Y-97055691D01*
X203858227Y-97055690D01*
X203831785Y-97040423D01*
X203679057Y-96999499D01*
X203520943Y-96999499D01*
X203513347Y-96999499D01*
X203513331Y-96999500D01*
X201782412Y-96999500D01*
X201715373Y-96979815D01*
X201705097Y-96972445D01*
X201702263Y-96970185D01*
X201702262Y-96970184D01*
X201597738Y-96904507D01*
X201549523Y-96874211D01*
X201379254Y-96814631D01*
X201379249Y-96814630D01*
X201200004Y-96794435D01*
X201199996Y-96794435D01*
X201020750Y-96814630D01*
X201020745Y-96814631D01*
X200850476Y-96874211D01*
X200697737Y-96970184D01*
X200570184Y-97097737D01*
X200474211Y-97250476D01*
X200414631Y-97420745D01*
X200414630Y-97420750D01*
X200394435Y-97599996D01*
X199101791Y-97599996D01*
X199126739Y-97546496D01*
X199185635Y-97326692D01*
X199205468Y-97100000D01*
X199205291Y-97097981D01*
X199199801Y-97035230D01*
X199185635Y-96873308D01*
X199126739Y-96653504D01*
X199030568Y-96447266D01*
X198932839Y-96307693D01*
X198902044Y-96263713D01*
X216529500Y-96263713D01*
X216529500Y-96776287D01*
X216535101Y-96811650D01*
X216562703Y-96985925D01*
X216562754Y-96986243D01*
X216623828Y-97174210D01*
X216628444Y-97188414D01*
X216724951Y-97377820D01*
X216849890Y-97549786D01*
X217000213Y-97700109D01*
X217172179Y-97825048D01*
X217172181Y-97825049D01*
X217172184Y-97825051D01*
X217361588Y-97921557D01*
X217563757Y-97987246D01*
X217773713Y-98020500D01*
X217773714Y-98020500D01*
X217986286Y-98020500D01*
X217986287Y-98020500D01*
X218196243Y-97987246D01*
X218398412Y-97921557D01*
X218587816Y-97825051D01*
X218650851Y-97779254D01*
X218759784Y-97700110D01*
X218759784Y-97700109D01*
X218759792Y-97700104D01*
X218898967Y-97560928D01*
X218960286Y-97527446D01*
X219029978Y-97532430D01*
X219085912Y-97574301D01*
X219092184Y-97583515D01*
X219187684Y-97738345D01*
X219311654Y-97862315D01*
X219460875Y-97954356D01*
X219460880Y-97954358D01*
X219627302Y-98009505D01*
X219627309Y-98009506D01*
X219730019Y-98019999D01*
X220129999Y-98019999D01*
X220130000Y-98019998D01*
X220130000Y-96953012D01*
X220187007Y-96985925D01*
X220314174Y-97020000D01*
X220445826Y-97020000D01*
X220572993Y-96985925D01*
X220630000Y-96953012D01*
X220630000Y-98019999D01*
X221029972Y-98019999D01*
X221029986Y-98019998D01*
X221132697Y-98009505D01*
X221299119Y-97954358D01*
X221299124Y-97954356D01*
X221448345Y-97862315D01*
X221572315Y-97738345D01*
X221664356Y-97589124D01*
X221664358Y-97589119D01*
X221719505Y-97422697D01*
X221719506Y-97422690D01*
X221729999Y-97319986D01*
X221730000Y-97319973D01*
X221730000Y-96770000D01*
X220813012Y-96770000D01*
X220845925Y-96712993D01*
X220880000Y-96585826D01*
X220880000Y-96454174D01*
X220845925Y-96327007D01*
X220813012Y-96270000D01*
X221729999Y-96270000D01*
X221729999Y-95720028D01*
X221729998Y-95720013D01*
X221719505Y-95617302D01*
X221664358Y-95450880D01*
X221664356Y-95450875D01*
X221572315Y-95301654D01*
X221448345Y-95177684D01*
X221299124Y-95085643D01*
X221299119Y-95085641D01*
X221132697Y-95030494D01*
X221132690Y-95030493D01*
X221029986Y-95020000D01*
X220630000Y-95020000D01*
X220630000Y-96086988D01*
X220572993Y-96054075D01*
X220445826Y-96020000D01*
X220314174Y-96020000D01*
X220187007Y-96054075D01*
X220130000Y-96086988D01*
X220130000Y-95020000D01*
X219730028Y-95020000D01*
X219730012Y-95020001D01*
X219627302Y-95030494D01*
X219460880Y-95085641D01*
X219460875Y-95085643D01*
X219311654Y-95177684D01*
X219187683Y-95301655D01*
X219187680Y-95301659D01*
X219092183Y-95456484D01*
X219040235Y-95503209D01*
X218971273Y-95514430D01*
X218907191Y-95486587D01*
X218898964Y-95479068D01*
X218759786Y-95339890D01*
X218587820Y-95214951D01*
X218398414Y-95118444D01*
X218398413Y-95118443D01*
X218398412Y-95118443D01*
X218196243Y-95052754D01*
X218196241Y-95052753D01*
X218196240Y-95052753D01*
X218034957Y-95027208D01*
X217986287Y-95019500D01*
X217773713Y-95019500D01*
X217725042Y-95027208D01*
X217563760Y-95052753D01*
X217361585Y-95118444D01*
X217172179Y-95214951D01*
X217000213Y-95339890D01*
X216849890Y-95490213D01*
X216724951Y-95662179D01*
X216628444Y-95851585D01*
X216562753Y-96053760D01*
X216548310Y-96144951D01*
X216529500Y-96263713D01*
X198902044Y-96263713D01*
X198900045Y-96260858D01*
X198739141Y-96099954D01*
X198552734Y-95969432D01*
X198552732Y-95969431D01*
X198346497Y-95873261D01*
X198346488Y-95873258D01*
X198126697Y-95814366D01*
X198126693Y-95814365D01*
X198126692Y-95814365D01*
X198126691Y-95814364D01*
X198126686Y-95814364D01*
X197900002Y-95794532D01*
X197899998Y-95794532D01*
X197673313Y-95814364D01*
X197673302Y-95814366D01*
X197453511Y-95873258D01*
X197453502Y-95873261D01*
X197247267Y-95969431D01*
X197247265Y-95969432D01*
X197060858Y-96099954D01*
X196899954Y-96260858D01*
X196769432Y-96447265D01*
X196769429Y-96447270D01*
X196762104Y-96462979D01*
X196715929Y-96515417D01*
X196648735Y-96534566D01*
X196581855Y-96514347D01*
X196537341Y-96462973D01*
X196530133Y-96447515D01*
X196530132Y-96447513D01*
X196479025Y-96374526D01*
X195800000Y-97053551D01*
X195800000Y-97047339D01*
X195772741Y-96945606D01*
X195720080Y-96854394D01*
X195645606Y-96779920D01*
X195554394Y-96727259D01*
X195452661Y-96700000D01*
X195446448Y-96700000D01*
X196125472Y-96020974D01*
X196052478Y-95969863D01*
X195846331Y-95873735D01*
X195846317Y-95873730D01*
X195626610Y-95814860D01*
X195626599Y-95814858D01*
X195400002Y-95795034D01*
X195399998Y-95795034D01*
X195173400Y-95814858D01*
X195173389Y-95814860D01*
X194953682Y-95873730D01*
X194953673Y-95873734D01*
X194747516Y-95969866D01*
X194747512Y-95969868D01*
X194674526Y-96020973D01*
X194674526Y-96020974D01*
X195353553Y-96700000D01*
X195347339Y-96700000D01*
X195245606Y-96727259D01*
X195154394Y-96779920D01*
X195079920Y-96854394D01*
X195027259Y-96945606D01*
X195000000Y-97047339D01*
X195000000Y-97053552D01*
X194320974Y-96374526D01*
X194320973Y-96374526D01*
X194269868Y-96447512D01*
X194269866Y-96447517D01*
X194187657Y-96623813D01*
X194141484Y-96676252D01*
X194074291Y-96695404D01*
X194007410Y-96675188D01*
X193962894Y-96623814D01*
X193880568Y-96447266D01*
X193782839Y-96307693D01*
X193750045Y-96260858D01*
X193589141Y-96099954D01*
X193402734Y-95969432D01*
X193402732Y-95969431D01*
X193196497Y-95873261D01*
X193196488Y-95873258D01*
X192976697Y-95814366D01*
X192976693Y-95814365D01*
X192976692Y-95814365D01*
X192976691Y-95814364D01*
X192976686Y-95814364D01*
X192750002Y-95794532D01*
X192749998Y-95794532D01*
X192523313Y-95814364D01*
X192523302Y-95814366D01*
X192303511Y-95873258D01*
X192303502Y-95873261D01*
X192097267Y-95969431D01*
X192097265Y-95969432D01*
X191910858Y-96099954D01*
X191749954Y-96260858D01*
X191619432Y-96447265D01*
X191619429Y-96447270D01*
X191612104Y-96462979D01*
X191565929Y-96515417D01*
X191498735Y-96534566D01*
X191431855Y-96514347D01*
X191387341Y-96462973D01*
X191380133Y-96447515D01*
X191380132Y-96447513D01*
X191329025Y-96374526D01*
X190650000Y-97053551D01*
X190650000Y-97047339D01*
X190622741Y-96945606D01*
X190570080Y-96854394D01*
X190495606Y-96779920D01*
X190404394Y-96727259D01*
X190302661Y-96700000D01*
X190296448Y-96700000D01*
X190975472Y-96020974D01*
X190902478Y-95969863D01*
X190696331Y-95873735D01*
X190696317Y-95873730D01*
X190476610Y-95814860D01*
X190476599Y-95814858D01*
X190250002Y-95795034D01*
X190249998Y-95795034D01*
X190023400Y-95814858D01*
X190023389Y-95814860D01*
X189803682Y-95873730D01*
X189803673Y-95873734D01*
X189597516Y-95969866D01*
X189597512Y-95969868D01*
X189524526Y-96020973D01*
X189524526Y-96020974D01*
X190203553Y-96700000D01*
X190197339Y-96700000D01*
X190095606Y-96727259D01*
X190004394Y-96779920D01*
X189929920Y-96854394D01*
X189877259Y-96945606D01*
X189850000Y-97047339D01*
X189850000Y-97053552D01*
X189170974Y-96374526D01*
X189170973Y-96374526D01*
X189119868Y-96447512D01*
X189119866Y-96447516D01*
X189023734Y-96653673D01*
X189023730Y-96653682D01*
X188964860Y-96873389D01*
X188964858Y-96873400D01*
X188945034Y-97099997D01*
X183388408Y-97099997D01*
X183330528Y-97029471D01*
X183178260Y-96904507D01*
X183178253Y-96904503D01*
X183004541Y-96811652D01*
X182870000Y-96770839D01*
X182870000Y-97490000D01*
X182829618Y-97490000D01*
X182819554Y-97479936D01*
X182745445Y-97437149D01*
X182662787Y-97415000D01*
X182577213Y-97415000D01*
X182494555Y-97437149D01*
X182420446Y-97479936D01*
X182370000Y-97530382D01*
X182370000Y-96770839D01*
X182369999Y-96770839D01*
X182235464Y-96811650D01*
X182233586Y-96812655D01*
X182232486Y-96812883D01*
X182229838Y-96813981D01*
X182229629Y-96813478D01*
X182165183Y-96826895D01*
X182100824Y-96802561D01*
X182092335Y-96796206D01*
X182092328Y-96796202D01*
X181957482Y-96745908D01*
X181957483Y-96745908D01*
X181897883Y-96739501D01*
X181897881Y-96739500D01*
X181897873Y-96739500D01*
X181897864Y-96739500D01*
X180802129Y-96739500D01*
X180802123Y-96739501D01*
X180742516Y-96745908D01*
X180607671Y-96796202D01*
X180607664Y-96796206D01*
X180492455Y-96882452D01*
X180492452Y-96882455D01*
X180406206Y-96997664D01*
X180406202Y-96997671D01*
X180355908Y-97132517D01*
X180349501Y-97192116D01*
X180349500Y-97192135D01*
X178901941Y-97192135D01*
X178895115Y-97118464D01*
X178895114Y-97118462D01*
X178894024Y-97114632D01*
X178834229Y-96904472D01*
X178823266Y-96882455D01*
X178735061Y-96705316D01*
X178735056Y-96705308D01*
X178600979Y-96527761D01*
X178436562Y-96377876D01*
X178436560Y-96377874D01*
X178247404Y-96260754D01*
X178247398Y-96260752D01*
X178039940Y-96180382D01*
X177821243Y-96139500D01*
X177598757Y-96139500D01*
X177380060Y-96180382D01*
X177248864Y-96231207D01*
X177172601Y-96260752D01*
X177172595Y-96260754D01*
X176983439Y-96377874D01*
X176983437Y-96377876D01*
X176819020Y-96527761D01*
X176684943Y-96705308D01*
X176684938Y-96705316D01*
X176585775Y-96904461D01*
X176585769Y-96904476D01*
X176524885Y-97118462D01*
X176524884Y-97118464D01*
X176504357Y-97339999D01*
X173835643Y-97339999D01*
X173833788Y-97319986D01*
X173815115Y-97118464D01*
X173815114Y-97118462D01*
X173814024Y-97114632D01*
X173754229Y-96904472D01*
X173743266Y-96882455D01*
X173655061Y-96705316D01*
X173655056Y-96705308D01*
X173520979Y-96527761D01*
X173356562Y-96377876D01*
X173356560Y-96377874D01*
X173167404Y-96260754D01*
X173167398Y-96260752D01*
X172959940Y-96180382D01*
X172741243Y-96139500D01*
X172518757Y-96139500D01*
X172300060Y-96180382D01*
X172168864Y-96231207D01*
X172092601Y-96260752D01*
X172092595Y-96260754D01*
X171903439Y-96377874D01*
X171903437Y-96377876D01*
X171794073Y-96477575D01*
X171731269Y-96508192D01*
X171661882Y-96499995D01*
X171622854Y-96473619D01*
X169536819Y-94387584D01*
X169503334Y-94326261D01*
X169500500Y-94299903D01*
X169500500Y-93052135D01*
X171199500Y-93052135D01*
X171199500Y-94747870D01*
X171199501Y-94747876D01*
X171205908Y-94807483D01*
X171256202Y-94942328D01*
X171256206Y-94942335D01*
X171342452Y-95057544D01*
X171342455Y-95057547D01*
X171457664Y-95143793D01*
X171457671Y-95143797D01*
X171592517Y-95194091D01*
X171592516Y-95194091D01*
X171599444Y-95194835D01*
X171652127Y-95200500D01*
X173347872Y-95200499D01*
X173407483Y-95194091D01*
X173542331Y-95143796D01*
X173657546Y-95057546D01*
X173743796Y-94942331D01*
X173794091Y-94807483D01*
X173797862Y-94772401D01*
X173824599Y-94707855D01*
X173881990Y-94668006D01*
X173951816Y-94665511D01*
X174011905Y-94701163D01*
X174022725Y-94714535D01*
X174024623Y-94717246D01*
X174039956Y-94739143D01*
X174200858Y-94900045D01*
X174200861Y-94900047D01*
X174387266Y-95030568D01*
X174593504Y-95126739D01*
X174593509Y-95126740D01*
X174593511Y-95126741D01*
X174646415Y-95140916D01*
X174813308Y-95185635D01*
X174975230Y-95199801D01*
X175039998Y-95205468D01*
X175040000Y-95205468D01*
X175040002Y-95205468D01*
X175096807Y-95200498D01*
X175266692Y-95185635D01*
X175486496Y-95126739D01*
X175692734Y-95030568D01*
X175879139Y-94900047D01*
X176040047Y-94739139D01*
X176170568Y-94552734D01*
X176197618Y-94494724D01*
X176243790Y-94442285D01*
X176310983Y-94423133D01*
X176377865Y-94443348D01*
X176422382Y-94494725D01*
X176449429Y-94552728D01*
X176449432Y-94552734D01*
X176579954Y-94739141D01*
X176740858Y-94900045D01*
X176740861Y-94900047D01*
X176927266Y-95030568D01*
X177133504Y-95126739D01*
X177133509Y-95126740D01*
X177133511Y-95126741D01*
X177186415Y-95140916D01*
X177353308Y-95185635D01*
X177515230Y-95199801D01*
X177579998Y-95205468D01*
X177580000Y-95205468D01*
X177580002Y-95205468D01*
X177636807Y-95200498D01*
X177806692Y-95185635D01*
X178026496Y-95126739D01*
X178232734Y-95030568D01*
X178419139Y-94900047D01*
X178580047Y-94739139D01*
X178710568Y-94552734D01*
X178737618Y-94494724D01*
X178783790Y-94442285D01*
X178850983Y-94423133D01*
X178917865Y-94443348D01*
X178962382Y-94494725D01*
X178989429Y-94552728D01*
X178989432Y-94552734D01*
X179119954Y-94739141D01*
X179280858Y-94900045D01*
X179280861Y-94900047D01*
X179467266Y-95030568D01*
X179673504Y-95126739D01*
X179673509Y-95126740D01*
X179673511Y-95126741D01*
X179726415Y-95140916D01*
X179893308Y-95185635D01*
X180055230Y-95199801D01*
X180119998Y-95205468D01*
X180120000Y-95205468D01*
X180120002Y-95205468D01*
X180176807Y-95200498D01*
X180346692Y-95185635D01*
X180566496Y-95126739D01*
X180772734Y-95030568D01*
X180959139Y-94900047D01*
X181120047Y-94739139D01*
X181250568Y-94552734D01*
X181277618Y-94494724D01*
X181323790Y-94442285D01*
X181390983Y-94423133D01*
X181457865Y-94443348D01*
X181502382Y-94494725D01*
X181529429Y-94552728D01*
X181529432Y-94552734D01*
X181659954Y-94739141D01*
X181820858Y-94900045D01*
X181820861Y-94900047D01*
X182007266Y-95030568D01*
X182213504Y-95126739D01*
X182213509Y-95126740D01*
X182213511Y-95126741D01*
X182266415Y-95140916D01*
X182433308Y-95185635D01*
X182595230Y-95199801D01*
X182659998Y-95205468D01*
X182660000Y-95205468D01*
X182660002Y-95205468D01*
X182716807Y-95200498D01*
X182886692Y-95185635D01*
X183106496Y-95126739D01*
X183312734Y-95030568D01*
X183499139Y-94900047D01*
X183660047Y-94739139D01*
X183790568Y-94552734D01*
X183817618Y-94494724D01*
X183863790Y-94442285D01*
X183930983Y-94423133D01*
X183997865Y-94443348D01*
X184042382Y-94494725D01*
X184069429Y-94552728D01*
X184069432Y-94552734D01*
X184199954Y-94739141D01*
X184360858Y-94900045D01*
X184360861Y-94900047D01*
X184547266Y-95030568D01*
X184753504Y-95126739D01*
X184753509Y-95126740D01*
X184753511Y-95126741D01*
X184806415Y-95140916D01*
X184973308Y-95185635D01*
X185135230Y-95199801D01*
X185199998Y-95205468D01*
X185200000Y-95205468D01*
X185200002Y-95205468D01*
X185256807Y-95200498D01*
X185426692Y-95185635D01*
X185646496Y-95126739D01*
X185852734Y-95030568D01*
X186039139Y-94900047D01*
X186200047Y-94739139D01*
X186330568Y-94552734D01*
X186357618Y-94494724D01*
X186403790Y-94442285D01*
X186470983Y-94423133D01*
X186537865Y-94443348D01*
X186582382Y-94494725D01*
X186609429Y-94552728D01*
X186609432Y-94552734D01*
X186739954Y-94739141D01*
X186900858Y-94900045D01*
X186900861Y-94900047D01*
X187087266Y-95030568D01*
X187293504Y-95126739D01*
X187293509Y-95126740D01*
X187293511Y-95126741D01*
X187346415Y-95140916D01*
X187513308Y-95185635D01*
X187675230Y-95199801D01*
X187739998Y-95205468D01*
X187740000Y-95205468D01*
X187740002Y-95205468D01*
X187796807Y-95200498D01*
X187966692Y-95185635D01*
X188186496Y-95126739D01*
X188392734Y-95030568D01*
X188579139Y-94900047D01*
X188740047Y-94739139D01*
X188870568Y-94552734D01*
X188897895Y-94494129D01*
X188944064Y-94441695D01*
X189011257Y-94422542D01*
X189078139Y-94442757D01*
X189122657Y-94494133D01*
X189149865Y-94552482D01*
X189280342Y-94738820D01*
X189441179Y-94899657D01*
X189627517Y-95030134D01*
X189833673Y-95126265D01*
X189833682Y-95126269D01*
X190029999Y-95178872D01*
X190030000Y-95178871D01*
X190030000Y-94215686D01*
X190034394Y-94220080D01*
X190125606Y-94272741D01*
X190227339Y-94300000D01*
X190332661Y-94300000D01*
X190434394Y-94272741D01*
X190525606Y-94220080D01*
X190530000Y-94215686D01*
X190530000Y-95178872D01*
X190726317Y-95126269D01*
X190726326Y-95126265D01*
X190932482Y-95030134D01*
X191118820Y-94899657D01*
X191279657Y-94738820D01*
X191410132Y-94552484D01*
X191437341Y-94494134D01*
X191483513Y-94441695D01*
X191550707Y-94422542D01*
X191617588Y-94442757D01*
X191662106Y-94494133D01*
X191689431Y-94552732D01*
X191689432Y-94552734D01*
X191819954Y-94739141D01*
X191980858Y-94900045D01*
X191980861Y-94900047D01*
X192167266Y-95030568D01*
X192373504Y-95126739D01*
X192373509Y-95126740D01*
X192373511Y-95126741D01*
X192426415Y-95140916D01*
X192593308Y-95185635D01*
X192755230Y-95199801D01*
X192819998Y-95205468D01*
X192820000Y-95205468D01*
X192820002Y-95205468D01*
X192876807Y-95200498D01*
X193046692Y-95185635D01*
X193266496Y-95126739D01*
X193472734Y-95030568D01*
X193659139Y-94900047D01*
X193820047Y-94739139D01*
X193950568Y-94552734D01*
X193977618Y-94494724D01*
X194023790Y-94442285D01*
X194090983Y-94423133D01*
X194157865Y-94443348D01*
X194202382Y-94494725D01*
X194229429Y-94552728D01*
X194229432Y-94552734D01*
X194359954Y-94739141D01*
X194520858Y-94900045D01*
X194520861Y-94900047D01*
X194707266Y-95030568D01*
X194913504Y-95126739D01*
X194913509Y-95126740D01*
X194913511Y-95126741D01*
X194966415Y-95140916D01*
X195133308Y-95185635D01*
X195295230Y-95199801D01*
X195359998Y-95205468D01*
X195360000Y-95205468D01*
X195360002Y-95205468D01*
X195416807Y-95200498D01*
X195586692Y-95185635D01*
X195806496Y-95126739D01*
X196012734Y-95030568D01*
X196199139Y-94900047D01*
X196360047Y-94739139D01*
X196490568Y-94552734D01*
X196517618Y-94494724D01*
X196563790Y-94442285D01*
X196630983Y-94423133D01*
X196697865Y-94443348D01*
X196742382Y-94494725D01*
X196769429Y-94552728D01*
X196769432Y-94552734D01*
X196899954Y-94739141D01*
X197060858Y-94900045D01*
X197060861Y-94900047D01*
X197247266Y-95030568D01*
X197453504Y-95126739D01*
X197453509Y-95126740D01*
X197453511Y-95126741D01*
X197506415Y-95140916D01*
X197673308Y-95185635D01*
X197835230Y-95199801D01*
X197899998Y-95205468D01*
X197900000Y-95205468D01*
X197900002Y-95205468D01*
X197956807Y-95200498D01*
X198126692Y-95185635D01*
X198346496Y-95126739D01*
X198552734Y-95030568D01*
X198739139Y-94900047D01*
X198900047Y-94739139D01*
X199030568Y-94552734D01*
X199057618Y-94494724D01*
X199103790Y-94442285D01*
X199170983Y-94423133D01*
X199237865Y-94443348D01*
X199282382Y-94494725D01*
X199309429Y-94552728D01*
X199309432Y-94552734D01*
X199439954Y-94739141D01*
X199600858Y-94900045D01*
X199600861Y-94900047D01*
X199787266Y-95030568D01*
X199993504Y-95126739D01*
X199993509Y-95126740D01*
X199993511Y-95126741D01*
X200046415Y-95140916D01*
X200213308Y-95185635D01*
X200375230Y-95199801D01*
X200439998Y-95205468D01*
X200440000Y-95205468D01*
X200440002Y-95205468D01*
X200496807Y-95200498D01*
X200666692Y-95185635D01*
X200886496Y-95126739D01*
X201092734Y-95030568D01*
X201279139Y-94900047D01*
X201440047Y-94739139D01*
X201570568Y-94552734D01*
X201597618Y-94494724D01*
X201643790Y-94442285D01*
X201710983Y-94423133D01*
X201777865Y-94443348D01*
X201822382Y-94494725D01*
X201849429Y-94552728D01*
X201849432Y-94552734D01*
X201979954Y-94739141D01*
X202140858Y-94900045D01*
X202140861Y-94900047D01*
X202327266Y-95030568D01*
X202533504Y-95126739D01*
X202533509Y-95126740D01*
X202533511Y-95126741D01*
X202586415Y-95140916D01*
X202753308Y-95185635D01*
X202915230Y-95199801D01*
X202979998Y-95205468D01*
X202980000Y-95205468D01*
X202980002Y-95205468D01*
X203036807Y-95200498D01*
X203206692Y-95185635D01*
X203426496Y-95126739D01*
X203632734Y-95030568D01*
X203819139Y-94900047D01*
X203980047Y-94739139D01*
X204110568Y-94552734D01*
X204137618Y-94494724D01*
X204183790Y-94442285D01*
X204250983Y-94423133D01*
X204317865Y-94443348D01*
X204362382Y-94494725D01*
X204389429Y-94552728D01*
X204389432Y-94552734D01*
X204519954Y-94739141D01*
X204680858Y-94900045D01*
X204680861Y-94900047D01*
X204867266Y-95030568D01*
X205073504Y-95126739D01*
X205073509Y-95126740D01*
X205073511Y-95126741D01*
X205126415Y-95140916D01*
X205293308Y-95185635D01*
X205455230Y-95199801D01*
X205519998Y-95205468D01*
X205520000Y-95205468D01*
X205520002Y-95205468D01*
X205576807Y-95200498D01*
X205746692Y-95185635D01*
X205966496Y-95126739D01*
X206172734Y-95030568D01*
X206359139Y-94900047D01*
X206520047Y-94739139D01*
X206547454Y-94699997D01*
X209644723Y-94699997D01*
X209644723Y-94700002D01*
X209651656Y-94779249D01*
X209663053Y-94909523D01*
X209663793Y-94917975D01*
X209663793Y-94917979D01*
X209720422Y-95129322D01*
X209720424Y-95129326D01*
X209720425Y-95129330D01*
X209748630Y-95189815D01*
X209812897Y-95327638D01*
X209825312Y-95345368D01*
X209938402Y-95506877D01*
X210093123Y-95661598D01*
X210272361Y-95787102D01*
X210470670Y-95879575D01*
X210682023Y-95936207D01*
X210864926Y-95952208D01*
X210899998Y-95955277D01*
X210900000Y-95955277D01*
X210900002Y-95955277D01*
X210928254Y-95952805D01*
X211117977Y-95936207D01*
X211329330Y-95879575D01*
X211527639Y-95787102D01*
X211706877Y-95661598D01*
X211861598Y-95506877D01*
X211987102Y-95327639D01*
X212079575Y-95129330D01*
X212136207Y-94917977D01*
X212155277Y-94700000D01*
X212136207Y-94482023D01*
X212079575Y-94270670D01*
X211987102Y-94072362D01*
X211987100Y-94072359D01*
X211987099Y-94072357D01*
X211861599Y-93893124D01*
X211784940Y-93816465D01*
X211706877Y-93738402D01*
X211527639Y-93612898D01*
X211527640Y-93612898D01*
X211527638Y-93612897D01*
X211428484Y-93566661D01*
X211329330Y-93520425D01*
X211329326Y-93520424D01*
X211329322Y-93520422D01*
X211117977Y-93463793D01*
X210900002Y-93444723D01*
X210899998Y-93444723D01*
X210754682Y-93457436D01*
X210682023Y-93463793D01*
X210682020Y-93463793D01*
X210470677Y-93520422D01*
X210470668Y-93520426D01*
X210272361Y-93612898D01*
X210272357Y-93612900D01*
X210093121Y-93738402D01*
X209938402Y-93893121D01*
X209812900Y-94072357D01*
X209812898Y-94072361D01*
X209720426Y-94270668D01*
X209720422Y-94270677D01*
X209663793Y-94482020D01*
X209663793Y-94482023D01*
X209662682Y-94494725D01*
X209644723Y-94699997D01*
X206547454Y-94699997D01*
X206650568Y-94552734D01*
X206746739Y-94346496D01*
X206805635Y-94126692D01*
X206825468Y-93900000D01*
X206824866Y-93893124D01*
X206814500Y-93774632D01*
X206805635Y-93673308D01*
X206746739Y-93453504D01*
X206672227Y-93293713D01*
X226699500Y-93293713D01*
X226699500Y-93506287D01*
X226702822Y-93527259D01*
X226725954Y-93673313D01*
X226732754Y-93716243D01*
X226790226Y-93893124D01*
X226798444Y-93918414D01*
X226894951Y-94107820D01*
X227019890Y-94279786D01*
X227159068Y-94418964D01*
X227192553Y-94480287D01*
X227187569Y-94549979D01*
X227145697Y-94605912D01*
X227136484Y-94612183D01*
X226981659Y-94707680D01*
X226981655Y-94707683D01*
X226857684Y-94831654D01*
X226765643Y-94980875D01*
X226765641Y-94980880D01*
X226710494Y-95147302D01*
X226710493Y-95147309D01*
X226700000Y-95250013D01*
X226700000Y-95650000D01*
X227766988Y-95650000D01*
X227734075Y-95707007D01*
X227700000Y-95834174D01*
X227700000Y-95965826D01*
X227734075Y-96092993D01*
X227766988Y-96150000D01*
X226700001Y-96150000D01*
X226700001Y-96549986D01*
X226710494Y-96652697D01*
X226765641Y-96819119D01*
X226765643Y-96819124D01*
X226857684Y-96968345D01*
X226981654Y-97092315D01*
X227130875Y-97184356D01*
X227130880Y-97184358D01*
X227297302Y-97239505D01*
X227297309Y-97239506D01*
X227400019Y-97249999D01*
X227949999Y-97249999D01*
X227950000Y-97249998D01*
X227950000Y-96333012D01*
X228007007Y-96365925D01*
X228134174Y-96400000D01*
X228265826Y-96400000D01*
X228392993Y-96365925D01*
X228450000Y-96333012D01*
X228450000Y-97249999D01*
X228999972Y-97249999D01*
X228999986Y-97249998D01*
X229102697Y-97239505D01*
X229240888Y-97193713D01*
X232249500Y-97193713D01*
X232249500Y-97406286D01*
X232282486Y-97614555D01*
X232282754Y-97616243D01*
X232334512Y-97775538D01*
X232348444Y-97818414D01*
X232444951Y-98007820D01*
X232569890Y-98179786D01*
X232720213Y-98330109D01*
X232892179Y-98455048D01*
X232892181Y-98455049D01*
X232892184Y-98455051D01*
X233081588Y-98551557D01*
X233283757Y-98617246D01*
X233493713Y-98650500D01*
X233493714Y-98650500D01*
X233706286Y-98650500D01*
X233706287Y-98650500D01*
X233916243Y-98617246D01*
X234118412Y-98551557D01*
X234307816Y-98455051D01*
X234344067Y-98428713D01*
X234479786Y-98330109D01*
X234479788Y-98330106D01*
X234479792Y-98330104D01*
X234630104Y-98179792D01*
X234630106Y-98179788D01*
X234630109Y-98179786D01*
X234755048Y-98007820D01*
X234755047Y-98007820D01*
X234755051Y-98007816D01*
X234851557Y-97818412D01*
X234917246Y-97616243D01*
X234950500Y-97406287D01*
X234950500Y-97193713D01*
X234917246Y-96983757D01*
X234851557Y-96781588D01*
X234755051Y-96592184D01*
X234755049Y-96592181D01*
X234755048Y-96592179D01*
X234630109Y-96420213D01*
X234479786Y-96269890D01*
X234307820Y-96144951D01*
X234118414Y-96048444D01*
X234118413Y-96048443D01*
X234118412Y-96048443D01*
X233916243Y-95982754D01*
X233916241Y-95982753D01*
X233916240Y-95982753D01*
X233742761Y-95955277D01*
X233706287Y-95949500D01*
X233493713Y-95949500D01*
X233457239Y-95955277D01*
X233283760Y-95982753D01*
X233283757Y-95982754D01*
X233166129Y-96020974D01*
X233081585Y-96048444D01*
X232892179Y-96144951D01*
X232720213Y-96269890D01*
X232569890Y-96420213D01*
X232444951Y-96592179D01*
X232348444Y-96781585D01*
X232282753Y-96983760D01*
X232249500Y-97193713D01*
X229240888Y-97193713D01*
X229269119Y-97184358D01*
X229269124Y-97184356D01*
X229418345Y-97092315D01*
X229542315Y-96968345D01*
X229634356Y-96819124D01*
X229634358Y-96819119D01*
X229689505Y-96652697D01*
X229689506Y-96652690D01*
X229699999Y-96549986D01*
X229700000Y-96549973D01*
X229700000Y-96150000D01*
X228633012Y-96150000D01*
X228665925Y-96092993D01*
X228700000Y-95965826D01*
X228700000Y-95834174D01*
X228665925Y-95707007D01*
X228633012Y-95650000D01*
X229699999Y-95650000D01*
X229699999Y-95250028D01*
X229699998Y-95250013D01*
X229689505Y-95147302D01*
X229634358Y-94980880D01*
X229634356Y-94980875D01*
X229542315Y-94831654D01*
X229418345Y-94707684D01*
X229263515Y-94612184D01*
X229216791Y-94560236D01*
X229205568Y-94491273D01*
X229233412Y-94427191D01*
X229240909Y-94418986D01*
X229380104Y-94279792D01*
X229386727Y-94270677D01*
X229505048Y-94107820D01*
X229505047Y-94107820D01*
X229505051Y-94107816D01*
X229601557Y-93918412D01*
X229667246Y-93716243D01*
X229700500Y-93506287D01*
X229700500Y-93293713D01*
X229667246Y-93083757D01*
X229601557Y-92881588D01*
X229505051Y-92692184D01*
X229505049Y-92692181D01*
X229505048Y-92692179D01*
X229380109Y-92520213D01*
X229229786Y-92369890D01*
X229057820Y-92244951D01*
X228868414Y-92148444D01*
X228868413Y-92148443D01*
X228868412Y-92148443D01*
X228666243Y-92082754D01*
X228666241Y-92082753D01*
X228666240Y-92082753D01*
X228504957Y-92057208D01*
X228456287Y-92049500D01*
X227943713Y-92049500D01*
X227895042Y-92057208D01*
X227733760Y-92082753D01*
X227531585Y-92148444D01*
X227342179Y-92244951D01*
X227170213Y-92369890D01*
X227019890Y-92520213D01*
X226894951Y-92692179D01*
X226798444Y-92881585D01*
X226798443Y-92881587D01*
X226798443Y-92881588D01*
X226792349Y-92900342D01*
X226732753Y-93083760D01*
X226706856Y-93247267D01*
X226699500Y-93293713D01*
X206672227Y-93293713D01*
X206650568Y-93247266D01*
X206520047Y-93060861D01*
X206520045Y-93060858D01*
X206359141Y-92899954D01*
X206172734Y-92769432D01*
X206172732Y-92769431D01*
X205966497Y-92673261D01*
X205966488Y-92673258D01*
X205746697Y-92614366D01*
X205746693Y-92614365D01*
X205746692Y-92614365D01*
X205746691Y-92614364D01*
X205746686Y-92614364D01*
X205520002Y-92594532D01*
X205519998Y-92594532D01*
X205293313Y-92614364D01*
X205293302Y-92614366D01*
X205073511Y-92673258D01*
X205073502Y-92673261D01*
X204867267Y-92769431D01*
X204867265Y-92769432D01*
X204680858Y-92899954D01*
X204519954Y-93060858D01*
X204389432Y-93247265D01*
X204389431Y-93247267D01*
X204362382Y-93305275D01*
X204316209Y-93357714D01*
X204249016Y-93376866D01*
X204182135Y-93356650D01*
X204137618Y-93305275D01*
X204110568Y-93247266D01*
X203980047Y-93060861D01*
X203980045Y-93060858D01*
X203819141Y-92899954D01*
X203632734Y-92769432D01*
X203632732Y-92769431D01*
X203426497Y-92673261D01*
X203426488Y-92673258D01*
X203206697Y-92614366D01*
X203206693Y-92614365D01*
X203206692Y-92614365D01*
X203206691Y-92614364D01*
X203206686Y-92614364D01*
X202980002Y-92594532D01*
X202979998Y-92594532D01*
X202753313Y-92614364D01*
X202753302Y-92614366D01*
X202533511Y-92673258D01*
X202533502Y-92673261D01*
X202327267Y-92769431D01*
X202327265Y-92769432D01*
X202140858Y-92899954D01*
X201979954Y-93060858D01*
X201849432Y-93247265D01*
X201849431Y-93247267D01*
X201822382Y-93305275D01*
X201776209Y-93357714D01*
X201709016Y-93376866D01*
X201642135Y-93356650D01*
X201597618Y-93305275D01*
X201570568Y-93247266D01*
X201440047Y-93060861D01*
X201440045Y-93060858D01*
X201279141Y-92899954D01*
X201092734Y-92769432D01*
X201092732Y-92769431D01*
X200886497Y-92673261D01*
X200886488Y-92673258D01*
X200666697Y-92614366D01*
X200666693Y-92614365D01*
X200666692Y-92614365D01*
X200666691Y-92614364D01*
X200666686Y-92614364D01*
X200440002Y-92594532D01*
X200439998Y-92594532D01*
X200213313Y-92614364D01*
X200213302Y-92614366D01*
X199993511Y-92673258D01*
X199993502Y-92673261D01*
X199787267Y-92769431D01*
X199787265Y-92769432D01*
X199600858Y-92899954D01*
X199439954Y-93060858D01*
X199309432Y-93247265D01*
X199309431Y-93247267D01*
X199282382Y-93305275D01*
X199236209Y-93357714D01*
X199169016Y-93376866D01*
X199102135Y-93356650D01*
X199057618Y-93305275D01*
X199030568Y-93247266D01*
X198900047Y-93060861D01*
X198900045Y-93060858D01*
X198739141Y-92899954D01*
X198552734Y-92769432D01*
X198552732Y-92769431D01*
X198346497Y-92673261D01*
X198346488Y-92673258D01*
X198126697Y-92614366D01*
X198126693Y-92614365D01*
X198126692Y-92614365D01*
X198126691Y-92614364D01*
X198126686Y-92614364D01*
X197900002Y-92594532D01*
X197899998Y-92594532D01*
X197673313Y-92614364D01*
X197673302Y-92614366D01*
X197453511Y-92673258D01*
X197453502Y-92673261D01*
X197247267Y-92769431D01*
X197247265Y-92769432D01*
X197060858Y-92899954D01*
X196899954Y-93060858D01*
X196769432Y-93247265D01*
X196769431Y-93247267D01*
X196742382Y-93305275D01*
X196696209Y-93357714D01*
X196629016Y-93376866D01*
X196562135Y-93356650D01*
X196517618Y-93305275D01*
X196490568Y-93247266D01*
X196360047Y-93060861D01*
X196360045Y-93060858D01*
X196199141Y-92899954D01*
X196012734Y-92769432D01*
X196012732Y-92769431D01*
X195806497Y-92673261D01*
X195806488Y-92673258D01*
X195586697Y-92614366D01*
X195586693Y-92614365D01*
X195586692Y-92614365D01*
X195586691Y-92614364D01*
X195586686Y-92614364D01*
X195360002Y-92594532D01*
X195359998Y-92594532D01*
X195133313Y-92614364D01*
X195133302Y-92614366D01*
X194913511Y-92673258D01*
X194913502Y-92673261D01*
X194707267Y-92769431D01*
X194707265Y-92769432D01*
X194520858Y-92899954D01*
X194359954Y-93060858D01*
X194229432Y-93247265D01*
X194229431Y-93247267D01*
X194202382Y-93305275D01*
X194156209Y-93357714D01*
X194089016Y-93376866D01*
X194022135Y-93356650D01*
X193977618Y-93305275D01*
X193950568Y-93247266D01*
X193820047Y-93060861D01*
X193820045Y-93060858D01*
X193659141Y-92899954D01*
X193472734Y-92769432D01*
X193472732Y-92769431D01*
X193266497Y-92673261D01*
X193266488Y-92673258D01*
X193046697Y-92614366D01*
X193046693Y-92614365D01*
X193046692Y-92614365D01*
X193046691Y-92614364D01*
X193046686Y-92614364D01*
X192820002Y-92594532D01*
X192819998Y-92594532D01*
X192593313Y-92614364D01*
X192593302Y-92614366D01*
X192373511Y-92673258D01*
X192373502Y-92673261D01*
X192167267Y-92769431D01*
X192167265Y-92769432D01*
X191980858Y-92899954D01*
X191819954Y-93060858D01*
X191689433Y-93247264D01*
X191689432Y-93247266D01*
X191689315Y-93247518D01*
X191662106Y-93305867D01*
X191615933Y-93358306D01*
X191548739Y-93377457D01*
X191481858Y-93357241D01*
X191437342Y-93305865D01*
X191410135Y-93247520D01*
X191410134Y-93247518D01*
X191279657Y-93061179D01*
X191118820Y-92900342D01*
X190932482Y-92769865D01*
X190726328Y-92673734D01*
X190530000Y-92621127D01*
X190530000Y-93584314D01*
X190525606Y-93579920D01*
X190434394Y-93527259D01*
X190332661Y-93500000D01*
X190227339Y-93500000D01*
X190125606Y-93527259D01*
X190034394Y-93579920D01*
X190030000Y-93584314D01*
X190030000Y-92621127D01*
X189833671Y-92673734D01*
X189627517Y-92769865D01*
X189441179Y-92900342D01*
X189280342Y-93061179D01*
X189149867Y-93247515D01*
X189122657Y-93305867D01*
X189076484Y-93358306D01*
X189009290Y-93377457D01*
X188942409Y-93357241D01*
X188897893Y-93305865D01*
X188892226Y-93293713D01*
X188870568Y-93247266D01*
X188740047Y-93060861D01*
X188740045Y-93060858D01*
X188579141Y-92899954D01*
X188392734Y-92769432D01*
X188392732Y-92769431D01*
X188186497Y-92673261D01*
X188186488Y-92673258D01*
X187966697Y-92614366D01*
X187966693Y-92614365D01*
X187966692Y-92614365D01*
X187966691Y-92614364D01*
X187966686Y-92614364D01*
X187740002Y-92594532D01*
X187739998Y-92594532D01*
X187513313Y-92614364D01*
X187513302Y-92614366D01*
X187293511Y-92673258D01*
X187293502Y-92673261D01*
X187087267Y-92769431D01*
X187087265Y-92769432D01*
X186900858Y-92899954D01*
X186739954Y-93060858D01*
X186609432Y-93247265D01*
X186609431Y-93247267D01*
X186582382Y-93305275D01*
X186536209Y-93357714D01*
X186469016Y-93376866D01*
X186402135Y-93356650D01*
X186357618Y-93305275D01*
X186330568Y-93247266D01*
X186200047Y-93060861D01*
X186200045Y-93060858D01*
X186039141Y-92899954D01*
X185852734Y-92769432D01*
X185852732Y-92769431D01*
X185646497Y-92673261D01*
X185646488Y-92673258D01*
X185426697Y-92614366D01*
X185426693Y-92614365D01*
X185426692Y-92614365D01*
X185426691Y-92614364D01*
X185426686Y-92614364D01*
X185200002Y-92594532D01*
X185199998Y-92594532D01*
X184973313Y-92614364D01*
X184973302Y-92614366D01*
X184753511Y-92673258D01*
X184753502Y-92673261D01*
X184547267Y-92769431D01*
X184547265Y-92769432D01*
X184360858Y-92899954D01*
X184199954Y-93060858D01*
X184069432Y-93247265D01*
X184069431Y-93247267D01*
X184042382Y-93305275D01*
X183996209Y-93357714D01*
X183929016Y-93376866D01*
X183862135Y-93356650D01*
X183817618Y-93305275D01*
X183790568Y-93247266D01*
X183660047Y-93060861D01*
X183660045Y-93060858D01*
X183499141Y-92899954D01*
X183312734Y-92769432D01*
X183312732Y-92769431D01*
X183106497Y-92673261D01*
X183106488Y-92673258D01*
X182886697Y-92614366D01*
X182886693Y-92614365D01*
X182886692Y-92614365D01*
X182886691Y-92614364D01*
X182886686Y-92614364D01*
X182660002Y-92594532D01*
X182659998Y-92594532D01*
X182433313Y-92614364D01*
X182433302Y-92614366D01*
X182213511Y-92673258D01*
X182213502Y-92673261D01*
X182007267Y-92769431D01*
X182007265Y-92769432D01*
X181820858Y-92899954D01*
X181659954Y-93060858D01*
X181529432Y-93247265D01*
X181529431Y-93247267D01*
X181502382Y-93305275D01*
X181456209Y-93357714D01*
X181389016Y-93376866D01*
X181322135Y-93356650D01*
X181277618Y-93305275D01*
X181250568Y-93247266D01*
X181120047Y-93060861D01*
X181120045Y-93060858D01*
X180959141Y-92899954D01*
X180772734Y-92769432D01*
X180772732Y-92769431D01*
X180566497Y-92673261D01*
X180566488Y-92673258D01*
X180346697Y-92614366D01*
X180346693Y-92614365D01*
X180346692Y-92614365D01*
X180346691Y-92614364D01*
X180346686Y-92614364D01*
X180120002Y-92594532D01*
X180119998Y-92594532D01*
X179893313Y-92614364D01*
X179893302Y-92614366D01*
X179673511Y-92673258D01*
X179673502Y-92673261D01*
X179467267Y-92769431D01*
X179467265Y-92769432D01*
X179280858Y-92899954D01*
X179119954Y-93060858D01*
X178989432Y-93247265D01*
X178989431Y-93247267D01*
X178962382Y-93305275D01*
X178916209Y-93357714D01*
X178849016Y-93376866D01*
X178782135Y-93356650D01*
X178737618Y-93305275D01*
X178710568Y-93247266D01*
X178580047Y-93060861D01*
X178580045Y-93060858D01*
X178419141Y-92899954D01*
X178232734Y-92769432D01*
X178232732Y-92769431D01*
X178026497Y-92673261D01*
X178026488Y-92673258D01*
X177806697Y-92614366D01*
X177806693Y-92614365D01*
X177806692Y-92614365D01*
X177806691Y-92614364D01*
X177806686Y-92614364D01*
X177580002Y-92594532D01*
X177579998Y-92594532D01*
X177353313Y-92614364D01*
X177353302Y-92614366D01*
X177133511Y-92673258D01*
X177133502Y-92673261D01*
X176927267Y-92769431D01*
X176927265Y-92769432D01*
X176740858Y-92899954D01*
X176579954Y-93060858D01*
X176449432Y-93247265D01*
X176449431Y-93247267D01*
X176422382Y-93305275D01*
X176376209Y-93357714D01*
X176309016Y-93376866D01*
X176242135Y-93356650D01*
X176197618Y-93305275D01*
X176170568Y-93247266D01*
X176040047Y-93060861D01*
X176040045Y-93060858D01*
X175879141Y-92899954D01*
X175692734Y-92769432D01*
X175692732Y-92769431D01*
X175486497Y-92673261D01*
X175486488Y-92673258D01*
X175266697Y-92614366D01*
X175266693Y-92614365D01*
X175266692Y-92614365D01*
X175266691Y-92614364D01*
X175266686Y-92614364D01*
X175040002Y-92594532D01*
X175039998Y-92594532D01*
X174813313Y-92614364D01*
X174813302Y-92614366D01*
X174593511Y-92673258D01*
X174593502Y-92673261D01*
X174387267Y-92769431D01*
X174387265Y-92769432D01*
X174200858Y-92899954D01*
X174039954Y-93060858D01*
X174022725Y-93085464D01*
X173968147Y-93129088D01*
X173898648Y-93136280D01*
X173836294Y-93104757D01*
X173800882Y-93044526D01*
X173797861Y-93027591D01*
X173794091Y-92992516D01*
X173743797Y-92857671D01*
X173743793Y-92857664D01*
X173657547Y-92742455D01*
X173657544Y-92742452D01*
X173542335Y-92656206D01*
X173542328Y-92656202D01*
X173407482Y-92605908D01*
X173407483Y-92605908D01*
X173347883Y-92599501D01*
X173347881Y-92599500D01*
X173347873Y-92599500D01*
X173347864Y-92599500D01*
X171652129Y-92599500D01*
X171652123Y-92599501D01*
X171592516Y-92605908D01*
X171457671Y-92656202D01*
X171457664Y-92656206D01*
X171342455Y-92742452D01*
X171342452Y-92742455D01*
X171256206Y-92857664D01*
X171256202Y-92857671D01*
X171205908Y-92992517D01*
X171199501Y-93052116D01*
X171199500Y-93052135D01*
X169500500Y-93052135D01*
X169500500Y-90001840D01*
X169520185Y-89934801D01*
X169572989Y-89889046D01*
X169583531Y-89884803D01*
X169748088Y-89827223D01*
X169791418Y-89799997D01*
X209644723Y-89799997D01*
X209644723Y-89800002D01*
X209663793Y-90017975D01*
X209663793Y-90017979D01*
X209720422Y-90229322D01*
X209720424Y-90229326D01*
X209720425Y-90229330D01*
X209733298Y-90256936D01*
X209812897Y-90427638D01*
X209812898Y-90427639D01*
X209938402Y-90606877D01*
X210093123Y-90761598D01*
X210272361Y-90887102D01*
X210470670Y-90979575D01*
X210682023Y-91036207D01*
X210864926Y-91052208D01*
X210899998Y-91055277D01*
X210900000Y-91055277D01*
X210900002Y-91055277D01*
X210928254Y-91052805D01*
X211117977Y-91036207D01*
X211329330Y-90979575D01*
X211527639Y-90887102D01*
X211706877Y-90761598D01*
X211861598Y-90606877D01*
X211987102Y-90427639D01*
X212079575Y-90229330D01*
X212136207Y-90017977D01*
X212155277Y-89800000D01*
X212136207Y-89582023D01*
X212079575Y-89370670D01*
X211987102Y-89172362D01*
X211987100Y-89172359D01*
X211987099Y-89172357D01*
X211861599Y-88993124D01*
X211790654Y-88922179D01*
X211706877Y-88838402D01*
X211564475Y-88738691D01*
X211527638Y-88712897D01*
X211428484Y-88666661D01*
X211329330Y-88620425D01*
X211329326Y-88620424D01*
X211329322Y-88620422D01*
X211117977Y-88563793D01*
X210900002Y-88544723D01*
X210899998Y-88544723D01*
X210766528Y-88556400D01*
X210682023Y-88563793D01*
X210682020Y-88563793D01*
X210470677Y-88620422D01*
X210470668Y-88620426D01*
X210272361Y-88712898D01*
X210272357Y-88712900D01*
X210093121Y-88838402D01*
X209938402Y-88993121D01*
X209812900Y-89172357D01*
X209812898Y-89172361D01*
X209720426Y-89370668D01*
X209720422Y-89370677D01*
X209663793Y-89582020D01*
X209663793Y-89582024D01*
X209644723Y-89799997D01*
X169791418Y-89799997D01*
X169900828Y-89731250D01*
X170028382Y-89603696D01*
X170124355Y-89450956D01*
X170183934Y-89280689D01*
X170183953Y-89280520D01*
X170204131Y-89101437D01*
X170204131Y-89101430D01*
X170183935Y-88922184D01*
X170183934Y-88922179D01*
X170179937Y-88910756D01*
X170124355Y-88751912D01*
X170122854Y-88749523D01*
X170085750Y-88690472D01*
X170066750Y-88623235D01*
X170087118Y-88556400D01*
X170140386Y-88511186D01*
X170190744Y-88500500D01*
X170237710Y-88500500D01*
X170304749Y-88520185D01*
X170342703Y-88558527D01*
X170370182Y-88602260D01*
X170370184Y-88602262D01*
X170497738Y-88729816D01*
X170650478Y-88825789D01*
X170803252Y-88879247D01*
X170820745Y-88885368D01*
X170820750Y-88885369D01*
X170999996Y-88905565D01*
X171000000Y-88905565D01*
X171000004Y-88905565D01*
X171179249Y-88885369D01*
X171179252Y-88885368D01*
X171179255Y-88885368D01*
X171349522Y-88825789D01*
X171502262Y-88729816D01*
X171629816Y-88602262D01*
X171725789Y-88449522D01*
X171785368Y-88279255D01*
X171790295Y-88235528D01*
X171805565Y-88100003D01*
X171805565Y-88099996D01*
X171785369Y-87920750D01*
X171785368Y-87920745D01*
X171779830Y-87904918D01*
X171725789Y-87750478D01*
X171702817Y-87713919D01*
X171673003Y-87666469D01*
X171629816Y-87597738D01*
X171502262Y-87470184D01*
X171481990Y-87457446D01*
X171349523Y-87374211D01*
X171179254Y-87314631D01*
X171179249Y-87314630D01*
X171000004Y-87294435D01*
X170999996Y-87294435D01*
X170924867Y-87302899D01*
X170887177Y-87300076D01*
X170887114Y-87300560D01*
X170879057Y-87299499D01*
X170720943Y-87299499D01*
X170713347Y-87299499D01*
X170713331Y-87299500D01*
X166762290Y-87299500D01*
X166695251Y-87279815D01*
X166657297Y-87241473D01*
X166629817Y-87197739D01*
X166502262Y-87070184D01*
X166349523Y-86974211D01*
X166179254Y-86914631D01*
X166179249Y-86914630D01*
X166000004Y-86894435D01*
X165999996Y-86894435D01*
X165820750Y-86914630D01*
X165820745Y-86914631D01*
X165650476Y-86974211D01*
X165497737Y-87070184D01*
X165370184Y-87197737D01*
X165274211Y-87350476D01*
X165214631Y-87520745D01*
X165214630Y-87520750D01*
X165194435Y-87699996D01*
X165194435Y-87700003D01*
X165214630Y-87879249D01*
X165214631Y-87879254D01*
X165274211Y-88049523D01*
X165350028Y-88170184D01*
X165370184Y-88202262D01*
X165497738Y-88329816D01*
X165588080Y-88386582D01*
X165606199Y-88397967D01*
X165650478Y-88425789D01*
X165820745Y-88485368D01*
X165820750Y-88485369D01*
X165999997Y-88505565D01*
X166000000Y-88505565D01*
X166075129Y-88497099D01*
X166112817Y-88499924D01*
X166112881Y-88499440D01*
X166120940Y-88500501D01*
X166120943Y-88500501D01*
X166286654Y-88500501D01*
X166286670Y-88500500D01*
X168606388Y-88500500D01*
X168673427Y-88520185D01*
X168719182Y-88572989D01*
X168729126Y-88642147D01*
X168711382Y-88690472D01*
X168672776Y-88751912D01*
X168613196Y-88922184D01*
X168603403Y-89009100D01*
X168576336Y-89073514D01*
X168567865Y-89082896D01*
X168524237Y-89126524D01*
X168524212Y-89126552D01*
X168419478Y-89231286D01*
X168419475Y-89231290D01*
X168378501Y-89302261D01*
X168378501Y-89302262D01*
X168340423Y-89368215D01*
X168299499Y-89520943D01*
X168299499Y-89520945D01*
X168299499Y-89689046D01*
X168299500Y-89689059D01*
X168299500Y-94101743D01*
X168279815Y-94168782D01*
X168227011Y-94214537D01*
X168157853Y-94224481D01*
X168094297Y-94195456D01*
X168066668Y-94161170D01*
X167987229Y-94015690D01*
X167987224Y-94015682D01*
X167815745Y-93786612D01*
X167815729Y-93786594D01*
X167613405Y-93584270D01*
X167613387Y-93584254D01*
X167384317Y-93412775D01*
X167384309Y-93412770D01*
X167133166Y-93275635D01*
X167133167Y-93275635D01*
X166944280Y-93205184D01*
X166865046Y-93175631D01*
X166865043Y-93175630D01*
X166865037Y-93175628D01*
X166585433Y-93114804D01*
X166300001Y-93094390D01*
X166299999Y-93094390D01*
X166014566Y-93114804D01*
X165734962Y-93175628D01*
X165466833Y-93275635D01*
X165215690Y-93412770D01*
X165215682Y-93412775D01*
X164986612Y-93584254D01*
X164986594Y-93584270D01*
X164784270Y-93786594D01*
X164784254Y-93786612D01*
X164612775Y-94015682D01*
X164612770Y-94015690D01*
X164475635Y-94266833D01*
X164375628Y-94534962D01*
X164314804Y-94814566D01*
X164294390Y-95099998D01*
X154729233Y-95099998D01*
X153445700Y-93816465D01*
X153412215Y-93755142D01*
X153410163Y-93742686D01*
X153400368Y-93655745D01*
X153340789Y-93485478D01*
X153244816Y-93332738D01*
X153117262Y-93205184D01*
X153070224Y-93175628D01*
X152964523Y-93109211D01*
X152794254Y-93049631D01*
X152794249Y-93049630D01*
X152615004Y-93029435D01*
X152614996Y-93029435D01*
X152435750Y-93049630D01*
X152435745Y-93049631D01*
X152265476Y-93109211D01*
X152112737Y-93205184D01*
X151985184Y-93332737D01*
X151889211Y-93485476D01*
X151829631Y-93655745D01*
X151829630Y-93655750D01*
X151809435Y-93834996D01*
X145851965Y-93834996D01*
X145815745Y-93786612D01*
X145815729Y-93786594D01*
X145613405Y-93584270D01*
X145613387Y-93584254D01*
X145384317Y-93412775D01*
X145384309Y-93412770D01*
X145133166Y-93275635D01*
X145133167Y-93275635D01*
X144944280Y-93205184D01*
X144865046Y-93175631D01*
X144865043Y-93175630D01*
X144865037Y-93175628D01*
X144585433Y-93114804D01*
X144300001Y-93094390D01*
X144299999Y-93094390D01*
X144014566Y-93114804D01*
X143734962Y-93175628D01*
X143466833Y-93275635D01*
X143215690Y-93412770D01*
X143215682Y-93412775D01*
X142986612Y-93584254D01*
X142986594Y-93584270D01*
X142784270Y-93786594D01*
X142784254Y-93786612D01*
X142612775Y-94015682D01*
X142612770Y-94015690D01*
X142475635Y-94266833D01*
X142375628Y-94534962D01*
X142314804Y-94814566D01*
X142294390Y-95099998D01*
X136752080Y-95099998D01*
X136789816Y-95062262D01*
X136885789Y-94909522D01*
X136945368Y-94739255D01*
X136948925Y-94707684D01*
X136965565Y-94560003D01*
X136965565Y-94559996D01*
X136945369Y-94380750D01*
X136945368Y-94380745D01*
X136885789Y-94210478D01*
X136869806Y-94185042D01*
X136833139Y-94126686D01*
X136789816Y-94057738D01*
X136662262Y-93930184D01*
X136614226Y-93900001D01*
X136509523Y-93834211D01*
X136339254Y-93774631D01*
X136339249Y-93774630D01*
X136160004Y-93754435D01*
X136159996Y-93754435D01*
X135980750Y-93774630D01*
X135980745Y-93774631D01*
X135810476Y-93834211D01*
X135657737Y-93930184D01*
X135624741Y-93963181D01*
X135563418Y-93996666D01*
X135537060Y-93999500D01*
X132382412Y-93999500D01*
X132315373Y-93979815D01*
X132305097Y-93972445D01*
X132302263Y-93970185D01*
X132302262Y-93970184D01*
X132245496Y-93934515D01*
X132149523Y-93874211D01*
X131979254Y-93814631D01*
X131979249Y-93814630D01*
X131800004Y-93794435D01*
X131799996Y-93794435D01*
X131620750Y-93814630D01*
X131620745Y-93814631D01*
X131450476Y-93874211D01*
X131297737Y-93970184D01*
X131170184Y-94097737D01*
X131074211Y-94250476D01*
X131014631Y-94420745D01*
X131014630Y-94420750D01*
X130994435Y-94599996D01*
X126072958Y-94599996D01*
X126045069Y-81249999D01*
X132564341Y-81249999D01*
X132564341Y-81250000D01*
X132584936Y-81485403D01*
X132584938Y-81485413D01*
X132646094Y-81713655D01*
X132646096Y-81713659D01*
X132646097Y-81713663D01*
X132702941Y-81835565D01*
X132745965Y-81927830D01*
X132745967Y-81927834D01*
X132839761Y-82061785D01*
X132881501Y-82121396D01*
X132881506Y-82121402D01*
X133048597Y-82288493D01*
X133048603Y-82288498D01*
X133234158Y-82418425D01*
X133277783Y-82473002D01*
X133284977Y-82542500D01*
X133253454Y-82604855D01*
X133234158Y-82621575D01*
X133048597Y-82751505D01*
X132881505Y-82918597D01*
X132745965Y-83112169D01*
X132745964Y-83112171D01*
X132646098Y-83326335D01*
X132646094Y-83326344D01*
X132584938Y-83554586D01*
X132584936Y-83554596D01*
X132564341Y-83789999D01*
X132564341Y-83790000D01*
X132584936Y-84025403D01*
X132584938Y-84025413D01*
X132646094Y-84253655D01*
X132646096Y-84253659D01*
X132646097Y-84253663D01*
X132690420Y-84348713D01*
X132745965Y-84467830D01*
X132745967Y-84467834D01*
X132824857Y-84580500D01*
X132881501Y-84661396D01*
X132881506Y-84661402D01*
X133048597Y-84828493D01*
X133048603Y-84828498D01*
X133234158Y-84958425D01*
X133277783Y-85013002D01*
X133284977Y-85082500D01*
X133253454Y-85144855D01*
X133234158Y-85161575D01*
X133048597Y-85291505D01*
X132881505Y-85458597D01*
X132745965Y-85652169D01*
X132745964Y-85652171D01*
X132646098Y-85866335D01*
X132646094Y-85866344D01*
X132584938Y-86094586D01*
X132584936Y-86094596D01*
X132564341Y-86329999D01*
X132564341Y-86330000D01*
X132584936Y-86565403D01*
X132584938Y-86565413D01*
X132646094Y-86793655D01*
X132646096Y-86793659D01*
X132646097Y-86793663D01*
X132710944Y-86932728D01*
X132745965Y-87007830D01*
X132745967Y-87007834D01*
X132823395Y-87118412D01*
X132881501Y-87201396D01*
X132881506Y-87201402D01*
X133048597Y-87368493D01*
X133048603Y-87368498D01*
X133234158Y-87498425D01*
X133277783Y-87553002D01*
X133284977Y-87622500D01*
X133253454Y-87684855D01*
X133234158Y-87701575D01*
X133048597Y-87831505D01*
X132881505Y-87998597D01*
X132745965Y-88192169D01*
X132745964Y-88192171D01*
X132646098Y-88406335D01*
X132646094Y-88406344D01*
X132584938Y-88634586D01*
X132584936Y-88634596D01*
X132564341Y-88869999D01*
X132564341Y-88870000D01*
X132584936Y-89105403D01*
X132584938Y-89105413D01*
X132646094Y-89333655D01*
X132646096Y-89333659D01*
X132646097Y-89333663D01*
X132689880Y-89427555D01*
X132745965Y-89547830D01*
X132745967Y-89547834D01*
X132809697Y-89638849D01*
X132881505Y-89741401D01*
X133048599Y-89908495D01*
X133061951Y-89917844D01*
X133242165Y-90044032D01*
X133242167Y-90044033D01*
X133242170Y-90044035D01*
X133456337Y-90143903D01*
X133456343Y-90143904D01*
X133456344Y-90143905D01*
X133465917Y-90146470D01*
X133684592Y-90205063D01*
X133872918Y-90221539D01*
X133919999Y-90225659D01*
X133920000Y-90225659D01*
X133920001Y-90225659D01*
X133959234Y-90222226D01*
X134155408Y-90205063D01*
X134383663Y-90143903D01*
X134597830Y-90044035D01*
X134791401Y-89908495D01*
X134958495Y-89741401D01*
X135088425Y-89555842D01*
X135143002Y-89512217D01*
X135212500Y-89505023D01*
X135274855Y-89536546D01*
X135291575Y-89555842D01*
X135421500Y-89741395D01*
X135421505Y-89741401D01*
X135588599Y-89908495D01*
X135601951Y-89917844D01*
X135782165Y-90044032D01*
X135782167Y-90044033D01*
X135782170Y-90044035D01*
X135996337Y-90143903D01*
X135996343Y-90143904D01*
X135996344Y-90143905D01*
X136005917Y-90146470D01*
X136224592Y-90205063D01*
X136412918Y-90221539D01*
X136459999Y-90225659D01*
X136460000Y-90225659D01*
X136460001Y-90225659D01*
X136499234Y-90222226D01*
X136695408Y-90205063D01*
X136923663Y-90143903D01*
X137137830Y-90044035D01*
X137331401Y-89908495D01*
X137498495Y-89741401D01*
X137634035Y-89547830D01*
X137733903Y-89333663D01*
X137795063Y-89105408D01*
X137815659Y-88870000D01*
X137795063Y-88634592D01*
X137733903Y-88406337D01*
X137634035Y-88192171D01*
X137628425Y-88184158D01*
X137498494Y-87998597D01*
X137331402Y-87831506D01*
X137331396Y-87831501D01*
X137145842Y-87701575D01*
X137102217Y-87646998D01*
X137095023Y-87577500D01*
X137126546Y-87515145D01*
X137145842Y-87498425D01*
X137233500Y-87437046D01*
X137331401Y-87368495D01*
X137498495Y-87201401D01*
X137634035Y-87007830D01*
X137733903Y-86793663D01*
X137795063Y-86565408D01*
X137815659Y-86330000D01*
X137803735Y-86193713D01*
X145459500Y-86193713D01*
X145459500Y-86706286D01*
X145492703Y-86915925D01*
X145492754Y-86916243D01*
X145503722Y-86950000D01*
X145558444Y-87118414D01*
X145654951Y-87307820D01*
X145779890Y-87479786D01*
X145930213Y-87630109D01*
X146102179Y-87755048D01*
X146102181Y-87755049D01*
X146102184Y-87755051D01*
X146291588Y-87851557D01*
X146493757Y-87917246D01*
X146703713Y-87950500D01*
X146703714Y-87950500D01*
X146916286Y-87950500D01*
X146916287Y-87950500D01*
X147126243Y-87917246D01*
X147328412Y-87851557D01*
X147517816Y-87755051D01*
X147593593Y-87699996D01*
X147689784Y-87630110D01*
X147689784Y-87630109D01*
X147689792Y-87630104D01*
X147828967Y-87490928D01*
X147890286Y-87457446D01*
X147959978Y-87462430D01*
X148015912Y-87504301D01*
X148022184Y-87513515D01*
X148117684Y-87668345D01*
X148241654Y-87792315D01*
X148390875Y-87884356D01*
X148390880Y-87884358D01*
X148557302Y-87939505D01*
X148557309Y-87939506D01*
X148660019Y-87949999D01*
X149059999Y-87949999D01*
X149060000Y-87949998D01*
X149060000Y-86883012D01*
X149117007Y-86915925D01*
X149244174Y-86950000D01*
X149375826Y-86950000D01*
X149502993Y-86915925D01*
X149560000Y-86883012D01*
X149560000Y-87949999D01*
X149959972Y-87949999D01*
X149959986Y-87949998D01*
X150062697Y-87939505D01*
X150229119Y-87884358D01*
X150229124Y-87884356D01*
X150378345Y-87792315D01*
X150502315Y-87668345D01*
X150594356Y-87519124D01*
X150594358Y-87519119D01*
X150649505Y-87352697D01*
X150649506Y-87352690D01*
X150659999Y-87249986D01*
X150660000Y-87249973D01*
X150660000Y-86700000D01*
X149743012Y-86700000D01*
X149775925Y-86642993D01*
X149810000Y-86515826D01*
X149810000Y-86384174D01*
X149782086Y-86279998D01*
X171194532Y-86279998D01*
X171194532Y-86280001D01*
X171214364Y-86506686D01*
X171214366Y-86506697D01*
X171273258Y-86726488D01*
X171273261Y-86726497D01*
X171369431Y-86932732D01*
X171369432Y-86932734D01*
X171499954Y-87119141D01*
X171660858Y-87280045D01*
X171660861Y-87280047D01*
X171847266Y-87410568D01*
X172053504Y-87506739D01*
X172053509Y-87506740D01*
X172053511Y-87506741D01*
X172084876Y-87515145D01*
X172273308Y-87565635D01*
X172419944Y-87578464D01*
X172499998Y-87585468D01*
X172500000Y-87585468D01*
X172500002Y-87585468D01*
X172556673Y-87580509D01*
X172726692Y-87565635D01*
X172946496Y-87506739D01*
X173152734Y-87410568D01*
X173339139Y-87280047D01*
X173500047Y-87119139D01*
X173630568Y-86932734D01*
X173657618Y-86874724D01*
X173703790Y-86822285D01*
X173770983Y-86803133D01*
X173837865Y-86823348D01*
X173882382Y-86874725D01*
X173909429Y-86932728D01*
X173909432Y-86932734D01*
X174039954Y-87119141D01*
X174200858Y-87280045D01*
X174200861Y-87280047D01*
X174387266Y-87410568D01*
X174593504Y-87506739D01*
X174593509Y-87506740D01*
X174593511Y-87506741D01*
X174624876Y-87515145D01*
X174813308Y-87565635D01*
X174959944Y-87578464D01*
X175039998Y-87585468D01*
X175040000Y-87585468D01*
X175040002Y-87585468D01*
X175096673Y-87580509D01*
X175266692Y-87565635D01*
X175486496Y-87506739D01*
X175692734Y-87410568D01*
X175879139Y-87280047D01*
X176040047Y-87119139D01*
X176170568Y-86932734D01*
X176197618Y-86874724D01*
X176243790Y-86822285D01*
X176310983Y-86803133D01*
X176377865Y-86823348D01*
X176422382Y-86874725D01*
X176449429Y-86932728D01*
X176449432Y-86932734D01*
X176579954Y-87119141D01*
X176740858Y-87280045D01*
X176740861Y-87280047D01*
X176927266Y-87410568D01*
X177133504Y-87506739D01*
X177133509Y-87506740D01*
X177133511Y-87506741D01*
X177164876Y-87515145D01*
X177353308Y-87565635D01*
X177499944Y-87578464D01*
X177579998Y-87585468D01*
X177580000Y-87585468D01*
X177580002Y-87585468D01*
X177636673Y-87580509D01*
X177806692Y-87565635D01*
X178026496Y-87506739D01*
X178232734Y-87410568D01*
X178419139Y-87280047D01*
X178580047Y-87119139D01*
X178710568Y-86932734D01*
X178737618Y-86874724D01*
X178783790Y-86822285D01*
X178850983Y-86803133D01*
X178917865Y-86823348D01*
X178962382Y-86874725D01*
X178989429Y-86932728D01*
X178989432Y-86932734D01*
X179119954Y-87119141D01*
X179280858Y-87280045D01*
X179280861Y-87280047D01*
X179467266Y-87410568D01*
X179673504Y-87506739D01*
X179673509Y-87506740D01*
X179673511Y-87506741D01*
X179704876Y-87515145D01*
X179893308Y-87565635D01*
X180039944Y-87578464D01*
X180119998Y-87585468D01*
X180120000Y-87585468D01*
X180120002Y-87585468D01*
X180176673Y-87580509D01*
X180346692Y-87565635D01*
X180566496Y-87506739D01*
X180772734Y-87410568D01*
X180959139Y-87280047D01*
X181120047Y-87119139D01*
X181250568Y-86932734D01*
X181277618Y-86874724D01*
X181323790Y-86822285D01*
X181390983Y-86803133D01*
X181457865Y-86823348D01*
X181502382Y-86874725D01*
X181529429Y-86932728D01*
X181529432Y-86932734D01*
X181659954Y-87119141D01*
X181820858Y-87280045D01*
X181820861Y-87280047D01*
X182007266Y-87410568D01*
X182213504Y-87506739D01*
X182213509Y-87506740D01*
X182213511Y-87506741D01*
X182244876Y-87515145D01*
X182433308Y-87565635D01*
X182579944Y-87578464D01*
X182659998Y-87585468D01*
X182660000Y-87585468D01*
X182660002Y-87585468D01*
X182716673Y-87580509D01*
X182886692Y-87565635D01*
X183106496Y-87506739D01*
X183312734Y-87410568D01*
X183499139Y-87280047D01*
X183660047Y-87119139D01*
X183790568Y-86932734D01*
X183817618Y-86874724D01*
X183863790Y-86822285D01*
X183930983Y-86803133D01*
X183997865Y-86823348D01*
X184042382Y-86874725D01*
X184069429Y-86932728D01*
X184069432Y-86932734D01*
X184199954Y-87119141D01*
X184360858Y-87280045D01*
X184360861Y-87280047D01*
X184547266Y-87410568D01*
X184753504Y-87506739D01*
X184753509Y-87506740D01*
X184753511Y-87506741D01*
X184784876Y-87515145D01*
X184973308Y-87565635D01*
X185119944Y-87578464D01*
X185199998Y-87585468D01*
X185200000Y-87585468D01*
X185200002Y-87585468D01*
X185256673Y-87580509D01*
X185426692Y-87565635D01*
X185646496Y-87506739D01*
X185852734Y-87410568D01*
X186039139Y-87280047D01*
X186200047Y-87119139D01*
X186330568Y-86932734D01*
X186357895Y-86874129D01*
X186404064Y-86821695D01*
X186471257Y-86802542D01*
X186538139Y-86822757D01*
X186582657Y-86874133D01*
X186609865Y-86932482D01*
X186740342Y-87118820D01*
X186901179Y-87279657D01*
X187087517Y-87410134D01*
X187293673Y-87506265D01*
X187293682Y-87506269D01*
X187489999Y-87558872D01*
X187490000Y-87558871D01*
X187490000Y-86595686D01*
X187494394Y-86600080D01*
X187585606Y-86652741D01*
X187687339Y-86680000D01*
X187792661Y-86680000D01*
X187894394Y-86652741D01*
X187985606Y-86600080D01*
X187990000Y-86595686D01*
X187990000Y-87558872D01*
X188186317Y-87506269D01*
X188186326Y-87506265D01*
X188392482Y-87410134D01*
X188578820Y-87279657D01*
X188739657Y-87118820D01*
X188870132Y-86932484D01*
X188897341Y-86874134D01*
X188943513Y-86821695D01*
X189010707Y-86802542D01*
X189077588Y-86822757D01*
X189122106Y-86874133D01*
X189149431Y-86932732D01*
X189149432Y-86932734D01*
X189279954Y-87119141D01*
X189440858Y-87280045D01*
X189440861Y-87280047D01*
X189627266Y-87410568D01*
X189684050Y-87437047D01*
X189736488Y-87483218D01*
X189755640Y-87550412D01*
X189735424Y-87617293D01*
X189682259Y-87662627D01*
X189672601Y-87666469D01*
X189650478Y-87674210D01*
X189497737Y-87770184D01*
X189370184Y-87897737D01*
X189274211Y-88050476D01*
X189214631Y-88220745D01*
X189214630Y-88220750D01*
X189194435Y-88399996D01*
X189194435Y-88400003D01*
X189214630Y-88579249D01*
X189214631Y-88579254D01*
X189274211Y-88749523D01*
X189349912Y-88869999D01*
X189370184Y-88902262D01*
X189497738Y-89029816D01*
X189650478Y-89125789D01*
X189820745Y-89185368D01*
X189907668Y-89195161D01*
X189972079Y-89222226D01*
X189981464Y-89230700D01*
X190031284Y-89280520D01*
X190031286Y-89280521D01*
X190031290Y-89280524D01*
X190123317Y-89333655D01*
X190168216Y-89359577D01*
X190280019Y-89389534D01*
X190320942Y-89400500D01*
X190320943Y-89400500D01*
X193117588Y-89400500D01*
X193184627Y-89420185D01*
X193194903Y-89427555D01*
X193197736Y-89429814D01*
X193197738Y-89429816D01*
X193311270Y-89501152D01*
X193342768Y-89520945D01*
X193350478Y-89525789D01*
X193436365Y-89555842D01*
X193520745Y-89585368D01*
X193520750Y-89585369D01*
X193699996Y-89605565D01*
X193700000Y-89605565D01*
X193700004Y-89605565D01*
X193879249Y-89585369D01*
X193879252Y-89585368D01*
X193879255Y-89585368D01*
X194049522Y-89525789D01*
X194202262Y-89429816D01*
X194329816Y-89302262D01*
X194425789Y-89149522D01*
X194485368Y-88979255D01*
X194487581Y-88959617D01*
X194505565Y-88800003D01*
X194505565Y-88799996D01*
X194485369Y-88620750D01*
X194485368Y-88620745D01*
X194481577Y-88609910D01*
X194425789Y-88450478D01*
X194425188Y-88449522D01*
X194349971Y-88329815D01*
X194329816Y-88297738D01*
X194202262Y-88170184D01*
X194133553Y-88127011D01*
X194049523Y-88074211D01*
X193900756Y-88022155D01*
X215675000Y-88022155D01*
X215675000Y-88720000D01*
X216699722Y-88720000D01*
X216655667Y-88796306D01*
X216625000Y-88910756D01*
X216625000Y-89029244D01*
X216655667Y-89143694D01*
X216699722Y-89220000D01*
X215675000Y-89220000D01*
X215675000Y-89917844D01*
X215681401Y-89977372D01*
X215681403Y-89977379D01*
X215731645Y-90112086D01*
X215731649Y-90112093D01*
X215817809Y-90227187D01*
X215817812Y-90227190D01*
X215932906Y-90313350D01*
X215932913Y-90313354D01*
X216067620Y-90363596D01*
X216067627Y-90363598D01*
X216127155Y-90369999D01*
X216127172Y-90370000D01*
X216825000Y-90370000D01*
X216825000Y-89345277D01*
X216901306Y-89389333D01*
X217015756Y-89420000D01*
X217134244Y-89420000D01*
X217248694Y-89389333D01*
X217325000Y-89345277D01*
X217325000Y-90370000D01*
X218022828Y-90370000D01*
X218022844Y-90369999D01*
X218082372Y-90363598D01*
X218082379Y-90363596D01*
X218217086Y-90313354D01*
X218217093Y-90313350D01*
X218332187Y-90227190D01*
X218332190Y-90227187D01*
X218418350Y-90112093D01*
X218418355Y-90112084D01*
X218447075Y-90035081D01*
X218488945Y-89979147D01*
X218554409Y-89954729D01*
X218622682Y-89969580D01*
X218654484Y-89994428D01*
X218663216Y-90003913D01*
X218663219Y-90003915D01*
X218663222Y-90003918D01*
X218846365Y-90146464D01*
X218846371Y-90146468D01*
X218846374Y-90146470D01*
X219050497Y-90256936D01*
X219164487Y-90296068D01*
X219270015Y-90332297D01*
X219270017Y-90332297D01*
X219270019Y-90332298D01*
X219498951Y-90370500D01*
X219498952Y-90370500D01*
X219731048Y-90370500D01*
X219731049Y-90370500D01*
X219959981Y-90332298D01*
X220179503Y-90256936D01*
X220383626Y-90146470D01*
X220566784Y-90003913D01*
X220723979Y-89833153D01*
X220850924Y-89638849D01*
X220944157Y-89426300D01*
X221001134Y-89201305D01*
X221001241Y-89200019D01*
X221020300Y-88970006D01*
X221020300Y-88969993D01*
X221001135Y-88738702D01*
X221001133Y-88738691D01*
X220944157Y-88513699D01*
X220850924Y-88301151D01*
X220723983Y-88106852D01*
X220723980Y-88106849D01*
X220723979Y-88106847D01*
X220566784Y-87936087D01*
X220566779Y-87936083D01*
X220566777Y-87936081D01*
X220391939Y-87799999D01*
X221694357Y-87799999D01*
X221694357Y-87800000D01*
X221714884Y-88021535D01*
X221714885Y-88021537D01*
X221775769Y-88235523D01*
X221775775Y-88235538D01*
X221874938Y-88434683D01*
X221874943Y-88434691D01*
X222009020Y-88612238D01*
X222173437Y-88762123D01*
X222173439Y-88762125D01*
X222362595Y-88879245D01*
X222362596Y-88879245D01*
X222362599Y-88879247D01*
X222570060Y-88959618D01*
X222788757Y-89000500D01*
X222788759Y-89000500D01*
X223011241Y-89000500D01*
X223011243Y-89000500D01*
X223229940Y-88959618D01*
X223437401Y-88879247D01*
X223626562Y-88762124D01*
X223781998Y-88620425D01*
X223790979Y-88612238D01*
X223792738Y-88609910D01*
X223925058Y-88434689D01*
X223943344Y-88397967D01*
X224024224Y-88235538D01*
X224024223Y-88235538D01*
X224024229Y-88235528D01*
X224085115Y-88021536D01*
X224105643Y-87800000D01*
X224105643Y-87799999D01*
X226774357Y-87799999D01*
X226774357Y-87800000D01*
X226794884Y-88021535D01*
X226794885Y-88021537D01*
X226855769Y-88235523D01*
X226855775Y-88235538D01*
X226954938Y-88434683D01*
X226954943Y-88434691D01*
X227089020Y-88612238D01*
X227253437Y-88762123D01*
X227253439Y-88762125D01*
X227442595Y-88879245D01*
X227442596Y-88879245D01*
X227442599Y-88879247D01*
X227650060Y-88959618D01*
X227868757Y-89000500D01*
X227868759Y-89000500D01*
X228091241Y-89000500D01*
X228091243Y-89000500D01*
X228309940Y-88959618D01*
X228517401Y-88879247D01*
X228706562Y-88762124D01*
X228861998Y-88620425D01*
X228870979Y-88612238D01*
X228872738Y-88609910D01*
X229005058Y-88434689D01*
X229023344Y-88397967D01*
X229104224Y-88235538D01*
X229104223Y-88235538D01*
X229104229Y-88235528D01*
X229165115Y-88021536D01*
X229185643Y-87800000D01*
X229185043Y-87793530D01*
X229165115Y-87578464D01*
X229165114Y-87578462D01*
X229164840Y-87577500D01*
X229104229Y-87364472D01*
X229098366Y-87352697D01*
X229005061Y-87165316D01*
X229005056Y-87165308D01*
X228870979Y-86987761D01*
X228706562Y-86837876D01*
X228706560Y-86837874D01*
X228517404Y-86720754D01*
X228517398Y-86720752D01*
X228309940Y-86640382D01*
X228091243Y-86599500D01*
X227868757Y-86599500D01*
X227650060Y-86640382D01*
X227518864Y-86691207D01*
X227442601Y-86720752D01*
X227442595Y-86720754D01*
X227253439Y-86837874D01*
X227253437Y-86837876D01*
X227089020Y-86987761D01*
X226954943Y-87165308D01*
X226954938Y-87165316D01*
X226855775Y-87364461D01*
X226855769Y-87364476D01*
X226794885Y-87578462D01*
X226794884Y-87578464D01*
X226774357Y-87799999D01*
X224105643Y-87799999D01*
X224105043Y-87793530D01*
X224085115Y-87578464D01*
X224085114Y-87578462D01*
X224084840Y-87577500D01*
X224024229Y-87364472D01*
X224018366Y-87352697D01*
X223925061Y-87165316D01*
X223925056Y-87165308D01*
X223790979Y-86987761D01*
X223626562Y-86837876D01*
X223626560Y-86837874D01*
X223437404Y-86720754D01*
X223437398Y-86720752D01*
X223229940Y-86640382D01*
X223011243Y-86599500D01*
X222788757Y-86599500D01*
X222570060Y-86640382D01*
X222438864Y-86691207D01*
X222362601Y-86720752D01*
X222362595Y-86720754D01*
X222173439Y-86837874D01*
X222173437Y-86837876D01*
X222009020Y-86987761D01*
X221874943Y-87165308D01*
X221874938Y-87165316D01*
X221775775Y-87364461D01*
X221775769Y-87364476D01*
X221714885Y-87578462D01*
X221714884Y-87578464D01*
X221694357Y-87799999D01*
X220391939Y-87799999D01*
X220383634Y-87793535D01*
X220383628Y-87793531D01*
X220179504Y-87683064D01*
X220179495Y-87683061D01*
X219959984Y-87607702D01*
X219772404Y-87576401D01*
X219731049Y-87569500D01*
X219498951Y-87569500D01*
X219457596Y-87576401D01*
X219270015Y-87607702D01*
X219050504Y-87683061D01*
X219050495Y-87683064D01*
X218846371Y-87793531D01*
X218846365Y-87793535D01*
X218663222Y-87936081D01*
X218663215Y-87936087D01*
X218654484Y-87945572D01*
X218594595Y-87981561D01*
X218524757Y-87979458D01*
X218467143Y-87939932D01*
X218447075Y-87904918D01*
X218418355Y-87827915D01*
X218418350Y-87827906D01*
X218332190Y-87712812D01*
X218332187Y-87712809D01*
X218217093Y-87626649D01*
X218217086Y-87626645D01*
X218082379Y-87576403D01*
X218082372Y-87576401D01*
X218022844Y-87570000D01*
X217325000Y-87570000D01*
X217325000Y-88594722D01*
X217248694Y-88550667D01*
X217134244Y-88520000D01*
X217015756Y-88520000D01*
X216901306Y-88550667D01*
X216825000Y-88594722D01*
X216825000Y-87570000D01*
X216127155Y-87570000D01*
X216067627Y-87576401D01*
X216067620Y-87576403D01*
X215932913Y-87626645D01*
X215932906Y-87626649D01*
X215817812Y-87712809D01*
X215817809Y-87712812D01*
X215731649Y-87827906D01*
X215731645Y-87827913D01*
X215681403Y-87962620D01*
X215681401Y-87962627D01*
X215675000Y-88022155D01*
X193900756Y-88022155D01*
X193879254Y-88014631D01*
X193879249Y-88014630D01*
X193700004Y-87994435D01*
X193699996Y-87994435D01*
X193520750Y-88014630D01*
X193520745Y-88014631D01*
X193350476Y-88074211D01*
X193197736Y-88170185D01*
X193194903Y-88172445D01*
X193192724Y-88173334D01*
X193191842Y-88173889D01*
X193191744Y-88173734D01*
X193130217Y-88198855D01*
X193117588Y-88199500D01*
X190865917Y-88199500D01*
X190798878Y-88179815D01*
X190753123Y-88127011D01*
X190748875Y-88116454D01*
X190725789Y-88050478D01*
X190707604Y-88021537D01*
X190629816Y-87897738D01*
X190502262Y-87770184D01*
X190497338Y-87765260D01*
X190498501Y-87764096D01*
X190463286Y-87713919D01*
X190460440Y-87644107D01*
X190495789Y-87583839D01*
X190548644Y-87554393D01*
X190726496Y-87506739D01*
X190932734Y-87410568D01*
X191119139Y-87280047D01*
X191280047Y-87119139D01*
X191410568Y-86932734D01*
X191437618Y-86874724D01*
X191483790Y-86822285D01*
X191550983Y-86803133D01*
X191617865Y-86823348D01*
X191662382Y-86874725D01*
X191689429Y-86932728D01*
X191689432Y-86932734D01*
X191819954Y-87119141D01*
X191980858Y-87280045D01*
X191980861Y-87280047D01*
X192167266Y-87410568D01*
X192373504Y-87506739D01*
X192373509Y-87506740D01*
X192373511Y-87506741D01*
X192404876Y-87515145D01*
X192593308Y-87565635D01*
X192739944Y-87578464D01*
X192819998Y-87585468D01*
X192820000Y-87585468D01*
X192820002Y-87585468D01*
X192876673Y-87580509D01*
X193046692Y-87565635D01*
X193266496Y-87506739D01*
X193472734Y-87410568D01*
X193659139Y-87280047D01*
X193820047Y-87119139D01*
X193950568Y-86932734D01*
X193977618Y-86874724D01*
X194023790Y-86822285D01*
X194090983Y-86803133D01*
X194157865Y-86823348D01*
X194202382Y-86874725D01*
X194229429Y-86932728D01*
X194229432Y-86932734D01*
X194359954Y-87119141D01*
X194520858Y-87280045D01*
X194520861Y-87280047D01*
X194707266Y-87410568D01*
X194913504Y-87506739D01*
X194913509Y-87506740D01*
X194913511Y-87506741D01*
X194944876Y-87515145D01*
X195133308Y-87565635D01*
X195279944Y-87578464D01*
X195359998Y-87585468D01*
X195360000Y-87585468D01*
X195360002Y-87585468D01*
X195416673Y-87580509D01*
X195586692Y-87565635D01*
X195806496Y-87506739D01*
X196012734Y-87410568D01*
X196199139Y-87280047D01*
X196360047Y-87119139D01*
X196490568Y-86932734D01*
X196517618Y-86874724D01*
X196563790Y-86822285D01*
X196630983Y-86803133D01*
X196697865Y-86823348D01*
X196742382Y-86874725D01*
X196769429Y-86932728D01*
X196769432Y-86932734D01*
X196899954Y-87119141D01*
X197060858Y-87280045D01*
X197060861Y-87280047D01*
X197247266Y-87410568D01*
X197453504Y-87506739D01*
X197453509Y-87506740D01*
X197453511Y-87506741D01*
X197484876Y-87515145D01*
X197673308Y-87565635D01*
X197819944Y-87578464D01*
X197899998Y-87585468D01*
X197900000Y-87585468D01*
X197900002Y-87585468D01*
X197956673Y-87580509D01*
X198126692Y-87565635D01*
X198346496Y-87506739D01*
X198552734Y-87410568D01*
X198739139Y-87280047D01*
X198900047Y-87119139D01*
X199030568Y-86932734D01*
X199057618Y-86874724D01*
X199103790Y-86822285D01*
X199170983Y-86803133D01*
X199237865Y-86823348D01*
X199282382Y-86874725D01*
X199309429Y-86932728D01*
X199309432Y-86932734D01*
X199439954Y-87119141D01*
X199600858Y-87280045D01*
X199600861Y-87280047D01*
X199787266Y-87410568D01*
X199993504Y-87506739D01*
X199993509Y-87506740D01*
X199993511Y-87506741D01*
X200024876Y-87515145D01*
X200213308Y-87565635D01*
X200359944Y-87578464D01*
X200439998Y-87585468D01*
X200440000Y-87585468D01*
X200440002Y-87585468D01*
X200496673Y-87580509D01*
X200666692Y-87565635D01*
X200886496Y-87506739D01*
X201092734Y-87410568D01*
X201279139Y-87280047D01*
X201440047Y-87119139D01*
X201570568Y-86932734D01*
X201597618Y-86874724D01*
X201643790Y-86822285D01*
X201710983Y-86803133D01*
X201777865Y-86823348D01*
X201822382Y-86874725D01*
X201849429Y-86932728D01*
X201849432Y-86932734D01*
X201979954Y-87119141D01*
X202140858Y-87280045D01*
X202140861Y-87280047D01*
X202327266Y-87410568D01*
X202533504Y-87506739D01*
X202533509Y-87506740D01*
X202533511Y-87506741D01*
X202564876Y-87515145D01*
X202753308Y-87565635D01*
X202899944Y-87578464D01*
X202979998Y-87585468D01*
X202980000Y-87585468D01*
X202980002Y-87585468D01*
X203036673Y-87580509D01*
X203206692Y-87565635D01*
X203426496Y-87506739D01*
X203632734Y-87410568D01*
X203819139Y-87280047D01*
X203980047Y-87119139D01*
X204110568Y-86932734D01*
X204137618Y-86874724D01*
X204183790Y-86822285D01*
X204250983Y-86803133D01*
X204317865Y-86823348D01*
X204362382Y-86874725D01*
X204389429Y-86932728D01*
X204389432Y-86932734D01*
X204519954Y-87119141D01*
X204680858Y-87280045D01*
X204680861Y-87280047D01*
X204867266Y-87410568D01*
X205073504Y-87506739D01*
X205073509Y-87506740D01*
X205073511Y-87506741D01*
X205104876Y-87515145D01*
X205293308Y-87565635D01*
X205439944Y-87578464D01*
X205519998Y-87585468D01*
X205520000Y-87585468D01*
X205520002Y-87585468D01*
X205576673Y-87580509D01*
X205746692Y-87565635D01*
X205966496Y-87506739D01*
X206172734Y-87410568D01*
X206359139Y-87280047D01*
X206520047Y-87119139D01*
X206650568Y-86932734D01*
X206746739Y-86726496D01*
X206805635Y-86506692D01*
X206825468Y-86280000D01*
X206805635Y-86053308D01*
X206746739Y-85833504D01*
X206650568Y-85627266D01*
X206520047Y-85440861D01*
X206520045Y-85440858D01*
X206359141Y-85279954D01*
X206172734Y-85149432D01*
X206172732Y-85149431D01*
X205966497Y-85053261D01*
X205966488Y-85053258D01*
X205746697Y-84994366D01*
X205746693Y-84994365D01*
X205746692Y-84994365D01*
X205746691Y-84994364D01*
X205746686Y-84994364D01*
X205520002Y-84974532D01*
X205519998Y-84974532D01*
X205293313Y-84994364D01*
X205293302Y-84994366D01*
X205073511Y-85053258D01*
X205073502Y-85053261D01*
X204867267Y-85149431D01*
X204867265Y-85149432D01*
X204680858Y-85279954D01*
X204519954Y-85440858D01*
X204389432Y-85627265D01*
X204389431Y-85627267D01*
X204362382Y-85685275D01*
X204316209Y-85737714D01*
X204249016Y-85756866D01*
X204182135Y-85736650D01*
X204137618Y-85685275D01*
X204122181Y-85652171D01*
X204110568Y-85627266D01*
X203980047Y-85440861D01*
X203980045Y-85440858D01*
X203819141Y-85279954D01*
X203632734Y-85149432D01*
X203632732Y-85149431D01*
X203426497Y-85053261D01*
X203426488Y-85053258D01*
X203206697Y-84994366D01*
X203206693Y-84994365D01*
X203206692Y-84994365D01*
X203206691Y-84994364D01*
X203206686Y-84994364D01*
X202980002Y-84974532D01*
X202979998Y-84974532D01*
X202753313Y-84994364D01*
X202753302Y-84994366D01*
X202533511Y-85053258D01*
X202533502Y-85053261D01*
X202327267Y-85149431D01*
X202327265Y-85149432D01*
X202140858Y-85279954D01*
X201979954Y-85440858D01*
X201849432Y-85627265D01*
X201849431Y-85627267D01*
X201822382Y-85685275D01*
X201776209Y-85737714D01*
X201709016Y-85756866D01*
X201642135Y-85736650D01*
X201597618Y-85685275D01*
X201582181Y-85652171D01*
X201570568Y-85627266D01*
X201440047Y-85440861D01*
X201440045Y-85440858D01*
X201279141Y-85279954D01*
X201092734Y-85149432D01*
X201092732Y-85149431D01*
X200886497Y-85053261D01*
X200886488Y-85053258D01*
X200666697Y-84994366D01*
X200666693Y-84994365D01*
X200666692Y-84994365D01*
X200666691Y-84994364D01*
X200666686Y-84994364D01*
X200440002Y-84974532D01*
X200439998Y-84974532D01*
X200213313Y-84994364D01*
X200213302Y-84994366D01*
X199993511Y-85053258D01*
X199993502Y-85053261D01*
X199787267Y-85149431D01*
X199787265Y-85149432D01*
X199600858Y-85279954D01*
X199439954Y-85440858D01*
X199309432Y-85627265D01*
X199309431Y-85627267D01*
X199282382Y-85685275D01*
X199236209Y-85737714D01*
X199169016Y-85756866D01*
X199102135Y-85736650D01*
X199057618Y-85685275D01*
X199042181Y-85652171D01*
X199030568Y-85627266D01*
X198900047Y-85440861D01*
X198900045Y-85440858D01*
X198739141Y-85279954D01*
X198552734Y-85149432D01*
X198552732Y-85149431D01*
X198346497Y-85053261D01*
X198346488Y-85053258D01*
X198126697Y-84994366D01*
X198126687Y-84994364D01*
X197959464Y-84979734D01*
X197894396Y-84954281D01*
X197853417Y-84897690D01*
X197849539Y-84827928D01*
X197883993Y-84767144D01*
X197891790Y-84760287D01*
X197892259Y-84759817D01*
X197892262Y-84759816D01*
X198019816Y-84632262D01*
X198115789Y-84479522D01*
X198175368Y-84309255D01*
X198185162Y-84222330D01*
X198195565Y-84130003D01*
X198195565Y-84129996D01*
X198175369Y-83950750D01*
X198175368Y-83950745D01*
X198141801Y-83854816D01*
X198115789Y-83780478D01*
X198019816Y-83627738D01*
X197892262Y-83500184D01*
X197739521Y-83404210D01*
X197591583Y-83352445D01*
X197569255Y-83344632D01*
X197569254Y-83344631D01*
X197569249Y-83344630D01*
X197482330Y-83334837D01*
X197417916Y-83307770D01*
X197408533Y-83299298D01*
X195726819Y-81617584D01*
X195693334Y-81556261D01*
X195690500Y-81529903D01*
X195690500Y-80276187D01*
X195710185Y-80209148D01*
X195738333Y-80178337D01*
X195852754Y-80089281D01*
X196018368Y-79909377D01*
X196152111Y-79704667D01*
X196250336Y-79480736D01*
X196310364Y-79243692D01*
X196313156Y-79210000D01*
X196330557Y-79000005D01*
X196330557Y-78999994D01*
X205869443Y-78999994D01*
X205869443Y-79000005D01*
X205889634Y-79243683D01*
X205889636Y-79243695D01*
X205949663Y-79480734D01*
X206047888Y-79704666D01*
X206181632Y-79909378D01*
X206347242Y-80089277D01*
X206347252Y-80089286D01*
X206540208Y-80239470D01*
X206540212Y-80239473D01*
X206739728Y-80347446D01*
X206755267Y-80355855D01*
X206755270Y-80355856D01*
X206986541Y-80435251D01*
X206986543Y-80435251D01*
X206986545Y-80435252D01*
X207227737Y-80475500D01*
X207227738Y-80475500D01*
X207472262Y-80475500D01*
X207472263Y-80475500D01*
X207713455Y-80435252D01*
X207944733Y-80355855D01*
X208159788Y-80239473D01*
X208352754Y-80089281D01*
X208518368Y-79909377D01*
X208652111Y-79704667D01*
X208750336Y-79480736D01*
X208810364Y-79243692D01*
X208813156Y-79210000D01*
X208830557Y-79000005D01*
X208830557Y-78999994D01*
X214469443Y-78999994D01*
X214469443Y-79000005D01*
X214489634Y-79243683D01*
X214489636Y-79243695D01*
X214549663Y-79480734D01*
X214647888Y-79704666D01*
X214781632Y-79909378D01*
X214947242Y-80089277D01*
X214947252Y-80089286D01*
X215140208Y-80239470D01*
X215140212Y-80239473D01*
X215339728Y-80347446D01*
X215355267Y-80355855D01*
X215355270Y-80355856D01*
X215586541Y-80435251D01*
X215586543Y-80435251D01*
X215586545Y-80435252D01*
X215827737Y-80475500D01*
X215827738Y-80475500D01*
X216072262Y-80475500D01*
X216072263Y-80475500D01*
X216313455Y-80435252D01*
X216544733Y-80355855D01*
X216759788Y-80239473D01*
X216952754Y-80089281D01*
X217118368Y-79909377D01*
X217252111Y-79704667D01*
X217350336Y-79480736D01*
X217410364Y-79243692D01*
X217413156Y-79210000D01*
X217430557Y-79000005D01*
X217430557Y-78999994D01*
X226969443Y-78999994D01*
X226969443Y-79000005D01*
X226989634Y-79243683D01*
X226989636Y-79243695D01*
X227049663Y-79480734D01*
X227147888Y-79704666D01*
X227281632Y-79909378D01*
X227447242Y-80089277D01*
X227447252Y-80089286D01*
X227640208Y-80239470D01*
X227640212Y-80239473D01*
X227839728Y-80347446D01*
X227855267Y-80355855D01*
X227855270Y-80355856D01*
X228086541Y-80435251D01*
X228086543Y-80435251D01*
X228086545Y-80435252D01*
X228327737Y-80475500D01*
X228327738Y-80475500D01*
X228572262Y-80475500D01*
X228572263Y-80475500D01*
X228813455Y-80435252D01*
X229044733Y-80355855D01*
X229259788Y-80239473D01*
X229452754Y-80089281D01*
X229618368Y-79909377D01*
X229752111Y-79704667D01*
X229850336Y-79480736D01*
X229910364Y-79243692D01*
X229913156Y-79210000D01*
X229930557Y-79000005D01*
X229930557Y-78999994D01*
X229910365Y-78756316D01*
X229910363Y-78756304D01*
X229862610Y-78567734D01*
X229850336Y-78519264D01*
X229752111Y-78295333D01*
X229736132Y-78270875D01*
X229618367Y-78090621D01*
X229452757Y-77910722D01*
X229452747Y-77910713D01*
X229259791Y-77760529D01*
X229259787Y-77760526D01*
X229044734Y-77644145D01*
X229044729Y-77644143D01*
X228813458Y-77564748D01*
X228632561Y-77534562D01*
X228572263Y-77524500D01*
X228327737Y-77524500D01*
X228279498Y-77532549D01*
X228086541Y-77564748D01*
X227855270Y-77644143D01*
X227855265Y-77644145D01*
X227640212Y-77760526D01*
X227640208Y-77760529D01*
X227447252Y-77910713D01*
X227447242Y-77910722D01*
X227281632Y-78090621D01*
X227147888Y-78295333D01*
X227049663Y-78519265D01*
X226989636Y-78756304D01*
X226989634Y-78756316D01*
X226969443Y-78999994D01*
X217430557Y-78999994D01*
X217410365Y-78756316D01*
X217410363Y-78756304D01*
X217362610Y-78567734D01*
X217350336Y-78519264D01*
X217252111Y-78295333D01*
X217236132Y-78270875D01*
X217118367Y-78090621D01*
X216952757Y-77910722D01*
X216952747Y-77910713D01*
X216759791Y-77760529D01*
X216759787Y-77760526D01*
X216544734Y-77644145D01*
X216544729Y-77644143D01*
X216313458Y-77564748D01*
X216132561Y-77534562D01*
X216072263Y-77524500D01*
X215827737Y-77524500D01*
X215779498Y-77532549D01*
X215586541Y-77564748D01*
X215355270Y-77644143D01*
X215355265Y-77644145D01*
X215140212Y-77760526D01*
X215140208Y-77760529D01*
X214947252Y-77910713D01*
X214947242Y-77910722D01*
X214781632Y-78090621D01*
X214647888Y-78295333D01*
X214549663Y-78519265D01*
X214489636Y-78756304D01*
X214489634Y-78756316D01*
X214469443Y-78999994D01*
X208830557Y-78999994D01*
X208810365Y-78756316D01*
X208810363Y-78756304D01*
X208762610Y-78567734D01*
X208750336Y-78519264D01*
X208652111Y-78295333D01*
X208636132Y-78270875D01*
X208518367Y-78090621D01*
X208352757Y-77910722D01*
X208352747Y-77910713D01*
X208159791Y-77760529D01*
X208159787Y-77760526D01*
X207944734Y-77644145D01*
X207944729Y-77644143D01*
X207713458Y-77564748D01*
X207532561Y-77534562D01*
X207472263Y-77524500D01*
X207227737Y-77524500D01*
X207179498Y-77532549D01*
X206986541Y-77564748D01*
X206755270Y-77644143D01*
X206755265Y-77644145D01*
X206540212Y-77760526D01*
X206540208Y-77760529D01*
X206347252Y-77910713D01*
X206347242Y-77910722D01*
X206181632Y-78090621D01*
X206047888Y-78295333D01*
X205949663Y-78519265D01*
X205889636Y-78756304D01*
X205889634Y-78756316D01*
X205869443Y-78999994D01*
X196330557Y-78999994D01*
X196310365Y-78756316D01*
X196310363Y-78756304D01*
X196262610Y-78567734D01*
X196250336Y-78519264D01*
X196152111Y-78295333D01*
X196136132Y-78270875D01*
X196018367Y-78090621D01*
X195852757Y-77910722D01*
X195852747Y-77910713D01*
X195659791Y-77760529D01*
X195659787Y-77760526D01*
X195444734Y-77644145D01*
X195444729Y-77644143D01*
X195213458Y-77564748D01*
X195032561Y-77534562D01*
X194972263Y-77524500D01*
X194727737Y-77524500D01*
X194679498Y-77532549D01*
X194486541Y-77564748D01*
X194255270Y-77644143D01*
X194255265Y-77644145D01*
X194040212Y-77760526D01*
X194040208Y-77760529D01*
X193847252Y-77910713D01*
X193847242Y-77910722D01*
X193681632Y-78090621D01*
X193547888Y-78295333D01*
X193449663Y-78519265D01*
X193389636Y-78756304D01*
X193389634Y-78756316D01*
X193369443Y-78999994D01*
X193369443Y-79000005D01*
X193389634Y-79243683D01*
X193389636Y-79243695D01*
X193449663Y-79480734D01*
X193547888Y-79704666D01*
X193681632Y-79909378D01*
X193847242Y-80089277D01*
X193847252Y-80089286D01*
X194040208Y-80239470D01*
X194040212Y-80239473D01*
X194239728Y-80347446D01*
X194255267Y-80355855D01*
X194295847Y-80369786D01*
X194405762Y-80407520D01*
X194462778Y-80447905D01*
X194488909Y-80512705D01*
X194489500Y-80524801D01*
X194489500Y-81743330D01*
X194489499Y-81743348D01*
X194489499Y-81909054D01*
X194489498Y-81909054D01*
X194530423Y-82061785D01*
X194559358Y-82111900D01*
X194559359Y-82111904D01*
X194559360Y-82111904D01*
X194609479Y-82198714D01*
X194609481Y-82198717D01*
X194728349Y-82317585D01*
X194728355Y-82317590D01*
X196559298Y-84148533D01*
X196592783Y-84209856D01*
X196594837Y-84222330D01*
X196604630Y-84309249D01*
X196664210Y-84479521D01*
X196746079Y-84609814D01*
X196760184Y-84632262D01*
X196887738Y-84759816D01*
X196978080Y-84816582D01*
X196996137Y-84827928D01*
X197040478Y-84855789D01*
X197160224Y-84897690D01*
X197210745Y-84915368D01*
X197217532Y-84916917D01*
X197216986Y-84919309D01*
X197270866Y-84941933D01*
X197310436Y-84999518D01*
X197312591Y-85069354D01*
X197276649Y-85129270D01*
X197251584Y-85146078D01*
X197251957Y-85146724D01*
X197247265Y-85149432D01*
X197060858Y-85279954D01*
X196899954Y-85440858D01*
X196769432Y-85627265D01*
X196769431Y-85627267D01*
X196742382Y-85685275D01*
X196696209Y-85737714D01*
X196629016Y-85756866D01*
X196562135Y-85736650D01*
X196517618Y-85685275D01*
X196502181Y-85652171D01*
X196490568Y-85627266D01*
X196360047Y-85440861D01*
X196360045Y-85440858D01*
X196199141Y-85279954D01*
X196012734Y-85149432D01*
X196012732Y-85149431D01*
X195806497Y-85053261D01*
X195806488Y-85053258D01*
X195586697Y-84994366D01*
X195586693Y-84994365D01*
X195586692Y-84994365D01*
X195586691Y-84994364D01*
X195586686Y-84994364D01*
X195360002Y-84974532D01*
X195359998Y-84974532D01*
X195133313Y-84994364D01*
X195133302Y-84994366D01*
X194913511Y-85053258D01*
X194913502Y-85053261D01*
X194707267Y-85149431D01*
X194707265Y-85149432D01*
X194520858Y-85279954D01*
X194359954Y-85440858D01*
X194229432Y-85627265D01*
X194229431Y-85627267D01*
X194202382Y-85685275D01*
X194156209Y-85737714D01*
X194089016Y-85756866D01*
X194022135Y-85736650D01*
X193977618Y-85685275D01*
X193962181Y-85652171D01*
X193950568Y-85627266D01*
X193820047Y-85440861D01*
X193820045Y-85440858D01*
X193659141Y-85279954D01*
X193472734Y-85149432D01*
X193472732Y-85149431D01*
X193266497Y-85053261D01*
X193266488Y-85053258D01*
X193046697Y-84994366D01*
X193046693Y-84994365D01*
X193046692Y-84994365D01*
X193046691Y-84994364D01*
X193046686Y-84994364D01*
X192820002Y-84974532D01*
X192819998Y-84974532D01*
X192593313Y-84994364D01*
X192593302Y-84994366D01*
X192373511Y-85053258D01*
X192373502Y-85053261D01*
X192167267Y-85149431D01*
X192167265Y-85149432D01*
X191980858Y-85279954D01*
X191819954Y-85440858D01*
X191689432Y-85627265D01*
X191689431Y-85627267D01*
X191662382Y-85685275D01*
X191616209Y-85737714D01*
X191549016Y-85756866D01*
X191482135Y-85736650D01*
X191437618Y-85685275D01*
X191422181Y-85652171D01*
X191410568Y-85627266D01*
X191280047Y-85440861D01*
X191280045Y-85440858D01*
X191119141Y-85279954D01*
X190932734Y-85149432D01*
X190932732Y-85149431D01*
X190726497Y-85053261D01*
X190726488Y-85053258D01*
X190506697Y-84994366D01*
X190506693Y-84994365D01*
X190506692Y-84994365D01*
X190506691Y-84994364D01*
X190506686Y-84994364D01*
X190280002Y-84974532D01*
X190279998Y-84974532D01*
X190053313Y-84994364D01*
X190053302Y-84994366D01*
X189833511Y-85053258D01*
X189833502Y-85053261D01*
X189627267Y-85149431D01*
X189627265Y-85149432D01*
X189440858Y-85279954D01*
X189279954Y-85440858D01*
X189173996Y-85592184D01*
X189149432Y-85627266D01*
X189137820Y-85652169D01*
X189122106Y-85685867D01*
X189075933Y-85738306D01*
X189008739Y-85757457D01*
X188941858Y-85737241D01*
X188897342Y-85685865D01*
X188870135Y-85627520D01*
X188870134Y-85627518D01*
X188739657Y-85441179D01*
X188578820Y-85280342D01*
X188392482Y-85149865D01*
X188186328Y-85053734D01*
X187990000Y-85001127D01*
X187990000Y-85964314D01*
X187985606Y-85959920D01*
X187894394Y-85907259D01*
X187792661Y-85880000D01*
X187687339Y-85880000D01*
X187585606Y-85907259D01*
X187494394Y-85959920D01*
X187490000Y-85964314D01*
X187490000Y-85001127D01*
X187293671Y-85053734D01*
X187087517Y-85149865D01*
X186901179Y-85280342D01*
X186740342Y-85441179D01*
X186609867Y-85627515D01*
X186582657Y-85685867D01*
X186536484Y-85738306D01*
X186469290Y-85757457D01*
X186402409Y-85737241D01*
X186357893Y-85685865D01*
X186342180Y-85652169D01*
X186330568Y-85627266D01*
X186200047Y-85440861D01*
X186200045Y-85440858D01*
X186039141Y-85279954D01*
X185852734Y-85149432D01*
X185852732Y-85149431D01*
X185646497Y-85053261D01*
X185646488Y-85053258D01*
X185426697Y-84994366D01*
X185426693Y-84994365D01*
X185426692Y-84994365D01*
X185426691Y-84994364D01*
X185426686Y-84994364D01*
X185200002Y-84974532D01*
X185199998Y-84974532D01*
X184973313Y-84994364D01*
X184973302Y-84994366D01*
X184753511Y-85053258D01*
X184753502Y-85053261D01*
X184547267Y-85149431D01*
X184547265Y-85149432D01*
X184360858Y-85279954D01*
X184199954Y-85440858D01*
X184069432Y-85627265D01*
X184069431Y-85627267D01*
X184042382Y-85685275D01*
X183996209Y-85737714D01*
X183929016Y-85756866D01*
X183862135Y-85736650D01*
X183817618Y-85685275D01*
X183802181Y-85652171D01*
X183790568Y-85627266D01*
X183660047Y-85440861D01*
X183660045Y-85440858D01*
X183499141Y-85279954D01*
X183312734Y-85149432D01*
X183312732Y-85149431D01*
X183106497Y-85053261D01*
X183106488Y-85053258D01*
X182886697Y-84994366D01*
X182886693Y-84994365D01*
X182886692Y-84994365D01*
X182886691Y-84994364D01*
X182886686Y-84994364D01*
X182660002Y-84974532D01*
X182659998Y-84974532D01*
X182433313Y-84994364D01*
X182433302Y-84994366D01*
X182213511Y-85053258D01*
X182213502Y-85053261D01*
X182007267Y-85149431D01*
X182007265Y-85149432D01*
X181820858Y-85279954D01*
X181659954Y-85440858D01*
X181529432Y-85627265D01*
X181529431Y-85627267D01*
X181502382Y-85685275D01*
X181456209Y-85737714D01*
X181389016Y-85756866D01*
X181322135Y-85736650D01*
X181277618Y-85685275D01*
X181262181Y-85652171D01*
X181250568Y-85627266D01*
X181120047Y-85440861D01*
X181120045Y-85440858D01*
X180959141Y-85279954D01*
X180772734Y-85149432D01*
X180772732Y-85149431D01*
X180566497Y-85053261D01*
X180566488Y-85053258D01*
X180346697Y-84994366D01*
X180346693Y-84994365D01*
X180346692Y-84994365D01*
X180346691Y-84994364D01*
X180346686Y-84994364D01*
X180120002Y-84974532D01*
X180119998Y-84974532D01*
X179893313Y-84994364D01*
X179893302Y-84994366D01*
X179673511Y-85053258D01*
X179673502Y-85053261D01*
X179467267Y-85149431D01*
X179467265Y-85149432D01*
X179280858Y-85279954D01*
X179119954Y-85440858D01*
X178989432Y-85627265D01*
X178989431Y-85627267D01*
X178962382Y-85685275D01*
X178916209Y-85737714D01*
X178849016Y-85756866D01*
X178782135Y-85736650D01*
X178737618Y-85685275D01*
X178722181Y-85652171D01*
X178710568Y-85627266D01*
X178580047Y-85440861D01*
X178580045Y-85440858D01*
X178419141Y-85279954D01*
X178232734Y-85149432D01*
X178232732Y-85149431D01*
X178026497Y-85053261D01*
X178026488Y-85053258D01*
X177806697Y-84994366D01*
X177806693Y-84994365D01*
X177806692Y-84994365D01*
X177806691Y-84994364D01*
X177806686Y-84994364D01*
X177580002Y-84974532D01*
X177579998Y-84974532D01*
X177353313Y-84994364D01*
X177353302Y-84994366D01*
X177133511Y-85053258D01*
X177133502Y-85053261D01*
X176927267Y-85149431D01*
X176927265Y-85149432D01*
X176740858Y-85279954D01*
X176579954Y-85440858D01*
X176449432Y-85627265D01*
X176449431Y-85627267D01*
X176422382Y-85685275D01*
X176376209Y-85737714D01*
X176309016Y-85756866D01*
X176242135Y-85736650D01*
X176197618Y-85685275D01*
X176182181Y-85652171D01*
X176170568Y-85627266D01*
X176040047Y-85440861D01*
X176040045Y-85440858D01*
X175879141Y-85279954D01*
X175692734Y-85149432D01*
X175692732Y-85149431D01*
X175486497Y-85053261D01*
X175486488Y-85053258D01*
X175266697Y-84994366D01*
X175266693Y-84994365D01*
X175266692Y-84994365D01*
X175266691Y-84994364D01*
X175266686Y-84994364D01*
X175040002Y-84974532D01*
X175039998Y-84974532D01*
X174813313Y-84994364D01*
X174813302Y-84994366D01*
X174593511Y-85053258D01*
X174593502Y-85053261D01*
X174387267Y-85149431D01*
X174387265Y-85149432D01*
X174200858Y-85279954D01*
X174039954Y-85440858D01*
X173909432Y-85627265D01*
X173909431Y-85627267D01*
X173882382Y-85685275D01*
X173836209Y-85737714D01*
X173769016Y-85756866D01*
X173702135Y-85736650D01*
X173657618Y-85685275D01*
X173642181Y-85652171D01*
X173630568Y-85627266D01*
X173500047Y-85440861D01*
X173500045Y-85440858D01*
X173339141Y-85279954D01*
X173152734Y-85149432D01*
X173152732Y-85149431D01*
X172946497Y-85053261D01*
X172946488Y-85053258D01*
X172726697Y-84994366D01*
X172726693Y-84994365D01*
X172726692Y-84994365D01*
X172726691Y-84994364D01*
X172726686Y-84994364D01*
X172500002Y-84974532D01*
X172499998Y-84974532D01*
X172273313Y-84994364D01*
X172273302Y-84994366D01*
X172053511Y-85053258D01*
X172053502Y-85053261D01*
X171847267Y-85149431D01*
X171847265Y-85149432D01*
X171660858Y-85279954D01*
X171499954Y-85440858D01*
X171369432Y-85627265D01*
X171369431Y-85627267D01*
X171273261Y-85833502D01*
X171273258Y-85833511D01*
X171214366Y-86053302D01*
X171214364Y-86053313D01*
X171194532Y-86279998D01*
X149782086Y-86279998D01*
X149775925Y-86257007D01*
X149743012Y-86200000D01*
X150659999Y-86200000D01*
X150659999Y-85650028D01*
X150659998Y-85650013D01*
X150649505Y-85547302D01*
X150594358Y-85380880D01*
X150594356Y-85380875D01*
X150502315Y-85231654D01*
X150378345Y-85107684D01*
X150229124Y-85015643D01*
X150229119Y-85015641D01*
X150062697Y-84960494D01*
X150062690Y-84960493D01*
X149959986Y-84950000D01*
X149560000Y-84950000D01*
X149560000Y-86016988D01*
X149502993Y-85984075D01*
X149375826Y-85950000D01*
X149244174Y-85950000D01*
X149117007Y-85984075D01*
X149060000Y-86016988D01*
X149060000Y-84950000D01*
X148660028Y-84950000D01*
X148660012Y-84950001D01*
X148557302Y-84960494D01*
X148390880Y-85015641D01*
X148390875Y-85015643D01*
X148241654Y-85107684D01*
X148117683Y-85231655D01*
X148117680Y-85231659D01*
X148022183Y-85386484D01*
X147970235Y-85433209D01*
X147901273Y-85444430D01*
X147837191Y-85416587D01*
X147828964Y-85409068D01*
X147689786Y-85269890D01*
X147517820Y-85144951D01*
X147328414Y-85048444D01*
X147328413Y-85048443D01*
X147328412Y-85048443D01*
X147126243Y-84982754D01*
X147126241Y-84982753D01*
X147126240Y-84982753D01*
X146964957Y-84957208D01*
X146916287Y-84949500D01*
X146703713Y-84949500D01*
X146655042Y-84957208D01*
X146493760Y-84982753D01*
X146291585Y-85048444D01*
X146102179Y-85144951D01*
X145930213Y-85269890D01*
X145779890Y-85420213D01*
X145654951Y-85592179D01*
X145558444Y-85781585D01*
X145492753Y-85983760D01*
X145459500Y-86193713D01*
X137803735Y-86193713D01*
X137795063Y-86094592D01*
X137733903Y-85866337D01*
X137634035Y-85652171D01*
X137632535Y-85650028D01*
X137498494Y-85458597D01*
X137331402Y-85291506D01*
X137331396Y-85291501D01*
X137145842Y-85161575D01*
X137102217Y-85106998D01*
X137095023Y-85037500D01*
X137126546Y-84975145D01*
X137145842Y-84958425D01*
X137205121Y-84916917D01*
X137331401Y-84828495D01*
X137498495Y-84661401D01*
X137634035Y-84467830D01*
X137733903Y-84253663D01*
X137795063Y-84025408D01*
X137799036Y-83979996D01*
X158164435Y-83979996D01*
X158164435Y-83980003D01*
X158184630Y-84159249D01*
X158184631Y-84159254D01*
X158244211Y-84329523D01*
X158331116Y-84467830D01*
X158340184Y-84482262D01*
X158467738Y-84609816D01*
X158620478Y-84705789D01*
X158774878Y-84759816D01*
X158790745Y-84765368D01*
X158790750Y-84765369D01*
X158969996Y-84785565D01*
X158970000Y-84785565D01*
X158970004Y-84785565D01*
X159149249Y-84765369D01*
X159149252Y-84765368D01*
X159149255Y-84765368D01*
X159319522Y-84705789D01*
X159472262Y-84609816D01*
X159472267Y-84609810D01*
X159475097Y-84607555D01*
X159477275Y-84606665D01*
X159478158Y-84606111D01*
X159478255Y-84606265D01*
X159539783Y-84581145D01*
X159552412Y-84580500D01*
X175923331Y-84580500D01*
X175923347Y-84580501D01*
X175930943Y-84580501D01*
X176089054Y-84580501D01*
X176089057Y-84580501D01*
X176241785Y-84539577D01*
X176312558Y-84498716D01*
X176378716Y-84460520D01*
X176490520Y-84348716D01*
X176490520Y-84348714D01*
X176500724Y-84338511D01*
X176500728Y-84338506D01*
X176783535Y-84055698D01*
X176844856Y-84022215D01*
X176857311Y-84020163D01*
X176944255Y-84010368D01*
X177114522Y-83950789D01*
X177267262Y-83854816D01*
X177394816Y-83727262D01*
X177490789Y-83574522D01*
X177550368Y-83404255D01*
X177550373Y-83404210D01*
X177570565Y-83225003D01*
X177570565Y-83224996D01*
X177550369Y-83045750D01*
X177550368Y-83045745D01*
X177490789Y-82875478D01*
X177394816Y-82722738D01*
X177267262Y-82595184D01*
X177114523Y-82499211D01*
X176944254Y-82439631D01*
X176944249Y-82439630D01*
X176765004Y-82419435D01*
X176764996Y-82419435D01*
X176585750Y-82439630D01*
X176585745Y-82439631D01*
X176415476Y-82499211D01*
X176262737Y-82595184D01*
X176135184Y-82722737D01*
X176039210Y-82875478D01*
X175979630Y-83045750D01*
X175969837Y-83132668D01*
X175942770Y-83197082D01*
X175934299Y-83206465D01*
X175797582Y-83343182D01*
X175736262Y-83376666D01*
X175709903Y-83379500D01*
X159552412Y-83379500D01*
X159485373Y-83359815D01*
X159475097Y-83352445D01*
X159472263Y-83350185D01*
X159472262Y-83350184D01*
X159404761Y-83307770D01*
X159319523Y-83254211D01*
X159149254Y-83194631D01*
X159149249Y-83194630D01*
X158970004Y-83174435D01*
X158969996Y-83174435D01*
X158790750Y-83194630D01*
X158790745Y-83194631D01*
X158620476Y-83254211D01*
X158467737Y-83350184D01*
X158340184Y-83477737D01*
X158244211Y-83630476D01*
X158184631Y-83800745D01*
X158184630Y-83800750D01*
X158164435Y-83979996D01*
X137799036Y-83979996D01*
X137815659Y-83790000D01*
X137795063Y-83554592D01*
X137733903Y-83326337D01*
X137634035Y-83112171D01*
X137628425Y-83104158D01*
X137498494Y-82918597D01*
X137331402Y-82751506D01*
X137331396Y-82751501D01*
X137145842Y-82621575D01*
X137102217Y-82566998D01*
X137095023Y-82497500D01*
X137126546Y-82435145D01*
X137145842Y-82418425D01*
X137289856Y-82317585D01*
X137331401Y-82288495D01*
X137498495Y-82121401D01*
X137634035Y-81927830D01*
X137733903Y-81713663D01*
X137795063Y-81485408D01*
X137815659Y-81250000D01*
X137796411Y-81029996D01*
X157484435Y-81029996D01*
X157484435Y-81030003D01*
X157504630Y-81209249D01*
X157504631Y-81209254D01*
X157564211Y-81379523D01*
X157646525Y-81510524D01*
X157660184Y-81532262D01*
X157787738Y-81659816D01*
X157873422Y-81713655D01*
X157932765Y-81750943D01*
X157940478Y-81755789D01*
X158110745Y-81815368D01*
X158110750Y-81815369D01*
X158289996Y-81835565D01*
X158290000Y-81835565D01*
X158290004Y-81835565D01*
X158469249Y-81815369D01*
X158469252Y-81815368D01*
X158469255Y-81815368D01*
X158639522Y-81755789D01*
X158792262Y-81659816D01*
X158792267Y-81659810D01*
X158795097Y-81657555D01*
X158797275Y-81656665D01*
X158798158Y-81656111D01*
X158798255Y-81656265D01*
X158859783Y-81631145D01*
X158872412Y-81630500D01*
X171633331Y-81630500D01*
X171633347Y-81630501D01*
X171640943Y-81630501D01*
X171799054Y-81630501D01*
X171799057Y-81630501D01*
X171951785Y-81589577D01*
X172034476Y-81541835D01*
X172088716Y-81510520D01*
X172200520Y-81398716D01*
X172200520Y-81398714D01*
X172210724Y-81388511D01*
X172210728Y-81388506D01*
X173166129Y-80433104D01*
X173227450Y-80399621D01*
X173294071Y-80403506D01*
X173386541Y-80435251D01*
X173386543Y-80435251D01*
X173386545Y-80435252D01*
X173627737Y-80475500D01*
X173627738Y-80475500D01*
X173872262Y-80475500D01*
X173872263Y-80475500D01*
X174113455Y-80435252D01*
X174344733Y-80355855D01*
X174559788Y-80239473D01*
X174752754Y-80089281D01*
X174918368Y-79909377D01*
X175052111Y-79704667D01*
X175150336Y-79480736D01*
X175210364Y-79243692D01*
X175213156Y-79210000D01*
X175230557Y-79000005D01*
X175230557Y-78999994D01*
X184769443Y-78999994D01*
X184769443Y-79000005D01*
X184789634Y-79243683D01*
X184789636Y-79243695D01*
X184849663Y-79480734D01*
X184947888Y-79704666D01*
X185081632Y-79909378D01*
X185247242Y-80089277D01*
X185247252Y-80089286D01*
X185440208Y-80239470D01*
X185440212Y-80239473D01*
X185639728Y-80347446D01*
X185655267Y-80355855D01*
X185655270Y-80355856D01*
X185886541Y-80435251D01*
X185886543Y-80435251D01*
X185886545Y-80435252D01*
X186127737Y-80475500D01*
X186127738Y-80475500D01*
X186372262Y-80475500D01*
X186372263Y-80475500D01*
X186613455Y-80435252D01*
X186844733Y-80355855D01*
X187059788Y-80239473D01*
X187252754Y-80089281D01*
X187418368Y-79909377D01*
X187552111Y-79704667D01*
X187650336Y-79480736D01*
X187710364Y-79243692D01*
X187713156Y-79210000D01*
X187730557Y-79000005D01*
X187730557Y-78999994D01*
X187710365Y-78756316D01*
X187710363Y-78756304D01*
X187662610Y-78567734D01*
X187650336Y-78519264D01*
X187552111Y-78295333D01*
X187536132Y-78270875D01*
X187418367Y-78090621D01*
X187252757Y-77910722D01*
X187252747Y-77910713D01*
X187059791Y-77760529D01*
X187059787Y-77760526D01*
X186844734Y-77644145D01*
X186844729Y-77644143D01*
X186613458Y-77564748D01*
X186432561Y-77534562D01*
X186372263Y-77524500D01*
X186127737Y-77524500D01*
X186079498Y-77532549D01*
X185886541Y-77564748D01*
X185655270Y-77644143D01*
X185655265Y-77644145D01*
X185440212Y-77760526D01*
X185440208Y-77760529D01*
X185247252Y-77910713D01*
X185247242Y-77910722D01*
X185081632Y-78090621D01*
X184947888Y-78295333D01*
X184849663Y-78519265D01*
X184789636Y-78756304D01*
X184789634Y-78756316D01*
X184769443Y-78999994D01*
X175230557Y-78999994D01*
X175210365Y-78756316D01*
X175210363Y-78756304D01*
X175162610Y-78567734D01*
X175150336Y-78519264D01*
X175052111Y-78295333D01*
X175036132Y-78270875D01*
X174918367Y-78090621D01*
X174752757Y-77910722D01*
X174752747Y-77910713D01*
X174559791Y-77760529D01*
X174559787Y-77760526D01*
X174344734Y-77644145D01*
X174344729Y-77644143D01*
X174113458Y-77564748D01*
X173932561Y-77534562D01*
X173872263Y-77524500D01*
X173627737Y-77524500D01*
X173579498Y-77532549D01*
X173386541Y-77564748D01*
X173155270Y-77644143D01*
X173155265Y-77644145D01*
X172940212Y-77760526D01*
X172940208Y-77760529D01*
X172747252Y-77910713D01*
X172747242Y-77910722D01*
X172581632Y-78090621D01*
X172447888Y-78295333D01*
X172349663Y-78519265D01*
X172289636Y-78756304D01*
X172289634Y-78756316D01*
X172269443Y-78999994D01*
X172269443Y-79000005D01*
X172289634Y-79243683D01*
X172289636Y-79243695D01*
X172346586Y-79468581D01*
X172343961Y-79538401D01*
X172314061Y-79586702D01*
X171507584Y-80393181D01*
X171446261Y-80426666D01*
X171419903Y-80429500D01*
X158872412Y-80429500D01*
X158805373Y-80409815D01*
X158795097Y-80402445D01*
X158792263Y-80400185D01*
X158792262Y-80400184D01*
X158721716Y-80355857D01*
X158639523Y-80304211D01*
X158469254Y-80244631D01*
X158469249Y-80244630D01*
X158290004Y-80224435D01*
X158289996Y-80224435D01*
X158110750Y-80244630D01*
X158110745Y-80244631D01*
X157940476Y-80304211D01*
X157787737Y-80400184D01*
X157660184Y-80527737D01*
X157564211Y-80680476D01*
X157504631Y-80850745D01*
X157504630Y-80850750D01*
X157484435Y-81029996D01*
X137796411Y-81029996D01*
X137795063Y-81014592D01*
X137745470Y-80829505D01*
X137733905Y-80786344D01*
X137733904Y-80786343D01*
X137733903Y-80786337D01*
X137634035Y-80572171D01*
X137628425Y-80564158D01*
X137498494Y-80378597D01*
X137331398Y-80211501D01*
X137330030Y-80210354D01*
X137329592Y-80209696D01*
X137327573Y-80207677D01*
X137327978Y-80207271D01*
X137291330Y-80152182D01*
X137290224Y-80082321D01*
X137327063Y-80022952D01*
X137370737Y-79997662D01*
X137379334Y-79994814D01*
X137528656Y-79902712D01*
X137652712Y-79778656D01*
X137744814Y-79629334D01*
X137799999Y-79462797D01*
X137810500Y-79360009D01*
X137810499Y-78059992D01*
X137799999Y-77957203D01*
X137744814Y-77790666D01*
X137652712Y-77641344D01*
X137528656Y-77517288D01*
X137379334Y-77425186D01*
X137212797Y-77370001D01*
X137212795Y-77370000D01*
X137110010Y-77359500D01*
X135809998Y-77359500D01*
X135809981Y-77359501D01*
X135707203Y-77370000D01*
X135707200Y-77370001D01*
X135540668Y-77425185D01*
X135540663Y-77425187D01*
X135391342Y-77517289D01*
X135267289Y-77641342D01*
X135175187Y-77790663D01*
X135175182Y-77790674D01*
X135151205Y-77863032D01*
X135111432Y-77920477D01*
X135046916Y-77947299D01*
X135036138Y-77947412D01*
X134402962Y-78580589D01*
X134385925Y-78517007D01*
X134320099Y-78402993D01*
X134227007Y-78309901D01*
X134112993Y-78244075D01*
X134049410Y-78227037D01*
X134681373Y-77595073D01*
X134681373Y-77595072D01*
X134597583Y-77536402D01*
X134597579Y-77536400D01*
X134383492Y-77436570D01*
X134383483Y-77436566D01*
X134155326Y-77375432D01*
X134155315Y-77375430D01*
X133920002Y-77354843D01*
X133919998Y-77354843D01*
X133684684Y-77375430D01*
X133684673Y-77375432D01*
X133456516Y-77436566D01*
X133456507Y-77436570D01*
X133242419Y-77536401D01*
X133158625Y-77595072D01*
X133790590Y-78227037D01*
X133727007Y-78244075D01*
X133612993Y-78309901D01*
X133519901Y-78402993D01*
X133454075Y-78517007D01*
X133437037Y-78580590D01*
X132805072Y-77948625D01*
X132746401Y-78032419D01*
X132646570Y-78246507D01*
X132646566Y-78246516D01*
X132585432Y-78474673D01*
X132585430Y-78474684D01*
X132564843Y-78709998D01*
X132564843Y-78710001D01*
X132585430Y-78945315D01*
X132585432Y-78945326D01*
X132646566Y-79173483D01*
X132646570Y-79173492D01*
X132746400Y-79387579D01*
X132746402Y-79387583D01*
X132805072Y-79471373D01*
X132805073Y-79471373D01*
X133437037Y-78839409D01*
X133454075Y-78902993D01*
X133519901Y-79017007D01*
X133612993Y-79110099D01*
X133727007Y-79175925D01*
X133790590Y-79192962D01*
X133158625Y-79824925D01*
X133234594Y-79878119D01*
X133278219Y-79932696D01*
X133285413Y-80002194D01*
X133253890Y-80064549D01*
X133234595Y-80081269D01*
X133048594Y-80211508D01*
X132881505Y-80378597D01*
X132745965Y-80572169D01*
X132745964Y-80572171D01*
X132646098Y-80786335D01*
X132646094Y-80786344D01*
X132584938Y-81014586D01*
X132584936Y-81014596D01*
X132564341Y-81249999D01*
X126045069Y-81249999D01*
X126030309Y-74184996D01*
X140129435Y-74184996D01*
X140129435Y-74185003D01*
X140149630Y-74364249D01*
X140149631Y-74364254D01*
X140209211Y-74534523D01*
X140260243Y-74615739D01*
X140305184Y-74687262D01*
X140432738Y-74814816D01*
X140523080Y-74871582D01*
X140583230Y-74909377D01*
X140585478Y-74910789D01*
X140624282Y-74924367D01*
X140636454Y-74928626D01*
X140693230Y-74969348D01*
X140718978Y-75034300D01*
X140719500Y-75045668D01*
X140719500Y-78487587D01*
X140699815Y-78554626D01*
X140692450Y-78564896D01*
X140690186Y-78567734D01*
X140594211Y-78720476D01*
X140534631Y-78890745D01*
X140534630Y-78890750D01*
X140514435Y-79069996D01*
X140514435Y-79070003D01*
X140534630Y-79249249D01*
X140534631Y-79249254D01*
X140594211Y-79419523D01*
X140690184Y-79572262D01*
X140817738Y-79699816D01*
X140881848Y-79740099D01*
X140943212Y-79778657D01*
X140970478Y-79795789D01*
X141053744Y-79824925D01*
X141140745Y-79855368D01*
X141140750Y-79855369D01*
X141319996Y-79875565D01*
X141320000Y-79875565D01*
X141320004Y-79875565D01*
X141499249Y-79855369D01*
X141499252Y-79855368D01*
X141499255Y-79855368D01*
X141669522Y-79795789D01*
X141822262Y-79699816D01*
X141949816Y-79572262D01*
X142045789Y-79419522D01*
X142105368Y-79249255D01*
X142105369Y-79249249D01*
X142124020Y-79083713D01*
X145509500Y-79083713D01*
X145509500Y-79596287D01*
X145517533Y-79647007D01*
X145542703Y-79805925D01*
X145542754Y-79806243D01*
X145604949Y-79997660D01*
X145608444Y-80008414D01*
X145704951Y-80197820D01*
X145829890Y-80369786D01*
X145980213Y-80520109D01*
X146152179Y-80645048D01*
X146152181Y-80645049D01*
X146152184Y-80645051D01*
X146341588Y-80741557D01*
X146543757Y-80807246D01*
X146753713Y-80840500D01*
X146753714Y-80840500D01*
X146966286Y-80840500D01*
X146966287Y-80840500D01*
X147176243Y-80807246D01*
X147378412Y-80741557D01*
X147567816Y-80645051D01*
X147652598Y-80583454D01*
X147739784Y-80520110D01*
X147739784Y-80520109D01*
X147739792Y-80520104D01*
X147878967Y-80380928D01*
X147940286Y-80347446D01*
X148009978Y-80352430D01*
X148065912Y-80394301D01*
X148072184Y-80403515D01*
X148167684Y-80558345D01*
X148291654Y-80682315D01*
X148440875Y-80774356D01*
X148440880Y-80774358D01*
X148607302Y-80829505D01*
X148607309Y-80829506D01*
X148710019Y-80839999D01*
X149109999Y-80839999D01*
X149110000Y-80839998D01*
X149110000Y-79773012D01*
X149167007Y-79805925D01*
X149294174Y-79840000D01*
X149425826Y-79840000D01*
X149552993Y-79805925D01*
X149610000Y-79773012D01*
X149610000Y-80839999D01*
X150009972Y-80839999D01*
X150009986Y-80839998D01*
X150112697Y-80829505D01*
X150279119Y-80774358D01*
X150279124Y-80774356D01*
X150428345Y-80682315D01*
X150552315Y-80558345D01*
X150644356Y-80409124D01*
X150644358Y-80409119D01*
X150699505Y-80242697D01*
X150699506Y-80242690D01*
X150709999Y-80139986D01*
X150710000Y-80139973D01*
X150710000Y-79590000D01*
X149793012Y-79590000D01*
X149825925Y-79532993D01*
X149860000Y-79405826D01*
X149860000Y-79274174D01*
X149825925Y-79147007D01*
X149793012Y-79090000D01*
X150709999Y-79090000D01*
X150709999Y-78540028D01*
X150709998Y-78540013D01*
X150699505Y-78437302D01*
X150644358Y-78270880D01*
X150644356Y-78270875D01*
X150552315Y-78121654D01*
X150428345Y-77997684D01*
X150279124Y-77905643D01*
X150279119Y-77905641D01*
X150112697Y-77850494D01*
X150112690Y-77850493D01*
X150009986Y-77840000D01*
X149610000Y-77840000D01*
X149610000Y-78906988D01*
X149552993Y-78874075D01*
X149425826Y-78840000D01*
X149294174Y-78840000D01*
X149167007Y-78874075D01*
X149110000Y-78906988D01*
X149110000Y-77840000D01*
X148710028Y-77840000D01*
X148710012Y-77840001D01*
X148607302Y-77850494D01*
X148440880Y-77905641D01*
X148440875Y-77905643D01*
X148291654Y-77997684D01*
X148167683Y-78121655D01*
X148167680Y-78121659D01*
X148072183Y-78276484D01*
X148020235Y-78323209D01*
X147951273Y-78334430D01*
X147887191Y-78306587D01*
X147878964Y-78299068D01*
X147739786Y-78159890D01*
X147567820Y-78034951D01*
X147378414Y-77938444D01*
X147378413Y-77938443D01*
X147378412Y-77938443D01*
X147176243Y-77872754D01*
X147176241Y-77872753D01*
X147176240Y-77872753D01*
X147014957Y-77847208D01*
X146966287Y-77839500D01*
X146753713Y-77839500D01*
X146705042Y-77847208D01*
X146543760Y-77872753D01*
X146341585Y-77938444D01*
X146152179Y-78034951D01*
X145980213Y-78159890D01*
X145829890Y-78310213D01*
X145704951Y-78482179D01*
X145608444Y-78671585D01*
X145542753Y-78873760D01*
X145522760Y-78999994D01*
X145509500Y-79083713D01*
X142124020Y-79083713D01*
X142125565Y-79070003D01*
X142125565Y-79069996D01*
X142105369Y-78890750D01*
X142105368Y-78890745D01*
X142099424Y-78873757D01*
X142045789Y-78720478D01*
X141949816Y-78567738D01*
X141949814Y-78567736D01*
X141949813Y-78567734D01*
X141947550Y-78564896D01*
X141946659Y-78562715D01*
X141946111Y-78561842D01*
X141946264Y-78561745D01*
X141921144Y-78500209D01*
X141920500Y-78487587D01*
X141920500Y-74490946D01*
X141920500Y-74490943D01*
X141900630Y-74416785D01*
X141879577Y-74338215D01*
X141850639Y-74288095D01*
X141800520Y-74201284D01*
X141765700Y-74166464D01*
X141732215Y-74105141D01*
X141730163Y-74092684D01*
X141720368Y-74005745D01*
X141660789Y-73835478D01*
X141564816Y-73682738D01*
X141437262Y-73555184D01*
X141284523Y-73459211D01*
X141114254Y-73399631D01*
X141114249Y-73399630D01*
X140935004Y-73379435D01*
X140934996Y-73379435D01*
X140755750Y-73399630D01*
X140755745Y-73399631D01*
X140585476Y-73459211D01*
X140432737Y-73555184D01*
X140305184Y-73682737D01*
X140209211Y-73835476D01*
X140149631Y-74005745D01*
X140149630Y-74005750D01*
X140129435Y-74184996D01*
X126030309Y-74184996D01*
X126028042Y-73099998D01*
X142294390Y-73099998D01*
X142294390Y-73100001D01*
X142314804Y-73385433D01*
X142375628Y-73665037D01*
X142375630Y-73665043D01*
X142375631Y-73665046D01*
X142448081Y-73859292D01*
X142475635Y-73933166D01*
X142612770Y-74184309D01*
X142612775Y-74184317D01*
X142784254Y-74413387D01*
X142784270Y-74413405D01*
X142986594Y-74615729D01*
X142986612Y-74615745D01*
X143215682Y-74787224D01*
X143215690Y-74787229D01*
X143466833Y-74924364D01*
X143466832Y-74924364D01*
X143466836Y-74924365D01*
X143466839Y-74924367D01*
X143734954Y-75024369D01*
X143734960Y-75024370D01*
X143734962Y-75024371D01*
X144014566Y-75085195D01*
X144014568Y-75085195D01*
X144014572Y-75085196D01*
X144268220Y-75103337D01*
X144299999Y-75105610D01*
X144300000Y-75105610D01*
X144300001Y-75105610D01*
X144328595Y-75103564D01*
X144585428Y-75085196D01*
X144865046Y-75024369D01*
X145133161Y-74924367D01*
X145384315Y-74787226D01*
X145613395Y-74615739D01*
X145815739Y-74413395D01*
X145987226Y-74184315D01*
X146124367Y-73933161D01*
X146224369Y-73665046D01*
X146268674Y-73461379D01*
X146285195Y-73385433D01*
X146285195Y-73385432D01*
X146285196Y-73385428D01*
X146305610Y-73100000D01*
X146285196Y-72814572D01*
X146273439Y-72760527D01*
X146224371Y-72534962D01*
X146224370Y-72534960D01*
X146224369Y-72534954D01*
X146124367Y-72266839D01*
X146069610Y-72166560D01*
X145987229Y-72015690D01*
X145987224Y-72015682D01*
X145824386Y-71798155D01*
X150236000Y-71798155D01*
X150236000Y-72350000D01*
X151056988Y-72350000D01*
X151024075Y-72407007D01*
X150990000Y-72534174D01*
X150990000Y-72665826D01*
X151024075Y-72792993D01*
X151056988Y-72850000D01*
X150236000Y-72850000D01*
X150236000Y-73401844D01*
X150242401Y-73461372D01*
X150242403Y-73461379D01*
X150292645Y-73596086D01*
X150292649Y-73596093D01*
X150378809Y-73711187D01*
X150378812Y-73711190D01*
X150493906Y-73797350D01*
X150493913Y-73797354D01*
X150628620Y-73847596D01*
X150628627Y-73847598D01*
X150688155Y-73853999D01*
X150688172Y-73854000D01*
X151240000Y-73854000D01*
X151240000Y-73033012D01*
X151297007Y-73065925D01*
X151424174Y-73100000D01*
X151555826Y-73100000D01*
X151682993Y-73065925D01*
X151740000Y-73033012D01*
X151740000Y-73854000D01*
X152291828Y-73854000D01*
X152291844Y-73853999D01*
X152351372Y-73847598D01*
X152351379Y-73847596D01*
X152486086Y-73797354D01*
X152486093Y-73797350D01*
X152601187Y-73711190D01*
X152601190Y-73711187D01*
X152687350Y-73596093D01*
X152687354Y-73596086D01*
X152737596Y-73461379D01*
X152737598Y-73461372D01*
X152743999Y-73401844D01*
X152744000Y-73401827D01*
X152744000Y-73343833D01*
X152763685Y-73276794D01*
X152816489Y-73231039D01*
X152885647Y-73221095D01*
X152949203Y-73250120D01*
X152969573Y-73272708D01*
X152985416Y-73295333D01*
X153065322Y-73409452D01*
X153065327Y-73409458D01*
X153220541Y-73564672D01*
X153220547Y-73564677D01*
X153400349Y-73690576D01*
X153400351Y-73690577D01*
X153400354Y-73690579D01*
X153599297Y-73783347D01*
X153811326Y-73840161D01*
X153967521Y-73853826D01*
X154029998Y-73859292D01*
X154030000Y-73859292D01*
X154030002Y-73859292D01*
X154090501Y-73853999D01*
X154248674Y-73840161D01*
X154460703Y-73783347D01*
X154659646Y-73690579D01*
X154839457Y-73564674D01*
X154994674Y-73409457D01*
X155120579Y-73229646D01*
X155187618Y-73085878D01*
X155233790Y-73033439D01*
X155300983Y-73014287D01*
X155367864Y-73034502D01*
X155412381Y-73085878D01*
X155418967Y-73100001D01*
X155479419Y-73229642D01*
X155479423Y-73229650D01*
X155605322Y-73409452D01*
X155605327Y-73409458D01*
X155760541Y-73564672D01*
X155760547Y-73564677D01*
X155940349Y-73690576D01*
X155940351Y-73690577D01*
X155940354Y-73690579D01*
X156139297Y-73783347D01*
X156351326Y-73840161D01*
X156507521Y-73853826D01*
X156569998Y-73859292D01*
X156570000Y-73859292D01*
X156570002Y-73859292D01*
X156630501Y-73853999D01*
X156788674Y-73840161D01*
X157000703Y-73783347D01*
X157199646Y-73690579D01*
X157379457Y-73564674D01*
X157534674Y-73409457D01*
X157660579Y-73229646D01*
X157727618Y-73085878D01*
X157773790Y-73033439D01*
X157840983Y-73014287D01*
X157907864Y-73034502D01*
X157952381Y-73085878D01*
X157958967Y-73100001D01*
X158019419Y-73229642D01*
X158019423Y-73229650D01*
X158145322Y-73409452D01*
X158145327Y-73409458D01*
X158300541Y-73564672D01*
X158300547Y-73564677D01*
X158480349Y-73690576D01*
X158480351Y-73690577D01*
X158480354Y-73690579D01*
X158679297Y-73783347D01*
X158891326Y-73840161D01*
X159047521Y-73853826D01*
X159109998Y-73859292D01*
X159110000Y-73859292D01*
X159110002Y-73859292D01*
X159170501Y-73853999D01*
X159328674Y-73840161D01*
X159540703Y-73783347D01*
X159739646Y-73690579D01*
X159919457Y-73564674D01*
X160074674Y-73409457D01*
X160200579Y-73229646D01*
X160261034Y-73099998D01*
X164294390Y-73099998D01*
X164294390Y-73100001D01*
X164314804Y-73385433D01*
X164375628Y-73665037D01*
X164375630Y-73665043D01*
X164375631Y-73665046D01*
X164448081Y-73859292D01*
X164475635Y-73933166D01*
X164612770Y-74184309D01*
X164612775Y-74184317D01*
X164784254Y-74413387D01*
X164784270Y-74413405D01*
X164986594Y-74615729D01*
X164986612Y-74615745D01*
X165215682Y-74787224D01*
X165215690Y-74787229D01*
X165466833Y-74924364D01*
X165466832Y-74924364D01*
X165466836Y-74924365D01*
X165466839Y-74924367D01*
X165734954Y-75024369D01*
X165734960Y-75024370D01*
X165734962Y-75024371D01*
X166014566Y-75085195D01*
X166014568Y-75085195D01*
X166014572Y-75085196D01*
X166268220Y-75103337D01*
X166299999Y-75105610D01*
X166300000Y-75105610D01*
X166300001Y-75105610D01*
X166328595Y-75103564D01*
X166585428Y-75085196D01*
X166865046Y-75024369D01*
X167133161Y-74924367D01*
X167384315Y-74787226D01*
X167613395Y-74615739D01*
X167815739Y-74413395D01*
X167987226Y-74184315D01*
X168124367Y-73933161D01*
X168224369Y-73665046D01*
X168268674Y-73461379D01*
X168285195Y-73385433D01*
X168285195Y-73385432D01*
X168285196Y-73385428D01*
X168305610Y-73100000D01*
X168296824Y-72977155D01*
X172275000Y-72977155D01*
X172275000Y-73750000D01*
X173149999Y-73750000D01*
X173124979Y-73810402D01*
X173100000Y-73935981D01*
X173100000Y-74064019D01*
X173124979Y-74189598D01*
X173149999Y-74250000D01*
X172275000Y-74250000D01*
X172275000Y-75022844D01*
X172281401Y-75082372D01*
X172281403Y-75082379D01*
X172331645Y-75217086D01*
X172331649Y-75217093D01*
X172417809Y-75332187D01*
X172417812Y-75332190D01*
X172532906Y-75418350D01*
X172532913Y-75418354D01*
X172667620Y-75468596D01*
X172667627Y-75468598D01*
X172727155Y-75474999D01*
X172727172Y-75475000D01*
X173500000Y-75475000D01*
X173500000Y-74600001D01*
X173560402Y-74625021D01*
X173685981Y-74650000D01*
X173814019Y-74650000D01*
X173939598Y-74625021D01*
X174000000Y-74600001D01*
X174000000Y-75475000D01*
X174772828Y-75475000D01*
X174772844Y-75474999D01*
X174832372Y-75468598D01*
X174832379Y-75468596D01*
X174967086Y-75418354D01*
X174967093Y-75418350D01*
X175082187Y-75332190D01*
X175082190Y-75332187D01*
X175168350Y-75217093D01*
X175168354Y-75217086D01*
X175218596Y-75082379D01*
X175218598Y-75082372D01*
X175224999Y-75022844D01*
X175225000Y-75022827D01*
X175225000Y-74250000D01*
X174350001Y-74250000D01*
X174375021Y-74189598D01*
X174400000Y-74064019D01*
X174400000Y-73999994D01*
X184769443Y-73999994D01*
X184769443Y-74000005D01*
X184789634Y-74243683D01*
X184789636Y-74243695D01*
X184849663Y-74480734D01*
X184947888Y-74704666D01*
X185081632Y-74909378D01*
X185243485Y-75085196D01*
X185247246Y-75089281D01*
X185440212Y-75239473D01*
X185655267Y-75355855D01*
X185655270Y-75355856D01*
X185886541Y-75435251D01*
X185886543Y-75435251D01*
X185886545Y-75435252D01*
X186127737Y-75475500D01*
X186127738Y-75475500D01*
X186372262Y-75475500D01*
X186372263Y-75475500D01*
X186613455Y-75435252D01*
X186844733Y-75355855D01*
X187059788Y-75239473D01*
X187252754Y-75089281D01*
X187418368Y-74909377D01*
X187552111Y-74704667D01*
X187650336Y-74480736D01*
X187710364Y-74243692D01*
X187713878Y-74201284D01*
X187730557Y-74000005D01*
X187730557Y-73999994D01*
X187710365Y-73756316D01*
X187710363Y-73756304D01*
X187707444Y-73744778D01*
X187650336Y-73519264D01*
X187552111Y-73295333D01*
X187424495Y-73100001D01*
X187418367Y-73090621D01*
X187313913Y-72977155D01*
X193375000Y-72977155D01*
X193375000Y-73750000D01*
X194249999Y-73750000D01*
X194224979Y-73810402D01*
X194200000Y-73935981D01*
X194200000Y-74064019D01*
X194224979Y-74189598D01*
X194249999Y-74250000D01*
X193375000Y-74250000D01*
X193375000Y-75022844D01*
X193381401Y-75082372D01*
X193381403Y-75082379D01*
X193431645Y-75217086D01*
X193431649Y-75217093D01*
X193517809Y-75332187D01*
X193517812Y-75332190D01*
X193632906Y-75418350D01*
X193632913Y-75418354D01*
X193767620Y-75468596D01*
X193767627Y-75468598D01*
X193827155Y-75474999D01*
X193827172Y-75475000D01*
X194600000Y-75475000D01*
X194600000Y-74600001D01*
X194660402Y-74625021D01*
X194785981Y-74650000D01*
X194914019Y-74650000D01*
X195039598Y-74625021D01*
X195100000Y-74600001D01*
X195100000Y-75475000D01*
X195872828Y-75475000D01*
X195872844Y-75474999D01*
X195932372Y-75468598D01*
X195932379Y-75468596D01*
X196067086Y-75418354D01*
X196067093Y-75418350D01*
X196182187Y-75332190D01*
X196182190Y-75332187D01*
X196268350Y-75217093D01*
X196268354Y-75217086D01*
X196318596Y-75082379D01*
X196318598Y-75082372D01*
X196324999Y-75022844D01*
X196325000Y-75022827D01*
X196325000Y-74250000D01*
X195450001Y-74250000D01*
X195475021Y-74189598D01*
X195500000Y-74064019D01*
X195500000Y-73999994D01*
X205869443Y-73999994D01*
X205869443Y-74000005D01*
X205889634Y-74243683D01*
X205889636Y-74243695D01*
X205949663Y-74480734D01*
X206047888Y-74704666D01*
X206181632Y-74909378D01*
X206343485Y-75085196D01*
X206347246Y-75089281D01*
X206540212Y-75239473D01*
X206755267Y-75355855D01*
X206755270Y-75355856D01*
X206986541Y-75435251D01*
X206986543Y-75435251D01*
X206986545Y-75435252D01*
X207227737Y-75475500D01*
X207227738Y-75475500D01*
X207472262Y-75475500D01*
X207472263Y-75475500D01*
X207713455Y-75435252D01*
X207944733Y-75355855D01*
X208159788Y-75239473D01*
X208352754Y-75089281D01*
X208518368Y-74909377D01*
X208652111Y-74704667D01*
X208750336Y-74480736D01*
X208810364Y-74243692D01*
X208813878Y-74201284D01*
X208830557Y-74000005D01*
X208830557Y-73999994D01*
X208810365Y-73756316D01*
X208810363Y-73756304D01*
X208807444Y-73744778D01*
X208750336Y-73519264D01*
X208652111Y-73295333D01*
X208524495Y-73100001D01*
X208518367Y-73090621D01*
X208413913Y-72977155D01*
X214475000Y-72977155D01*
X214475000Y-73750000D01*
X215349999Y-73750000D01*
X215324979Y-73810402D01*
X215300000Y-73935981D01*
X215300000Y-74064019D01*
X215324979Y-74189598D01*
X215349999Y-74250000D01*
X214475000Y-74250000D01*
X214475000Y-75022844D01*
X214481401Y-75082372D01*
X214481403Y-75082379D01*
X214531645Y-75217086D01*
X214531649Y-75217093D01*
X214617809Y-75332187D01*
X214617812Y-75332190D01*
X214732906Y-75418350D01*
X214732913Y-75418354D01*
X214867620Y-75468596D01*
X214867627Y-75468598D01*
X214927155Y-75474999D01*
X214927172Y-75475000D01*
X215700000Y-75475000D01*
X215700000Y-74600001D01*
X215760402Y-74625021D01*
X215885981Y-74650000D01*
X216014019Y-74650000D01*
X216139598Y-74625021D01*
X216200000Y-74600001D01*
X216200000Y-75475000D01*
X216972828Y-75475000D01*
X216972844Y-75474999D01*
X217032372Y-75468598D01*
X217032379Y-75468596D01*
X217167086Y-75418354D01*
X217167093Y-75418350D01*
X217282187Y-75332190D01*
X217282190Y-75332187D01*
X217368350Y-75217093D01*
X217368354Y-75217086D01*
X217418596Y-75082379D01*
X217418598Y-75082372D01*
X217424999Y-75022844D01*
X217425000Y-75022827D01*
X217425000Y-74250000D01*
X216550001Y-74250000D01*
X216575021Y-74189598D01*
X216600000Y-74064019D01*
X216600000Y-73999994D01*
X226969443Y-73999994D01*
X226969443Y-74000005D01*
X226989634Y-74243683D01*
X226989636Y-74243695D01*
X227049663Y-74480734D01*
X227147888Y-74704666D01*
X227281632Y-74909378D01*
X227443485Y-75085196D01*
X227447246Y-75089281D01*
X227640212Y-75239473D01*
X227855267Y-75355855D01*
X227855270Y-75355856D01*
X228086541Y-75435251D01*
X228086543Y-75435251D01*
X228086545Y-75435252D01*
X228327737Y-75475500D01*
X228327738Y-75475500D01*
X228572262Y-75475500D01*
X228572263Y-75475500D01*
X228813455Y-75435252D01*
X229044733Y-75355855D01*
X229259788Y-75239473D01*
X229452754Y-75089281D01*
X229618368Y-74909377D01*
X229752111Y-74704667D01*
X229850336Y-74480736D01*
X229910364Y-74243692D01*
X229913878Y-74201284D01*
X229930557Y-74000005D01*
X229930557Y-73999994D01*
X229910365Y-73756316D01*
X229910363Y-73756304D01*
X229907444Y-73744778D01*
X229850336Y-73519264D01*
X229752111Y-73295333D01*
X229624495Y-73100001D01*
X229618367Y-73090621D01*
X229452757Y-72910722D01*
X229452747Y-72910713D01*
X229259791Y-72760529D01*
X229259787Y-72760526D01*
X229044734Y-72644145D01*
X229044729Y-72644143D01*
X228813458Y-72564748D01*
X228613618Y-72531401D01*
X228572263Y-72524500D01*
X228327737Y-72524500D01*
X228286382Y-72531401D01*
X228086541Y-72564748D01*
X227855270Y-72644143D01*
X227855265Y-72644145D01*
X227640212Y-72760526D01*
X227640208Y-72760529D01*
X227447252Y-72910713D01*
X227447242Y-72910722D01*
X227281632Y-73090621D01*
X227147888Y-73295333D01*
X227049663Y-73519265D01*
X226989636Y-73756304D01*
X226989634Y-73756316D01*
X226969443Y-73999994D01*
X216600000Y-73999994D01*
X216600000Y-73935981D01*
X216575021Y-73810402D01*
X216550001Y-73750000D01*
X217425000Y-73750000D01*
X217425000Y-72977172D01*
X217424999Y-72977155D01*
X217418598Y-72917627D01*
X217418596Y-72917620D01*
X217368354Y-72782913D01*
X217368350Y-72782906D01*
X217282190Y-72667812D01*
X217282187Y-72667809D01*
X217167093Y-72581649D01*
X217167086Y-72581645D01*
X217032379Y-72531403D01*
X217032372Y-72531401D01*
X216972844Y-72525000D01*
X216200000Y-72525000D01*
X216200000Y-73399998D01*
X216139598Y-73374979D01*
X216014019Y-73350000D01*
X215885981Y-73350000D01*
X215760402Y-73374979D01*
X215700000Y-73399998D01*
X215700000Y-72525000D01*
X214927155Y-72525000D01*
X214867627Y-72531401D01*
X214867620Y-72531403D01*
X214732913Y-72581645D01*
X214732906Y-72581649D01*
X214617812Y-72667809D01*
X214617809Y-72667812D01*
X214531649Y-72782906D01*
X214531645Y-72782913D01*
X214481403Y-72917620D01*
X214481401Y-72917627D01*
X214475000Y-72977155D01*
X208413913Y-72977155D01*
X208352757Y-72910722D01*
X208352747Y-72910713D01*
X208159791Y-72760529D01*
X208159787Y-72760526D01*
X207944734Y-72644145D01*
X207944729Y-72644143D01*
X207713458Y-72564748D01*
X207513618Y-72531401D01*
X207472263Y-72524500D01*
X207227737Y-72524500D01*
X207186382Y-72531401D01*
X206986541Y-72564748D01*
X206755270Y-72644143D01*
X206755265Y-72644145D01*
X206540212Y-72760526D01*
X206540208Y-72760529D01*
X206347252Y-72910713D01*
X206347242Y-72910722D01*
X206181632Y-73090621D01*
X206047888Y-73295333D01*
X205949663Y-73519265D01*
X205889636Y-73756304D01*
X205889634Y-73756316D01*
X205869443Y-73999994D01*
X195500000Y-73999994D01*
X195500000Y-73935981D01*
X195475021Y-73810402D01*
X195450001Y-73750000D01*
X196325000Y-73750000D01*
X196325000Y-72977172D01*
X196324999Y-72977155D01*
X196318598Y-72917627D01*
X196318596Y-72917620D01*
X196268354Y-72782913D01*
X196268350Y-72782906D01*
X196182190Y-72667812D01*
X196182187Y-72667809D01*
X196067093Y-72581649D01*
X196067086Y-72581645D01*
X195932379Y-72531403D01*
X195932372Y-72531401D01*
X195872844Y-72525000D01*
X195100000Y-72525000D01*
X195100000Y-73399998D01*
X195039598Y-73374979D01*
X194914019Y-73350000D01*
X194785981Y-73350000D01*
X194660402Y-73374979D01*
X194600000Y-73399998D01*
X194600000Y-72525000D01*
X193827155Y-72525000D01*
X193767627Y-72531401D01*
X193767620Y-72531403D01*
X193632913Y-72581645D01*
X193632906Y-72581649D01*
X193517812Y-72667809D01*
X193517809Y-72667812D01*
X193431649Y-72782906D01*
X193431645Y-72782913D01*
X193381403Y-72917620D01*
X193381401Y-72917627D01*
X193375000Y-72977155D01*
X187313913Y-72977155D01*
X187252757Y-72910722D01*
X187252747Y-72910713D01*
X187059791Y-72760529D01*
X187059787Y-72760526D01*
X186844734Y-72644145D01*
X186844729Y-72644143D01*
X186613458Y-72564748D01*
X186413618Y-72531401D01*
X186372263Y-72524500D01*
X186127737Y-72524500D01*
X186086382Y-72531401D01*
X185886541Y-72564748D01*
X185655270Y-72644143D01*
X185655265Y-72644145D01*
X185440212Y-72760526D01*
X185440208Y-72760529D01*
X185247252Y-72910713D01*
X185247242Y-72910722D01*
X185081632Y-73090621D01*
X184947888Y-73295333D01*
X184849663Y-73519265D01*
X184789636Y-73756304D01*
X184789634Y-73756316D01*
X184769443Y-73999994D01*
X174400000Y-73999994D01*
X174400000Y-73935981D01*
X174375021Y-73810402D01*
X174350001Y-73750000D01*
X175225000Y-73750000D01*
X175225000Y-72977172D01*
X175224999Y-72977155D01*
X175218598Y-72917627D01*
X175218596Y-72917620D01*
X175168354Y-72782913D01*
X175168350Y-72782906D01*
X175082190Y-72667812D01*
X175082187Y-72667809D01*
X174967093Y-72581649D01*
X174967086Y-72581645D01*
X174832379Y-72531403D01*
X174832372Y-72531401D01*
X174772844Y-72525000D01*
X174000000Y-72525000D01*
X174000000Y-73399998D01*
X173939598Y-73374979D01*
X173814019Y-73350000D01*
X173685981Y-73350000D01*
X173560402Y-73374979D01*
X173500000Y-73399998D01*
X173500000Y-72525000D01*
X172727155Y-72525000D01*
X172667627Y-72531401D01*
X172667620Y-72531403D01*
X172532913Y-72581645D01*
X172532906Y-72581649D01*
X172417812Y-72667809D01*
X172417809Y-72667812D01*
X172331649Y-72782906D01*
X172331645Y-72782913D01*
X172281403Y-72917620D01*
X172281401Y-72917627D01*
X172275000Y-72977155D01*
X168296824Y-72977155D01*
X168285196Y-72814572D01*
X168273439Y-72760527D01*
X168224371Y-72534962D01*
X168224370Y-72534960D01*
X168224369Y-72534954D01*
X168124367Y-72266839D01*
X168069610Y-72166560D01*
X167987229Y-72015690D01*
X167987224Y-72015682D01*
X167815745Y-71786612D01*
X167815729Y-71786594D01*
X167613405Y-71584270D01*
X167613387Y-71584254D01*
X167384317Y-71412775D01*
X167384309Y-71412770D01*
X167133166Y-71275635D01*
X167133167Y-71275635D01*
X167011093Y-71230104D01*
X166865046Y-71175631D01*
X166865043Y-71175630D01*
X166865037Y-71175628D01*
X166585433Y-71114804D01*
X166300001Y-71094390D01*
X166299999Y-71094390D01*
X166014566Y-71114804D01*
X165734962Y-71175628D01*
X165466833Y-71275635D01*
X165215690Y-71412770D01*
X165215682Y-71412775D01*
X164986612Y-71584254D01*
X164986594Y-71584270D01*
X164784270Y-71786594D01*
X164784254Y-71786612D01*
X164612775Y-72015682D01*
X164612770Y-72015690D01*
X164475635Y-72266833D01*
X164375628Y-72534962D01*
X164314804Y-72814566D01*
X164294390Y-73099998D01*
X160261034Y-73099998D01*
X160293347Y-73030703D01*
X160350161Y-72818674D01*
X160369292Y-72600000D01*
X160350161Y-72381326D01*
X160293347Y-72169297D01*
X160200579Y-71970354D01*
X160200577Y-71970351D01*
X160200576Y-71970349D01*
X160074677Y-71790547D01*
X160074672Y-71790541D01*
X159919458Y-71635327D01*
X159919452Y-71635322D01*
X159739650Y-71509423D01*
X159739642Y-71509419D01*
X159540708Y-71416655D01*
X159540706Y-71416654D01*
X159540703Y-71416653D01*
X159389885Y-71376240D01*
X159328675Y-71359839D01*
X159328668Y-71359838D01*
X159110002Y-71340708D01*
X159109998Y-71340708D01*
X158891331Y-71359838D01*
X158891324Y-71359839D01*
X158768902Y-71392642D01*
X158679297Y-71416653D01*
X158679295Y-71416653D01*
X158679291Y-71416655D01*
X158480357Y-71509419D01*
X158480349Y-71509423D01*
X158300547Y-71635322D01*
X158300541Y-71635327D01*
X158145327Y-71790541D01*
X158145322Y-71790547D01*
X158019423Y-71970349D01*
X158019419Y-71970357D01*
X157952382Y-72114120D01*
X157906210Y-72166560D01*
X157839017Y-72185712D01*
X157772135Y-72165496D01*
X157727618Y-72114120D01*
X157681717Y-72015685D01*
X157660579Y-71970354D01*
X157660577Y-71970351D01*
X157660576Y-71970349D01*
X157534677Y-71790547D01*
X157534672Y-71790541D01*
X157379458Y-71635327D01*
X157379452Y-71635322D01*
X157199650Y-71509423D01*
X157199642Y-71509419D01*
X157000708Y-71416655D01*
X157000706Y-71416654D01*
X157000703Y-71416653D01*
X156849885Y-71376240D01*
X156788675Y-71359839D01*
X156788668Y-71359838D01*
X156570002Y-71340708D01*
X156569998Y-71340708D01*
X156351331Y-71359838D01*
X156351324Y-71359839D01*
X156228902Y-71392642D01*
X156139297Y-71416653D01*
X156139295Y-71416653D01*
X156139291Y-71416655D01*
X155940357Y-71509419D01*
X155940349Y-71509423D01*
X155760547Y-71635322D01*
X155760541Y-71635327D01*
X155605327Y-71790541D01*
X155605322Y-71790547D01*
X155479423Y-71970349D01*
X155479419Y-71970357D01*
X155412382Y-72114120D01*
X155366210Y-72166560D01*
X155299017Y-72185712D01*
X155232135Y-72165496D01*
X155187618Y-72114120D01*
X155141717Y-72015685D01*
X155120579Y-71970354D01*
X155120577Y-71970351D01*
X155120576Y-71970349D01*
X154994677Y-71790547D01*
X154994672Y-71790541D01*
X154839458Y-71635327D01*
X154839452Y-71635322D01*
X154659650Y-71509423D01*
X154659642Y-71509419D01*
X154460708Y-71416655D01*
X154460706Y-71416654D01*
X154460703Y-71416653D01*
X154309885Y-71376240D01*
X154248675Y-71359839D01*
X154248668Y-71359838D01*
X154030002Y-71340708D01*
X154029998Y-71340708D01*
X153811331Y-71359838D01*
X153811324Y-71359839D01*
X153688902Y-71392642D01*
X153599297Y-71416653D01*
X153599295Y-71416653D01*
X153599291Y-71416655D01*
X153400357Y-71509419D01*
X153400349Y-71509423D01*
X153220547Y-71635322D01*
X153220541Y-71635327D01*
X153065327Y-71790541D01*
X153065322Y-71790548D01*
X152969575Y-71927289D01*
X152914998Y-71970914D01*
X152845500Y-71978107D01*
X152783145Y-71946585D01*
X152747731Y-71886355D01*
X152744000Y-71856166D01*
X152744000Y-71798172D01*
X152743999Y-71798155D01*
X152737598Y-71738627D01*
X152737596Y-71738620D01*
X152687354Y-71603913D01*
X152687350Y-71603906D01*
X152601190Y-71488812D01*
X152601187Y-71488809D01*
X152486093Y-71402649D01*
X152486086Y-71402645D01*
X152351379Y-71352403D01*
X152351372Y-71352401D01*
X152291844Y-71346000D01*
X151740000Y-71346000D01*
X151740000Y-72166988D01*
X151682993Y-72134075D01*
X151555826Y-72100000D01*
X151424174Y-72100000D01*
X151297007Y-72134075D01*
X151240000Y-72166988D01*
X151240000Y-71346000D01*
X150688155Y-71346000D01*
X150628627Y-71352401D01*
X150628620Y-71352403D01*
X150493913Y-71402645D01*
X150493906Y-71402649D01*
X150378812Y-71488809D01*
X150378809Y-71488812D01*
X150292649Y-71603906D01*
X150292645Y-71603913D01*
X150242403Y-71738620D01*
X150242401Y-71738627D01*
X150236000Y-71798155D01*
X145824386Y-71798155D01*
X145815745Y-71786612D01*
X145815729Y-71786594D01*
X145613405Y-71584270D01*
X145613387Y-71584254D01*
X145384317Y-71412775D01*
X145384309Y-71412770D01*
X145133166Y-71275635D01*
X145133167Y-71275635D01*
X145011093Y-71230104D01*
X144865046Y-71175631D01*
X144865043Y-71175630D01*
X144865037Y-71175628D01*
X144585433Y-71114804D01*
X144300001Y-71094390D01*
X144299999Y-71094390D01*
X144014566Y-71114804D01*
X143734962Y-71175628D01*
X143466833Y-71275635D01*
X143215690Y-71412770D01*
X143215682Y-71412775D01*
X142986612Y-71584254D01*
X142986594Y-71584270D01*
X142784270Y-71786594D01*
X142784254Y-71786612D01*
X142612775Y-72015682D01*
X142612770Y-72015690D01*
X142475635Y-72266833D01*
X142375628Y-72534962D01*
X142314804Y-72814566D01*
X142294390Y-73099998D01*
X126028042Y-73099998D01*
X126021828Y-70125174D01*
X126022054Y-70117432D01*
X126023489Y-70093713D01*
X127349500Y-70093713D01*
X127349500Y-70306286D01*
X127382753Y-70516239D01*
X127448444Y-70718414D01*
X127544951Y-70907820D01*
X127669890Y-71079786D01*
X127820213Y-71230109D01*
X127992179Y-71355048D01*
X127992181Y-71355049D01*
X127992184Y-71355051D01*
X128181588Y-71451557D01*
X128383757Y-71517246D01*
X128593713Y-71550500D01*
X128593714Y-71550500D01*
X128806286Y-71550500D01*
X128806287Y-71550500D01*
X129016243Y-71517246D01*
X129218412Y-71451557D01*
X129407816Y-71355051D01*
X129517124Y-71275635D01*
X129579786Y-71230109D01*
X129579788Y-71230106D01*
X129579792Y-71230104D01*
X129730104Y-71079792D01*
X129730106Y-71079788D01*
X129730109Y-71079786D01*
X129855048Y-70907820D01*
X129855047Y-70907820D01*
X129855051Y-70907816D01*
X129951557Y-70718412D01*
X130017246Y-70516243D01*
X130050500Y-70306287D01*
X130050500Y-70093713D01*
X232249500Y-70093713D01*
X232249500Y-70306286D01*
X232282753Y-70516239D01*
X232348444Y-70718414D01*
X232444951Y-70907820D01*
X232569890Y-71079786D01*
X232720213Y-71230109D01*
X232892179Y-71355048D01*
X232892181Y-71355049D01*
X232892184Y-71355051D01*
X233081588Y-71451557D01*
X233283757Y-71517246D01*
X233493713Y-71550500D01*
X233493714Y-71550500D01*
X233706286Y-71550500D01*
X233706287Y-71550500D01*
X233916243Y-71517246D01*
X234118412Y-71451557D01*
X234307816Y-71355051D01*
X234417124Y-71275635D01*
X234479786Y-71230109D01*
X234479788Y-71230106D01*
X234479792Y-71230104D01*
X234630104Y-71079792D01*
X234630106Y-71079788D01*
X234630109Y-71079786D01*
X234755048Y-70907820D01*
X234755047Y-70907820D01*
X234755051Y-70907816D01*
X234851557Y-70718412D01*
X234917246Y-70516243D01*
X234950500Y-70306287D01*
X234950500Y-70093713D01*
X234917246Y-69883757D01*
X234851557Y-69681588D01*
X234755051Y-69492184D01*
X234755049Y-69492181D01*
X234755048Y-69492179D01*
X234630109Y-69320213D01*
X234479786Y-69169890D01*
X234307820Y-69044951D01*
X234118414Y-68948444D01*
X234118413Y-68948443D01*
X234118412Y-68948443D01*
X233916243Y-68882754D01*
X233916241Y-68882753D01*
X233916240Y-68882753D01*
X233754957Y-68857208D01*
X233706287Y-68849500D01*
X233493713Y-68849500D01*
X233445042Y-68857208D01*
X233283760Y-68882753D01*
X233081585Y-68948444D01*
X232892179Y-69044951D01*
X232720213Y-69169890D01*
X232569890Y-69320213D01*
X232444951Y-69492179D01*
X232348444Y-69681585D01*
X232282753Y-69883760D01*
X232249500Y-70093713D01*
X130050500Y-70093713D01*
X130017246Y-69883757D01*
X129951557Y-69681588D01*
X129855051Y-69492184D01*
X129855049Y-69492181D01*
X129855048Y-69492179D01*
X129730109Y-69320213D01*
X129579786Y-69169890D01*
X129407820Y-69044951D01*
X129218414Y-68948444D01*
X129218413Y-68948443D01*
X129218412Y-68948443D01*
X129016243Y-68882754D01*
X129016241Y-68882753D01*
X129016240Y-68882753D01*
X128854957Y-68857208D01*
X128806287Y-68849500D01*
X128593713Y-68849500D01*
X128545042Y-68857208D01*
X128383760Y-68882753D01*
X128181585Y-68948444D01*
X127992179Y-69044951D01*
X127820213Y-69169890D01*
X127669890Y-69320213D01*
X127544951Y-69492179D01*
X127448444Y-69681585D01*
X127382753Y-69883760D01*
X127349500Y-70093713D01*
X126023489Y-70093713D01*
X126033510Y-69928031D01*
X126039589Y-69827517D01*
X126041394Y-69812656D01*
X126079068Y-69607072D01*
X126093096Y-69530520D01*
X126096678Y-69515988D01*
X126104096Y-69492184D01*
X126182012Y-69242136D01*
X126187321Y-69228139D01*
X126213534Y-69169896D01*
X126305042Y-68966570D01*
X126311993Y-68953325D01*
X126460394Y-68707841D01*
X126468881Y-68695545D01*
X126645795Y-68469731D01*
X126655710Y-68458540D01*
X126858540Y-68255710D01*
X126869731Y-68245795D01*
X127095545Y-68068881D01*
X127107841Y-68060394D01*
X127353325Y-67911993D01*
X127366570Y-67905042D01*
X127628143Y-67787319D01*
X127642136Y-67782012D01*
X127915995Y-67696676D01*
X127930520Y-67693096D01*
X128212661Y-67641393D01*
X128227515Y-67639589D01*
X128517581Y-67622045D01*
X128525065Y-67621820D01*
X128587209Y-67621821D01*
X128587213Y-67621820D01*
X128595472Y-67621820D01*
X128595712Y-67621804D01*
X233696267Y-67600500D01*
X233703730Y-67600725D01*
G37*
%TD.AperFunction*%
%TD*%
D33*
X203900000Y-97900000D03*
X201200000Y-97600000D03*
X193700000Y-88800000D03*
X190000000Y-88400000D03*
X171000000Y-88100000D03*
X166000000Y-87700000D03*
X141320000Y-79070000D03*
X140935000Y-74185000D03*
X197390000Y-84130000D03*
X158290000Y-81030000D03*
X176765000Y-83225000D03*
X158970000Y-83980000D03*
X136160000Y-94560000D03*
X131800000Y-94600000D03*
X169398566Y-89101434D03*
X152615000Y-93835000D03*
X157630000Y-98060000D03*
D34*
X181350000Y-97740000D03*
X182620000Y-97740000D03*
X172630000Y-97340000D03*
X177710000Y-97340000D03*
X210900000Y-94700000D03*
X210900000Y-89800000D03*
X151490000Y-72600000D03*
X154030000Y-72600000D03*
X156570000Y-72600000D03*
X159110000Y-72600000D03*
X144300000Y-73100000D03*
X166300000Y-73100000D03*
X166300000Y-95100000D03*
X144300000Y-95100000D03*
X172500000Y-93900000D03*
X175040000Y-93900000D03*
X177580000Y-93900000D03*
X180120000Y-93900000D03*
X182660000Y-93900000D03*
X185200000Y-93900000D03*
X187740000Y-93900000D03*
X190280000Y-93900000D03*
X192820000Y-93900000D03*
X195360000Y-93900000D03*
X197900000Y-93900000D03*
X200440000Y-93900000D03*
X202980000Y-93900000D03*
X205520000Y-93900000D03*
X205520000Y-86280000D03*
X202980000Y-86280000D03*
X200440000Y-86280000D03*
X197900000Y-86280000D03*
X195360000Y-86280000D03*
X192820000Y-86280000D03*
X190280000Y-86280000D03*
X187740000Y-86280000D03*
X185200000Y-86280000D03*
X182660000Y-86280000D03*
X180120000Y-86280000D03*
X177580000Y-86280000D03*
X175040000Y-86280000D03*
X172500000Y-86280000D03*
X233600000Y-97300000D03*
X222900000Y-87800000D03*
X227980000Y-87800000D03*
X192750000Y-97100000D03*
X190250000Y-97100000D03*
X233600000Y-70200000D03*
X173750000Y-74000000D03*
X173750000Y-79000000D03*
X186250000Y-74000000D03*
X186250000Y-79000000D03*
X128700000Y-70200000D03*
X128700000Y-97300000D03*
X194850000Y-74000000D03*
X194850000Y-79000000D03*
X207350000Y-74000000D03*
X207350000Y-79000000D03*
X217075000Y-88970000D03*
X219615000Y-88970000D03*
X197900000Y-97100000D03*
X195400000Y-97100000D03*
X215950000Y-74000000D03*
X215950000Y-79000000D03*
X228450000Y-74000000D03*
X228450000Y-79000000D03*
X220380000Y-96520000D03*
X217880000Y-96520000D03*
X228200000Y-95900000D03*
X228200000Y-93400000D03*
X149360000Y-79340000D03*
X146860000Y-79340000D03*
X149310000Y-86450000D03*
X146810000Y-86450000D03*
X136460000Y-78710000D03*
X133920000Y-78710000D03*
X136460000Y-81250000D03*
X133920000Y-81250000D03*
X136460000Y-83790000D03*
X133920000Y-83790000D03*
X136460000Y-86330000D03*
X133920000Y-86330000D03*
X136460000Y-88870000D03*
X133920000Y-88870000D03*
M02*
