%TF.GenerationSoftware,KiCad,Pcbnew,8.0.6*%
%TF.CreationDate,2025-07-05T13:21:46+05:30*%
%TF.ProjectId,interface_panel,696e7465-7266-4616-9365-5f70616e656c,rev?*%
%TF.SameCoordinates,Original*%
%TF.FileFunction,Legend,Bot*%
%TF.FilePolarity,Positive*%
%FSLAX46Y46*%
G04 Gerber Fmt 4.6, Leading zero omitted, Abs format (unit mm)*
G04 Created by KiCad (PCBNEW 8.0.6) date 2025-07-05 13:21:46*
%MOMM*%
%LPD*%
G01*
G04 APERTURE LIST*
%ADD10C,0.150000*%
%ADD11C,0.120000*%
%ADD12C,0.350000*%
G04 APERTURE END LIST*
D10*
X223584819Y-94986666D02*
X224299104Y-94986666D01*
X224299104Y-94986666D02*
X224441961Y-94939047D01*
X224441961Y-94939047D02*
X224537200Y-94843809D01*
X224537200Y-94843809D02*
X224584819Y-94700952D01*
X224584819Y-94700952D02*
X224584819Y-94605714D01*
X223918152Y-95891428D02*
X224584819Y-95891428D01*
X223537200Y-95653333D02*
X224251485Y-95415238D01*
X224251485Y-95415238D02*
X224251485Y-96034285D01*
X229933333Y-89154819D02*
X229933333Y-89869104D01*
X229933333Y-89869104D02*
X229980952Y-90011961D01*
X229980952Y-90011961D02*
X230076190Y-90107200D01*
X230076190Y-90107200D02*
X230219047Y-90154819D01*
X230219047Y-90154819D02*
X230314285Y-90154819D01*
X228980952Y-89154819D02*
X229457142Y-89154819D01*
X229457142Y-89154819D02*
X229504761Y-89631009D01*
X229504761Y-89631009D02*
X229457142Y-89583390D01*
X229457142Y-89583390D02*
X229361904Y-89535771D01*
X229361904Y-89535771D02*
X229123809Y-89535771D01*
X229123809Y-89535771D02*
X229028571Y-89583390D01*
X229028571Y-89583390D02*
X228980952Y-89631009D01*
X228980952Y-89631009D02*
X228933333Y-89726247D01*
X228933333Y-89726247D02*
X228933333Y-89964342D01*
X228933333Y-89964342D02*
X228980952Y-90059580D01*
X228980952Y-90059580D02*
X229028571Y-90107200D01*
X229028571Y-90107200D02*
X229123809Y-90154819D01*
X229123809Y-90154819D02*
X229361904Y-90154819D01*
X229361904Y-90154819D02*
X229457142Y-90107200D01*
X229457142Y-90107200D02*
X229504761Y-90059580D01*
X140654819Y-97866666D02*
X141369104Y-97866666D01*
X141369104Y-97866666D02*
X141511961Y-97819047D01*
X141511961Y-97819047D02*
X141607200Y-97723809D01*
X141607200Y-97723809D02*
X141654819Y-97580952D01*
X141654819Y-97580952D02*
X141654819Y-97485714D01*
X140750057Y-98295238D02*
X140702438Y-98342857D01*
X140702438Y-98342857D02*
X140654819Y-98438095D01*
X140654819Y-98438095D02*
X140654819Y-98676190D01*
X140654819Y-98676190D02*
X140702438Y-98771428D01*
X140702438Y-98771428D02*
X140750057Y-98819047D01*
X140750057Y-98819047D02*
X140845295Y-98866666D01*
X140845295Y-98866666D02*
X140940533Y-98866666D01*
X140940533Y-98866666D02*
X141083390Y-98819047D01*
X141083390Y-98819047D02*
X141654819Y-98247619D01*
X141654819Y-98247619D02*
X141654819Y-98866666D01*
X128933333Y-75154819D02*
X128933333Y-75869104D01*
X128933333Y-75869104D02*
X128980952Y-76011961D01*
X128980952Y-76011961D02*
X129076190Y-76107200D01*
X129076190Y-76107200D02*
X129219047Y-76154819D01*
X129219047Y-76154819D02*
X129314285Y-76154819D01*
X127933333Y-76154819D02*
X128504761Y-76154819D01*
X128219047Y-76154819D02*
X128219047Y-75154819D01*
X128219047Y-75154819D02*
X128314285Y-75297676D01*
X128314285Y-75297676D02*
X128409523Y-75392914D01*
X128409523Y-75392914D02*
X128504761Y-75440533D01*
X140654819Y-72266666D02*
X141369104Y-72266666D01*
X141369104Y-72266666D02*
X141511961Y-72219047D01*
X141511961Y-72219047D02*
X141607200Y-72123809D01*
X141607200Y-72123809D02*
X141654819Y-71980952D01*
X141654819Y-71980952D02*
X141654819Y-71885714D01*
X140654819Y-72647619D02*
X140654819Y-73266666D01*
X140654819Y-73266666D02*
X141035771Y-72933333D01*
X141035771Y-72933333D02*
X141035771Y-73076190D01*
X141035771Y-73076190D02*
X141083390Y-73171428D01*
X141083390Y-73171428D02*
X141131009Y-73219047D01*
X141131009Y-73219047D02*
X141226247Y-73266666D01*
X141226247Y-73266666D02*
X141464342Y-73266666D01*
X141464342Y-73266666D02*
X141559580Y-73219047D01*
X141559580Y-73219047D02*
X141607200Y-73171428D01*
X141607200Y-73171428D02*
X141654819Y-73076190D01*
X141654819Y-73076190D02*
X141654819Y-72790476D01*
X141654819Y-72790476D02*
X141607200Y-72695238D01*
X141607200Y-72695238D02*
X141559580Y-72647619D01*
D11*
%TO.C,J4*%
X215270000Y-94810000D02*
X215270000Y-98830000D01*
X215270000Y-96520000D02*
X215770000Y-96520000D01*
X215270000Y-98830000D02*
X222990000Y-98830000D01*
X215770000Y-95310000D02*
X222490000Y-95310000D01*
X215770000Y-96520000D02*
X215770000Y-95310000D01*
X216270000Y-97330000D02*
X215270000Y-97330000D01*
X216270000Y-98830000D02*
X216270000Y-97330000D01*
X220790000Y-99130000D02*
X223290000Y-99130000D01*
X221990000Y-97330000D02*
X222990000Y-97330000D01*
X221990000Y-98830000D02*
X221990000Y-97330000D01*
X222490000Y-95310000D02*
X222490000Y-96520000D01*
X222490000Y-96520000D02*
X222990000Y-96520000D01*
X222990000Y-94810000D02*
X215270000Y-94810000D01*
X222990000Y-98830000D02*
X222990000Y-94810000D01*
X223290000Y-99130000D02*
X223290000Y-96630000D01*
%TO.C,J5*%
X225590000Y-96310000D02*
X225590000Y-98810000D01*
X225590000Y-98810000D02*
X228090000Y-98810000D01*
X225890000Y-90790000D02*
X225890000Y-98510000D01*
X225890000Y-91790000D02*
X227390000Y-91790000D01*
X225890000Y-97510000D02*
X227390000Y-97510000D01*
X225890000Y-98510000D02*
X229910000Y-98510000D01*
X227390000Y-91790000D02*
X227390000Y-90790000D01*
X227390000Y-97510000D02*
X227390000Y-98510000D01*
X228200000Y-90790000D02*
X228200000Y-91290000D01*
X228200000Y-91290000D02*
X229410000Y-91290000D01*
X228200000Y-98010000D02*
X228200000Y-98510000D01*
X229410000Y-91290000D02*
X229410000Y-98010000D01*
X229410000Y-98010000D02*
X228200000Y-98010000D01*
X229910000Y-90790000D02*
X225890000Y-90790000D01*
X229910000Y-98510000D02*
X229910000Y-90790000D01*
%TO.C,J2*%
X131990000Y-94390000D02*
X131990000Y-96890000D01*
X132290000Y-94690000D02*
X132290000Y-98710000D01*
X132290000Y-98710000D02*
X140010000Y-98710000D01*
X132790000Y-97000000D02*
X132290000Y-97000000D01*
X132790000Y-98210000D02*
X132790000Y-97000000D01*
X133290000Y-94690000D02*
X133290000Y-96190000D01*
X133290000Y-96190000D02*
X132290000Y-96190000D01*
X134490000Y-94390000D02*
X131990000Y-94390000D01*
X139010000Y-94690000D02*
X139010000Y-96190000D01*
X139010000Y-96190000D02*
X140010000Y-96190000D01*
X139510000Y-97000000D02*
X139510000Y-98210000D01*
X139510000Y-98210000D02*
X132790000Y-98210000D01*
X140010000Y-94690000D02*
X132290000Y-94690000D01*
X140010000Y-97000000D02*
X139510000Y-97000000D01*
X140010000Y-98710000D02*
X140010000Y-94690000D01*
%TO.C,J1*%
X129870000Y-74910000D02*
X138990000Y-74910000D01*
X129870000Y-92950000D02*
X129870000Y-74910000D01*
X131180000Y-76210000D02*
X137680000Y-76210000D01*
X131180000Y-91650000D02*
X131180000Y-76210000D01*
X137680000Y-76210000D02*
X137680000Y-81880000D01*
X137680000Y-81880000D02*
X138990000Y-81880000D01*
X137680000Y-85980000D02*
X137680000Y-85980000D01*
X137680000Y-85980000D02*
X137680000Y-91650000D01*
X137680000Y-91650000D02*
X131180000Y-91650000D01*
X138990000Y-74910000D02*
X138990000Y-92950000D01*
X138990000Y-85980000D02*
X137680000Y-85980000D01*
X138990000Y-92950000D02*
X129870000Y-92950000D01*
X139380000Y-80120000D02*
X140380000Y-80620000D01*
X140380000Y-79620000D02*
X139380000Y-80120000D01*
X140380000Y-80620000D02*
X140380000Y-79620000D01*
%TO.C,J3*%
X131990000Y-68990000D02*
X131990000Y-71490000D01*
X132290000Y-69290000D02*
X132290000Y-73310000D01*
X132290000Y-73310000D02*
X140010000Y-73310000D01*
X132790000Y-71600000D02*
X132290000Y-71600000D01*
X132790000Y-72810000D02*
X132790000Y-71600000D01*
X133290000Y-69290000D02*
X133290000Y-70790000D01*
X133290000Y-70790000D02*
X132290000Y-70790000D01*
X134490000Y-68990000D02*
X131990000Y-68990000D01*
X139010000Y-69290000D02*
X139010000Y-70790000D01*
X139010000Y-70790000D02*
X140010000Y-70790000D01*
X139510000Y-71600000D02*
X139510000Y-72810000D01*
X139510000Y-72810000D02*
X132790000Y-72810000D01*
X140010000Y-69290000D02*
X132290000Y-69290000D01*
X140010000Y-71600000D02*
X139510000Y-71600000D01*
X140010000Y-73310000D02*
X140010000Y-69290000D01*
%TD*%
D12*
X181350000Y-97740000D03*
X182620000Y-97740000D03*
X172630000Y-97340000D03*
X177710000Y-97340000D03*
X210900000Y-94700000D03*
X210900000Y-89800000D03*
X151490000Y-72600000D03*
X154030000Y-72600000D03*
X156570000Y-72600000D03*
X159110000Y-72600000D03*
X144300000Y-73100000D03*
X166300000Y-73100000D03*
X166300000Y-95100000D03*
X144300000Y-95100000D03*
X172500000Y-93900000D03*
X175040000Y-93900000D03*
X177580000Y-93900000D03*
X180120000Y-93900000D03*
X182660000Y-93900000D03*
X185200000Y-93900000D03*
X187740000Y-93900000D03*
X190280000Y-93900000D03*
X192820000Y-93900000D03*
X195360000Y-93900000D03*
X197900000Y-93900000D03*
X200440000Y-93900000D03*
X202980000Y-93900000D03*
X205520000Y-93900000D03*
X205520000Y-86280000D03*
X202980000Y-86280000D03*
X200440000Y-86280000D03*
X197900000Y-86280000D03*
X195360000Y-86280000D03*
X192820000Y-86280000D03*
X190280000Y-86280000D03*
X187740000Y-86280000D03*
X185200000Y-86280000D03*
X182660000Y-86280000D03*
X180120000Y-86280000D03*
X177580000Y-86280000D03*
X175040000Y-86280000D03*
X172500000Y-86280000D03*
X233600000Y-97300000D03*
X222900000Y-87800000D03*
X227980000Y-87800000D03*
X192750000Y-97100000D03*
X190250000Y-97100000D03*
X233600000Y-70200000D03*
X173750000Y-74000000D03*
X173750000Y-79000000D03*
X186250000Y-74000000D03*
X186250000Y-79000000D03*
X128700000Y-70200000D03*
X128700000Y-97300000D03*
X194850000Y-74000000D03*
X194850000Y-79000000D03*
X207350000Y-74000000D03*
X207350000Y-79000000D03*
X217075000Y-88970000D03*
X219615000Y-88970000D03*
X197900000Y-97100000D03*
X195400000Y-97100000D03*
X215950000Y-74000000D03*
X215950000Y-79000000D03*
X228450000Y-74000000D03*
X228450000Y-79000000D03*
X220380000Y-96520000D03*
X217880000Y-96520000D03*
X228200000Y-95900000D03*
X228200000Y-93400000D03*
X134900000Y-97000000D03*
X137400000Y-97000000D03*
X135700000Y-80120000D03*
X133160000Y-80120000D03*
X135700000Y-82660000D03*
X133160000Y-82660000D03*
X135700000Y-85200000D03*
X133160000Y-85200000D03*
X135700000Y-87740000D03*
X133160000Y-87740000D03*
X134900000Y-71600000D03*
X137400000Y-71600000D03*
M02*
