M48
METRIC,TZ
T1C0.300
T2C0.650
T3C0.700
T4C0.750
T5C0.800
T6C0.900
T7C1.000
T8C1.300
%
G90
G05
T1
X105150Y-87070
X105310Y-81660
X108530Y-81660
X108750Y-87120
X119030Y-69360
X119230Y-97260
X121630Y-70860
X121690Y-96100
X122950Y-81600
X126300Y-81560
X126630Y-71760
X126740Y-94960
X130070Y-80140
X131690Y-68350
X131780Y-75670
X132110Y-82380
X132580Y-76940
X132710Y-68710
X132750Y-81370
X134240Y-84550
X134490Y-95590
X135070Y-83510
X138130Y-83400
X160020Y-92250
X164120Y-82620
X165420Y-91980
X166820Y-91010
X175260Y-91820
X260350Y-77980
X261480Y-83540
X274305Y-86585
T2
X165730Y-96650
X167000Y-96650
T3
X89260Y-85590
X89260Y-90670
X89310Y-76450
X89310Y-81530
X91820Y-73550
X92480Y-92870
X96900Y-73550
X97560Y-92870
X134360Y-71070
X134360Y-76150
X137340Y-90860
X137340Y-95940
X137420Y-71030
X137420Y-76110
X140200Y-90870
X140200Y-95950
X141310Y-71020
X141310Y-76100
X142970Y-90890
X142970Y-95970
X144220Y-71000
X144220Y-76080
X145780Y-90820
X145780Y-95900
X147270Y-70820
X147270Y-75900
X161870Y-91980
X161870Y-97060
T4
X93570Y-78970
X93570Y-86980
X94840Y-78970
X94840Y-86980
X96110Y-78970
X96110Y-86980
T5
X101310Y-75820
X101310Y-91060
X103850Y-75820
X103850Y-91060
X106390Y-75820
X106390Y-91060
X108930Y-75820
X108930Y-91060
X111470Y-75820
X111470Y-91060
X119150Y-75820
X119150Y-91060
X121690Y-75820
X121690Y-91060
X124230Y-75820
X124230Y-91060
X126770Y-75820
X126770Y-91060
X129310Y-75820
X129310Y-91060
X136810Y-79620
X136810Y-87240
X139350Y-79620
X139350Y-87240
X141890Y-79620
X141890Y-87240
X144430Y-79620
X144430Y-87240
X146970Y-79620
X146970Y-87240
X149510Y-79620
X149510Y-87240
X149720Y-91260
X151230Y-96340
X152050Y-79620
X152050Y-87240
X152220Y-91260
X154590Y-79620
X154590Y-87240
X154920Y-91260
X156130Y-96340
X157130Y-79620
X157130Y-87240
X157420Y-91260
X159670Y-79620
X159670Y-87240
X162210Y-79620
X162210Y-87240
X164750Y-79620
X164750Y-87240
X167290Y-79620
X167290Y-87240
X169830Y-79620
X169830Y-87240
T6
X154140Y-73730
X156680Y-73730
T7
X187480Y-71160
X189980Y-71160
X218630Y-71160
X221130Y-71160
X248600Y-71160
X251100Y-71160
X268330Y-78460
X268330Y-81000
X268330Y-83540
X268330Y-86080
X268330Y-88620
X270870Y-78460
X270870Y-81000
X270870Y-83540
X270870Y-86080
X270870Y-88620
X278760Y-79340
X278760Y-81840
T8
X182830Y-81670
X182830Y-86670
X195330Y-81670
X195330Y-86670
X213155Y-81670
X213155Y-86670
X225655Y-81670
X225655Y-86670
X243480Y-81670
X243480Y-86670
X255980Y-81670
X255980Y-86670
M30
