M48
; DRILL file {KiCad 8.0.6} date 2025-09-22T16:43:26+0530
; FORMAT={-:-/ absolute / metric / decimal}
; #@! TF.CreationDate,2025-09-22T16:43:26+05:30
; #@! TF.GenerationSoftware,Kicad,Pcbnew,8.0.6
; #@! TF.FileFunction,MixedPlating,1,2
FMAT,2
METRIC
; #@! TA.AperFunction,Plated,PTH,ViaDrill
T1C0.300
; #@! TA.AperFunction,Plated,PTH,ComponentDrill
T2C0.650
; #@! TA.AperFunction,Plated,PTH,ComponentDrill
T3C0.700
; #@! TA.AperFunction,Plated,PTH,ComponentDrill
T4C0.750
; #@! TA.AperFunction,Plated,PTH,ComponentDrill
T5C0.800
; #@! TA.AperFunction,Plated,PTH,ComponentDrill
T6C0.900
; #@! TA.AperFunction,Plated,PTH,ComponentDrill
T7C1.000
; #@! TA.AperFunction,Plated,PTH,ComponentDrill
T8C1.300
; #@! TA.AperFunction,NonPlated,NPTH,ComponentDrill
T9C2.200
%
G90
G05
T1
X105.15Y-87.07
X105.31Y-81.66
X108.53Y-81.66
X108.75Y-87.12
X119.03Y-69.36
X119.23Y-97.26
X121.63Y-70.86
X121.69Y-96.1
X122.95Y-81.6
X126.3Y-81.56
X126.63Y-71.76
X126.74Y-94.96
X130.07Y-80.14
X131.69Y-68.35
X131.78Y-75.67
X132.11Y-82.38
X132.58Y-76.94
X132.71Y-68.71
X132.75Y-81.37
X134.24Y-84.55
X134.49Y-95.59
X135.07Y-83.51
X138.13Y-83.4
X160.02Y-92.25
X164.12Y-82.62
X165.42Y-91.98
X166.82Y-91.01
X175.26Y-91.82
X260.35Y-77.98
X261.48Y-83.54
X274.305Y-86.585
T2
X165.73Y-96.65
X167.0Y-96.65
T3
X89.26Y-85.59
X89.26Y-90.67
X89.31Y-76.45
X89.31Y-81.53
X91.82Y-73.55
X92.48Y-92.87
X96.9Y-73.55
X97.56Y-92.87
X134.36Y-71.07
X134.36Y-76.15
X137.34Y-90.86
X137.34Y-95.94
X137.42Y-71.03
X137.42Y-76.11
X140.2Y-90.87
X140.2Y-95.95
X141.31Y-71.02
X141.31Y-76.1
X142.97Y-90.89
X142.97Y-95.97
X144.22Y-71.0
X144.22Y-76.08
X145.78Y-90.82
X145.78Y-95.9
X147.27Y-70.82
X147.27Y-75.9
X161.87Y-91.98
X161.87Y-97.06
T4
X93.57Y-78.97
X93.57Y-86.98
X94.84Y-78.97
X94.84Y-86.98
X96.11Y-78.97
X96.11Y-86.98
T5
X101.31Y-75.82
X101.31Y-91.06
X103.85Y-75.82
X103.85Y-91.06
X106.39Y-75.82
X106.39Y-91.06
X108.93Y-75.82
X108.93Y-91.06
X111.47Y-75.82
X111.47Y-91.06
X119.15Y-75.82
X119.15Y-91.06
X121.69Y-75.82
X121.69Y-91.06
X124.23Y-75.82
X124.23Y-91.06
X126.77Y-75.82
X126.77Y-91.06
X129.31Y-75.82
X129.31Y-91.06
X136.81Y-79.62
X136.81Y-87.24
X139.35Y-79.62
X139.35Y-87.24
X141.89Y-79.62
X141.89Y-87.24
X144.43Y-79.62
X144.43Y-87.24
X146.97Y-79.62
X146.97Y-87.24
X149.51Y-79.62
X149.51Y-87.24
X149.72Y-91.26
X151.23Y-96.34
X152.05Y-79.62
X152.05Y-87.24
X152.22Y-91.26
X154.59Y-79.62
X154.59Y-87.24
X154.92Y-91.26
X156.13Y-96.34
X157.13Y-79.62
X157.13Y-87.24
X157.42Y-91.26
X159.67Y-79.62
X159.67Y-87.24
X162.21Y-79.62
X162.21Y-87.24
X164.75Y-79.62
X164.75Y-87.24
X167.29Y-79.62
X167.29Y-87.24
X169.83Y-79.62
X169.83Y-87.24
T6
X154.14Y-73.73
X156.68Y-73.73
T7
X187.48Y-71.16
X189.98Y-71.16
X218.63Y-71.16
X221.13Y-71.16
X248.6Y-71.16
X251.1Y-71.16
X268.33Y-78.46
X268.33Y-81.0
X268.33Y-83.54
X268.33Y-86.08
X268.33Y-88.62
X270.87Y-78.46
X270.87Y-81.0
X270.87Y-83.54
X270.87Y-86.08
X270.87Y-88.62
X278.76Y-79.34
X278.76Y-81.84
T8
X182.83Y-81.67
X182.83Y-86.67
X195.33Y-81.67
X195.33Y-86.67
X213.155Y-81.67
X213.155Y-86.67
X225.655Y-81.67
X225.655Y-86.67
X243.48Y-81.67
X243.48Y-86.67
X255.98Y-81.67
X255.98Y-86.67
T9
X87.041Y-70.179
X87.041Y-97.279
X280.6Y-70.179
X280.6Y-97.279
M30
