%TF.GenerationSoftware,KiCad,Pcbnew,8.0.6*%
%TF.CreationDate,2025-09-22T16:43:26+05:30*%
%TF.ProjectId,interface_panel,696e7465-7266-4616-9365-5f70616e656c,rev?*%
%TF.SameCoordinates,Original*%
%TF.FileFunction,Profile,NP*%
%FSLAX46Y46*%
G04 Gerber Fmt 4.6, Leading zero omitted, Abs format (unit mm)*
G04 Created by KiCad (PCBNEW 8.0.6) date 2025-09-22 16:43:26*
%MOMM*%
%LPD*%
G01*
G04 APERTURE LIST*
%TA.AperFunction,Profile*%
%ADD10C,0.050000*%
%TD*%
%ADD11C,0.350000*%
G04 APERTURE END LIST*
D10*
X86862640Y-100500000D02*
X280648669Y-100458677D01*
X283748663Y-70121330D02*
X283648668Y-97515450D01*
X83862640Y-70100000D02*
G75*
G02*
X86862640Y-67100040I2999960J0D01*
G01*
X280748663Y-67121330D02*
G75*
G02*
X283748684Y-70121330I30J-2999991D01*
G01*
X86862640Y-67100000D02*
X280748663Y-67121330D01*
X83862640Y-70100000D02*
X83920000Y-97557360D01*
X283648668Y-97515450D02*
G75*
G02*
X280648669Y-100458698I-3000069J57369D01*
G01*
X86862640Y-100500000D02*
G75*
G02*
X83920000Y-97557360I-40J2942600D01*
G01*
D11*
X221130000Y-71160000D03*
X218630000Y-71160000D03*
X251100000Y-71160000D03*
X248600000Y-71160000D03*
X189980000Y-71160000D03*
X187480000Y-71160000D03*
X165730000Y-96650000D03*
X167000000Y-96650000D03*
X161870000Y-91980000D03*
X161870000Y-97060000D03*
X142970000Y-90890000D03*
X142970000Y-95970000D03*
X101310000Y-91060000D03*
X103850000Y-91060000D03*
X106390000Y-91060000D03*
X108930000Y-91060000D03*
X111470000Y-91060000D03*
X111470000Y-75820000D03*
X108930000Y-75820000D03*
X106390000Y-75820000D03*
X103850000Y-75820000D03*
X101310000Y-75820000D03*
X141310000Y-71020000D03*
X141310000Y-76100000D03*
X97560000Y-92870000D03*
X92480000Y-92870000D03*
X137420000Y-76110000D03*
X137420000Y-71030000D03*
X87041320Y-97278680D03*
X213155000Y-81670000D03*
X225655000Y-81670000D03*
X213155000Y-86670000D03*
X225655000Y-86670000D03*
X96900000Y-73550000D03*
X91820000Y-73550000D03*
X182830000Y-81670000D03*
X195330000Y-81670000D03*
X182830000Y-86670000D03*
X195330000Y-86670000D03*
X137340000Y-95940000D03*
X137340000Y-90860000D03*
X147270000Y-70820000D03*
X147270000Y-75900000D03*
X154920000Y-91260000D03*
X157420000Y-91260000D03*
X280600000Y-70178680D03*
X89310000Y-81530000D03*
X89310000Y-76450000D03*
X144220000Y-71000000D03*
X144220000Y-76080000D03*
X87041320Y-70178680D03*
X119150000Y-91060000D03*
X121690000Y-91060000D03*
X124230000Y-91060000D03*
X126770000Y-91060000D03*
X129310000Y-91060000D03*
X129310000Y-75820000D03*
X126770000Y-75820000D03*
X124230000Y-75820000D03*
X121690000Y-75820000D03*
X119150000Y-75820000D03*
X280600000Y-97278680D03*
X134360000Y-76150000D03*
X134360000Y-71070000D03*
X156680000Y-73730000D03*
X154140000Y-73730000D03*
X149720000Y-91260000D03*
X152220000Y-91260000D03*
X145780000Y-90820000D03*
X145780000Y-95900000D03*
X89260000Y-85590000D03*
X89260000Y-90670000D03*
X243480000Y-81670000D03*
X255980000Y-81670000D03*
X243480000Y-86670000D03*
X255980000Y-86670000D03*
X140200000Y-90870000D03*
X140200000Y-95950000D03*
X151230000Y-96340000D03*
X156130000Y-96340000D03*
X96110000Y-86980000D03*
X94840000Y-86980000D03*
X93570000Y-86980000D03*
X169830000Y-87240000D03*
X167290000Y-87240000D03*
X164750000Y-87240000D03*
X162210000Y-87240000D03*
X159670000Y-87240000D03*
X157130000Y-87240000D03*
X154590000Y-87240000D03*
X152050000Y-87240000D03*
X149510000Y-87240000D03*
X146970000Y-87240000D03*
X144430000Y-87240000D03*
X141890000Y-87240000D03*
X139350000Y-87240000D03*
X136810000Y-87240000D03*
X136810000Y-79620000D03*
X139350000Y-79620000D03*
X141890000Y-79620000D03*
X144430000Y-79620000D03*
X146970000Y-79620000D03*
X149510000Y-79620000D03*
X152050000Y-79620000D03*
X154590000Y-79620000D03*
X157130000Y-79620000D03*
X159670000Y-79620000D03*
X162210000Y-79620000D03*
X164750000Y-79620000D03*
X167290000Y-79620000D03*
X169830000Y-79620000D03*
X278760000Y-79340000D03*
X278760000Y-81840000D03*
X96110000Y-78970000D03*
X94840000Y-78970000D03*
X93570000Y-78970000D03*
X268330000Y-88620000D03*
X270870000Y-88620000D03*
X268330000Y-86080000D03*
X270870000Y-86080000D03*
X268330000Y-83540000D03*
X270870000Y-83540000D03*
X268330000Y-81000000D03*
X270870000Y-81000000D03*
X268330000Y-78460000D03*
X270870000Y-78460000D03*
M02*
