%TF.GenerationSoftware,KiCad,Pcbnew,8.0.6*%
%TF.CreationDate,2025-07-15T15:38:21+05:30*%
%TF.ProjectId,_autosave-interface_panel,5f617574-6f73-4617-9665-2d696e746572,rev?*%
%TF.SameCoordinates,Original*%
%TF.FileFunction,Legend,Bot*%
%TF.FilePolarity,Positive*%
%FSLAX46Y46*%
G04 Gerber Fmt 4.6, Leading zero omitted, Abs format (unit mm)*
G04 Created by KiCad (PCBNEW 8.0.6) date 2025-07-15 15:38:21*
%MOMM*%
%LPD*%
G01*
G04 APERTURE LIST*
%ADD10C,0.150000*%
%ADD11C,0.120000*%
%ADD12C,0.350000*%
G04 APERTURE END LIST*
D10*
X223584819Y-94986666D02*
X224299104Y-94986666D01*
X224299104Y-94986666D02*
X224441961Y-94939047D01*
X224441961Y-94939047D02*
X224537200Y-94843809D01*
X224537200Y-94843809D02*
X224584819Y-94700952D01*
X224584819Y-94700952D02*
X224584819Y-94605714D01*
X223918152Y-95891428D02*
X224584819Y-95891428D01*
X223537200Y-95653333D02*
X224251485Y-95415238D01*
X224251485Y-95415238D02*
X224251485Y-96034285D01*
X229933333Y-89154819D02*
X229933333Y-89869104D01*
X229933333Y-89869104D02*
X229980952Y-90011961D01*
X229980952Y-90011961D02*
X230076190Y-90107200D01*
X230076190Y-90107200D02*
X230219047Y-90154819D01*
X230219047Y-90154819D02*
X230314285Y-90154819D01*
X228980952Y-89154819D02*
X229457142Y-89154819D01*
X229457142Y-89154819D02*
X229504761Y-89631009D01*
X229504761Y-89631009D02*
X229457142Y-89583390D01*
X229457142Y-89583390D02*
X229361904Y-89535771D01*
X229361904Y-89535771D02*
X229123809Y-89535771D01*
X229123809Y-89535771D02*
X229028571Y-89583390D01*
X229028571Y-89583390D02*
X228980952Y-89631009D01*
X228980952Y-89631009D02*
X228933333Y-89726247D01*
X228933333Y-89726247D02*
X228933333Y-89964342D01*
X228933333Y-89964342D02*
X228980952Y-90059580D01*
X228980952Y-90059580D02*
X229028571Y-90107200D01*
X229028571Y-90107200D02*
X229123809Y-90154819D01*
X229123809Y-90154819D02*
X229361904Y-90154819D01*
X229361904Y-90154819D02*
X229457142Y-90107200D01*
X229457142Y-90107200D02*
X229504761Y-90059580D01*
X142514819Y-77806666D02*
X143229104Y-77806666D01*
X143229104Y-77806666D02*
X143371961Y-77759047D01*
X143371961Y-77759047D02*
X143467200Y-77663809D01*
X143467200Y-77663809D02*
X143514819Y-77520952D01*
X143514819Y-77520952D02*
X143514819Y-77425714D01*
X142610057Y-78235238D02*
X142562438Y-78282857D01*
X142562438Y-78282857D02*
X142514819Y-78378095D01*
X142514819Y-78378095D02*
X142514819Y-78616190D01*
X142514819Y-78616190D02*
X142562438Y-78711428D01*
X142562438Y-78711428D02*
X142610057Y-78759047D01*
X142610057Y-78759047D02*
X142705295Y-78806666D01*
X142705295Y-78806666D02*
X142800533Y-78806666D01*
X142800533Y-78806666D02*
X142943390Y-78759047D01*
X142943390Y-78759047D02*
X143514819Y-78187619D01*
X143514819Y-78187619D02*
X143514819Y-78806666D01*
X142464819Y-85116666D02*
X143179104Y-85116666D01*
X143179104Y-85116666D02*
X143321961Y-85069047D01*
X143321961Y-85069047D02*
X143417200Y-84973809D01*
X143417200Y-84973809D02*
X143464819Y-84830952D01*
X143464819Y-84830952D02*
X143464819Y-84735714D01*
X142464819Y-85497619D02*
X142464819Y-86116666D01*
X142464819Y-86116666D02*
X142845771Y-85783333D01*
X142845771Y-85783333D02*
X142845771Y-85926190D01*
X142845771Y-85926190D02*
X142893390Y-86021428D01*
X142893390Y-86021428D02*
X142941009Y-86069047D01*
X142941009Y-86069047D02*
X143036247Y-86116666D01*
X143036247Y-86116666D02*
X143274342Y-86116666D01*
X143274342Y-86116666D02*
X143369580Y-86069047D01*
X143369580Y-86069047D02*
X143417200Y-86021428D01*
X143417200Y-86021428D02*
X143464819Y-85926190D01*
X143464819Y-85926190D02*
X143464819Y-85640476D01*
X143464819Y-85640476D02*
X143417200Y-85545238D01*
X143417200Y-85545238D02*
X143369580Y-85497619D01*
X135523333Y-72064819D02*
X135523333Y-72779104D01*
X135523333Y-72779104D02*
X135570952Y-72921961D01*
X135570952Y-72921961D02*
X135666190Y-73017200D01*
X135666190Y-73017200D02*
X135809047Y-73064819D01*
X135809047Y-73064819D02*
X135904285Y-73064819D01*
X135142380Y-72064819D02*
X134475714Y-72064819D01*
X134475714Y-72064819D02*
X134904285Y-73064819D01*
D11*
%TO.C,J4*%
X215270000Y-94810000D02*
X215270000Y-98830000D01*
X215270000Y-96520000D02*
X215770000Y-96520000D01*
X215270000Y-98830000D02*
X222990000Y-98830000D01*
X215770000Y-95310000D02*
X222490000Y-95310000D01*
X215770000Y-96520000D02*
X215770000Y-95310000D01*
X216270000Y-97330000D02*
X215270000Y-97330000D01*
X216270000Y-98830000D02*
X216270000Y-97330000D01*
X220790000Y-99130000D02*
X223290000Y-99130000D01*
X221990000Y-97330000D02*
X222990000Y-97330000D01*
X221990000Y-98830000D02*
X221990000Y-97330000D01*
X222490000Y-95310000D02*
X222490000Y-96520000D01*
X222490000Y-96520000D02*
X222990000Y-96520000D01*
X222990000Y-94810000D02*
X215270000Y-94810000D01*
X222990000Y-98830000D02*
X222990000Y-94810000D01*
X223290000Y-99130000D02*
X223290000Y-96630000D01*
%TO.C,J5*%
X225590000Y-96310000D02*
X225590000Y-98810000D01*
X225590000Y-98810000D02*
X228090000Y-98810000D01*
X225890000Y-90790000D02*
X225890000Y-98510000D01*
X225890000Y-91790000D02*
X227390000Y-91790000D01*
X225890000Y-97510000D02*
X227390000Y-97510000D01*
X225890000Y-98510000D02*
X229910000Y-98510000D01*
X227390000Y-91790000D02*
X227390000Y-90790000D01*
X227390000Y-97510000D02*
X227390000Y-98510000D01*
X228200000Y-90790000D02*
X228200000Y-91290000D01*
X228200000Y-91290000D02*
X229410000Y-91290000D01*
X228200000Y-98010000D02*
X228200000Y-98510000D01*
X229410000Y-91290000D02*
X229410000Y-98010000D01*
X229410000Y-98010000D02*
X228200000Y-98010000D01*
X229910000Y-90790000D02*
X225890000Y-90790000D01*
X229910000Y-98510000D02*
X229910000Y-90790000D01*
%TO.C,J2*%
X144250000Y-77630000D02*
X144250000Y-81650000D01*
X144250000Y-79340000D02*
X144750000Y-79340000D01*
X144250000Y-81650000D02*
X151970000Y-81650000D01*
X144750000Y-78130000D02*
X151470000Y-78130000D01*
X144750000Y-79340000D02*
X144750000Y-78130000D01*
X145250000Y-80150000D02*
X144250000Y-80150000D01*
X145250000Y-81650000D02*
X145250000Y-80150000D01*
X149770000Y-81950000D02*
X152270000Y-81950000D01*
X150970000Y-80150000D02*
X151970000Y-80150000D01*
X150970000Y-81650000D02*
X150970000Y-80150000D01*
X151470000Y-78130000D02*
X151470000Y-79340000D01*
X151470000Y-79340000D02*
X151970000Y-79340000D01*
X151970000Y-77630000D02*
X144250000Y-77630000D01*
X151970000Y-81650000D02*
X151970000Y-77630000D01*
X152270000Y-81950000D02*
X152270000Y-79450000D01*
%TO.C,J3*%
X144200000Y-84740000D02*
X144200000Y-88760000D01*
X144200000Y-86450000D02*
X144700000Y-86450000D01*
X144200000Y-88760000D02*
X151920000Y-88760000D01*
X144700000Y-85240000D02*
X151420000Y-85240000D01*
X144700000Y-86450000D02*
X144700000Y-85240000D01*
X145200000Y-87260000D02*
X144200000Y-87260000D01*
X145200000Y-88760000D02*
X145200000Y-87260000D01*
X149720000Y-89060000D02*
X152220000Y-89060000D01*
X150920000Y-87260000D02*
X151920000Y-87260000D01*
X150920000Y-88760000D02*
X150920000Y-87260000D01*
X151420000Y-85240000D02*
X151420000Y-86450000D01*
X151420000Y-86450000D02*
X151920000Y-86450000D01*
X151920000Y-84740000D02*
X144200000Y-84740000D01*
X151920000Y-88760000D02*
X151920000Y-84740000D01*
X152220000Y-89060000D02*
X152220000Y-86560000D01*
%TO.C,J7*%
X130630000Y-73500000D02*
X139750000Y-73500000D01*
X130630000Y-94080000D02*
X130630000Y-73500000D01*
X131940000Y-74800000D02*
X138440000Y-74800000D01*
X131940000Y-92780000D02*
X131940000Y-74800000D01*
X138440000Y-74800000D02*
X138440000Y-81740000D01*
X138440000Y-81740000D02*
X139750000Y-81740000D01*
X138440000Y-85840000D02*
X138440000Y-85840000D01*
X138440000Y-85840000D02*
X138440000Y-92780000D01*
X138440000Y-92780000D02*
X131940000Y-92780000D01*
X139750000Y-73500000D02*
X139750000Y-94080000D01*
X139750000Y-85840000D02*
X138440000Y-85840000D01*
X139750000Y-94080000D02*
X130630000Y-94080000D01*
X140140000Y-78710000D02*
X141140000Y-79210000D01*
X141140000Y-78210000D02*
X140140000Y-78710000D01*
X141140000Y-79210000D02*
X141140000Y-78210000D01*
%TD*%
D12*
X181350000Y-97740000D03*
X182620000Y-97740000D03*
X172630000Y-97340000D03*
X177710000Y-97340000D03*
X210900000Y-94700000D03*
X210900000Y-89800000D03*
X151490000Y-72600000D03*
X154030000Y-72600000D03*
X156570000Y-72600000D03*
X159110000Y-72600000D03*
X144300000Y-73100000D03*
X166300000Y-73100000D03*
X166300000Y-95100000D03*
X144300000Y-95100000D03*
X172500000Y-93900000D03*
X175040000Y-93900000D03*
X177580000Y-93900000D03*
X180120000Y-93900000D03*
X182660000Y-93900000D03*
X185200000Y-93900000D03*
X187740000Y-93900000D03*
X190280000Y-93900000D03*
X192820000Y-93900000D03*
X195360000Y-93900000D03*
X197900000Y-93900000D03*
X200440000Y-93900000D03*
X202980000Y-93900000D03*
X205520000Y-93900000D03*
X205520000Y-86280000D03*
X202980000Y-86280000D03*
X200440000Y-86280000D03*
X197900000Y-86280000D03*
X195360000Y-86280000D03*
X192820000Y-86280000D03*
X190280000Y-86280000D03*
X187740000Y-86280000D03*
X185200000Y-86280000D03*
X182660000Y-86280000D03*
X180120000Y-86280000D03*
X177580000Y-86280000D03*
X175040000Y-86280000D03*
X172500000Y-86280000D03*
X233600000Y-97300000D03*
X222900000Y-87800000D03*
X227980000Y-87800000D03*
X192750000Y-97100000D03*
X190250000Y-97100000D03*
X233600000Y-70200000D03*
X173750000Y-74000000D03*
X173750000Y-79000000D03*
X186250000Y-74000000D03*
X186250000Y-79000000D03*
X128700000Y-70200000D03*
X128700000Y-97300000D03*
X194850000Y-74000000D03*
X194850000Y-79000000D03*
X207350000Y-74000000D03*
X207350000Y-79000000D03*
X217075000Y-88970000D03*
X219615000Y-88970000D03*
X197900000Y-97100000D03*
X195400000Y-97100000D03*
X215950000Y-74000000D03*
X215950000Y-79000000D03*
X228450000Y-74000000D03*
X228450000Y-79000000D03*
X220380000Y-96520000D03*
X217880000Y-96520000D03*
X228200000Y-95900000D03*
X228200000Y-93400000D03*
X149360000Y-79340000D03*
X146860000Y-79340000D03*
X149310000Y-86450000D03*
X146810000Y-86450000D03*
X136460000Y-78710000D03*
X133920000Y-78710000D03*
X136460000Y-81250000D03*
X133920000Y-81250000D03*
X136460000Y-83790000D03*
X133920000Y-83790000D03*
X136460000Y-86330000D03*
X133920000Y-86330000D03*
X136460000Y-88870000D03*
X133920000Y-88870000D03*
M02*
