%TF.GenerationSoftware,KiCad,Pcbnew,8.0.6*%
%TF.CreationDate,2025-07-05T13:21:46+05:30*%
%TF.ProjectId,interface_panel,696e7465-7266-4616-9365-5f70616e656c,rev?*%
%TF.SameCoordinates,Original*%
%TF.FileFunction,Copper,L2,Bot*%
%TF.FilePolarity,Positive*%
%FSLAX46Y46*%
G04 Gerber Fmt 4.6, Leading zero omitted, Abs format (unit mm)*
G04 Created by KiCad (PCBNEW 8.0.6) date 2025-07-05 13:21:46*
%MOMM*%
%LPD*%
G01*
G04 APERTURE LIST*
G04 Aperture macros list*
%AMRoundRect*
0 Rectangle with rounded corners*
0 $1 Rounding radius*
0 $2 $3 $4 $5 $6 $7 $8 $9 X,Y pos of 4 corners*
0 Add a 4 corners polygon primitive as box body*
4,1,4,$2,$3,$4,$5,$6,$7,$8,$9,$2,$3,0*
0 Add four circle primitives for the rounded corners*
1,1,$1+$1,$2,$3*
1,1,$1+$1,$4,$5*
1,1,$1+$1,$6,$7*
1,1,$1+$1,$8,$9*
0 Add four rect primitives between the rounded corners*
20,1,$1+$1,$2,$3,$4,$5,0*
20,1,$1+$1,$4,$5,$6,$7,0*
20,1,$1+$1,$6,$7,$8,$9,0*
20,1,$1+$1,$8,$9,$2,$3,0*%
G04 Aperture macros list end*
%TA.AperFunction,ComponentPad*%
%ADD10R,1.000000X1.000000*%
%TD*%
%TA.AperFunction,ComponentPad*%
%ADD11O,1.000000X1.000000*%
%TD*%
%TA.AperFunction,ComponentPad*%
%ADD12C,1.400000*%
%TD*%
%TA.AperFunction,ComponentPad*%
%ADD13O,1.400000X1.400000*%
%TD*%
%TA.AperFunction,ComponentPad*%
%ADD14C,1.500000*%
%TD*%
%TA.AperFunction,ComponentPad*%
%ADD15R,1.508000X1.508000*%
%TD*%
%TA.AperFunction,ComponentPad*%
%ADD16C,1.508000*%
%TD*%
%TA.AperFunction,ComponentPad*%
%ADD17C,3.000000*%
%TD*%
%TA.AperFunction,ComponentPad*%
%ADD18R,1.600000X1.600000*%
%TD*%
%TA.AperFunction,ComponentPad*%
%ADD19O,1.600000X1.600000*%
%TD*%
%TA.AperFunction,ComponentPad*%
%ADD20C,1.600000*%
%TD*%
%TA.AperFunction,ComponentPad*%
%ADD21R,1.950000X1.950000*%
%TD*%
%TA.AperFunction,ComponentPad*%
%ADD22C,1.950000*%
%TD*%
%TA.AperFunction,ComponentPad*%
%ADD23R,1.800000X1.800000*%
%TD*%
%TA.AperFunction,ComponentPad*%
%ADD24C,1.800000*%
%TD*%
%TA.AperFunction,ComponentPad*%
%ADD25RoundRect,0.250000X0.600000X0.750000X-0.600000X0.750000X-0.600000X-0.750000X0.600000X-0.750000X0*%
%TD*%
%TA.AperFunction,ComponentPad*%
%ADD26O,1.700000X2.000000*%
%TD*%
%TA.AperFunction,ComponentPad*%
%ADD27RoundRect,0.250000X0.750000X-0.600000X0.750000X0.600000X-0.750000X0.600000X-0.750000X-0.600000X0*%
%TD*%
%TA.AperFunction,ComponentPad*%
%ADD28O,2.000000X1.700000*%
%TD*%
%TA.AperFunction,ComponentPad*%
%ADD29RoundRect,0.250000X-0.600000X-0.750000X0.600000X-0.750000X0.600000X0.750000X-0.600000X0.750000X0*%
%TD*%
%TA.AperFunction,ComponentPad*%
%ADD30RoundRect,0.250000X0.600000X0.600000X-0.600000X0.600000X-0.600000X-0.600000X0.600000X-0.600000X0*%
%TD*%
%TA.AperFunction,ComponentPad*%
%ADD31C,1.700000*%
%TD*%
%TA.AperFunction,ViaPad*%
%ADD32C,0.600000*%
%TD*%
%TA.AperFunction,Conductor*%
%ADD33C,0.200000*%
%TD*%
%ADD34C,0.300000*%
%ADD35C,0.350000*%
G04 APERTURE END LIST*
D10*
%TO.P,J6,1,Pin_1*%
%TO.N,Net-(J6-Pin_1)*%
X181350000Y-97740000D03*
D11*
%TO.P,J6,2,Pin_2*%
%TO.N,GND*%
X182620000Y-97740000D03*
%TD*%
D12*
%TO.P,R2,1*%
%TO.N,5V*%
X172630000Y-97340000D03*
D13*
%TO.P,R2,2*%
%TO.N,Net-(J6-Pin_1)*%
X177710000Y-97340000D03*
%TD*%
D14*
%TO.P,Y1,1,1*%
%TO.N,Net-(U2-XTAL2{slash}PB7)*%
X210900000Y-94700000D03*
%TO.P,Y1,2,2*%
%TO.N,Net-(U2-XTAL1{slash}PB6)*%
X210900000Y-89800000D03*
%TD*%
D15*
%TO.P,oled1,1,GND*%
%TO.N,GND*%
X151490000Y-72600000D03*
D16*
%TO.P,oled1,2,VCC*%
%TO.N,5V*%
X154030000Y-72600000D03*
%TO.P,oled1,3,SCL*%
%TO.N,SCL*%
X156570000Y-72600000D03*
%TO.P,oled1,4,SDA*%
%TO.N,SDA*%
X159110000Y-72600000D03*
D17*
%TO.P,oled1,S1*%
%TO.N,N/C*%
X144300000Y-73100000D03*
%TO.P,oled1,S2*%
X166300000Y-73100000D03*
%TO.P,oled1,S3*%
X166300000Y-95100000D03*
%TO.P,oled1,S4*%
X144300000Y-95100000D03*
%TD*%
D18*
%TO.P,U2,1,~{RESET}/PC6*%
%TO.N,Net-(J6-Pin_1)*%
X172500000Y-93900000D03*
D19*
%TO.P,U2,2,PD0*%
%TO.N,RX*%
X175040000Y-93900000D03*
%TO.P,U2,3,PD1*%
%TO.N,TX*%
X177580000Y-93900000D03*
%TO.P,U2,4,PD2*%
%TO.N,unconnected-(U2-PD2-Pad4)*%
X180120000Y-93900000D03*
%TO.P,U2,5,PD3*%
%TO.N,unconnected-(U2-PD3-Pad5)*%
X182660000Y-93900000D03*
%TO.P,U2,6,PD4*%
%TO.N,S. LED*%
X185200000Y-93900000D03*
%TO.P,U2,7,VCC*%
%TO.N,5V*%
X187740000Y-93900000D03*
%TO.P,U2,8,GND*%
%TO.N,GND*%
X190280000Y-93900000D03*
%TO.P,U2,9,XTAL1/PB6*%
%TO.N,Net-(U2-XTAL1{slash}PB6)*%
X192820000Y-93900000D03*
%TO.P,U2,10,XTAL2/PB7*%
%TO.N,Net-(U2-XTAL2{slash}PB7)*%
X195360000Y-93900000D03*
%TO.P,U2,11,PD5*%
%TO.N,unconnected-(U2-PD5-Pad11)*%
X197900000Y-93900000D03*
%TO.P,U2,12,PD6*%
%TO.N,unconnected-(U2-PD6-Pad12)*%
X200440000Y-93900000D03*
%TO.P,U2,13,PD7*%
%TO.N,unconnected-(U2-PD7-Pad13)*%
X202980000Y-93900000D03*
%TO.P,U2,14,PB0*%
%TO.N,unconnected-(U2-PB0-Pad14)*%
X205520000Y-93900000D03*
%TO.P,U2,15,PB1*%
%TO.N,unconnected-(U2-PB1-Pad15)*%
X205520000Y-86280000D03*
%TO.P,U2,16,PB2*%
%TO.N,unconnected-(U2-PB2-Pad16)*%
X202980000Y-86280000D03*
%TO.P,U2,17,PB3*%
%TO.N,unconnected-(U2-PB3-Pad17)*%
X200440000Y-86280000D03*
%TO.P,U2,18,PB4*%
%TO.N,unconnected-(U2-PB4-Pad18)*%
X197900000Y-86280000D03*
%TO.P,U2,19,PB5*%
%TO.N,unconnected-(U2-PB5-Pad19)*%
X195360000Y-86280000D03*
%TO.P,U2,20,AVCC*%
%TO.N,5V*%
X192820000Y-86280000D03*
%TO.P,U2,21,AREF*%
%TO.N,unconnected-(U2-AREF-Pad21)*%
X190280000Y-86280000D03*
%TO.P,U2,22,GND*%
%TO.N,GND*%
X187740000Y-86280000D03*
%TO.P,U2,23,PC0*%
%TO.N,unconnected-(U2-PC0-Pad23)*%
X185200000Y-86280000D03*
%TO.P,U2,24,PC1*%
%TO.N,unconnected-(U2-PC1-Pad24)*%
X182660000Y-86280000D03*
%TO.P,U2,25,PC2*%
%TO.N,unconnected-(U2-PC2-Pad25)*%
X180120000Y-86280000D03*
%TO.P,U2,26,PC3*%
%TO.N,unconnected-(U2-PC3-Pad26)*%
X177580000Y-86280000D03*
%TO.P,U2,27,PC4*%
%TO.N,SDA*%
X175040000Y-86280000D03*
%TO.P,U2,28,PC5*%
%TO.N,SCL*%
X172500000Y-86280000D03*
%TD*%
D12*
%TO.P,R1,1*%
%TO.N,Net-(D1-A)*%
X222900000Y-87800000D03*
D13*
%TO.P,R1,2*%
%TO.N,S. LED*%
X227980000Y-87800000D03*
%TD*%
D20*
%TO.P,C1,1*%
%TO.N,Net-(U2-XTAL1{slash}PB6)*%
X192750000Y-97100000D03*
%TO.P,C1,2*%
%TO.N,GND*%
X190250000Y-97100000D03*
%TD*%
D21*
%TO.P,H-1,1,1*%
%TO.N,GND*%
X173750000Y-74000000D03*
D22*
%TO.P,H-1,2,2*%
%TO.N,BT-1*%
X173750000Y-79000000D03*
%TO.P,H-1,3*%
%TO.N,N/C*%
X186250000Y-74000000D03*
%TO.P,H-1,4*%
X186250000Y-79000000D03*
%TD*%
D21*
%TO.P,0/1,1,1*%
%TO.N,GND*%
X194850000Y-74000000D03*
D22*
%TO.P,0/1,2,2*%
%TO.N,BT-Pwr*%
X194850000Y-79000000D03*
%TO.P,0/1,3*%
%TO.N,N/C*%
X207350000Y-74000000D03*
%TO.P,0/1,4*%
X207350000Y-79000000D03*
%TD*%
D23*
%TO.P,D1,1,K*%
%TO.N,GND*%
X217075000Y-88970000D03*
D24*
%TO.P,D1,2,A*%
%TO.N,Net-(D1-A)*%
X219615000Y-88970000D03*
%TD*%
D20*
%TO.P,C2,1*%
%TO.N,Net-(U2-XTAL2{slash}PB7)*%
X197900000Y-97100000D03*
%TO.P,C2,2*%
%TO.N,GND*%
X195400000Y-97100000D03*
%TD*%
D21*
%TO.P,H-2,1,1*%
%TO.N,GND*%
X215950000Y-74000000D03*
D22*
%TO.P,H-2,2,2*%
%TO.N,BT-2*%
X215950000Y-79000000D03*
%TO.P,H-2,3*%
%TO.N,N/C*%
X228450000Y-74000000D03*
%TO.P,H-2,4*%
X228450000Y-79000000D03*
%TD*%
D25*
%TO.P,J4,1,Pin_1*%
%TO.N,GND*%
X220380000Y-96520000D03*
D26*
%TO.P,J4,2,Pin_2*%
%TO.N,BT-Pwr*%
X217880000Y-96520000D03*
%TD*%
D27*
%TO.P,J5,1,Pin_1*%
%TO.N,GND*%
X228200000Y-95900000D03*
D28*
%TO.P,J5,2,Pin_2*%
%TO.N,S. LED*%
X228200000Y-93400000D03*
%TD*%
D29*
%TO.P,J2,1,Pin_1*%
%TO.N,GND*%
X134900000Y-97000000D03*
D26*
%TO.P,J2,2,Pin_2*%
%TO.N,BT-1*%
X137400000Y-97000000D03*
%TD*%
D30*
%TO.P,J1,1,Pin_1*%
%TO.N,5V*%
X135700000Y-80120000D03*
D31*
%TO.P,J1,2,Pin_2*%
%TO.N,GND*%
X133160000Y-80120000D03*
%TO.P,J1,3,Pin_3*%
%TO.N,BT-Pwr*%
X135700000Y-82660000D03*
%TO.P,J1,4,Pin_4*%
%TO.N,S. LED*%
X133160000Y-82660000D03*
%TO.P,J1,5,Pin_5*%
%TO.N,BT-1*%
X135700000Y-85200000D03*
%TO.P,J1,6,Pin_6*%
%TO.N,RX*%
X133160000Y-85200000D03*
%TO.P,J1,7,Pin_7*%
%TO.N,BT-2*%
X135700000Y-87740000D03*
%TO.P,J1,8,Pin_8*%
%TO.N,TX*%
X133160000Y-87740000D03*
%TD*%
D29*
%TO.P,J3,1,Pin_1*%
%TO.N,GND*%
X134900000Y-71600000D03*
D26*
%TO.P,J3,2,Pin_2*%
%TO.N,BT-2*%
X137400000Y-71600000D03*
%TD*%
D32*
%TO.N,5V*%
X170397132Y-88502868D03*
%TO.N,BT-Pwr*%
X161800000Y-82660000D03*
X170800000Y-82400000D03*
%TO.N,BT-1*%
X173200000Y-82300000D03*
X162600000Y-84700000D03*
%TO.N,BT-2*%
X140500000Y-86800000D03*
X140500000Y-78000000D03*
%TD*%
D33*
%TO.N,5V*%
X170320000Y-95030000D02*
X172630000Y-97340000D01*
X170320000Y-88580000D02*
X170320000Y-95030000D01*
X170397132Y-88502868D02*
X170320000Y-88580000D01*
%TO.N,BT-Pwr*%
X170700000Y-82500000D02*
X170800000Y-82400000D01*
X161800000Y-82660000D02*
X161960000Y-82500000D01*
X161960000Y-82500000D02*
X170700000Y-82500000D01*
%TO.N,BT-1*%
X171400000Y-84100000D02*
X173200000Y-82300000D01*
X137140000Y-85200000D02*
X135700000Y-85200000D01*
X138100000Y-96300000D02*
X138100000Y-86160000D01*
X163200000Y-84100000D02*
X171400000Y-84100000D01*
X162600000Y-84700000D02*
X163200000Y-84100000D01*
X137400000Y-97000000D02*
X138100000Y-96300000D01*
X138100000Y-86160000D02*
X137140000Y-85200000D01*
%TO.N,BT-2*%
X140500000Y-78000000D02*
X140500000Y-86800000D01*
%TD*%
%TA.AperFunction,Conductor*%
%TO.N,GND*%
G36*
X134279341Y-80885789D02*
G01*
X134331191Y-80896209D01*
X134381375Y-80944823D01*
X134391205Y-80966966D01*
X134415186Y-81039334D01*
X134507288Y-81188656D01*
X134631344Y-81312712D01*
X134780666Y-81404814D01*
X134789264Y-81407663D01*
X134846707Y-81447433D01*
X134873531Y-81511948D01*
X134861217Y-81580724D01*
X134832234Y-81617483D01*
X134832427Y-81617676D01*
X134830798Y-81619304D01*
X134829975Y-81620349D01*
X134828599Y-81621503D01*
X134661505Y-81788597D01*
X134531575Y-81974158D01*
X134476998Y-82017783D01*
X134407500Y-82024977D01*
X134345145Y-81993454D01*
X134328425Y-81974158D01*
X134198494Y-81788597D01*
X134031402Y-81621506D01*
X134031401Y-81621505D01*
X133845405Y-81491269D01*
X133801781Y-81436692D01*
X133794588Y-81367193D01*
X133826110Y-81304839D01*
X133845405Y-81288119D01*
X133921373Y-81234925D01*
X133289409Y-80602962D01*
X133352993Y-80585925D01*
X133467007Y-80520099D01*
X133560099Y-80427007D01*
X133625925Y-80312993D01*
X133642962Y-80249410D01*
X134279341Y-80885789D01*
G37*
%TD.AperFunction*%
%TA.AperFunction,Conductor*%
G36*
X233703730Y-67600725D02*
G01*
X233993795Y-67618271D01*
X234008657Y-67620075D01*
X234124987Y-67641394D01*
X234290798Y-67671780D01*
X234305335Y-67675363D01*
X234579172Y-67760695D01*
X234593163Y-67766000D01*
X234854743Y-67883727D01*
X234867989Y-67890680D01*
X235113465Y-68039075D01*
X235125776Y-68047573D01*
X235152987Y-68068891D01*
X235351573Y-68224473D01*
X235362781Y-68234403D01*
X235565596Y-68437218D01*
X235575526Y-68448426D01*
X235633811Y-68522821D01*
X235695481Y-68601538D01*
X235752422Y-68674217D01*
X235760926Y-68686537D01*
X235773813Y-68707855D01*
X235909316Y-68932004D01*
X235916275Y-68945263D01*
X236033997Y-69206831D01*
X236039306Y-69220832D01*
X236124635Y-69494663D01*
X236128219Y-69509201D01*
X236179923Y-69791340D01*
X236181728Y-69806205D01*
X236199256Y-70095983D01*
X236199481Y-70103922D01*
X236099544Y-97543912D01*
X236099160Y-97553220D01*
X236076698Y-97837709D01*
X236074656Y-97852360D01*
X236018864Y-98130216D01*
X236015093Y-98144519D01*
X235926608Y-98413768D01*
X235921160Y-98427520D01*
X235801244Y-98684315D01*
X235794197Y-98697320D01*
X235644558Y-98938006D01*
X235636012Y-98950080D01*
X235458780Y-99171231D01*
X235448858Y-99182201D01*
X235246551Y-99380677D01*
X235235393Y-99390388D01*
X235010890Y-99563363D01*
X234998655Y-99571676D01*
X234755153Y-99716687D01*
X234742015Y-99723484D01*
X234482979Y-99838466D01*
X234469126Y-99843650D01*
X234198242Y-99926969D01*
X234183870Y-99930467D01*
X233904984Y-99980940D01*
X233890297Y-99982701D01*
X233612865Y-99999277D01*
X233605494Y-99999498D01*
X128525071Y-100020818D01*
X128517560Y-100020592D01*
X128234434Y-100003468D01*
X128219569Y-100001663D01*
X127944255Y-99951211D01*
X127929716Y-99947628D01*
X127713211Y-99880164D01*
X127662477Y-99864354D01*
X127648483Y-99859047D01*
X127552677Y-99815929D01*
X127393234Y-99744170D01*
X127379976Y-99737211D01*
X127140440Y-99592408D01*
X127128116Y-99583902D01*
X126907777Y-99411277D01*
X126896569Y-99401347D01*
X126698652Y-99203430D01*
X126688722Y-99192222D01*
X126680871Y-99182201D01*
X126516093Y-98971877D01*
X126507591Y-98959559D01*
X126362788Y-98720023D01*
X126355829Y-98706765D01*
X126351578Y-98697320D01*
X126240948Y-98451507D01*
X126235647Y-98437532D01*
X126152370Y-98170280D01*
X126148788Y-98155744D01*
X126145442Y-98137487D01*
X126098335Y-97880428D01*
X126096531Y-97865564D01*
X126096334Y-97862315D01*
X126079405Y-97582428D01*
X126079180Y-97574941D01*
X126079180Y-97546317D01*
X126079181Y-97512791D01*
X126079180Y-97512787D01*
X126079180Y-97506040D01*
X126079024Y-97503695D01*
X126078376Y-97193713D01*
X127349500Y-97193713D01*
X127349500Y-97406286D01*
X127382486Y-97614555D01*
X127382754Y-97616243D01*
X127434512Y-97775538D01*
X127448444Y-97818414D01*
X127544951Y-98007820D01*
X127669890Y-98179786D01*
X127820213Y-98330109D01*
X127992179Y-98455048D01*
X127992181Y-98455049D01*
X127992184Y-98455051D01*
X128181588Y-98551557D01*
X128383757Y-98617246D01*
X128593713Y-98650500D01*
X128593714Y-98650500D01*
X128806286Y-98650500D01*
X128806287Y-98650500D01*
X129016243Y-98617246D01*
X129218412Y-98551557D01*
X129407816Y-98455051D01*
X129436300Y-98434356D01*
X129579786Y-98330109D01*
X129579788Y-98330106D01*
X129579792Y-98330104D01*
X129730104Y-98179792D01*
X129730106Y-98179788D01*
X129730109Y-98179786D01*
X129855048Y-98007820D01*
X129855047Y-98007820D01*
X129855051Y-98007816D01*
X129951557Y-97818412D01*
X130017246Y-97616243D01*
X130050500Y-97406287D01*
X130050500Y-97193713D01*
X130017246Y-96983757D01*
X129951557Y-96781588D01*
X129855051Y-96592184D01*
X129855049Y-96592181D01*
X129855048Y-96592179D01*
X129730109Y-96420213D01*
X129579786Y-96269890D01*
X129407820Y-96144951D01*
X129218414Y-96048444D01*
X129218413Y-96048443D01*
X129218412Y-96048443D01*
X129016243Y-95982754D01*
X129016241Y-95982753D01*
X129016240Y-95982753D01*
X128842761Y-95955277D01*
X128806287Y-95949500D01*
X128593713Y-95949500D01*
X128557239Y-95955277D01*
X128383760Y-95982753D01*
X128383757Y-95982754D01*
X128266129Y-96020974D01*
X128181585Y-96048444D01*
X127992179Y-96144951D01*
X127820213Y-96269890D01*
X127669890Y-96420213D01*
X127544951Y-96592179D01*
X127448444Y-96781585D01*
X127382753Y-96983760D01*
X127349500Y-97193713D01*
X126078376Y-97193713D01*
X126048014Y-82659999D01*
X131804341Y-82659999D01*
X131804341Y-82660000D01*
X131824936Y-82895403D01*
X131824938Y-82895413D01*
X131886094Y-83123655D01*
X131886096Y-83123659D01*
X131886097Y-83123663D01*
X131963575Y-83289815D01*
X131985965Y-83337830D01*
X131985967Y-83337834D01*
X132073737Y-83463181D01*
X132121501Y-83531396D01*
X132121506Y-83531402D01*
X132288597Y-83698493D01*
X132288603Y-83698498D01*
X132474158Y-83828425D01*
X132517783Y-83883002D01*
X132524977Y-83952500D01*
X132493454Y-84014855D01*
X132474158Y-84031575D01*
X132288597Y-84161505D01*
X132121505Y-84328597D01*
X131985965Y-84522169D01*
X131985964Y-84522171D01*
X131886098Y-84736335D01*
X131886094Y-84736344D01*
X131824938Y-84964586D01*
X131824936Y-84964596D01*
X131804341Y-85199999D01*
X131804341Y-85200000D01*
X131824936Y-85435403D01*
X131824938Y-85435413D01*
X131886094Y-85663655D01*
X131886096Y-85663659D01*
X131886097Y-85663663D01*
X131965295Y-85833504D01*
X131985965Y-85877830D01*
X131985967Y-85877834D01*
X132031783Y-85943265D01*
X132121501Y-86071396D01*
X132121506Y-86071402D01*
X132288597Y-86238493D01*
X132288603Y-86238498D01*
X132474158Y-86368425D01*
X132517783Y-86423002D01*
X132524977Y-86492500D01*
X132493454Y-86554855D01*
X132474158Y-86571575D01*
X132288597Y-86701505D01*
X132121505Y-86868597D01*
X131985965Y-87062169D01*
X131985964Y-87062171D01*
X131886098Y-87276335D01*
X131886094Y-87276344D01*
X131824938Y-87504586D01*
X131824936Y-87504596D01*
X131804341Y-87739999D01*
X131804341Y-87740000D01*
X131824936Y-87975403D01*
X131824938Y-87975413D01*
X131886094Y-88203655D01*
X131886096Y-88203659D01*
X131886097Y-88203663D01*
X131890000Y-88212032D01*
X131985965Y-88417830D01*
X131985967Y-88417834D01*
X132088169Y-88563793D01*
X132121505Y-88611401D01*
X132288599Y-88778495D01*
X132314036Y-88796306D01*
X132482165Y-88914032D01*
X132482167Y-88914033D01*
X132482170Y-88914035D01*
X132696337Y-89013903D01*
X132924592Y-89075063D01*
X133112918Y-89091539D01*
X133159999Y-89095659D01*
X133160000Y-89095659D01*
X133160001Y-89095659D01*
X133199234Y-89092226D01*
X133395408Y-89075063D01*
X133623663Y-89013903D01*
X133837830Y-88914035D01*
X134031401Y-88778495D01*
X134198495Y-88611401D01*
X134328425Y-88425842D01*
X134383002Y-88382217D01*
X134452500Y-88375023D01*
X134514855Y-88406546D01*
X134531575Y-88425842D01*
X134661500Y-88611395D01*
X134661505Y-88611401D01*
X134828599Y-88778495D01*
X134854036Y-88796306D01*
X135022165Y-88914032D01*
X135022167Y-88914033D01*
X135022170Y-88914035D01*
X135236337Y-89013903D01*
X135464592Y-89075063D01*
X135652918Y-89091539D01*
X135699999Y-89095659D01*
X135700000Y-89095659D01*
X135700001Y-89095659D01*
X135739234Y-89092226D01*
X135935408Y-89075063D01*
X136163663Y-89013903D01*
X136377830Y-88914035D01*
X136571401Y-88778495D01*
X136738495Y-88611401D01*
X136874035Y-88417830D01*
X136973903Y-88203663D01*
X137035063Y-87975408D01*
X137055659Y-87740000D01*
X137053690Y-87717500D01*
X137041346Y-87576403D01*
X137035063Y-87504592D01*
X136988626Y-87331285D01*
X136973905Y-87276344D01*
X136973904Y-87276343D01*
X136973903Y-87276337D01*
X136874035Y-87062171D01*
X136868425Y-87054158D01*
X136738494Y-86868597D01*
X136571402Y-86701506D01*
X136571396Y-86701501D01*
X136385842Y-86571575D01*
X136342217Y-86516998D01*
X136335023Y-86447500D01*
X136366546Y-86385145D01*
X136385842Y-86368425D01*
X136493967Y-86292715D01*
X136571401Y-86238495D01*
X136738495Y-86071401D01*
X136828217Y-85943263D01*
X136882792Y-85899640D01*
X136952291Y-85892446D01*
X137014646Y-85923968D01*
X137017472Y-85926707D01*
X137463181Y-86372416D01*
X137496666Y-86433739D01*
X137499500Y-86460097D01*
X137499500Y-95375500D01*
X137479815Y-95442539D01*
X137427011Y-95488294D01*
X137375500Y-95499500D01*
X137293713Y-95499500D01*
X137247137Y-95506877D01*
X137083760Y-95532753D01*
X136881585Y-95598444D01*
X136692179Y-95694951D01*
X136520215Y-95819889D01*
X136381035Y-95959069D01*
X136319712Y-95992553D01*
X136250020Y-95987569D01*
X136194087Y-95945697D01*
X136187815Y-95936484D01*
X136092315Y-95781654D01*
X135968345Y-95657684D01*
X135819124Y-95565643D01*
X135819119Y-95565641D01*
X135652697Y-95510494D01*
X135652690Y-95510493D01*
X135549986Y-95500000D01*
X135150000Y-95500000D01*
X135150000Y-96566988D01*
X135092993Y-96534075D01*
X134965826Y-96500000D01*
X134834174Y-96500000D01*
X134707007Y-96534075D01*
X134650000Y-96566988D01*
X134650000Y-95500000D01*
X134250028Y-95500000D01*
X134250012Y-95500001D01*
X134147302Y-95510494D01*
X133980880Y-95565641D01*
X133980875Y-95565643D01*
X133831654Y-95657684D01*
X133707684Y-95781654D01*
X133615643Y-95930875D01*
X133615641Y-95930880D01*
X133560494Y-96097302D01*
X133560493Y-96097309D01*
X133550000Y-96200013D01*
X133550000Y-96750000D01*
X134466988Y-96750000D01*
X134434075Y-96807007D01*
X134400000Y-96934174D01*
X134400000Y-97065826D01*
X134434075Y-97192993D01*
X134466988Y-97250000D01*
X133550001Y-97250000D01*
X133550001Y-97799986D01*
X133560494Y-97902697D01*
X133615641Y-98069119D01*
X133615643Y-98069124D01*
X133707684Y-98218345D01*
X133831654Y-98342315D01*
X133980875Y-98434356D01*
X133980880Y-98434358D01*
X134147302Y-98489505D01*
X134147309Y-98489506D01*
X134250019Y-98499999D01*
X134649999Y-98499999D01*
X134650000Y-98499998D01*
X134650000Y-97433012D01*
X134707007Y-97465925D01*
X134834174Y-97500000D01*
X134965826Y-97500000D01*
X135092993Y-97465925D01*
X135150000Y-97433012D01*
X135150000Y-98499999D01*
X135549972Y-98499999D01*
X135549986Y-98499998D01*
X135652697Y-98489505D01*
X135819119Y-98434358D01*
X135819124Y-98434356D01*
X135968345Y-98342315D01*
X136092317Y-98218343D01*
X136187815Y-98063516D01*
X136239763Y-98016791D01*
X136308725Y-98005568D01*
X136372808Y-98033412D01*
X136381035Y-98040931D01*
X136520213Y-98180109D01*
X136692179Y-98305048D01*
X136692181Y-98305049D01*
X136692184Y-98305051D01*
X136881588Y-98401557D01*
X137083757Y-98467246D01*
X137293713Y-98500500D01*
X137293714Y-98500500D01*
X137506286Y-98500500D01*
X137506287Y-98500500D01*
X137716243Y-98467246D01*
X137918412Y-98401557D01*
X138107816Y-98305051D01*
X138210334Y-98230568D01*
X138279786Y-98180109D01*
X138279788Y-98180106D01*
X138279792Y-98180104D01*
X138430104Y-98029792D01*
X138430106Y-98029788D01*
X138430109Y-98029786D01*
X138555048Y-97857820D01*
X138555047Y-97857820D01*
X138555051Y-97857816D01*
X138651557Y-97668412D01*
X138717246Y-97466243D01*
X138750500Y-97256287D01*
X138750500Y-96743713D01*
X138717246Y-96533757D01*
X138696699Y-96470524D01*
X138694705Y-96400686D01*
X138694773Y-96400428D01*
X138700500Y-96379057D01*
X138700500Y-95099998D01*
X142294390Y-95099998D01*
X142294390Y-95100001D01*
X142314804Y-95385433D01*
X142375628Y-95665037D01*
X142375630Y-95665043D01*
X142375631Y-95665046D01*
X142474782Y-95930880D01*
X142475635Y-95933166D01*
X142612770Y-96184309D01*
X142612775Y-96184317D01*
X142784254Y-96413387D01*
X142784270Y-96413405D01*
X142986594Y-96615729D01*
X142986612Y-96615745D01*
X143215682Y-96787224D01*
X143215690Y-96787229D01*
X143466833Y-96924364D01*
X143466832Y-96924364D01*
X143466836Y-96924365D01*
X143466839Y-96924367D01*
X143734954Y-97024369D01*
X143734960Y-97024370D01*
X143734962Y-97024371D01*
X144014566Y-97085195D01*
X144014568Y-97085195D01*
X144014572Y-97085196D01*
X144268220Y-97103337D01*
X144299999Y-97105610D01*
X144300000Y-97105610D01*
X144300001Y-97105610D01*
X144328595Y-97103564D01*
X144585428Y-97085196D01*
X144759455Y-97047339D01*
X144865037Y-97024371D01*
X144865037Y-97024370D01*
X144865046Y-97024369D01*
X145133161Y-96924367D01*
X145384315Y-96787226D01*
X145613395Y-96615739D01*
X145815739Y-96413395D01*
X145987226Y-96184315D01*
X146124367Y-95933161D01*
X146224369Y-95665046D01*
X146253147Y-95532754D01*
X146285195Y-95385433D01*
X146285195Y-95385432D01*
X146285196Y-95385428D01*
X146304962Y-95109057D01*
X146305610Y-95100001D01*
X146305610Y-95099998D01*
X164294390Y-95099998D01*
X164294390Y-95100001D01*
X164314804Y-95385433D01*
X164375628Y-95665037D01*
X164375630Y-95665043D01*
X164375631Y-95665046D01*
X164474782Y-95930880D01*
X164475635Y-95933166D01*
X164612770Y-96184309D01*
X164612775Y-96184317D01*
X164784254Y-96413387D01*
X164784270Y-96413405D01*
X164986594Y-96615729D01*
X164986612Y-96615745D01*
X165215682Y-96787224D01*
X165215690Y-96787229D01*
X165466833Y-96924364D01*
X165466832Y-96924364D01*
X165466836Y-96924365D01*
X165466839Y-96924367D01*
X165734954Y-97024369D01*
X165734960Y-97024370D01*
X165734962Y-97024371D01*
X166014566Y-97085195D01*
X166014568Y-97085195D01*
X166014572Y-97085196D01*
X166268220Y-97103337D01*
X166299999Y-97105610D01*
X166300000Y-97105610D01*
X166300001Y-97105610D01*
X166328595Y-97103564D01*
X166585428Y-97085196D01*
X166759455Y-97047339D01*
X166865037Y-97024371D01*
X166865037Y-97024370D01*
X166865046Y-97024369D01*
X167133161Y-96924367D01*
X167384315Y-96787226D01*
X167613395Y-96615739D01*
X167815739Y-96413395D01*
X167987226Y-96184315D01*
X168124367Y-95933161D01*
X168224369Y-95665046D01*
X168253147Y-95532754D01*
X168285195Y-95385433D01*
X168285195Y-95385432D01*
X168285196Y-95385428D01*
X168304962Y-95109057D01*
X168305610Y-95100001D01*
X168305610Y-95099998D01*
X168294405Y-94943330D01*
X168285196Y-94814572D01*
X168276023Y-94772406D01*
X168224371Y-94534962D01*
X168224370Y-94534960D01*
X168224369Y-94534954D01*
X168124367Y-94266839D01*
X168079702Y-94185042D01*
X167987229Y-94015690D01*
X167987224Y-94015682D01*
X167815745Y-93786612D01*
X167815729Y-93786594D01*
X167613405Y-93584270D01*
X167613387Y-93584254D01*
X167384317Y-93412775D01*
X167384309Y-93412770D01*
X167133166Y-93275635D01*
X167133167Y-93275635D01*
X167025915Y-93235632D01*
X166865046Y-93175631D01*
X166865043Y-93175630D01*
X166865037Y-93175628D01*
X166585433Y-93114804D01*
X166300001Y-93094390D01*
X166299999Y-93094390D01*
X166014566Y-93114804D01*
X165734962Y-93175628D01*
X165466833Y-93275635D01*
X165215690Y-93412770D01*
X165215682Y-93412775D01*
X164986612Y-93584254D01*
X164986594Y-93584270D01*
X164784270Y-93786594D01*
X164784254Y-93786612D01*
X164612775Y-94015682D01*
X164612770Y-94015690D01*
X164475635Y-94266833D01*
X164375628Y-94534962D01*
X164314804Y-94814566D01*
X164294390Y-95099998D01*
X146305610Y-95099998D01*
X146294405Y-94943330D01*
X146285196Y-94814572D01*
X146276023Y-94772406D01*
X146224371Y-94534962D01*
X146224370Y-94534960D01*
X146224369Y-94534954D01*
X146124367Y-94266839D01*
X146079702Y-94185042D01*
X145987229Y-94015690D01*
X145987224Y-94015682D01*
X145815745Y-93786612D01*
X145815729Y-93786594D01*
X145613405Y-93584270D01*
X145613387Y-93584254D01*
X145384317Y-93412775D01*
X145384309Y-93412770D01*
X145133166Y-93275635D01*
X145133167Y-93275635D01*
X145025915Y-93235632D01*
X144865046Y-93175631D01*
X144865043Y-93175630D01*
X144865037Y-93175628D01*
X144585433Y-93114804D01*
X144300001Y-93094390D01*
X144299999Y-93094390D01*
X144014566Y-93114804D01*
X143734962Y-93175628D01*
X143466833Y-93275635D01*
X143215690Y-93412770D01*
X143215682Y-93412775D01*
X142986612Y-93584254D01*
X142986594Y-93584270D01*
X142784270Y-93786594D01*
X142784254Y-93786612D01*
X142612775Y-94015682D01*
X142612770Y-94015690D01*
X142475635Y-94266833D01*
X142375628Y-94534962D01*
X142314804Y-94814566D01*
X142294390Y-95099998D01*
X138700500Y-95099998D01*
X138700500Y-88502864D01*
X169591567Y-88502864D01*
X169591567Y-88502871D01*
X169611762Y-88682117D01*
X169611763Y-88682122D01*
X169671343Y-88852392D01*
X169700493Y-88898782D01*
X169719500Y-88964755D01*
X169719500Y-94943330D01*
X169719499Y-94943348D01*
X169719499Y-95109054D01*
X169719498Y-95109054D01*
X169719499Y-95109057D01*
X169760423Y-95261785D01*
X169767492Y-95274029D01*
X169767494Y-95274037D01*
X169767497Y-95274036D01*
X169831808Y-95385428D01*
X169839479Y-95398714D01*
X169839481Y-95398717D01*
X169958349Y-95517585D01*
X169958355Y-95517590D01*
X171418685Y-96977920D01*
X171452170Y-97039243D01*
X171450271Y-97099532D01*
X171444885Y-97118462D01*
X171424357Y-97339999D01*
X171424357Y-97340000D01*
X171444884Y-97561535D01*
X171444885Y-97561537D01*
X171505769Y-97775523D01*
X171505775Y-97775538D01*
X171604938Y-97974683D01*
X171604943Y-97974691D01*
X171739020Y-98152238D01*
X171903437Y-98302123D01*
X171903439Y-98302125D01*
X172092595Y-98419245D01*
X172092596Y-98419245D01*
X172092599Y-98419247D01*
X172300060Y-98499618D01*
X172518757Y-98540500D01*
X172518759Y-98540500D01*
X172741241Y-98540500D01*
X172741243Y-98540500D01*
X172959940Y-98499618D01*
X173167401Y-98419247D01*
X173356562Y-98302124D01*
X173520981Y-98152236D01*
X173655058Y-97974689D01*
X173754229Y-97775528D01*
X173815115Y-97561536D01*
X173835643Y-97340000D01*
X173835643Y-97339999D01*
X176504357Y-97339999D01*
X176504357Y-97340000D01*
X176524884Y-97561535D01*
X176524885Y-97561537D01*
X176585769Y-97775523D01*
X176585775Y-97775538D01*
X176684938Y-97974683D01*
X176684943Y-97974691D01*
X176819020Y-98152238D01*
X176983437Y-98302123D01*
X176983439Y-98302125D01*
X177172595Y-98419245D01*
X177172596Y-98419245D01*
X177172599Y-98419247D01*
X177380060Y-98499618D01*
X177598757Y-98540500D01*
X177598759Y-98540500D01*
X177821241Y-98540500D01*
X177821243Y-98540500D01*
X178039940Y-98499618D01*
X178247401Y-98419247D01*
X178436562Y-98302124D01*
X178600981Y-98152236D01*
X178735058Y-97974689D01*
X178834229Y-97775528D01*
X178895115Y-97561536D01*
X178915643Y-97340000D01*
X178913788Y-97319986D01*
X178901941Y-97192135D01*
X180349500Y-97192135D01*
X180349500Y-98287870D01*
X180349501Y-98287876D01*
X180355908Y-98347483D01*
X180406202Y-98482328D01*
X180406206Y-98482335D01*
X180492452Y-98597544D01*
X180492455Y-98597547D01*
X180607664Y-98683793D01*
X180607671Y-98683797D01*
X180742517Y-98734091D01*
X180742516Y-98734091D01*
X180749444Y-98734835D01*
X180802127Y-98740500D01*
X181897872Y-98740499D01*
X181957483Y-98734091D01*
X182012412Y-98713604D01*
X182092329Y-98683797D01*
X182092329Y-98683796D01*
X182092331Y-98683796D01*
X182100822Y-98677439D01*
X182166284Y-98653021D01*
X182229628Y-98666502D01*
X182229830Y-98666016D01*
X182232461Y-98667105D01*
X182233585Y-98667345D01*
X182235462Y-98668348D01*
X182370000Y-98709159D01*
X182870000Y-98709159D01*
X183004534Y-98668349D01*
X183178260Y-98575491D01*
X183330528Y-98450528D01*
X183455492Y-98298260D01*
X183455496Y-98298253D01*
X183548347Y-98124541D01*
X183589160Y-97990000D01*
X182870000Y-97990000D01*
X182870000Y-98709159D01*
X182370000Y-98709159D01*
X182370000Y-97949618D01*
X182420446Y-98000064D01*
X182494555Y-98042851D01*
X182577213Y-98065000D01*
X182662787Y-98065000D01*
X182745445Y-98042851D01*
X182819554Y-98000064D01*
X182880064Y-97939554D01*
X182922851Y-97865445D01*
X182945000Y-97782787D01*
X182945000Y-97697213D01*
X182922851Y-97614555D01*
X182880064Y-97540446D01*
X182829618Y-97490000D01*
X182870000Y-97490000D01*
X183589160Y-97490000D01*
X183589160Y-97489999D01*
X183548347Y-97355458D01*
X183455496Y-97181746D01*
X183455492Y-97181739D01*
X183388408Y-97099997D01*
X188945034Y-97099997D01*
X188945034Y-97100002D01*
X188964858Y-97326599D01*
X188964860Y-97326610D01*
X189023730Y-97546317D01*
X189023735Y-97546331D01*
X189119863Y-97752478D01*
X189170974Y-97825472D01*
X189850000Y-97146446D01*
X189850000Y-97152661D01*
X189877259Y-97254394D01*
X189929920Y-97345606D01*
X190004394Y-97420080D01*
X190095606Y-97472741D01*
X190197339Y-97500000D01*
X190203553Y-97500000D01*
X189524526Y-98179025D01*
X189597513Y-98230132D01*
X189597521Y-98230136D01*
X189803668Y-98326264D01*
X189803682Y-98326269D01*
X190023389Y-98385139D01*
X190023400Y-98385141D01*
X190249998Y-98404966D01*
X190250002Y-98404966D01*
X190476599Y-98385141D01*
X190476610Y-98385139D01*
X190696317Y-98326269D01*
X190696331Y-98326264D01*
X190902478Y-98230136D01*
X190975471Y-98179024D01*
X190296447Y-97500000D01*
X190302661Y-97500000D01*
X190404394Y-97472741D01*
X190495606Y-97420080D01*
X190570080Y-97345606D01*
X190622741Y-97254394D01*
X190650000Y-97152661D01*
X190650000Y-97146447D01*
X191329024Y-97825471D01*
X191380134Y-97752481D01*
X191387340Y-97737028D01*
X191433511Y-97684587D01*
X191500704Y-97665433D01*
X191567585Y-97685646D01*
X191612105Y-97737022D01*
X191619430Y-97752730D01*
X191619432Y-97752734D01*
X191749954Y-97939141D01*
X191910858Y-98100045D01*
X191910861Y-98100047D01*
X192097266Y-98230568D01*
X192303504Y-98326739D01*
X192523308Y-98385635D01*
X192685230Y-98399801D01*
X192749998Y-98405468D01*
X192750000Y-98405468D01*
X192750002Y-98405468D01*
X192806673Y-98400509D01*
X192976692Y-98385635D01*
X193196496Y-98326739D01*
X193402734Y-98230568D01*
X193589139Y-98100047D01*
X193750047Y-97939139D01*
X193880568Y-97752734D01*
X193962894Y-97576185D01*
X194009065Y-97523747D01*
X194076259Y-97504595D01*
X194143140Y-97524811D01*
X194187657Y-97576186D01*
X194269864Y-97752480D01*
X194320974Y-97825472D01*
X195000000Y-97146446D01*
X195000000Y-97152661D01*
X195027259Y-97254394D01*
X195079920Y-97345606D01*
X195154394Y-97420080D01*
X195245606Y-97472741D01*
X195347339Y-97500000D01*
X195353553Y-97500000D01*
X194674526Y-98179025D01*
X194747513Y-98230132D01*
X194747521Y-98230136D01*
X194953668Y-98326264D01*
X194953682Y-98326269D01*
X195173389Y-98385139D01*
X195173400Y-98385141D01*
X195399998Y-98404966D01*
X195400002Y-98404966D01*
X195626599Y-98385141D01*
X195626610Y-98385139D01*
X195846317Y-98326269D01*
X195846331Y-98326264D01*
X196052478Y-98230136D01*
X196125471Y-98179024D01*
X195446447Y-97500000D01*
X195452661Y-97500000D01*
X195554394Y-97472741D01*
X195645606Y-97420080D01*
X195720080Y-97345606D01*
X195772741Y-97254394D01*
X195800000Y-97152661D01*
X195800000Y-97146447D01*
X196479024Y-97825471D01*
X196530134Y-97752481D01*
X196537340Y-97737028D01*
X196583511Y-97684587D01*
X196650704Y-97665433D01*
X196717585Y-97685646D01*
X196762105Y-97737022D01*
X196769430Y-97752730D01*
X196769432Y-97752734D01*
X196899954Y-97939141D01*
X197060858Y-98100045D01*
X197060861Y-98100047D01*
X197247266Y-98230568D01*
X197453504Y-98326739D01*
X197673308Y-98385635D01*
X197835230Y-98399801D01*
X197899998Y-98405468D01*
X197900000Y-98405468D01*
X197900002Y-98405468D01*
X197956673Y-98400509D01*
X198126692Y-98385635D01*
X198346496Y-98326739D01*
X198552734Y-98230568D01*
X198739139Y-98100047D01*
X198900047Y-97939139D01*
X199030568Y-97752734D01*
X199126739Y-97546496D01*
X199185635Y-97326692D01*
X199205468Y-97100000D01*
X199185635Y-96873308D01*
X199126739Y-96653504D01*
X199030568Y-96447266D01*
X198932839Y-96307693D01*
X198902044Y-96263713D01*
X216529500Y-96263713D01*
X216529500Y-96776287D01*
X216534366Y-96807007D01*
X216562703Y-96985925D01*
X216562754Y-96986243D01*
X216605715Y-97118464D01*
X216628444Y-97188414D01*
X216724951Y-97377820D01*
X216849890Y-97549786D01*
X217000213Y-97700109D01*
X217172179Y-97825048D01*
X217172181Y-97825049D01*
X217172184Y-97825051D01*
X217361588Y-97921557D01*
X217563757Y-97987246D01*
X217773713Y-98020500D01*
X217773714Y-98020500D01*
X217986286Y-98020500D01*
X217986287Y-98020500D01*
X218196243Y-97987246D01*
X218398412Y-97921557D01*
X218587816Y-97825051D01*
X218694105Y-97747828D01*
X218759784Y-97700110D01*
X218759784Y-97700109D01*
X218759792Y-97700104D01*
X218898967Y-97560928D01*
X218960286Y-97527446D01*
X219029978Y-97532430D01*
X219085912Y-97574301D01*
X219092184Y-97583515D01*
X219187684Y-97738345D01*
X219311654Y-97862315D01*
X219460875Y-97954356D01*
X219460880Y-97954358D01*
X219627302Y-98009505D01*
X219627309Y-98009506D01*
X219730019Y-98019999D01*
X220129999Y-98019999D01*
X220130000Y-98019998D01*
X220130000Y-96953012D01*
X220187007Y-96985925D01*
X220314174Y-97020000D01*
X220445826Y-97020000D01*
X220572993Y-96985925D01*
X220630000Y-96953012D01*
X220630000Y-98019999D01*
X221029972Y-98019999D01*
X221029986Y-98019998D01*
X221132697Y-98009505D01*
X221299119Y-97954358D01*
X221299124Y-97954356D01*
X221448345Y-97862315D01*
X221572315Y-97738345D01*
X221664356Y-97589124D01*
X221664358Y-97589119D01*
X221719505Y-97422697D01*
X221719506Y-97422690D01*
X221729999Y-97319986D01*
X221730000Y-97319973D01*
X221730000Y-96770000D01*
X220813012Y-96770000D01*
X220845925Y-96712993D01*
X220880000Y-96585826D01*
X220880000Y-96454174D01*
X220845925Y-96327007D01*
X220813012Y-96270000D01*
X221729999Y-96270000D01*
X221729999Y-95720028D01*
X221729998Y-95720013D01*
X221719505Y-95617302D01*
X221664358Y-95450880D01*
X221664356Y-95450875D01*
X221572315Y-95301654D01*
X221448345Y-95177684D01*
X221299124Y-95085643D01*
X221299119Y-95085641D01*
X221132697Y-95030494D01*
X221132690Y-95030493D01*
X221029986Y-95020000D01*
X220630000Y-95020000D01*
X220630000Y-96086988D01*
X220572993Y-96054075D01*
X220445826Y-96020000D01*
X220314174Y-96020000D01*
X220187007Y-96054075D01*
X220130000Y-96086988D01*
X220130000Y-95020000D01*
X219730028Y-95020000D01*
X219730012Y-95020001D01*
X219627302Y-95030494D01*
X219460880Y-95085641D01*
X219460875Y-95085643D01*
X219311654Y-95177684D01*
X219187683Y-95301655D01*
X219187680Y-95301659D01*
X219092183Y-95456484D01*
X219040235Y-95503209D01*
X218971273Y-95514430D01*
X218907191Y-95486587D01*
X218898964Y-95479068D01*
X218759786Y-95339890D01*
X218587820Y-95214951D01*
X218398414Y-95118444D01*
X218398413Y-95118443D01*
X218398412Y-95118443D01*
X218196243Y-95052754D01*
X218196241Y-95052753D01*
X218196240Y-95052753D01*
X218034957Y-95027208D01*
X217986287Y-95019500D01*
X217773713Y-95019500D01*
X217725042Y-95027208D01*
X217563760Y-95052753D01*
X217361585Y-95118444D01*
X217172179Y-95214951D01*
X217000213Y-95339890D01*
X216849890Y-95490213D01*
X216724951Y-95662179D01*
X216628444Y-95851585D01*
X216562753Y-96053760D01*
X216543186Y-96177301D01*
X216529500Y-96263713D01*
X198902044Y-96263713D01*
X198900045Y-96260858D01*
X198739141Y-96099954D01*
X198552734Y-95969432D01*
X198552732Y-95969431D01*
X198346497Y-95873261D01*
X198346488Y-95873258D01*
X198126697Y-95814366D01*
X198126693Y-95814365D01*
X198126692Y-95814365D01*
X198126691Y-95814364D01*
X198126686Y-95814364D01*
X197900002Y-95794532D01*
X197899998Y-95794532D01*
X197673313Y-95814364D01*
X197673302Y-95814366D01*
X197453511Y-95873258D01*
X197453502Y-95873261D01*
X197247267Y-95969431D01*
X197247265Y-95969432D01*
X197060858Y-96099954D01*
X196899954Y-96260858D01*
X196769432Y-96447265D01*
X196769429Y-96447270D01*
X196762104Y-96462979D01*
X196715929Y-96515417D01*
X196648735Y-96534566D01*
X196581855Y-96514347D01*
X196537341Y-96462973D01*
X196530133Y-96447515D01*
X196530132Y-96447513D01*
X196479025Y-96374526D01*
X195800000Y-97053551D01*
X195800000Y-97047339D01*
X195772741Y-96945606D01*
X195720080Y-96854394D01*
X195645606Y-96779920D01*
X195554394Y-96727259D01*
X195452661Y-96700000D01*
X195446448Y-96700000D01*
X196125472Y-96020974D01*
X196052478Y-95969863D01*
X195846331Y-95873735D01*
X195846317Y-95873730D01*
X195626610Y-95814860D01*
X195626599Y-95814858D01*
X195400002Y-95795034D01*
X195399998Y-95795034D01*
X195173400Y-95814858D01*
X195173389Y-95814860D01*
X194953682Y-95873730D01*
X194953673Y-95873734D01*
X194747516Y-95969866D01*
X194747512Y-95969868D01*
X194674526Y-96020973D01*
X194674526Y-96020974D01*
X195353553Y-96700000D01*
X195347339Y-96700000D01*
X195245606Y-96727259D01*
X195154394Y-96779920D01*
X195079920Y-96854394D01*
X195027259Y-96945606D01*
X195000000Y-97047339D01*
X195000000Y-97053552D01*
X194320974Y-96374526D01*
X194320973Y-96374526D01*
X194269868Y-96447512D01*
X194269866Y-96447517D01*
X194187657Y-96623813D01*
X194141484Y-96676252D01*
X194074291Y-96695404D01*
X194007410Y-96675188D01*
X193962894Y-96623814D01*
X193880568Y-96447266D01*
X193782839Y-96307693D01*
X193750045Y-96260858D01*
X193589141Y-96099954D01*
X193402734Y-95969432D01*
X193402732Y-95969431D01*
X193196497Y-95873261D01*
X193196488Y-95873258D01*
X192976697Y-95814366D01*
X192976693Y-95814365D01*
X192976692Y-95814365D01*
X192976691Y-95814364D01*
X192976686Y-95814364D01*
X192750002Y-95794532D01*
X192749998Y-95794532D01*
X192523313Y-95814364D01*
X192523302Y-95814366D01*
X192303511Y-95873258D01*
X192303502Y-95873261D01*
X192097267Y-95969431D01*
X192097265Y-95969432D01*
X191910858Y-96099954D01*
X191749954Y-96260858D01*
X191619432Y-96447265D01*
X191619429Y-96447270D01*
X191612104Y-96462979D01*
X191565929Y-96515417D01*
X191498735Y-96534566D01*
X191431855Y-96514347D01*
X191387341Y-96462973D01*
X191380133Y-96447515D01*
X191380132Y-96447513D01*
X191329025Y-96374526D01*
X190650000Y-97053551D01*
X190650000Y-97047339D01*
X190622741Y-96945606D01*
X190570080Y-96854394D01*
X190495606Y-96779920D01*
X190404394Y-96727259D01*
X190302661Y-96700000D01*
X190296448Y-96700000D01*
X190975472Y-96020974D01*
X190902478Y-95969863D01*
X190696331Y-95873735D01*
X190696317Y-95873730D01*
X190476610Y-95814860D01*
X190476599Y-95814858D01*
X190250002Y-95795034D01*
X190249998Y-95795034D01*
X190023400Y-95814858D01*
X190023389Y-95814860D01*
X189803682Y-95873730D01*
X189803673Y-95873734D01*
X189597516Y-95969866D01*
X189597512Y-95969868D01*
X189524526Y-96020973D01*
X189524526Y-96020974D01*
X190203553Y-96700000D01*
X190197339Y-96700000D01*
X190095606Y-96727259D01*
X190004394Y-96779920D01*
X189929920Y-96854394D01*
X189877259Y-96945606D01*
X189850000Y-97047339D01*
X189850000Y-97053552D01*
X189170974Y-96374526D01*
X189170973Y-96374526D01*
X189119868Y-96447512D01*
X189119866Y-96447516D01*
X189023734Y-96653673D01*
X189023730Y-96653682D01*
X188964860Y-96873389D01*
X188964858Y-96873400D01*
X188945034Y-97099997D01*
X183388408Y-97099997D01*
X183330528Y-97029471D01*
X183178260Y-96904507D01*
X183178253Y-96904503D01*
X183004541Y-96811652D01*
X182870000Y-96770839D01*
X182870000Y-97490000D01*
X182829618Y-97490000D01*
X182819554Y-97479936D01*
X182745445Y-97437149D01*
X182662787Y-97415000D01*
X182577213Y-97415000D01*
X182494555Y-97437149D01*
X182420446Y-97479936D01*
X182370000Y-97530382D01*
X182370000Y-96770839D01*
X182369999Y-96770839D01*
X182235464Y-96811650D01*
X182233586Y-96812655D01*
X182232486Y-96812883D01*
X182229838Y-96813981D01*
X182229629Y-96813478D01*
X182165183Y-96826895D01*
X182100824Y-96802561D01*
X182092335Y-96796206D01*
X182092328Y-96796202D01*
X181957482Y-96745908D01*
X181957483Y-96745908D01*
X181897883Y-96739501D01*
X181897881Y-96739500D01*
X181897873Y-96739500D01*
X181897864Y-96739500D01*
X180802129Y-96739500D01*
X180802123Y-96739501D01*
X180742516Y-96745908D01*
X180607671Y-96796202D01*
X180607664Y-96796206D01*
X180492455Y-96882452D01*
X180492452Y-96882455D01*
X180406206Y-96997664D01*
X180406202Y-96997671D01*
X180355908Y-97132517D01*
X180349501Y-97192116D01*
X180349500Y-97192135D01*
X178901941Y-97192135D01*
X178895115Y-97118464D01*
X178895114Y-97118462D01*
X178891457Y-97105610D01*
X178834229Y-96904472D01*
X178823266Y-96882455D01*
X178735061Y-96705316D01*
X178735056Y-96705308D01*
X178600979Y-96527761D01*
X178436562Y-96377876D01*
X178436560Y-96377874D01*
X178247404Y-96260754D01*
X178247398Y-96260752D01*
X178039940Y-96180382D01*
X177821243Y-96139500D01*
X177598757Y-96139500D01*
X177380060Y-96180382D01*
X177248864Y-96231207D01*
X177172601Y-96260752D01*
X177172595Y-96260754D01*
X176983439Y-96377874D01*
X176983437Y-96377876D01*
X176819020Y-96527761D01*
X176684943Y-96705308D01*
X176684938Y-96705316D01*
X176585775Y-96904461D01*
X176585769Y-96904476D01*
X176524885Y-97118462D01*
X176524884Y-97118464D01*
X176504357Y-97339999D01*
X173835643Y-97339999D01*
X173833788Y-97319986D01*
X173815115Y-97118464D01*
X173815114Y-97118462D01*
X173811457Y-97105610D01*
X173754229Y-96904472D01*
X173743266Y-96882455D01*
X173655061Y-96705316D01*
X173655056Y-96705308D01*
X173520979Y-96527761D01*
X173356562Y-96377876D01*
X173356560Y-96377874D01*
X173167404Y-96260754D01*
X173167398Y-96260752D01*
X172959940Y-96180382D01*
X172741243Y-96139500D01*
X172518757Y-96139500D01*
X172462586Y-96150000D01*
X172380783Y-96165291D01*
X172311268Y-96158259D01*
X172270318Y-96131083D01*
X171550646Y-95411411D01*
X171517161Y-95350088D01*
X171522145Y-95280396D01*
X171564017Y-95224463D01*
X171629481Y-95200046D01*
X171648815Y-95200392D01*
X171648819Y-95200322D01*
X171650782Y-95200427D01*
X171651585Y-95200441D01*
X171652127Y-95200500D01*
X173347872Y-95200499D01*
X173407483Y-95194091D01*
X173542331Y-95143796D01*
X173657546Y-95057546D01*
X173743796Y-94942331D01*
X173794091Y-94807483D01*
X173797862Y-94772401D01*
X173824599Y-94707855D01*
X173881990Y-94668006D01*
X173951816Y-94665511D01*
X174011905Y-94701163D01*
X174022725Y-94714535D01*
X174024623Y-94717246D01*
X174039956Y-94739143D01*
X174200858Y-94900045D01*
X174200861Y-94900047D01*
X174387266Y-95030568D01*
X174593504Y-95126739D01*
X174593509Y-95126740D01*
X174593511Y-95126741D01*
X174646415Y-95140916D01*
X174813308Y-95185635D01*
X174975230Y-95199801D01*
X175039998Y-95205468D01*
X175040000Y-95205468D01*
X175040002Y-95205468D01*
X175098819Y-95200322D01*
X175266692Y-95185635D01*
X175486496Y-95126739D01*
X175692734Y-95030568D01*
X175879139Y-94900047D01*
X176040047Y-94739139D01*
X176170568Y-94552734D01*
X176197618Y-94494724D01*
X176243790Y-94442285D01*
X176310983Y-94423133D01*
X176377865Y-94443348D01*
X176422382Y-94494725D01*
X176449429Y-94552728D01*
X176449432Y-94552734D01*
X176579954Y-94739141D01*
X176740858Y-94900045D01*
X176740861Y-94900047D01*
X176927266Y-95030568D01*
X177133504Y-95126739D01*
X177133509Y-95126740D01*
X177133511Y-95126741D01*
X177186415Y-95140916D01*
X177353308Y-95185635D01*
X177515230Y-95199801D01*
X177579998Y-95205468D01*
X177580000Y-95205468D01*
X177580002Y-95205468D01*
X177638819Y-95200322D01*
X177806692Y-95185635D01*
X178026496Y-95126739D01*
X178232734Y-95030568D01*
X178419139Y-94900047D01*
X178580047Y-94739139D01*
X178710568Y-94552734D01*
X178737618Y-94494724D01*
X178783790Y-94442285D01*
X178850983Y-94423133D01*
X178917865Y-94443348D01*
X178962382Y-94494725D01*
X178989429Y-94552728D01*
X178989432Y-94552734D01*
X179119954Y-94739141D01*
X179280858Y-94900045D01*
X179280861Y-94900047D01*
X179467266Y-95030568D01*
X179673504Y-95126739D01*
X179673509Y-95126740D01*
X179673511Y-95126741D01*
X179726415Y-95140916D01*
X179893308Y-95185635D01*
X180055230Y-95199801D01*
X180119998Y-95205468D01*
X180120000Y-95205468D01*
X180120002Y-95205468D01*
X180178819Y-95200322D01*
X180346692Y-95185635D01*
X180566496Y-95126739D01*
X180772734Y-95030568D01*
X180959139Y-94900047D01*
X181120047Y-94739139D01*
X181250568Y-94552734D01*
X181277618Y-94494724D01*
X181323790Y-94442285D01*
X181390983Y-94423133D01*
X181457865Y-94443348D01*
X181502382Y-94494725D01*
X181529429Y-94552728D01*
X181529432Y-94552734D01*
X181659954Y-94739141D01*
X181820858Y-94900045D01*
X181820861Y-94900047D01*
X182007266Y-95030568D01*
X182213504Y-95126739D01*
X182213509Y-95126740D01*
X182213511Y-95126741D01*
X182266415Y-95140916D01*
X182433308Y-95185635D01*
X182595230Y-95199801D01*
X182659998Y-95205468D01*
X182660000Y-95205468D01*
X182660002Y-95205468D01*
X182718819Y-95200322D01*
X182886692Y-95185635D01*
X183106496Y-95126739D01*
X183312734Y-95030568D01*
X183499139Y-94900047D01*
X183660047Y-94739139D01*
X183790568Y-94552734D01*
X183817618Y-94494724D01*
X183863790Y-94442285D01*
X183930983Y-94423133D01*
X183997865Y-94443348D01*
X184042382Y-94494725D01*
X184069429Y-94552728D01*
X184069432Y-94552734D01*
X184199954Y-94739141D01*
X184360858Y-94900045D01*
X184360861Y-94900047D01*
X184547266Y-95030568D01*
X184753504Y-95126739D01*
X184753509Y-95126740D01*
X184753511Y-95126741D01*
X184806415Y-95140916D01*
X184973308Y-95185635D01*
X185135230Y-95199801D01*
X185199998Y-95205468D01*
X185200000Y-95205468D01*
X185200002Y-95205468D01*
X185258819Y-95200322D01*
X185426692Y-95185635D01*
X185646496Y-95126739D01*
X185852734Y-95030568D01*
X186039139Y-94900047D01*
X186200047Y-94739139D01*
X186330568Y-94552734D01*
X186357618Y-94494724D01*
X186403790Y-94442285D01*
X186470983Y-94423133D01*
X186537865Y-94443348D01*
X186582382Y-94494725D01*
X186609429Y-94552728D01*
X186609432Y-94552734D01*
X186739954Y-94739141D01*
X186900858Y-94900045D01*
X186900861Y-94900047D01*
X187087266Y-95030568D01*
X187293504Y-95126739D01*
X187293509Y-95126740D01*
X187293511Y-95126741D01*
X187346415Y-95140916D01*
X187513308Y-95185635D01*
X187675230Y-95199801D01*
X187739998Y-95205468D01*
X187740000Y-95205468D01*
X187740002Y-95205468D01*
X187798819Y-95200322D01*
X187966692Y-95185635D01*
X188186496Y-95126739D01*
X188392734Y-95030568D01*
X188579139Y-94900047D01*
X188740047Y-94739139D01*
X188870568Y-94552734D01*
X188897895Y-94494129D01*
X188944064Y-94441695D01*
X189011257Y-94422542D01*
X189078139Y-94442757D01*
X189122657Y-94494133D01*
X189149865Y-94552482D01*
X189280342Y-94738820D01*
X189441179Y-94899657D01*
X189627517Y-95030134D01*
X189833673Y-95126265D01*
X189833682Y-95126269D01*
X190029999Y-95178872D01*
X190030000Y-95178871D01*
X190030000Y-94215686D01*
X190034394Y-94220080D01*
X190125606Y-94272741D01*
X190227339Y-94300000D01*
X190332661Y-94300000D01*
X190434394Y-94272741D01*
X190525606Y-94220080D01*
X190530000Y-94215686D01*
X190530000Y-95178872D01*
X190726317Y-95126269D01*
X190726326Y-95126265D01*
X190932482Y-95030134D01*
X191118820Y-94899657D01*
X191279657Y-94738820D01*
X191410132Y-94552484D01*
X191437341Y-94494134D01*
X191483513Y-94441695D01*
X191550707Y-94422542D01*
X191617588Y-94442757D01*
X191662106Y-94494133D01*
X191689431Y-94552732D01*
X191689432Y-94552734D01*
X191819954Y-94739141D01*
X191980858Y-94900045D01*
X191980861Y-94900047D01*
X192167266Y-95030568D01*
X192373504Y-95126739D01*
X192373509Y-95126740D01*
X192373511Y-95126741D01*
X192426415Y-95140916D01*
X192593308Y-95185635D01*
X192755230Y-95199801D01*
X192819998Y-95205468D01*
X192820000Y-95205468D01*
X192820002Y-95205468D01*
X192878819Y-95200322D01*
X193046692Y-95185635D01*
X193266496Y-95126739D01*
X193472734Y-95030568D01*
X193659139Y-94900047D01*
X193820047Y-94739139D01*
X193950568Y-94552734D01*
X193977618Y-94494724D01*
X194023790Y-94442285D01*
X194090983Y-94423133D01*
X194157865Y-94443348D01*
X194202382Y-94494725D01*
X194229429Y-94552728D01*
X194229432Y-94552734D01*
X194359954Y-94739141D01*
X194520858Y-94900045D01*
X194520861Y-94900047D01*
X194707266Y-95030568D01*
X194913504Y-95126739D01*
X194913509Y-95126740D01*
X194913511Y-95126741D01*
X194966415Y-95140916D01*
X195133308Y-95185635D01*
X195295230Y-95199801D01*
X195359998Y-95205468D01*
X195360000Y-95205468D01*
X195360002Y-95205468D01*
X195418819Y-95200322D01*
X195586692Y-95185635D01*
X195806496Y-95126739D01*
X196012734Y-95030568D01*
X196199139Y-94900047D01*
X196360047Y-94739139D01*
X196490568Y-94552734D01*
X196517618Y-94494724D01*
X196563790Y-94442285D01*
X196630983Y-94423133D01*
X196697865Y-94443348D01*
X196742382Y-94494725D01*
X196769429Y-94552728D01*
X196769432Y-94552734D01*
X196899954Y-94739141D01*
X197060858Y-94900045D01*
X197060861Y-94900047D01*
X197247266Y-95030568D01*
X197453504Y-95126739D01*
X197453509Y-95126740D01*
X197453511Y-95126741D01*
X197506415Y-95140916D01*
X197673308Y-95185635D01*
X197835230Y-95199801D01*
X197899998Y-95205468D01*
X197900000Y-95205468D01*
X197900002Y-95205468D01*
X197958819Y-95200322D01*
X198126692Y-95185635D01*
X198346496Y-95126739D01*
X198552734Y-95030568D01*
X198739139Y-94900047D01*
X198900047Y-94739139D01*
X199030568Y-94552734D01*
X199057618Y-94494724D01*
X199103790Y-94442285D01*
X199170983Y-94423133D01*
X199237865Y-94443348D01*
X199282382Y-94494725D01*
X199309429Y-94552728D01*
X199309432Y-94552734D01*
X199439954Y-94739141D01*
X199600858Y-94900045D01*
X199600861Y-94900047D01*
X199787266Y-95030568D01*
X199993504Y-95126739D01*
X199993509Y-95126740D01*
X199993511Y-95126741D01*
X200046415Y-95140916D01*
X200213308Y-95185635D01*
X200375230Y-95199801D01*
X200439998Y-95205468D01*
X200440000Y-95205468D01*
X200440002Y-95205468D01*
X200498819Y-95200322D01*
X200666692Y-95185635D01*
X200886496Y-95126739D01*
X201092734Y-95030568D01*
X201279139Y-94900047D01*
X201440047Y-94739139D01*
X201570568Y-94552734D01*
X201597618Y-94494724D01*
X201643790Y-94442285D01*
X201710983Y-94423133D01*
X201777865Y-94443348D01*
X201822382Y-94494725D01*
X201849429Y-94552728D01*
X201849432Y-94552734D01*
X201979954Y-94739141D01*
X202140858Y-94900045D01*
X202140861Y-94900047D01*
X202327266Y-95030568D01*
X202533504Y-95126739D01*
X202533509Y-95126740D01*
X202533511Y-95126741D01*
X202586415Y-95140916D01*
X202753308Y-95185635D01*
X202915230Y-95199801D01*
X202979998Y-95205468D01*
X202980000Y-95205468D01*
X202980002Y-95205468D01*
X203038819Y-95200322D01*
X203206692Y-95185635D01*
X203426496Y-95126739D01*
X203632734Y-95030568D01*
X203819139Y-94900047D01*
X203980047Y-94739139D01*
X204110568Y-94552734D01*
X204137618Y-94494724D01*
X204183790Y-94442285D01*
X204250983Y-94423133D01*
X204317865Y-94443348D01*
X204362382Y-94494725D01*
X204389429Y-94552728D01*
X204389432Y-94552734D01*
X204519954Y-94739141D01*
X204680858Y-94900045D01*
X204680861Y-94900047D01*
X204867266Y-95030568D01*
X205073504Y-95126739D01*
X205073509Y-95126740D01*
X205073511Y-95126741D01*
X205126415Y-95140916D01*
X205293308Y-95185635D01*
X205455230Y-95199801D01*
X205519998Y-95205468D01*
X205520000Y-95205468D01*
X205520002Y-95205468D01*
X205578819Y-95200322D01*
X205746692Y-95185635D01*
X205966496Y-95126739D01*
X206172734Y-95030568D01*
X206359139Y-94900047D01*
X206520047Y-94739139D01*
X206547454Y-94699997D01*
X209644723Y-94699997D01*
X209644723Y-94700002D01*
X209651833Y-94781265D01*
X209662224Y-94900047D01*
X209663793Y-94917975D01*
X209663793Y-94917979D01*
X209720422Y-95129322D01*
X209720424Y-95129326D01*
X209720425Y-95129330D01*
X209753529Y-95200322D01*
X209812897Y-95327638D01*
X209812898Y-95327639D01*
X209938402Y-95506877D01*
X210093123Y-95661598D01*
X210272361Y-95787102D01*
X210470670Y-95879575D01*
X210682023Y-95936207D01*
X210864926Y-95952208D01*
X210899998Y-95955277D01*
X210900000Y-95955277D01*
X210900002Y-95955277D01*
X210928254Y-95952805D01*
X211117977Y-95936207D01*
X211329330Y-95879575D01*
X211527639Y-95787102D01*
X211706877Y-95661598D01*
X211861598Y-95506877D01*
X211987102Y-95327639D01*
X212079575Y-95129330D01*
X212136207Y-94917977D01*
X212155277Y-94700000D01*
X212136207Y-94482023D01*
X212079575Y-94270670D01*
X211987102Y-94072362D01*
X211987100Y-94072359D01*
X211987099Y-94072357D01*
X211861599Y-93893124D01*
X211815814Y-93847339D01*
X211706877Y-93738402D01*
X211527639Y-93612898D01*
X211527640Y-93612898D01*
X211527638Y-93612897D01*
X211428484Y-93566661D01*
X211329330Y-93520425D01*
X211329326Y-93520424D01*
X211329322Y-93520422D01*
X211117977Y-93463793D01*
X210900002Y-93444723D01*
X210899998Y-93444723D01*
X210754682Y-93457436D01*
X210682023Y-93463793D01*
X210682020Y-93463793D01*
X210470677Y-93520422D01*
X210470668Y-93520426D01*
X210272361Y-93612898D01*
X210272357Y-93612900D01*
X210093121Y-93738402D01*
X209938402Y-93893121D01*
X209812900Y-94072357D01*
X209812898Y-94072361D01*
X209720426Y-94270668D01*
X209720422Y-94270677D01*
X209663793Y-94482020D01*
X209663793Y-94482023D01*
X209662682Y-94494725D01*
X209644723Y-94699997D01*
X206547454Y-94699997D01*
X206650568Y-94552734D01*
X206746739Y-94346496D01*
X206805635Y-94126692D01*
X206825468Y-93900000D01*
X206824866Y-93893124D01*
X206805635Y-93673313D01*
X206805635Y-93673308D01*
X206746739Y-93453504D01*
X206672227Y-93293713D01*
X226699500Y-93293713D01*
X226699500Y-93506287D01*
X226702822Y-93527259D01*
X226725954Y-93673313D01*
X226732754Y-93716243D01*
X226790226Y-93893124D01*
X226798444Y-93918414D01*
X226894951Y-94107820D01*
X227019890Y-94279786D01*
X227159068Y-94418964D01*
X227192553Y-94480287D01*
X227187569Y-94549979D01*
X227145697Y-94605912D01*
X227136484Y-94612183D01*
X226981659Y-94707680D01*
X226981655Y-94707683D01*
X226857684Y-94831654D01*
X226765643Y-94980875D01*
X226765641Y-94980880D01*
X226710494Y-95147302D01*
X226710493Y-95147309D01*
X226700000Y-95250013D01*
X226700000Y-95650000D01*
X227766988Y-95650000D01*
X227734075Y-95707007D01*
X227700000Y-95834174D01*
X227700000Y-95965826D01*
X227734075Y-96092993D01*
X227766988Y-96150000D01*
X226700001Y-96150000D01*
X226700001Y-96549986D01*
X226710494Y-96652697D01*
X226765641Y-96819119D01*
X226765643Y-96819124D01*
X226857684Y-96968345D01*
X226981654Y-97092315D01*
X227130875Y-97184356D01*
X227130880Y-97184358D01*
X227297302Y-97239505D01*
X227297309Y-97239506D01*
X227400019Y-97249999D01*
X227949999Y-97249999D01*
X227950000Y-97249998D01*
X227950000Y-96333012D01*
X228007007Y-96365925D01*
X228134174Y-96400000D01*
X228265826Y-96400000D01*
X228392993Y-96365925D01*
X228450000Y-96333012D01*
X228450000Y-97249999D01*
X228999972Y-97249999D01*
X228999986Y-97249998D01*
X229102697Y-97239505D01*
X229240888Y-97193713D01*
X232249500Y-97193713D01*
X232249500Y-97406286D01*
X232282486Y-97614555D01*
X232282754Y-97616243D01*
X232334512Y-97775538D01*
X232348444Y-97818414D01*
X232444951Y-98007820D01*
X232569890Y-98179786D01*
X232720213Y-98330109D01*
X232892179Y-98455048D01*
X232892181Y-98455049D01*
X232892184Y-98455051D01*
X233081588Y-98551557D01*
X233283757Y-98617246D01*
X233493713Y-98650500D01*
X233493714Y-98650500D01*
X233706286Y-98650500D01*
X233706287Y-98650500D01*
X233916243Y-98617246D01*
X234118412Y-98551557D01*
X234307816Y-98455051D01*
X234336300Y-98434356D01*
X234479786Y-98330109D01*
X234479788Y-98330106D01*
X234479792Y-98330104D01*
X234630104Y-98179792D01*
X234630106Y-98179788D01*
X234630109Y-98179786D01*
X234755048Y-98007820D01*
X234755047Y-98007820D01*
X234755051Y-98007816D01*
X234851557Y-97818412D01*
X234917246Y-97616243D01*
X234950500Y-97406287D01*
X234950500Y-97193713D01*
X234917246Y-96983757D01*
X234851557Y-96781588D01*
X234755051Y-96592184D01*
X234755049Y-96592181D01*
X234755048Y-96592179D01*
X234630109Y-96420213D01*
X234479786Y-96269890D01*
X234307820Y-96144951D01*
X234118414Y-96048444D01*
X234118413Y-96048443D01*
X234118412Y-96048443D01*
X233916243Y-95982754D01*
X233916241Y-95982753D01*
X233916240Y-95982753D01*
X233742761Y-95955277D01*
X233706287Y-95949500D01*
X233493713Y-95949500D01*
X233457239Y-95955277D01*
X233283760Y-95982753D01*
X233283757Y-95982754D01*
X233166129Y-96020974D01*
X233081585Y-96048444D01*
X232892179Y-96144951D01*
X232720213Y-96269890D01*
X232569890Y-96420213D01*
X232444951Y-96592179D01*
X232348444Y-96781585D01*
X232282753Y-96983760D01*
X232249500Y-97193713D01*
X229240888Y-97193713D01*
X229269119Y-97184358D01*
X229269124Y-97184356D01*
X229418345Y-97092315D01*
X229542315Y-96968345D01*
X229634356Y-96819124D01*
X229634358Y-96819119D01*
X229689505Y-96652697D01*
X229689506Y-96652690D01*
X229699999Y-96549986D01*
X229700000Y-96549973D01*
X229700000Y-96150000D01*
X228633012Y-96150000D01*
X228665925Y-96092993D01*
X228700000Y-95965826D01*
X228700000Y-95834174D01*
X228665925Y-95707007D01*
X228633012Y-95650000D01*
X229699999Y-95650000D01*
X229699999Y-95250028D01*
X229699998Y-95250013D01*
X229689505Y-95147302D01*
X229634358Y-94980880D01*
X229634356Y-94980875D01*
X229542315Y-94831654D01*
X229418345Y-94707684D01*
X229263515Y-94612184D01*
X229216791Y-94560236D01*
X229205568Y-94491273D01*
X229233412Y-94427191D01*
X229240909Y-94418986D01*
X229380104Y-94279792D01*
X229386727Y-94270677D01*
X229505048Y-94107820D01*
X229505047Y-94107820D01*
X229505051Y-94107816D01*
X229601557Y-93918412D01*
X229667246Y-93716243D01*
X229700500Y-93506287D01*
X229700500Y-93293713D01*
X229667246Y-93083757D01*
X229601557Y-92881588D01*
X229505051Y-92692184D01*
X229505049Y-92692181D01*
X229505048Y-92692179D01*
X229380109Y-92520213D01*
X229229786Y-92369890D01*
X229057820Y-92244951D01*
X228868414Y-92148444D01*
X228868413Y-92148443D01*
X228868412Y-92148443D01*
X228666243Y-92082754D01*
X228666241Y-92082753D01*
X228666240Y-92082753D01*
X228504957Y-92057208D01*
X228456287Y-92049500D01*
X227943713Y-92049500D01*
X227895042Y-92057208D01*
X227733760Y-92082753D01*
X227531585Y-92148444D01*
X227342179Y-92244951D01*
X227170213Y-92369890D01*
X227019890Y-92520213D01*
X226894951Y-92692179D01*
X226798444Y-92881585D01*
X226798443Y-92881587D01*
X226798443Y-92881588D01*
X226792349Y-92900342D01*
X226732753Y-93083760D01*
X226706856Y-93247267D01*
X226699500Y-93293713D01*
X206672227Y-93293713D01*
X206650568Y-93247266D01*
X206520047Y-93060861D01*
X206520045Y-93060858D01*
X206359141Y-92899954D01*
X206172734Y-92769432D01*
X206172732Y-92769431D01*
X205966497Y-92673261D01*
X205966488Y-92673258D01*
X205746697Y-92614366D01*
X205746693Y-92614365D01*
X205746692Y-92614365D01*
X205746691Y-92614364D01*
X205746686Y-92614364D01*
X205520002Y-92594532D01*
X205519998Y-92594532D01*
X205293313Y-92614364D01*
X205293302Y-92614366D01*
X205073511Y-92673258D01*
X205073502Y-92673261D01*
X204867267Y-92769431D01*
X204867265Y-92769432D01*
X204680858Y-92899954D01*
X204519954Y-93060858D01*
X204389432Y-93247265D01*
X204389431Y-93247267D01*
X204362382Y-93305275D01*
X204316209Y-93357714D01*
X204249016Y-93376866D01*
X204182135Y-93356650D01*
X204137618Y-93305275D01*
X204110568Y-93247266D01*
X203980047Y-93060861D01*
X203980045Y-93060858D01*
X203819141Y-92899954D01*
X203632734Y-92769432D01*
X203632732Y-92769431D01*
X203426497Y-92673261D01*
X203426488Y-92673258D01*
X203206697Y-92614366D01*
X203206693Y-92614365D01*
X203206692Y-92614365D01*
X203206691Y-92614364D01*
X203206686Y-92614364D01*
X202980002Y-92594532D01*
X202979998Y-92594532D01*
X202753313Y-92614364D01*
X202753302Y-92614366D01*
X202533511Y-92673258D01*
X202533502Y-92673261D01*
X202327267Y-92769431D01*
X202327265Y-92769432D01*
X202140858Y-92899954D01*
X201979954Y-93060858D01*
X201849432Y-93247265D01*
X201849431Y-93247267D01*
X201822382Y-93305275D01*
X201776209Y-93357714D01*
X201709016Y-93376866D01*
X201642135Y-93356650D01*
X201597618Y-93305275D01*
X201570568Y-93247266D01*
X201440047Y-93060861D01*
X201440045Y-93060858D01*
X201279141Y-92899954D01*
X201092734Y-92769432D01*
X201092732Y-92769431D01*
X200886497Y-92673261D01*
X200886488Y-92673258D01*
X200666697Y-92614366D01*
X200666693Y-92614365D01*
X200666692Y-92614365D01*
X200666691Y-92614364D01*
X200666686Y-92614364D01*
X200440002Y-92594532D01*
X200439998Y-92594532D01*
X200213313Y-92614364D01*
X200213302Y-92614366D01*
X199993511Y-92673258D01*
X199993502Y-92673261D01*
X199787267Y-92769431D01*
X199787265Y-92769432D01*
X199600858Y-92899954D01*
X199439954Y-93060858D01*
X199309432Y-93247265D01*
X199309431Y-93247267D01*
X199282382Y-93305275D01*
X199236209Y-93357714D01*
X199169016Y-93376866D01*
X199102135Y-93356650D01*
X199057618Y-93305275D01*
X199030568Y-93247266D01*
X198900047Y-93060861D01*
X198900045Y-93060858D01*
X198739141Y-92899954D01*
X198552734Y-92769432D01*
X198552732Y-92769431D01*
X198346497Y-92673261D01*
X198346488Y-92673258D01*
X198126697Y-92614366D01*
X198126693Y-92614365D01*
X198126692Y-92614365D01*
X198126691Y-92614364D01*
X198126686Y-92614364D01*
X197900002Y-92594532D01*
X197899998Y-92594532D01*
X197673313Y-92614364D01*
X197673302Y-92614366D01*
X197453511Y-92673258D01*
X197453502Y-92673261D01*
X197247267Y-92769431D01*
X197247265Y-92769432D01*
X197060858Y-92899954D01*
X196899954Y-93060858D01*
X196769432Y-93247265D01*
X196769431Y-93247267D01*
X196742382Y-93305275D01*
X196696209Y-93357714D01*
X196629016Y-93376866D01*
X196562135Y-93356650D01*
X196517618Y-93305275D01*
X196490568Y-93247266D01*
X196360047Y-93060861D01*
X196360045Y-93060858D01*
X196199141Y-92899954D01*
X196012734Y-92769432D01*
X196012732Y-92769431D01*
X195806497Y-92673261D01*
X195806488Y-92673258D01*
X195586697Y-92614366D01*
X195586693Y-92614365D01*
X195586692Y-92614365D01*
X195586691Y-92614364D01*
X195586686Y-92614364D01*
X195360002Y-92594532D01*
X195359998Y-92594532D01*
X195133313Y-92614364D01*
X195133302Y-92614366D01*
X194913511Y-92673258D01*
X194913502Y-92673261D01*
X194707267Y-92769431D01*
X194707265Y-92769432D01*
X194520858Y-92899954D01*
X194359954Y-93060858D01*
X194229432Y-93247265D01*
X194229431Y-93247267D01*
X194202382Y-93305275D01*
X194156209Y-93357714D01*
X194089016Y-93376866D01*
X194022135Y-93356650D01*
X193977618Y-93305275D01*
X193950568Y-93247266D01*
X193820047Y-93060861D01*
X193820045Y-93060858D01*
X193659141Y-92899954D01*
X193472734Y-92769432D01*
X193472732Y-92769431D01*
X193266497Y-92673261D01*
X193266488Y-92673258D01*
X193046697Y-92614366D01*
X193046693Y-92614365D01*
X193046692Y-92614365D01*
X193046691Y-92614364D01*
X193046686Y-92614364D01*
X192820002Y-92594532D01*
X192819998Y-92594532D01*
X192593313Y-92614364D01*
X192593302Y-92614366D01*
X192373511Y-92673258D01*
X192373502Y-92673261D01*
X192167267Y-92769431D01*
X192167265Y-92769432D01*
X191980858Y-92899954D01*
X191819954Y-93060858D01*
X191689433Y-93247264D01*
X191689432Y-93247266D01*
X191689315Y-93247518D01*
X191662106Y-93305867D01*
X191615933Y-93358306D01*
X191548739Y-93377457D01*
X191481858Y-93357241D01*
X191437342Y-93305865D01*
X191410135Y-93247520D01*
X191410134Y-93247518D01*
X191279657Y-93061179D01*
X191118820Y-92900342D01*
X190932482Y-92769865D01*
X190726328Y-92673734D01*
X190530000Y-92621127D01*
X190530000Y-93584314D01*
X190525606Y-93579920D01*
X190434394Y-93527259D01*
X190332661Y-93500000D01*
X190227339Y-93500000D01*
X190125606Y-93527259D01*
X190034394Y-93579920D01*
X190030000Y-93584314D01*
X190030000Y-92621127D01*
X189833671Y-92673734D01*
X189627517Y-92769865D01*
X189441179Y-92900342D01*
X189280342Y-93061179D01*
X189149867Y-93247515D01*
X189122657Y-93305867D01*
X189076484Y-93358306D01*
X189009290Y-93377457D01*
X188942409Y-93357241D01*
X188897893Y-93305865D01*
X188892226Y-93293713D01*
X188870568Y-93247266D01*
X188740047Y-93060861D01*
X188740045Y-93060858D01*
X188579141Y-92899954D01*
X188392734Y-92769432D01*
X188392732Y-92769431D01*
X188186497Y-92673261D01*
X188186488Y-92673258D01*
X187966697Y-92614366D01*
X187966693Y-92614365D01*
X187966692Y-92614365D01*
X187966691Y-92614364D01*
X187966686Y-92614364D01*
X187740002Y-92594532D01*
X187739998Y-92594532D01*
X187513313Y-92614364D01*
X187513302Y-92614366D01*
X187293511Y-92673258D01*
X187293502Y-92673261D01*
X187087267Y-92769431D01*
X187087265Y-92769432D01*
X186900858Y-92899954D01*
X186739954Y-93060858D01*
X186609432Y-93247265D01*
X186609431Y-93247267D01*
X186582382Y-93305275D01*
X186536209Y-93357714D01*
X186469016Y-93376866D01*
X186402135Y-93356650D01*
X186357618Y-93305275D01*
X186330568Y-93247266D01*
X186200047Y-93060861D01*
X186200045Y-93060858D01*
X186039141Y-92899954D01*
X185852734Y-92769432D01*
X185852732Y-92769431D01*
X185646497Y-92673261D01*
X185646488Y-92673258D01*
X185426697Y-92614366D01*
X185426693Y-92614365D01*
X185426692Y-92614365D01*
X185426691Y-92614364D01*
X185426686Y-92614364D01*
X185200002Y-92594532D01*
X185199998Y-92594532D01*
X184973313Y-92614364D01*
X184973302Y-92614366D01*
X184753511Y-92673258D01*
X184753502Y-92673261D01*
X184547267Y-92769431D01*
X184547265Y-92769432D01*
X184360858Y-92899954D01*
X184199954Y-93060858D01*
X184069432Y-93247265D01*
X184069431Y-93247267D01*
X184042382Y-93305275D01*
X183996209Y-93357714D01*
X183929016Y-93376866D01*
X183862135Y-93356650D01*
X183817618Y-93305275D01*
X183790568Y-93247266D01*
X183660047Y-93060861D01*
X183660045Y-93060858D01*
X183499141Y-92899954D01*
X183312734Y-92769432D01*
X183312732Y-92769431D01*
X183106497Y-92673261D01*
X183106488Y-92673258D01*
X182886697Y-92614366D01*
X182886693Y-92614365D01*
X182886692Y-92614365D01*
X182886691Y-92614364D01*
X182886686Y-92614364D01*
X182660002Y-92594532D01*
X182659998Y-92594532D01*
X182433313Y-92614364D01*
X182433302Y-92614366D01*
X182213511Y-92673258D01*
X182213502Y-92673261D01*
X182007267Y-92769431D01*
X182007265Y-92769432D01*
X181820858Y-92899954D01*
X181659954Y-93060858D01*
X181529432Y-93247265D01*
X181529431Y-93247267D01*
X181502382Y-93305275D01*
X181456209Y-93357714D01*
X181389016Y-93376866D01*
X181322135Y-93356650D01*
X181277618Y-93305275D01*
X181250568Y-93247266D01*
X181120047Y-93060861D01*
X181120045Y-93060858D01*
X180959141Y-92899954D01*
X180772734Y-92769432D01*
X180772732Y-92769431D01*
X180566497Y-92673261D01*
X180566488Y-92673258D01*
X180346697Y-92614366D01*
X180346693Y-92614365D01*
X180346692Y-92614365D01*
X180346691Y-92614364D01*
X180346686Y-92614364D01*
X180120002Y-92594532D01*
X180119998Y-92594532D01*
X179893313Y-92614364D01*
X179893302Y-92614366D01*
X179673511Y-92673258D01*
X179673502Y-92673261D01*
X179467267Y-92769431D01*
X179467265Y-92769432D01*
X179280858Y-92899954D01*
X179119954Y-93060858D01*
X178989432Y-93247265D01*
X178989431Y-93247267D01*
X178962382Y-93305275D01*
X178916209Y-93357714D01*
X178849016Y-93376866D01*
X178782135Y-93356650D01*
X178737618Y-93305275D01*
X178710568Y-93247266D01*
X178580047Y-93060861D01*
X178580045Y-93060858D01*
X178419141Y-92899954D01*
X178232734Y-92769432D01*
X178232732Y-92769431D01*
X178026497Y-92673261D01*
X178026488Y-92673258D01*
X177806697Y-92614366D01*
X177806693Y-92614365D01*
X177806692Y-92614365D01*
X177806691Y-92614364D01*
X177806686Y-92614364D01*
X177580002Y-92594532D01*
X177579998Y-92594532D01*
X177353313Y-92614364D01*
X177353302Y-92614366D01*
X177133511Y-92673258D01*
X177133502Y-92673261D01*
X176927267Y-92769431D01*
X176927265Y-92769432D01*
X176740858Y-92899954D01*
X176579954Y-93060858D01*
X176449432Y-93247265D01*
X176449431Y-93247267D01*
X176422382Y-93305275D01*
X176376209Y-93357714D01*
X176309016Y-93376866D01*
X176242135Y-93356650D01*
X176197618Y-93305275D01*
X176170568Y-93247266D01*
X176040047Y-93060861D01*
X176040045Y-93060858D01*
X175879141Y-92899954D01*
X175692734Y-92769432D01*
X175692732Y-92769431D01*
X175486497Y-92673261D01*
X175486488Y-92673258D01*
X175266697Y-92614366D01*
X175266693Y-92614365D01*
X175266692Y-92614365D01*
X175266691Y-92614364D01*
X175266686Y-92614364D01*
X175040002Y-92594532D01*
X175039998Y-92594532D01*
X174813313Y-92614364D01*
X174813302Y-92614366D01*
X174593511Y-92673258D01*
X174593502Y-92673261D01*
X174387267Y-92769431D01*
X174387265Y-92769432D01*
X174200858Y-92899954D01*
X174039954Y-93060858D01*
X174022725Y-93085464D01*
X173968147Y-93129088D01*
X173898648Y-93136280D01*
X173836294Y-93104757D01*
X173800882Y-93044526D01*
X173797861Y-93027591D01*
X173794091Y-92992516D01*
X173743797Y-92857671D01*
X173743793Y-92857664D01*
X173657547Y-92742455D01*
X173657544Y-92742452D01*
X173542335Y-92656206D01*
X173542328Y-92656202D01*
X173407482Y-92605908D01*
X173407483Y-92605908D01*
X173347883Y-92599501D01*
X173347881Y-92599500D01*
X173347873Y-92599500D01*
X173347864Y-92599500D01*
X171652129Y-92599500D01*
X171652123Y-92599501D01*
X171592516Y-92605908D01*
X171457671Y-92656202D01*
X171457664Y-92656206D01*
X171342455Y-92742452D01*
X171342452Y-92742455D01*
X171256206Y-92857664D01*
X171256202Y-92857671D01*
X171205908Y-92992517D01*
X171199501Y-93052116D01*
X171199500Y-93052135D01*
X171199500Y-94747870D01*
X171199502Y-94747889D01*
X171199561Y-94748439D01*
X171199538Y-94748565D01*
X171199679Y-94751195D01*
X171199057Y-94751228D01*
X171187143Y-94817197D01*
X171139523Y-94868325D01*
X171071821Y-94885592D01*
X171005531Y-94863515D01*
X170988588Y-94849353D01*
X170956819Y-94817584D01*
X170923334Y-94756261D01*
X170920500Y-94729903D01*
X170920500Y-89799997D01*
X209644723Y-89799997D01*
X209644723Y-89800002D01*
X209663793Y-90017975D01*
X209663793Y-90017979D01*
X209720422Y-90229322D01*
X209720424Y-90229326D01*
X209720425Y-90229330D01*
X209733298Y-90256936D01*
X209812897Y-90427638D01*
X209812898Y-90427639D01*
X209938402Y-90606877D01*
X210093123Y-90761598D01*
X210272361Y-90887102D01*
X210470670Y-90979575D01*
X210682023Y-91036207D01*
X210864926Y-91052208D01*
X210899998Y-91055277D01*
X210900000Y-91055277D01*
X210900002Y-91055277D01*
X210928254Y-91052805D01*
X211117977Y-91036207D01*
X211329330Y-90979575D01*
X211527639Y-90887102D01*
X211706877Y-90761598D01*
X211861598Y-90606877D01*
X211987102Y-90427639D01*
X212079575Y-90229330D01*
X212136207Y-90017977D01*
X212155277Y-89800000D01*
X212136207Y-89582023D01*
X212079575Y-89370670D01*
X211987102Y-89172362D01*
X211987100Y-89172359D01*
X211987099Y-89172357D01*
X211861599Y-88993124D01*
X211797506Y-88929031D01*
X211706877Y-88838402D01*
X211527639Y-88712898D01*
X211527640Y-88712898D01*
X211527638Y-88712897D01*
X211428484Y-88666661D01*
X211329330Y-88620425D01*
X211329326Y-88620424D01*
X211329322Y-88620422D01*
X211117977Y-88563793D01*
X210900002Y-88544723D01*
X210899998Y-88544723D01*
X210754682Y-88557436D01*
X210682023Y-88563793D01*
X210682020Y-88563793D01*
X210470677Y-88620422D01*
X210470668Y-88620426D01*
X210272361Y-88712898D01*
X210272357Y-88712900D01*
X210093121Y-88838402D01*
X209938402Y-88993121D01*
X209812900Y-89172357D01*
X209812898Y-89172361D01*
X209720426Y-89370668D01*
X209720422Y-89370677D01*
X209663793Y-89582020D01*
X209663793Y-89582024D01*
X209644723Y-89799997D01*
X170920500Y-89799997D01*
X170920500Y-89162940D01*
X170940185Y-89095901D01*
X170956819Y-89075259D01*
X170957017Y-89075061D01*
X171026948Y-89005130D01*
X171122921Y-88852390D01*
X171182500Y-88682123D01*
X171190374Y-88612238D01*
X171202697Y-88502871D01*
X171202697Y-88502864D01*
X171182501Y-88323618D01*
X171182500Y-88323613D01*
X171140528Y-88203664D01*
X171122921Y-88153346D01*
X171040488Y-88022155D01*
X215675000Y-88022155D01*
X215675000Y-88720000D01*
X216699722Y-88720000D01*
X216655667Y-88796306D01*
X216625000Y-88910756D01*
X216625000Y-89029244D01*
X216655667Y-89143694D01*
X216699722Y-89220000D01*
X215675000Y-89220000D01*
X215675000Y-89917844D01*
X215681401Y-89977372D01*
X215681403Y-89977379D01*
X215731645Y-90112086D01*
X215731649Y-90112093D01*
X215817809Y-90227187D01*
X215817812Y-90227190D01*
X215932906Y-90313350D01*
X215932913Y-90313354D01*
X216067620Y-90363596D01*
X216067627Y-90363598D01*
X216127155Y-90369999D01*
X216127172Y-90370000D01*
X216825000Y-90370000D01*
X216825000Y-89345277D01*
X216901306Y-89389333D01*
X217015756Y-89420000D01*
X217134244Y-89420000D01*
X217248694Y-89389333D01*
X217325000Y-89345277D01*
X217325000Y-90370000D01*
X218022828Y-90370000D01*
X218022844Y-90369999D01*
X218082372Y-90363598D01*
X218082379Y-90363596D01*
X218217086Y-90313354D01*
X218217093Y-90313350D01*
X218332187Y-90227190D01*
X218332190Y-90227187D01*
X218418350Y-90112093D01*
X218418355Y-90112084D01*
X218447075Y-90035081D01*
X218488945Y-89979147D01*
X218554409Y-89954729D01*
X218622682Y-89969580D01*
X218654484Y-89994428D01*
X218663216Y-90003913D01*
X218663219Y-90003915D01*
X218663222Y-90003918D01*
X218846365Y-90146464D01*
X218846371Y-90146468D01*
X218846374Y-90146470D01*
X219050497Y-90256936D01*
X219164487Y-90296068D01*
X219270015Y-90332297D01*
X219270017Y-90332297D01*
X219270019Y-90332298D01*
X219498951Y-90370500D01*
X219498952Y-90370500D01*
X219731048Y-90370500D01*
X219731049Y-90370500D01*
X219959981Y-90332298D01*
X220179503Y-90256936D01*
X220383626Y-90146470D01*
X220566784Y-90003913D01*
X220723979Y-89833153D01*
X220850924Y-89638849D01*
X220944157Y-89426300D01*
X221001134Y-89201305D01*
X221001135Y-89201297D01*
X221020300Y-88970006D01*
X221020300Y-88969993D01*
X221001135Y-88738702D01*
X221001133Y-88738691D01*
X220944157Y-88513699D01*
X220850924Y-88301151D01*
X220723983Y-88106852D01*
X220723980Y-88106849D01*
X220723979Y-88106847D01*
X220566784Y-87936087D01*
X220566779Y-87936083D01*
X220566777Y-87936081D01*
X220391939Y-87799999D01*
X221694357Y-87799999D01*
X221694357Y-87800000D01*
X221714884Y-88021535D01*
X221714885Y-88021537D01*
X221775769Y-88235523D01*
X221775775Y-88235538D01*
X221874938Y-88434683D01*
X221874943Y-88434691D01*
X222009020Y-88612238D01*
X222173437Y-88762123D01*
X222173439Y-88762125D01*
X222362595Y-88879245D01*
X222362596Y-88879245D01*
X222362599Y-88879247D01*
X222570060Y-88959618D01*
X222788757Y-89000500D01*
X222788759Y-89000500D01*
X223011241Y-89000500D01*
X223011243Y-89000500D01*
X223229940Y-88959618D01*
X223437401Y-88879247D01*
X223626562Y-88762124D01*
X223781998Y-88620425D01*
X223790979Y-88612238D01*
X223791611Y-88611402D01*
X223925058Y-88434689D01*
X224024229Y-88235528D01*
X224085115Y-88021536D01*
X224105643Y-87800000D01*
X224105643Y-87799999D01*
X226774357Y-87799999D01*
X226774357Y-87800000D01*
X226794884Y-88021535D01*
X226794885Y-88021537D01*
X226855769Y-88235523D01*
X226855775Y-88235538D01*
X226954938Y-88434683D01*
X226954943Y-88434691D01*
X227089020Y-88612238D01*
X227253437Y-88762123D01*
X227253439Y-88762125D01*
X227442595Y-88879245D01*
X227442596Y-88879245D01*
X227442599Y-88879247D01*
X227650060Y-88959618D01*
X227868757Y-89000500D01*
X227868759Y-89000500D01*
X228091241Y-89000500D01*
X228091243Y-89000500D01*
X228309940Y-88959618D01*
X228517401Y-88879247D01*
X228706562Y-88762124D01*
X228861998Y-88620425D01*
X228870979Y-88612238D01*
X228871611Y-88611402D01*
X229005058Y-88434689D01*
X229104229Y-88235528D01*
X229165115Y-88021536D01*
X229185643Y-87800000D01*
X229185043Y-87793530D01*
X229165115Y-87578464D01*
X229165114Y-87578462D01*
X229164528Y-87576403D01*
X229104229Y-87364472D01*
X229073252Y-87302262D01*
X229005061Y-87165316D01*
X229005056Y-87165308D01*
X228870979Y-86987761D01*
X228706562Y-86837876D01*
X228706560Y-86837874D01*
X228517404Y-86720754D01*
X228517398Y-86720752D01*
X228309940Y-86640382D01*
X228091243Y-86599500D01*
X227868757Y-86599500D01*
X227650060Y-86640382D01*
X227518864Y-86691207D01*
X227442601Y-86720752D01*
X227442595Y-86720754D01*
X227253439Y-86837874D01*
X227253437Y-86837876D01*
X227089020Y-86987761D01*
X226954943Y-87165308D01*
X226954938Y-87165316D01*
X226855775Y-87364461D01*
X226855769Y-87364476D01*
X226794885Y-87578462D01*
X226794884Y-87578464D01*
X226774357Y-87799999D01*
X224105643Y-87799999D01*
X224105043Y-87793530D01*
X224085115Y-87578464D01*
X224085114Y-87578462D01*
X224084528Y-87576403D01*
X224024229Y-87364472D01*
X223993252Y-87302262D01*
X223925061Y-87165316D01*
X223925056Y-87165308D01*
X223790979Y-86987761D01*
X223626562Y-86837876D01*
X223626560Y-86837874D01*
X223437404Y-86720754D01*
X223437398Y-86720752D01*
X223229940Y-86640382D01*
X223011243Y-86599500D01*
X222788757Y-86599500D01*
X222570060Y-86640382D01*
X222438864Y-86691207D01*
X222362601Y-86720752D01*
X222362595Y-86720754D01*
X222173439Y-86837874D01*
X222173437Y-86837876D01*
X222009020Y-86987761D01*
X221874943Y-87165308D01*
X221874938Y-87165316D01*
X221775775Y-87364461D01*
X221775769Y-87364476D01*
X221714885Y-87578462D01*
X221714884Y-87578464D01*
X221694357Y-87799999D01*
X220391939Y-87799999D01*
X220383634Y-87793535D01*
X220383628Y-87793531D01*
X220179504Y-87683064D01*
X220179495Y-87683061D01*
X219959984Y-87607702D01*
X219772404Y-87576401D01*
X219731049Y-87569500D01*
X219498951Y-87569500D01*
X219457596Y-87576401D01*
X219270015Y-87607702D01*
X219050504Y-87683061D01*
X219050495Y-87683064D01*
X218846371Y-87793531D01*
X218846365Y-87793535D01*
X218663222Y-87936081D01*
X218663215Y-87936087D01*
X218654484Y-87945572D01*
X218594595Y-87981561D01*
X218524757Y-87979458D01*
X218467143Y-87939932D01*
X218447075Y-87904918D01*
X218418355Y-87827915D01*
X218418350Y-87827906D01*
X218332190Y-87712812D01*
X218332187Y-87712809D01*
X218217093Y-87626649D01*
X218217086Y-87626645D01*
X218082379Y-87576403D01*
X218082372Y-87576401D01*
X218022844Y-87570000D01*
X217325000Y-87570000D01*
X217325000Y-88594722D01*
X217248694Y-88550667D01*
X217134244Y-88520000D01*
X217015756Y-88520000D01*
X216901306Y-88550667D01*
X216825000Y-88594722D01*
X216825000Y-87570000D01*
X216127155Y-87570000D01*
X216067627Y-87576401D01*
X216067620Y-87576403D01*
X215932913Y-87626645D01*
X215932906Y-87626649D01*
X215817812Y-87712809D01*
X215817809Y-87712812D01*
X215731649Y-87827906D01*
X215731645Y-87827913D01*
X215681403Y-87962620D01*
X215681401Y-87962627D01*
X215675000Y-88022155D01*
X171040488Y-88022155D01*
X171026948Y-88000606D01*
X170899394Y-87873052D01*
X170783133Y-87800000D01*
X170746655Y-87777079D01*
X170576386Y-87717499D01*
X170576381Y-87717498D01*
X170397136Y-87697303D01*
X170397128Y-87697303D01*
X170217882Y-87717498D01*
X170217877Y-87717499D01*
X170047608Y-87777079D01*
X169894869Y-87873052D01*
X169767316Y-88000605D01*
X169671343Y-88153344D01*
X169611763Y-88323613D01*
X169611762Y-88323618D01*
X169591567Y-88502864D01*
X138700500Y-88502864D01*
X138700500Y-86249059D01*
X138700501Y-86249046D01*
X138700501Y-86080945D01*
X138700501Y-86080943D01*
X138659577Y-85928215D01*
X138607365Y-85837782D01*
X138604894Y-85833502D01*
X138580522Y-85791287D01*
X138580521Y-85791286D01*
X138580520Y-85791284D01*
X138468716Y-85679480D01*
X138468715Y-85679479D01*
X138464385Y-85675149D01*
X138464374Y-85675139D01*
X137627590Y-84838355D01*
X137627588Y-84838352D01*
X137508717Y-84719481D01*
X137508716Y-84719480D01*
X137404960Y-84659577D01*
X137404959Y-84659576D01*
X137371783Y-84640422D01*
X137315881Y-84625443D01*
X137219057Y-84599499D01*
X137060943Y-84599499D01*
X137053347Y-84599499D01*
X137053331Y-84599500D01*
X136989091Y-84599500D01*
X136922052Y-84579815D01*
X136876711Y-84527909D01*
X136874037Y-84522175D01*
X136874034Y-84522170D01*
X136874033Y-84522169D01*
X136753815Y-84350478D01*
X136738494Y-84328597D01*
X136571402Y-84161506D01*
X136571396Y-84161501D01*
X136385842Y-84031575D01*
X136342217Y-83976998D01*
X136335023Y-83907500D01*
X136366546Y-83845145D01*
X136385842Y-83828425D01*
X136524569Y-83731287D01*
X136571401Y-83698495D01*
X136738495Y-83531401D01*
X136874035Y-83337830D01*
X136973903Y-83123663D01*
X137035063Y-82895408D01*
X137055659Y-82660000D01*
X137035063Y-82424592D01*
X136973903Y-82196337D01*
X136874035Y-81982171D01*
X136868425Y-81974158D01*
X136738494Y-81788597D01*
X136571398Y-81621501D01*
X136570030Y-81620354D01*
X136569592Y-81619696D01*
X136567573Y-81617677D01*
X136567978Y-81617271D01*
X136531330Y-81562182D01*
X136530224Y-81492321D01*
X136567063Y-81432952D01*
X136610737Y-81407662D01*
X136619334Y-81404814D01*
X136768656Y-81312712D01*
X136892712Y-81188656D01*
X136984814Y-81039334D01*
X137039999Y-80872797D01*
X137050500Y-80770009D01*
X137050499Y-79469992D01*
X137039999Y-79367203D01*
X136984814Y-79200666D01*
X136892712Y-79051344D01*
X136768656Y-78927288D01*
X136619334Y-78835186D01*
X136452797Y-78780001D01*
X136452795Y-78780000D01*
X136350010Y-78769500D01*
X135049998Y-78769500D01*
X135049981Y-78769501D01*
X134947203Y-78780000D01*
X134947200Y-78780001D01*
X134780668Y-78835185D01*
X134780663Y-78835187D01*
X134631342Y-78927289D01*
X134507289Y-79051342D01*
X134415187Y-79200663D01*
X134415182Y-79200674D01*
X134391205Y-79273032D01*
X134351432Y-79330477D01*
X134286916Y-79357299D01*
X134276138Y-79357412D01*
X133642962Y-79990589D01*
X133625925Y-79927007D01*
X133560099Y-79812993D01*
X133467007Y-79719901D01*
X133352993Y-79654075D01*
X133289410Y-79637037D01*
X133921373Y-79005073D01*
X133921373Y-79005072D01*
X133837583Y-78946402D01*
X133837579Y-78946400D01*
X133623492Y-78846570D01*
X133623483Y-78846566D01*
X133395326Y-78785432D01*
X133395315Y-78785430D01*
X133160002Y-78764843D01*
X133159998Y-78764843D01*
X132924684Y-78785430D01*
X132924673Y-78785432D01*
X132696516Y-78846566D01*
X132696507Y-78846570D01*
X132482419Y-78946401D01*
X132398625Y-79005072D01*
X133030590Y-79637037D01*
X132967007Y-79654075D01*
X132852993Y-79719901D01*
X132759901Y-79812993D01*
X132694075Y-79927007D01*
X132677037Y-79990590D01*
X132045072Y-79358625D01*
X131986401Y-79442419D01*
X131886570Y-79656507D01*
X131886566Y-79656516D01*
X131825432Y-79884673D01*
X131825430Y-79884684D01*
X131804843Y-80119998D01*
X131804843Y-80120001D01*
X131825430Y-80355315D01*
X131825432Y-80355326D01*
X131886566Y-80583483D01*
X131886570Y-80583492D01*
X131986400Y-80797579D01*
X131986402Y-80797583D01*
X132045072Y-80881373D01*
X132045073Y-80881373D01*
X132677037Y-80249409D01*
X132694075Y-80312993D01*
X132759901Y-80427007D01*
X132852993Y-80520099D01*
X132967007Y-80585925D01*
X133030590Y-80602962D01*
X132398625Y-81234925D01*
X132474594Y-81288119D01*
X132518219Y-81342696D01*
X132525413Y-81412194D01*
X132493890Y-81474549D01*
X132474595Y-81491269D01*
X132288594Y-81621508D01*
X132121505Y-81788597D01*
X131985965Y-81982169D01*
X131985964Y-81982171D01*
X131886098Y-82196335D01*
X131886094Y-82196344D01*
X131824938Y-82424586D01*
X131824936Y-82424596D01*
X131804341Y-82659999D01*
X126048014Y-82659999D01*
X126038279Y-77999996D01*
X139694435Y-77999996D01*
X139694435Y-78000003D01*
X139714630Y-78179249D01*
X139714631Y-78179254D01*
X139774211Y-78349523D01*
X139870185Y-78502263D01*
X139872445Y-78505097D01*
X139873334Y-78507275D01*
X139873889Y-78508158D01*
X139873734Y-78508255D01*
X139898855Y-78569783D01*
X139899500Y-78582412D01*
X139899500Y-86217587D01*
X139879815Y-86284626D01*
X139872450Y-86294896D01*
X139870186Y-86297734D01*
X139774211Y-86450476D01*
X139714631Y-86620745D01*
X139714630Y-86620750D01*
X139694435Y-86799996D01*
X139694435Y-86800003D01*
X139714630Y-86979249D01*
X139714631Y-86979254D01*
X139774211Y-87149523D01*
X139848635Y-87267967D01*
X139870184Y-87302262D01*
X139997738Y-87429816D01*
X140088080Y-87486582D01*
X140120158Y-87506738D01*
X140150478Y-87525789D01*
X140275397Y-87569500D01*
X140320745Y-87585368D01*
X140320750Y-87585369D01*
X140499996Y-87605565D01*
X140500000Y-87605565D01*
X140500004Y-87605565D01*
X140679249Y-87585369D01*
X140679252Y-87585368D01*
X140679255Y-87585368D01*
X140849522Y-87525789D01*
X141002262Y-87429816D01*
X141129816Y-87302262D01*
X141225789Y-87149522D01*
X141285368Y-86979255D01*
X141285369Y-86979249D01*
X141305565Y-86800003D01*
X141305565Y-86799996D01*
X141285369Y-86620750D01*
X141285368Y-86620745D01*
X141225788Y-86450476D01*
X141192645Y-86397730D01*
X141129816Y-86297738D01*
X141129814Y-86297736D01*
X141129813Y-86297734D01*
X141127550Y-86294896D01*
X141126659Y-86292715D01*
X141126111Y-86291842D01*
X141126264Y-86291745D01*
X141121469Y-86279998D01*
X171194532Y-86279998D01*
X171194532Y-86280001D01*
X171214364Y-86506686D01*
X171214366Y-86506697D01*
X171273258Y-86726488D01*
X171273261Y-86726497D01*
X171369431Y-86932732D01*
X171369432Y-86932734D01*
X171499954Y-87119141D01*
X171660858Y-87280045D01*
X171660861Y-87280047D01*
X171847266Y-87410568D01*
X172053504Y-87506739D01*
X172273308Y-87565635D01*
X172419944Y-87578464D01*
X172499998Y-87585468D01*
X172500000Y-87585468D01*
X172500002Y-87585468D01*
X172556673Y-87580509D01*
X172726692Y-87565635D01*
X172946496Y-87506739D01*
X173152734Y-87410568D01*
X173339139Y-87280047D01*
X173500047Y-87119139D01*
X173630568Y-86932734D01*
X173657618Y-86874724D01*
X173703790Y-86822285D01*
X173770983Y-86803133D01*
X173837865Y-86823348D01*
X173882382Y-86874725D01*
X173909429Y-86932728D01*
X173909432Y-86932734D01*
X174039954Y-87119141D01*
X174200858Y-87280045D01*
X174200861Y-87280047D01*
X174387266Y-87410568D01*
X174593504Y-87506739D01*
X174813308Y-87565635D01*
X174959944Y-87578464D01*
X175039998Y-87585468D01*
X175040000Y-87585468D01*
X175040002Y-87585468D01*
X175096673Y-87580509D01*
X175266692Y-87565635D01*
X175486496Y-87506739D01*
X175692734Y-87410568D01*
X175879139Y-87280047D01*
X176040047Y-87119139D01*
X176170568Y-86932734D01*
X176197618Y-86874724D01*
X176243790Y-86822285D01*
X176310983Y-86803133D01*
X176377865Y-86823348D01*
X176422382Y-86874725D01*
X176449429Y-86932728D01*
X176449432Y-86932734D01*
X176579954Y-87119141D01*
X176740858Y-87280045D01*
X176740861Y-87280047D01*
X176927266Y-87410568D01*
X177133504Y-87506739D01*
X177353308Y-87565635D01*
X177499944Y-87578464D01*
X177579998Y-87585468D01*
X177580000Y-87585468D01*
X177580002Y-87585468D01*
X177636673Y-87580509D01*
X177806692Y-87565635D01*
X178026496Y-87506739D01*
X178232734Y-87410568D01*
X178419139Y-87280047D01*
X178580047Y-87119139D01*
X178710568Y-86932734D01*
X178737618Y-86874724D01*
X178783790Y-86822285D01*
X178850983Y-86803133D01*
X178917865Y-86823348D01*
X178962382Y-86874725D01*
X178989429Y-86932728D01*
X178989432Y-86932734D01*
X179119954Y-87119141D01*
X179280858Y-87280045D01*
X179280861Y-87280047D01*
X179467266Y-87410568D01*
X179673504Y-87506739D01*
X179893308Y-87565635D01*
X180039944Y-87578464D01*
X180119998Y-87585468D01*
X180120000Y-87585468D01*
X180120002Y-87585468D01*
X180176673Y-87580509D01*
X180346692Y-87565635D01*
X180566496Y-87506739D01*
X180772734Y-87410568D01*
X180959139Y-87280047D01*
X181120047Y-87119139D01*
X181250568Y-86932734D01*
X181277618Y-86874724D01*
X181323790Y-86822285D01*
X181390983Y-86803133D01*
X181457865Y-86823348D01*
X181502382Y-86874725D01*
X181529429Y-86932728D01*
X181529432Y-86932734D01*
X181659954Y-87119141D01*
X181820858Y-87280045D01*
X181820861Y-87280047D01*
X182007266Y-87410568D01*
X182213504Y-87506739D01*
X182433308Y-87565635D01*
X182579944Y-87578464D01*
X182659998Y-87585468D01*
X182660000Y-87585468D01*
X182660002Y-87585468D01*
X182716673Y-87580509D01*
X182886692Y-87565635D01*
X183106496Y-87506739D01*
X183312734Y-87410568D01*
X183499139Y-87280047D01*
X183660047Y-87119139D01*
X183790568Y-86932734D01*
X183817618Y-86874724D01*
X183863790Y-86822285D01*
X183930983Y-86803133D01*
X183997865Y-86823348D01*
X184042382Y-86874725D01*
X184069429Y-86932728D01*
X184069432Y-86932734D01*
X184199954Y-87119141D01*
X184360858Y-87280045D01*
X184360861Y-87280047D01*
X184547266Y-87410568D01*
X184753504Y-87506739D01*
X184973308Y-87565635D01*
X185119944Y-87578464D01*
X185199998Y-87585468D01*
X185200000Y-87585468D01*
X185200002Y-87585468D01*
X185256673Y-87580509D01*
X185426692Y-87565635D01*
X185646496Y-87506739D01*
X185852734Y-87410568D01*
X186039139Y-87280047D01*
X186200047Y-87119139D01*
X186330568Y-86932734D01*
X186357895Y-86874129D01*
X186404064Y-86821695D01*
X186471257Y-86802542D01*
X186538139Y-86822757D01*
X186582657Y-86874133D01*
X186609865Y-86932482D01*
X186740342Y-87118820D01*
X186901179Y-87279657D01*
X187087517Y-87410134D01*
X187293673Y-87506265D01*
X187293682Y-87506269D01*
X187489999Y-87558872D01*
X187490000Y-87558871D01*
X187490000Y-86595686D01*
X187494394Y-86600080D01*
X187585606Y-86652741D01*
X187687339Y-86680000D01*
X187792661Y-86680000D01*
X187894394Y-86652741D01*
X187985606Y-86600080D01*
X187990000Y-86595686D01*
X187990000Y-87558872D01*
X188186317Y-87506269D01*
X188186326Y-87506265D01*
X188392482Y-87410134D01*
X188578820Y-87279657D01*
X188739657Y-87118820D01*
X188870132Y-86932484D01*
X188897341Y-86874134D01*
X188943513Y-86821695D01*
X189010707Y-86802542D01*
X189077588Y-86822757D01*
X189122106Y-86874133D01*
X189149431Y-86932732D01*
X189149432Y-86932734D01*
X189279954Y-87119141D01*
X189440858Y-87280045D01*
X189440861Y-87280047D01*
X189627266Y-87410568D01*
X189833504Y-87506739D01*
X190053308Y-87565635D01*
X190199944Y-87578464D01*
X190279998Y-87585468D01*
X190280000Y-87585468D01*
X190280002Y-87585468D01*
X190336673Y-87580509D01*
X190506692Y-87565635D01*
X190726496Y-87506739D01*
X190932734Y-87410568D01*
X191119139Y-87280047D01*
X191280047Y-87119139D01*
X191410568Y-86932734D01*
X191437618Y-86874724D01*
X191483790Y-86822285D01*
X191550983Y-86803133D01*
X191617865Y-86823348D01*
X191662382Y-86874725D01*
X191689429Y-86932728D01*
X191689432Y-86932734D01*
X191819954Y-87119141D01*
X191980858Y-87280045D01*
X191980861Y-87280047D01*
X192167266Y-87410568D01*
X192373504Y-87506739D01*
X192593308Y-87565635D01*
X192739944Y-87578464D01*
X192819998Y-87585468D01*
X192820000Y-87585468D01*
X192820002Y-87585468D01*
X192876673Y-87580509D01*
X193046692Y-87565635D01*
X193266496Y-87506739D01*
X193472734Y-87410568D01*
X193659139Y-87280047D01*
X193820047Y-87119139D01*
X193950568Y-86932734D01*
X193977618Y-86874724D01*
X194023790Y-86822285D01*
X194090983Y-86803133D01*
X194157865Y-86823348D01*
X194202382Y-86874725D01*
X194229429Y-86932728D01*
X194229432Y-86932734D01*
X194359954Y-87119141D01*
X194520858Y-87280045D01*
X194520861Y-87280047D01*
X194707266Y-87410568D01*
X194913504Y-87506739D01*
X195133308Y-87565635D01*
X195279944Y-87578464D01*
X195359998Y-87585468D01*
X195360000Y-87585468D01*
X195360002Y-87585468D01*
X195416673Y-87580509D01*
X195586692Y-87565635D01*
X195806496Y-87506739D01*
X196012734Y-87410568D01*
X196199139Y-87280047D01*
X196360047Y-87119139D01*
X196490568Y-86932734D01*
X196517618Y-86874724D01*
X196563790Y-86822285D01*
X196630983Y-86803133D01*
X196697865Y-86823348D01*
X196742382Y-86874725D01*
X196769429Y-86932728D01*
X196769432Y-86932734D01*
X196899954Y-87119141D01*
X197060858Y-87280045D01*
X197060861Y-87280047D01*
X197247266Y-87410568D01*
X197453504Y-87506739D01*
X197673308Y-87565635D01*
X197819944Y-87578464D01*
X197899998Y-87585468D01*
X197900000Y-87585468D01*
X197900002Y-87585468D01*
X197956673Y-87580509D01*
X198126692Y-87565635D01*
X198346496Y-87506739D01*
X198552734Y-87410568D01*
X198739139Y-87280047D01*
X198900047Y-87119139D01*
X199030568Y-86932734D01*
X199057618Y-86874724D01*
X199103790Y-86822285D01*
X199170983Y-86803133D01*
X199237865Y-86823348D01*
X199282382Y-86874725D01*
X199309429Y-86932728D01*
X199309432Y-86932734D01*
X199439954Y-87119141D01*
X199600858Y-87280045D01*
X199600861Y-87280047D01*
X199787266Y-87410568D01*
X199993504Y-87506739D01*
X200213308Y-87565635D01*
X200359944Y-87578464D01*
X200439998Y-87585468D01*
X200440000Y-87585468D01*
X200440002Y-87585468D01*
X200496673Y-87580509D01*
X200666692Y-87565635D01*
X200886496Y-87506739D01*
X201092734Y-87410568D01*
X201279139Y-87280047D01*
X201440047Y-87119139D01*
X201570568Y-86932734D01*
X201597618Y-86874724D01*
X201643790Y-86822285D01*
X201710983Y-86803133D01*
X201777865Y-86823348D01*
X201822382Y-86874725D01*
X201849429Y-86932728D01*
X201849432Y-86932734D01*
X201979954Y-87119141D01*
X202140858Y-87280045D01*
X202140861Y-87280047D01*
X202327266Y-87410568D01*
X202533504Y-87506739D01*
X202753308Y-87565635D01*
X202899944Y-87578464D01*
X202979998Y-87585468D01*
X202980000Y-87585468D01*
X202980002Y-87585468D01*
X203036673Y-87580509D01*
X203206692Y-87565635D01*
X203426496Y-87506739D01*
X203632734Y-87410568D01*
X203819139Y-87280047D01*
X203980047Y-87119139D01*
X204110568Y-86932734D01*
X204137618Y-86874724D01*
X204183790Y-86822285D01*
X204250983Y-86803133D01*
X204317865Y-86823348D01*
X204362382Y-86874725D01*
X204389429Y-86932728D01*
X204389432Y-86932734D01*
X204519954Y-87119141D01*
X204680858Y-87280045D01*
X204680861Y-87280047D01*
X204867266Y-87410568D01*
X205073504Y-87506739D01*
X205293308Y-87565635D01*
X205439944Y-87578464D01*
X205519998Y-87585468D01*
X205520000Y-87585468D01*
X205520002Y-87585468D01*
X205576673Y-87580509D01*
X205746692Y-87565635D01*
X205966496Y-87506739D01*
X206172734Y-87410568D01*
X206359139Y-87280047D01*
X206520047Y-87119139D01*
X206650568Y-86932734D01*
X206746739Y-86726496D01*
X206805635Y-86506692D01*
X206823916Y-86297738D01*
X206825468Y-86280001D01*
X206825468Y-86279998D01*
X206808053Y-86080945D01*
X206805635Y-86053308D01*
X206746739Y-85833504D01*
X206650568Y-85627266D01*
X206520047Y-85440861D01*
X206520045Y-85440858D01*
X206359141Y-85279954D01*
X206172734Y-85149432D01*
X206172732Y-85149431D01*
X205966497Y-85053261D01*
X205966488Y-85053258D01*
X205746697Y-84994366D01*
X205746693Y-84994365D01*
X205746692Y-84994365D01*
X205746691Y-84994364D01*
X205746686Y-84994364D01*
X205520002Y-84974532D01*
X205519998Y-84974532D01*
X205293313Y-84994364D01*
X205293302Y-84994366D01*
X205073511Y-85053258D01*
X205073502Y-85053261D01*
X204867267Y-85149431D01*
X204867265Y-85149432D01*
X204680858Y-85279954D01*
X204519954Y-85440858D01*
X204389432Y-85627265D01*
X204389431Y-85627267D01*
X204362382Y-85685275D01*
X204316209Y-85737714D01*
X204249016Y-85756866D01*
X204182135Y-85736650D01*
X204137618Y-85685275D01*
X204132896Y-85675149D01*
X204110568Y-85627266D01*
X203980047Y-85440861D01*
X203980045Y-85440858D01*
X203819141Y-85279954D01*
X203632734Y-85149432D01*
X203632732Y-85149431D01*
X203426497Y-85053261D01*
X203426488Y-85053258D01*
X203206697Y-84994366D01*
X203206693Y-84994365D01*
X203206692Y-84994365D01*
X203206691Y-84994364D01*
X203206686Y-84994364D01*
X202980002Y-84974532D01*
X202979998Y-84974532D01*
X202753313Y-84994364D01*
X202753302Y-84994366D01*
X202533511Y-85053258D01*
X202533502Y-85053261D01*
X202327267Y-85149431D01*
X202327265Y-85149432D01*
X202140858Y-85279954D01*
X201979954Y-85440858D01*
X201849432Y-85627265D01*
X201849431Y-85627267D01*
X201822382Y-85685275D01*
X201776209Y-85737714D01*
X201709016Y-85756866D01*
X201642135Y-85736650D01*
X201597618Y-85685275D01*
X201592896Y-85675149D01*
X201570568Y-85627266D01*
X201440047Y-85440861D01*
X201440045Y-85440858D01*
X201279141Y-85279954D01*
X201092734Y-85149432D01*
X201092732Y-85149431D01*
X200886497Y-85053261D01*
X200886488Y-85053258D01*
X200666697Y-84994366D01*
X200666693Y-84994365D01*
X200666692Y-84994365D01*
X200666691Y-84994364D01*
X200666686Y-84994364D01*
X200440002Y-84974532D01*
X200439998Y-84974532D01*
X200213313Y-84994364D01*
X200213302Y-84994366D01*
X199993511Y-85053258D01*
X199993502Y-85053261D01*
X199787267Y-85149431D01*
X199787265Y-85149432D01*
X199600858Y-85279954D01*
X199439954Y-85440858D01*
X199309432Y-85627265D01*
X199309431Y-85627267D01*
X199282382Y-85685275D01*
X199236209Y-85737714D01*
X199169016Y-85756866D01*
X199102135Y-85736650D01*
X199057618Y-85685275D01*
X199052896Y-85675149D01*
X199030568Y-85627266D01*
X198900047Y-85440861D01*
X198900045Y-85440858D01*
X198739141Y-85279954D01*
X198552734Y-85149432D01*
X198552732Y-85149431D01*
X198346497Y-85053261D01*
X198346488Y-85053258D01*
X198126697Y-84994366D01*
X198126693Y-84994365D01*
X198126692Y-84994365D01*
X198126691Y-84994364D01*
X198126686Y-84994364D01*
X197900002Y-84974532D01*
X197899998Y-84974532D01*
X197673313Y-84994364D01*
X197673302Y-84994366D01*
X197453511Y-85053258D01*
X197453502Y-85053261D01*
X197247267Y-85149431D01*
X197247265Y-85149432D01*
X197060858Y-85279954D01*
X196899954Y-85440858D01*
X196769432Y-85627265D01*
X196769431Y-85627267D01*
X196742382Y-85685275D01*
X196696209Y-85737714D01*
X196629016Y-85756866D01*
X196562135Y-85736650D01*
X196517618Y-85685275D01*
X196512896Y-85675149D01*
X196490568Y-85627266D01*
X196360047Y-85440861D01*
X196360045Y-85440858D01*
X196199141Y-85279954D01*
X196012734Y-85149432D01*
X196012732Y-85149431D01*
X195806497Y-85053261D01*
X195806488Y-85053258D01*
X195586697Y-84994366D01*
X195586693Y-84994365D01*
X195586692Y-84994365D01*
X195586691Y-84994364D01*
X195586686Y-84994364D01*
X195360002Y-84974532D01*
X195359998Y-84974532D01*
X195133313Y-84994364D01*
X195133302Y-84994366D01*
X194913511Y-85053258D01*
X194913502Y-85053261D01*
X194707267Y-85149431D01*
X194707265Y-85149432D01*
X194520858Y-85279954D01*
X194359954Y-85440858D01*
X194229432Y-85627265D01*
X194229431Y-85627267D01*
X194202382Y-85685275D01*
X194156209Y-85737714D01*
X194089016Y-85756866D01*
X194022135Y-85736650D01*
X193977618Y-85685275D01*
X193972896Y-85675149D01*
X193950568Y-85627266D01*
X193820047Y-85440861D01*
X193820045Y-85440858D01*
X193659141Y-85279954D01*
X193472734Y-85149432D01*
X193472732Y-85149431D01*
X193266497Y-85053261D01*
X193266488Y-85053258D01*
X193046697Y-84994366D01*
X193046693Y-84994365D01*
X193046692Y-84994365D01*
X193046691Y-84994364D01*
X193046686Y-84994364D01*
X192820002Y-84974532D01*
X192819998Y-84974532D01*
X192593313Y-84994364D01*
X192593302Y-84994366D01*
X192373511Y-85053258D01*
X192373502Y-85053261D01*
X192167267Y-85149431D01*
X192167265Y-85149432D01*
X191980858Y-85279954D01*
X191819954Y-85440858D01*
X191689432Y-85627265D01*
X191689431Y-85627267D01*
X191662382Y-85685275D01*
X191616209Y-85737714D01*
X191549016Y-85756866D01*
X191482135Y-85736650D01*
X191437618Y-85685275D01*
X191432896Y-85675149D01*
X191410568Y-85627266D01*
X191280047Y-85440861D01*
X191280045Y-85440858D01*
X191119141Y-85279954D01*
X190932734Y-85149432D01*
X190932732Y-85149431D01*
X190726497Y-85053261D01*
X190726488Y-85053258D01*
X190506697Y-84994366D01*
X190506693Y-84994365D01*
X190506692Y-84994365D01*
X190506691Y-84994364D01*
X190506686Y-84994364D01*
X190280002Y-84974532D01*
X190279998Y-84974532D01*
X190053313Y-84994364D01*
X190053302Y-84994366D01*
X189833511Y-85053258D01*
X189833502Y-85053261D01*
X189627267Y-85149431D01*
X189627265Y-85149432D01*
X189440858Y-85279954D01*
X189279954Y-85440858D01*
X189149433Y-85627264D01*
X189149432Y-85627266D01*
X189127109Y-85675139D01*
X189122106Y-85685867D01*
X189075933Y-85738306D01*
X189008739Y-85757457D01*
X188941858Y-85737241D01*
X188897342Y-85685865D01*
X188870135Y-85627520D01*
X188870134Y-85627518D01*
X188739657Y-85441179D01*
X188578820Y-85280342D01*
X188392482Y-85149865D01*
X188186328Y-85053734D01*
X187990000Y-85001127D01*
X187990000Y-85964314D01*
X187985606Y-85959920D01*
X187894394Y-85907259D01*
X187792661Y-85880000D01*
X187687339Y-85880000D01*
X187585606Y-85907259D01*
X187494394Y-85959920D01*
X187490000Y-85964314D01*
X187490000Y-85001127D01*
X187293671Y-85053734D01*
X187087517Y-85149865D01*
X186901179Y-85280342D01*
X186740342Y-85441179D01*
X186609867Y-85627515D01*
X186582657Y-85685867D01*
X186536484Y-85738306D01*
X186469290Y-85757457D01*
X186402409Y-85737241D01*
X186357893Y-85685865D01*
X186352891Y-85675139D01*
X186330568Y-85627266D01*
X186200047Y-85440861D01*
X186200045Y-85440858D01*
X186039141Y-85279954D01*
X185852734Y-85149432D01*
X185852732Y-85149431D01*
X185646497Y-85053261D01*
X185646488Y-85053258D01*
X185426697Y-84994366D01*
X185426693Y-84994365D01*
X185426692Y-84994365D01*
X185426691Y-84994364D01*
X185426686Y-84994364D01*
X185200002Y-84974532D01*
X185199998Y-84974532D01*
X184973313Y-84994364D01*
X184973302Y-84994366D01*
X184753511Y-85053258D01*
X184753502Y-85053261D01*
X184547267Y-85149431D01*
X184547265Y-85149432D01*
X184360858Y-85279954D01*
X184199954Y-85440858D01*
X184069432Y-85627265D01*
X184069431Y-85627267D01*
X184042382Y-85685275D01*
X183996209Y-85737714D01*
X183929016Y-85756866D01*
X183862135Y-85736650D01*
X183817618Y-85685275D01*
X183812896Y-85675149D01*
X183790568Y-85627266D01*
X183660047Y-85440861D01*
X183660045Y-85440858D01*
X183499141Y-85279954D01*
X183312734Y-85149432D01*
X183312732Y-85149431D01*
X183106497Y-85053261D01*
X183106488Y-85053258D01*
X182886697Y-84994366D01*
X182886693Y-84994365D01*
X182886692Y-84994365D01*
X182886691Y-84994364D01*
X182886686Y-84994364D01*
X182660002Y-84974532D01*
X182659998Y-84974532D01*
X182433313Y-84994364D01*
X182433302Y-84994366D01*
X182213511Y-85053258D01*
X182213502Y-85053261D01*
X182007267Y-85149431D01*
X182007265Y-85149432D01*
X181820858Y-85279954D01*
X181659954Y-85440858D01*
X181529432Y-85627265D01*
X181529431Y-85627267D01*
X181502382Y-85685275D01*
X181456209Y-85737714D01*
X181389016Y-85756866D01*
X181322135Y-85736650D01*
X181277618Y-85685275D01*
X181272896Y-85675149D01*
X181250568Y-85627266D01*
X181120047Y-85440861D01*
X181120045Y-85440858D01*
X180959141Y-85279954D01*
X180772734Y-85149432D01*
X180772732Y-85149431D01*
X180566497Y-85053261D01*
X180566488Y-85053258D01*
X180346697Y-84994366D01*
X180346693Y-84994365D01*
X180346692Y-84994365D01*
X180346691Y-84994364D01*
X180346686Y-84994364D01*
X180120002Y-84974532D01*
X180119998Y-84974532D01*
X179893313Y-84994364D01*
X179893302Y-84994366D01*
X179673511Y-85053258D01*
X179673502Y-85053261D01*
X179467267Y-85149431D01*
X179467265Y-85149432D01*
X179280858Y-85279954D01*
X179119954Y-85440858D01*
X178989432Y-85627265D01*
X178989431Y-85627267D01*
X178962382Y-85685275D01*
X178916209Y-85737714D01*
X178849016Y-85756866D01*
X178782135Y-85736650D01*
X178737618Y-85685275D01*
X178732896Y-85675149D01*
X178710568Y-85627266D01*
X178580047Y-85440861D01*
X178580045Y-85440858D01*
X178419141Y-85279954D01*
X178232734Y-85149432D01*
X178232732Y-85149431D01*
X178026497Y-85053261D01*
X178026488Y-85053258D01*
X177806697Y-84994366D01*
X177806693Y-84994365D01*
X177806692Y-84994365D01*
X177806691Y-84994364D01*
X177806686Y-84994364D01*
X177580002Y-84974532D01*
X177579998Y-84974532D01*
X177353313Y-84994364D01*
X177353302Y-84994366D01*
X177133511Y-85053258D01*
X177133502Y-85053261D01*
X176927267Y-85149431D01*
X176927265Y-85149432D01*
X176740858Y-85279954D01*
X176579954Y-85440858D01*
X176449432Y-85627265D01*
X176449431Y-85627267D01*
X176422382Y-85685275D01*
X176376209Y-85737714D01*
X176309016Y-85756866D01*
X176242135Y-85736650D01*
X176197618Y-85685275D01*
X176192896Y-85675149D01*
X176170568Y-85627266D01*
X176040047Y-85440861D01*
X176040045Y-85440858D01*
X175879141Y-85279954D01*
X175692734Y-85149432D01*
X175692732Y-85149431D01*
X175486497Y-85053261D01*
X175486488Y-85053258D01*
X175266697Y-84994366D01*
X175266693Y-84994365D01*
X175266692Y-84994365D01*
X175266691Y-84994364D01*
X175266686Y-84994364D01*
X175040002Y-84974532D01*
X175039998Y-84974532D01*
X174813313Y-84994364D01*
X174813302Y-84994366D01*
X174593511Y-85053258D01*
X174593502Y-85053261D01*
X174387267Y-85149431D01*
X174387265Y-85149432D01*
X174200858Y-85279954D01*
X174039954Y-85440858D01*
X173909432Y-85627265D01*
X173909431Y-85627267D01*
X173882382Y-85685275D01*
X173836209Y-85737714D01*
X173769016Y-85756866D01*
X173702135Y-85736650D01*
X173657618Y-85685275D01*
X173652896Y-85675149D01*
X173630568Y-85627266D01*
X173500047Y-85440861D01*
X173500045Y-85440858D01*
X173339141Y-85279954D01*
X173152734Y-85149432D01*
X173152732Y-85149431D01*
X172946497Y-85053261D01*
X172946488Y-85053258D01*
X172726697Y-84994366D01*
X172726693Y-84994365D01*
X172726692Y-84994365D01*
X172726691Y-84994364D01*
X172726686Y-84994364D01*
X172500002Y-84974532D01*
X172499998Y-84974532D01*
X172273313Y-84994364D01*
X172273302Y-84994366D01*
X172053511Y-85053258D01*
X172053502Y-85053261D01*
X171847267Y-85149431D01*
X171847265Y-85149432D01*
X171660858Y-85279954D01*
X171499954Y-85440858D01*
X171369432Y-85627265D01*
X171369431Y-85627267D01*
X171273261Y-85833502D01*
X171273258Y-85833511D01*
X171214366Y-86053302D01*
X171214364Y-86053313D01*
X171194532Y-86279998D01*
X141121469Y-86279998D01*
X141101144Y-86230209D01*
X141100500Y-86217587D01*
X141100500Y-82659996D01*
X160994435Y-82659996D01*
X160994435Y-82660003D01*
X161014630Y-82839249D01*
X161014631Y-82839254D01*
X161074211Y-83009523D01*
X161145931Y-83123664D01*
X161170184Y-83162262D01*
X161297738Y-83289816D01*
X161450478Y-83385789D01*
X161620745Y-83445368D01*
X161620750Y-83445369D01*
X161799996Y-83465565D01*
X161800000Y-83465565D01*
X161800004Y-83465565D01*
X161979249Y-83445369D01*
X161979252Y-83445368D01*
X161979255Y-83445368D01*
X162149522Y-83385789D01*
X162302262Y-83289816D01*
X162429816Y-83162262D01*
X162429818Y-83162259D01*
X162432165Y-83158525D01*
X162484501Y-83112235D01*
X162537157Y-83100500D01*
X170374506Y-83100500D01*
X170440477Y-83119506D01*
X170450474Y-83125787D01*
X170450475Y-83125787D01*
X170450478Y-83125789D01*
X170620745Y-83185368D01*
X170620750Y-83185369D01*
X170799996Y-83205565D01*
X170800000Y-83205565D01*
X170800004Y-83205565D01*
X170979249Y-83185369D01*
X170979252Y-83185368D01*
X170979255Y-83185368D01*
X171149522Y-83125789D01*
X171149526Y-83125787D01*
X171198268Y-83095160D01*
X171227888Y-83076547D01*
X171295125Y-83057547D01*
X171361960Y-83077914D01*
X171407174Y-83131182D01*
X171416413Y-83200438D01*
X171386742Y-83263695D01*
X171381542Y-83269222D01*
X171187584Y-83463181D01*
X171126261Y-83496666D01*
X171099903Y-83499500D01*
X163279057Y-83499500D01*
X163120943Y-83499500D01*
X162968215Y-83540423D01*
X162968214Y-83540423D01*
X162968212Y-83540424D01*
X162968209Y-83540425D01*
X162918096Y-83569359D01*
X162918095Y-83569360D01*
X162874689Y-83594420D01*
X162831285Y-83619479D01*
X162831282Y-83619481D01*
X162752271Y-83698493D01*
X162719480Y-83731284D01*
X162719478Y-83731286D01*
X162622339Y-83828425D01*
X162581465Y-83869299D01*
X162520142Y-83902783D01*
X162507668Y-83904837D01*
X162420750Y-83914630D01*
X162250478Y-83974210D01*
X162097737Y-84070184D01*
X161970184Y-84197737D01*
X161874211Y-84350476D01*
X161814631Y-84520745D01*
X161814630Y-84520750D01*
X161794435Y-84699996D01*
X161794435Y-84700003D01*
X161814630Y-84879249D01*
X161814631Y-84879254D01*
X161874211Y-85049523D01*
X161937261Y-85149865D01*
X161970184Y-85202262D01*
X162097738Y-85329816D01*
X162250478Y-85425789D01*
X162420745Y-85485368D01*
X162420750Y-85485369D01*
X162599996Y-85505565D01*
X162600000Y-85505565D01*
X162600004Y-85505565D01*
X162779249Y-85485369D01*
X162779252Y-85485368D01*
X162779255Y-85485368D01*
X162949522Y-85425789D01*
X163102262Y-85329816D01*
X163229816Y-85202262D01*
X163325789Y-85049522D01*
X163385368Y-84879255D01*
X163393101Y-84810616D01*
X163420166Y-84746204D01*
X163477760Y-84706648D01*
X163516321Y-84700500D01*
X171313331Y-84700500D01*
X171313347Y-84700501D01*
X171320943Y-84700501D01*
X171479054Y-84700501D01*
X171479057Y-84700501D01*
X171631785Y-84659577D01*
X171681904Y-84630639D01*
X171768716Y-84580520D01*
X171880520Y-84468716D01*
X171880520Y-84468714D01*
X171890728Y-84458507D01*
X171890730Y-84458504D01*
X173218535Y-83130698D01*
X173279856Y-83097215D01*
X173292311Y-83095163D01*
X173379255Y-83085368D01*
X173549522Y-83025789D01*
X173702262Y-82929816D01*
X173829816Y-82802262D01*
X173925789Y-82649522D01*
X173985368Y-82479255D01*
X173991528Y-82424586D01*
X174005565Y-82300003D01*
X174005565Y-82299996D01*
X173985369Y-82120750D01*
X173985368Y-82120745D01*
X173925789Y-81950478D01*
X173829816Y-81797738D01*
X173702262Y-81670184D01*
X173624795Y-81621508D01*
X173549523Y-81574211D01*
X173379254Y-81514631D01*
X173379249Y-81514630D01*
X173200004Y-81494435D01*
X173199996Y-81494435D01*
X173020750Y-81514630D01*
X173020745Y-81514631D01*
X172850476Y-81574211D01*
X172697737Y-81670184D01*
X172570184Y-81797737D01*
X172474210Y-81950478D01*
X172414630Y-82120750D01*
X172404837Y-82207668D01*
X172377770Y-82272082D01*
X172369298Y-82281465D01*
X171669222Y-82981541D01*
X171607899Y-83015026D01*
X171538207Y-83010042D01*
X171482274Y-82968170D01*
X171457857Y-82902706D01*
X171472709Y-82834433D01*
X171476534Y-82827909D01*
X171525789Y-82749522D01*
X171585368Y-82579255D01*
X171596467Y-82480750D01*
X171605565Y-82400003D01*
X171605565Y-82399996D01*
X171585369Y-82220750D01*
X171585368Y-82220745D01*
X171563321Y-82157738D01*
X171525789Y-82050478D01*
X171513037Y-82030184D01*
X171462955Y-81950478D01*
X171429816Y-81897738D01*
X171302262Y-81770184D01*
X171302260Y-81770183D01*
X171149523Y-81674211D01*
X170979254Y-81614631D01*
X170979249Y-81614630D01*
X170800004Y-81594435D01*
X170799996Y-81594435D01*
X170620750Y-81614630D01*
X170620745Y-81614631D01*
X170450476Y-81674211D01*
X170297739Y-81770183D01*
X170204740Y-81863182D01*
X170143416Y-81896666D01*
X170117059Y-81899500D01*
X162071393Y-81899500D01*
X162030438Y-81892541D01*
X161979262Y-81874633D01*
X161979249Y-81874630D01*
X161800004Y-81854435D01*
X161799996Y-81854435D01*
X161620750Y-81874630D01*
X161620745Y-81874631D01*
X161450476Y-81934211D01*
X161297737Y-82030184D01*
X161170184Y-82157737D01*
X161074211Y-82310476D01*
X161014631Y-82480745D01*
X161014630Y-82480750D01*
X160994435Y-82659996D01*
X141100500Y-82659996D01*
X141100500Y-78999994D01*
X172269443Y-78999994D01*
X172269443Y-79000005D01*
X172289634Y-79243683D01*
X172289636Y-79243695D01*
X172349663Y-79480734D01*
X172447888Y-79704666D01*
X172581632Y-79909378D01*
X172747242Y-80089277D01*
X172747252Y-80089286D01*
X172940208Y-80239470D01*
X172940212Y-80239473D01*
X173155267Y-80355855D01*
X173155270Y-80355856D01*
X173386541Y-80435251D01*
X173386543Y-80435251D01*
X173386545Y-80435252D01*
X173627737Y-80475500D01*
X173627738Y-80475500D01*
X173872262Y-80475500D01*
X173872263Y-80475500D01*
X174113455Y-80435252D01*
X174344733Y-80355855D01*
X174559788Y-80239473D01*
X174752754Y-80089281D01*
X174918368Y-79909377D01*
X175052111Y-79704667D01*
X175150336Y-79480736D01*
X175210364Y-79243692D01*
X175213929Y-79200668D01*
X175230557Y-79000005D01*
X175230557Y-78999994D01*
X184769443Y-78999994D01*
X184769443Y-79000005D01*
X184789634Y-79243683D01*
X184789636Y-79243695D01*
X184849663Y-79480734D01*
X184947888Y-79704666D01*
X185081632Y-79909378D01*
X185247242Y-80089277D01*
X185247252Y-80089286D01*
X185440208Y-80239470D01*
X185440212Y-80239473D01*
X185655267Y-80355855D01*
X185655270Y-80355856D01*
X185886541Y-80435251D01*
X185886543Y-80435251D01*
X185886545Y-80435252D01*
X186127737Y-80475500D01*
X186127738Y-80475500D01*
X186372262Y-80475500D01*
X186372263Y-80475500D01*
X186613455Y-80435252D01*
X186844733Y-80355855D01*
X187059788Y-80239473D01*
X187252754Y-80089281D01*
X187418368Y-79909377D01*
X187552111Y-79704667D01*
X187650336Y-79480736D01*
X187710364Y-79243692D01*
X187713929Y-79200668D01*
X187730557Y-79000005D01*
X187730557Y-78999994D01*
X193369443Y-78999994D01*
X193369443Y-79000005D01*
X193389634Y-79243683D01*
X193389636Y-79243695D01*
X193449663Y-79480734D01*
X193547888Y-79704666D01*
X193681632Y-79909378D01*
X193847242Y-80089277D01*
X193847252Y-80089286D01*
X194040208Y-80239470D01*
X194040212Y-80239473D01*
X194255267Y-80355855D01*
X194255270Y-80355856D01*
X194486541Y-80435251D01*
X194486543Y-80435251D01*
X194486545Y-80435252D01*
X194727737Y-80475500D01*
X194727738Y-80475500D01*
X194972262Y-80475500D01*
X194972263Y-80475500D01*
X195213455Y-80435252D01*
X195444733Y-80355855D01*
X195659788Y-80239473D01*
X195852754Y-80089281D01*
X196018368Y-79909377D01*
X196152111Y-79704667D01*
X196250336Y-79480736D01*
X196310364Y-79243692D01*
X196313929Y-79200668D01*
X196330557Y-79000005D01*
X196330557Y-78999994D01*
X205869443Y-78999994D01*
X205869443Y-79000005D01*
X205889634Y-79243683D01*
X205889636Y-79243695D01*
X205949663Y-79480734D01*
X206047888Y-79704666D01*
X206181632Y-79909378D01*
X206347242Y-80089277D01*
X206347252Y-80089286D01*
X206540208Y-80239470D01*
X206540212Y-80239473D01*
X206755267Y-80355855D01*
X206755270Y-80355856D01*
X206986541Y-80435251D01*
X206986543Y-80435251D01*
X206986545Y-80435252D01*
X207227737Y-80475500D01*
X207227738Y-80475500D01*
X207472262Y-80475500D01*
X207472263Y-80475500D01*
X207713455Y-80435252D01*
X207944733Y-80355855D01*
X208159788Y-80239473D01*
X208352754Y-80089281D01*
X208518368Y-79909377D01*
X208652111Y-79704667D01*
X208750336Y-79480736D01*
X208810364Y-79243692D01*
X208813929Y-79200668D01*
X208830557Y-79000005D01*
X208830557Y-78999994D01*
X214469443Y-78999994D01*
X214469443Y-79000005D01*
X214489634Y-79243683D01*
X214489636Y-79243695D01*
X214549663Y-79480734D01*
X214647888Y-79704666D01*
X214781632Y-79909378D01*
X214947242Y-80089277D01*
X214947252Y-80089286D01*
X215140208Y-80239470D01*
X215140212Y-80239473D01*
X215355267Y-80355855D01*
X215355270Y-80355856D01*
X215586541Y-80435251D01*
X215586543Y-80435251D01*
X215586545Y-80435252D01*
X215827737Y-80475500D01*
X215827738Y-80475500D01*
X216072262Y-80475500D01*
X216072263Y-80475500D01*
X216313455Y-80435252D01*
X216544733Y-80355855D01*
X216759788Y-80239473D01*
X216952754Y-80089281D01*
X217118368Y-79909377D01*
X217252111Y-79704667D01*
X217350336Y-79480736D01*
X217410364Y-79243692D01*
X217413929Y-79200668D01*
X217430557Y-79000005D01*
X217430557Y-78999994D01*
X226969443Y-78999994D01*
X226969443Y-79000005D01*
X226989634Y-79243683D01*
X226989636Y-79243695D01*
X227049663Y-79480734D01*
X227147888Y-79704666D01*
X227281632Y-79909378D01*
X227447242Y-80089277D01*
X227447252Y-80089286D01*
X227640208Y-80239470D01*
X227640212Y-80239473D01*
X227855267Y-80355855D01*
X227855270Y-80355856D01*
X228086541Y-80435251D01*
X228086543Y-80435251D01*
X228086545Y-80435252D01*
X228327737Y-80475500D01*
X228327738Y-80475500D01*
X228572262Y-80475500D01*
X228572263Y-80475500D01*
X228813455Y-80435252D01*
X229044733Y-80355855D01*
X229259788Y-80239473D01*
X229452754Y-80089281D01*
X229618368Y-79909377D01*
X229752111Y-79704667D01*
X229850336Y-79480736D01*
X229910364Y-79243692D01*
X229913929Y-79200668D01*
X229930557Y-79000005D01*
X229930557Y-78999994D01*
X229910365Y-78756316D01*
X229910363Y-78756304D01*
X229850336Y-78519265D01*
X229844121Y-78505097D01*
X229752111Y-78295333D01*
X229618368Y-78090623D01*
X229618367Y-78090621D01*
X229452757Y-77910722D01*
X229452747Y-77910713D01*
X229259791Y-77760529D01*
X229259787Y-77760526D01*
X229044734Y-77644145D01*
X229044729Y-77644143D01*
X228813458Y-77564748D01*
X228632561Y-77534562D01*
X228572263Y-77524500D01*
X228327737Y-77524500D01*
X228279498Y-77532549D01*
X228086541Y-77564748D01*
X227855270Y-77644143D01*
X227855265Y-77644145D01*
X227640212Y-77760526D01*
X227640208Y-77760529D01*
X227447252Y-77910713D01*
X227447242Y-77910722D01*
X227281632Y-78090621D01*
X227147888Y-78295333D01*
X227049663Y-78519265D01*
X226989636Y-78756304D01*
X226989634Y-78756316D01*
X226969443Y-78999994D01*
X217430557Y-78999994D01*
X217410365Y-78756316D01*
X217410363Y-78756304D01*
X217350336Y-78519265D01*
X217344121Y-78505097D01*
X217252111Y-78295333D01*
X217118368Y-78090623D01*
X217118367Y-78090621D01*
X216952757Y-77910722D01*
X216952747Y-77910713D01*
X216759791Y-77760529D01*
X216759787Y-77760526D01*
X216544734Y-77644145D01*
X216544729Y-77644143D01*
X216313458Y-77564748D01*
X216132561Y-77534562D01*
X216072263Y-77524500D01*
X215827737Y-77524500D01*
X215779498Y-77532549D01*
X215586541Y-77564748D01*
X215355270Y-77644143D01*
X215355265Y-77644145D01*
X215140212Y-77760526D01*
X215140208Y-77760529D01*
X214947252Y-77910713D01*
X214947242Y-77910722D01*
X214781632Y-78090621D01*
X214647888Y-78295333D01*
X214549663Y-78519265D01*
X214489636Y-78756304D01*
X214489634Y-78756316D01*
X214469443Y-78999994D01*
X208830557Y-78999994D01*
X208810365Y-78756316D01*
X208810363Y-78756304D01*
X208750336Y-78519265D01*
X208744121Y-78505097D01*
X208652111Y-78295333D01*
X208518368Y-78090623D01*
X208518367Y-78090621D01*
X208352757Y-77910722D01*
X208352747Y-77910713D01*
X208159791Y-77760529D01*
X208159787Y-77760526D01*
X207944734Y-77644145D01*
X207944729Y-77644143D01*
X207713458Y-77564748D01*
X207532561Y-77534562D01*
X207472263Y-77524500D01*
X207227737Y-77524500D01*
X207179498Y-77532549D01*
X206986541Y-77564748D01*
X206755270Y-77644143D01*
X206755265Y-77644145D01*
X206540212Y-77760526D01*
X206540208Y-77760529D01*
X206347252Y-77910713D01*
X206347242Y-77910722D01*
X206181632Y-78090621D01*
X206047888Y-78295333D01*
X205949663Y-78519265D01*
X205889636Y-78756304D01*
X205889634Y-78756316D01*
X205869443Y-78999994D01*
X196330557Y-78999994D01*
X196310365Y-78756316D01*
X196310363Y-78756304D01*
X196250336Y-78519265D01*
X196244121Y-78505097D01*
X196152111Y-78295333D01*
X196018368Y-78090623D01*
X196018367Y-78090621D01*
X195852757Y-77910722D01*
X195852747Y-77910713D01*
X195659791Y-77760529D01*
X195659787Y-77760526D01*
X195444734Y-77644145D01*
X195444729Y-77644143D01*
X195213458Y-77564748D01*
X195032561Y-77534562D01*
X194972263Y-77524500D01*
X194727737Y-77524500D01*
X194679498Y-77532549D01*
X194486541Y-77564748D01*
X194255270Y-77644143D01*
X194255265Y-77644145D01*
X194040212Y-77760526D01*
X194040208Y-77760529D01*
X193847252Y-77910713D01*
X193847242Y-77910722D01*
X193681632Y-78090621D01*
X193547888Y-78295333D01*
X193449663Y-78519265D01*
X193389636Y-78756304D01*
X193389634Y-78756316D01*
X193369443Y-78999994D01*
X187730557Y-78999994D01*
X187710365Y-78756316D01*
X187710363Y-78756304D01*
X187650336Y-78519265D01*
X187644121Y-78505097D01*
X187552111Y-78295333D01*
X187418368Y-78090623D01*
X187418367Y-78090621D01*
X187252757Y-77910722D01*
X187252747Y-77910713D01*
X187059791Y-77760529D01*
X187059787Y-77760526D01*
X186844734Y-77644145D01*
X186844729Y-77644143D01*
X186613458Y-77564748D01*
X186432561Y-77534562D01*
X186372263Y-77524500D01*
X186127737Y-77524500D01*
X186079498Y-77532549D01*
X185886541Y-77564748D01*
X185655270Y-77644143D01*
X185655265Y-77644145D01*
X185440212Y-77760526D01*
X185440208Y-77760529D01*
X185247252Y-77910713D01*
X185247242Y-77910722D01*
X185081632Y-78090621D01*
X184947888Y-78295333D01*
X184849663Y-78519265D01*
X184789636Y-78756304D01*
X184789634Y-78756316D01*
X184769443Y-78999994D01*
X175230557Y-78999994D01*
X175210365Y-78756316D01*
X175210363Y-78756304D01*
X175150336Y-78519265D01*
X175144121Y-78505097D01*
X175052111Y-78295333D01*
X174918368Y-78090623D01*
X174918367Y-78090621D01*
X174752757Y-77910722D01*
X174752747Y-77910713D01*
X174559791Y-77760529D01*
X174559787Y-77760526D01*
X174344734Y-77644145D01*
X174344729Y-77644143D01*
X174113458Y-77564748D01*
X173932561Y-77534562D01*
X173872263Y-77524500D01*
X173627737Y-77524500D01*
X173579498Y-77532549D01*
X173386541Y-77564748D01*
X173155270Y-77644143D01*
X173155265Y-77644145D01*
X172940212Y-77760526D01*
X172940208Y-77760529D01*
X172747252Y-77910713D01*
X172747242Y-77910722D01*
X172581632Y-78090621D01*
X172447888Y-78295333D01*
X172349663Y-78519265D01*
X172289636Y-78756304D01*
X172289634Y-78756316D01*
X172269443Y-78999994D01*
X141100500Y-78999994D01*
X141100500Y-78582412D01*
X141120185Y-78515373D01*
X141127555Y-78505097D01*
X141129810Y-78502267D01*
X141129816Y-78502262D01*
X141225789Y-78349522D01*
X141285368Y-78179255D01*
X141285369Y-78179249D01*
X141305565Y-78000003D01*
X141305565Y-77999996D01*
X141285369Y-77820750D01*
X141285368Y-77820745D01*
X141225789Y-77650478D01*
X141221808Y-77644143D01*
X141171921Y-77564748D01*
X141129816Y-77497738D01*
X141002262Y-77370184D01*
X140849523Y-77274211D01*
X140679254Y-77214631D01*
X140679249Y-77214630D01*
X140500004Y-77194435D01*
X140499996Y-77194435D01*
X140320750Y-77214630D01*
X140320745Y-77214631D01*
X140150476Y-77274211D01*
X139997737Y-77370184D01*
X139870184Y-77497737D01*
X139774211Y-77650476D01*
X139714631Y-77820745D01*
X139714630Y-77820750D01*
X139694435Y-77999996D01*
X126038279Y-77999996D01*
X126021828Y-70125174D01*
X126022054Y-70117432D01*
X126023489Y-70093713D01*
X127349500Y-70093713D01*
X127349500Y-70306287D01*
X127382754Y-70516243D01*
X127441586Y-70697309D01*
X127448444Y-70718414D01*
X127544951Y-70907820D01*
X127669890Y-71079786D01*
X127820213Y-71230109D01*
X127992179Y-71355048D01*
X127992181Y-71355049D01*
X127992184Y-71355051D01*
X128181588Y-71451557D01*
X128383757Y-71517246D01*
X128593713Y-71550500D01*
X128593714Y-71550500D01*
X128806286Y-71550500D01*
X128806287Y-71550500D01*
X129016243Y-71517246D01*
X129218412Y-71451557D01*
X129407816Y-71355051D01*
X129517124Y-71275635D01*
X129579786Y-71230109D01*
X129579788Y-71230106D01*
X129579792Y-71230104D01*
X129730104Y-71079792D01*
X129730106Y-71079788D01*
X129730109Y-71079786D01*
X129855048Y-70907820D01*
X129855047Y-70907820D01*
X129855051Y-70907816D01*
X129909979Y-70800013D01*
X133550000Y-70800013D01*
X133550000Y-71350000D01*
X134466988Y-71350000D01*
X134434075Y-71407007D01*
X134400000Y-71534174D01*
X134400000Y-71665826D01*
X134434075Y-71792993D01*
X134466988Y-71850000D01*
X133550001Y-71850000D01*
X133550001Y-72399986D01*
X133560494Y-72502697D01*
X133615641Y-72669119D01*
X133615643Y-72669124D01*
X133707684Y-72818345D01*
X133831654Y-72942315D01*
X133980875Y-73034356D01*
X133980880Y-73034358D01*
X134147302Y-73089505D01*
X134147309Y-73089506D01*
X134250019Y-73099999D01*
X134649999Y-73099999D01*
X134650000Y-73099998D01*
X134650000Y-72033012D01*
X134707007Y-72065925D01*
X134834174Y-72100000D01*
X134965826Y-72100000D01*
X135092993Y-72065925D01*
X135150000Y-72033012D01*
X135150000Y-73099999D01*
X135549972Y-73099999D01*
X135549986Y-73099998D01*
X135652697Y-73089505D01*
X135819119Y-73034358D01*
X135819124Y-73034356D01*
X135968345Y-72942315D01*
X136092317Y-72818343D01*
X136187815Y-72663516D01*
X136239763Y-72616791D01*
X136308725Y-72605568D01*
X136372808Y-72633412D01*
X136381035Y-72640931D01*
X136520213Y-72780109D01*
X136692179Y-72905048D01*
X136692181Y-72905049D01*
X136692184Y-72905051D01*
X136881588Y-73001557D01*
X137083757Y-73067246D01*
X137293713Y-73100500D01*
X137293714Y-73100500D01*
X137506286Y-73100500D01*
X137506287Y-73100500D01*
X137509456Y-73099998D01*
X142294390Y-73099998D01*
X142294390Y-73099999D01*
X142314804Y-73385433D01*
X142375628Y-73665037D01*
X142375630Y-73665043D01*
X142375631Y-73665046D01*
X142448081Y-73859292D01*
X142475635Y-73933166D01*
X142612770Y-74184309D01*
X142612775Y-74184317D01*
X142784254Y-74413387D01*
X142784270Y-74413405D01*
X142986594Y-74615729D01*
X142986612Y-74615745D01*
X143215682Y-74787224D01*
X143215690Y-74787229D01*
X143466833Y-74924364D01*
X143466832Y-74924364D01*
X143466836Y-74924365D01*
X143466839Y-74924367D01*
X143734954Y-75024369D01*
X143734960Y-75024370D01*
X143734962Y-75024371D01*
X144014566Y-75085195D01*
X144014568Y-75085195D01*
X144014572Y-75085196D01*
X144268220Y-75103337D01*
X144299999Y-75105610D01*
X144300000Y-75105610D01*
X144300001Y-75105610D01*
X144328595Y-75103564D01*
X144585428Y-75085196D01*
X144865046Y-75024369D01*
X145133161Y-74924367D01*
X145384315Y-74787226D01*
X145613395Y-74615739D01*
X145815739Y-74413395D01*
X145987226Y-74184315D01*
X146124367Y-73933161D01*
X146224369Y-73665046D01*
X146268674Y-73461379D01*
X146285195Y-73385433D01*
X146285195Y-73385432D01*
X146285196Y-73385428D01*
X146305610Y-73100000D01*
X146304859Y-73089506D01*
X146300915Y-73034356D01*
X146285196Y-72814572D01*
X146273439Y-72760527D01*
X146224371Y-72534962D01*
X146224370Y-72534960D01*
X146224369Y-72534954D01*
X146124367Y-72266839D01*
X146069610Y-72166560D01*
X145987229Y-72015690D01*
X145987224Y-72015682D01*
X145824386Y-71798155D01*
X150236000Y-71798155D01*
X150236000Y-72350000D01*
X151056988Y-72350000D01*
X151024075Y-72407007D01*
X150990000Y-72534174D01*
X150990000Y-72665826D01*
X151024075Y-72792993D01*
X151056988Y-72850000D01*
X150236000Y-72850000D01*
X150236000Y-73401844D01*
X150242401Y-73461372D01*
X150242403Y-73461379D01*
X150292645Y-73596086D01*
X150292649Y-73596093D01*
X150378809Y-73711187D01*
X150378812Y-73711190D01*
X150493906Y-73797350D01*
X150493913Y-73797354D01*
X150628620Y-73847596D01*
X150628627Y-73847598D01*
X150688155Y-73853999D01*
X150688172Y-73854000D01*
X151240000Y-73854000D01*
X151240000Y-73033012D01*
X151297007Y-73065925D01*
X151424174Y-73100000D01*
X151555826Y-73100000D01*
X151682993Y-73065925D01*
X151740000Y-73033012D01*
X151740000Y-73854000D01*
X152291828Y-73854000D01*
X152291844Y-73853999D01*
X152351372Y-73847598D01*
X152351379Y-73847596D01*
X152486086Y-73797354D01*
X152486093Y-73797350D01*
X152601187Y-73711190D01*
X152601190Y-73711187D01*
X152687350Y-73596093D01*
X152687354Y-73596086D01*
X152737596Y-73461379D01*
X152737598Y-73461372D01*
X152743999Y-73401844D01*
X152744000Y-73401827D01*
X152744000Y-73343833D01*
X152763685Y-73276794D01*
X152816489Y-73231039D01*
X152885647Y-73221095D01*
X152949203Y-73250120D01*
X152969573Y-73272708D01*
X152985416Y-73295333D01*
X153065322Y-73409452D01*
X153065327Y-73409458D01*
X153220541Y-73564672D01*
X153220547Y-73564677D01*
X153400349Y-73690576D01*
X153400351Y-73690577D01*
X153400354Y-73690579D01*
X153599297Y-73783347D01*
X153811326Y-73840161D01*
X153967521Y-73853826D01*
X154029998Y-73859292D01*
X154030000Y-73859292D01*
X154030002Y-73859292D01*
X154090501Y-73853999D01*
X154248674Y-73840161D01*
X154460703Y-73783347D01*
X154659646Y-73690579D01*
X154839457Y-73564674D01*
X154994674Y-73409457D01*
X155120579Y-73229646D01*
X155187618Y-73085878D01*
X155233790Y-73033439D01*
X155300983Y-73014287D01*
X155367864Y-73034502D01*
X155412381Y-73085878D01*
X155419200Y-73100500D01*
X155479419Y-73229642D01*
X155479423Y-73229650D01*
X155605322Y-73409452D01*
X155605327Y-73409458D01*
X155760541Y-73564672D01*
X155760547Y-73564677D01*
X155940349Y-73690576D01*
X155940351Y-73690577D01*
X155940354Y-73690579D01*
X156139297Y-73783347D01*
X156351326Y-73840161D01*
X156507521Y-73853826D01*
X156569998Y-73859292D01*
X156570000Y-73859292D01*
X156570002Y-73859292D01*
X156630501Y-73853999D01*
X156788674Y-73840161D01*
X157000703Y-73783347D01*
X157199646Y-73690579D01*
X157379457Y-73564674D01*
X157534674Y-73409457D01*
X157660579Y-73229646D01*
X157727618Y-73085878D01*
X157773790Y-73033439D01*
X157840983Y-73014287D01*
X157907864Y-73034502D01*
X157952381Y-73085878D01*
X157959200Y-73100500D01*
X158019419Y-73229642D01*
X158019423Y-73229650D01*
X158145322Y-73409452D01*
X158145327Y-73409458D01*
X158300541Y-73564672D01*
X158300547Y-73564677D01*
X158480349Y-73690576D01*
X158480351Y-73690577D01*
X158480354Y-73690579D01*
X158679297Y-73783347D01*
X158891326Y-73840161D01*
X159047521Y-73853826D01*
X159109998Y-73859292D01*
X159110000Y-73859292D01*
X159110002Y-73859292D01*
X159170501Y-73853999D01*
X159328674Y-73840161D01*
X159540703Y-73783347D01*
X159739646Y-73690579D01*
X159919457Y-73564674D01*
X160074674Y-73409457D01*
X160200579Y-73229646D01*
X160261034Y-73099998D01*
X164294390Y-73099998D01*
X164294390Y-73099999D01*
X164314804Y-73385433D01*
X164375628Y-73665037D01*
X164375630Y-73665043D01*
X164375631Y-73665046D01*
X164448081Y-73859292D01*
X164475635Y-73933166D01*
X164612770Y-74184309D01*
X164612775Y-74184317D01*
X164784254Y-74413387D01*
X164784270Y-74413405D01*
X164986594Y-74615729D01*
X164986612Y-74615745D01*
X165215682Y-74787224D01*
X165215690Y-74787229D01*
X165466833Y-74924364D01*
X165466832Y-74924364D01*
X165466836Y-74924365D01*
X165466839Y-74924367D01*
X165734954Y-75024369D01*
X165734960Y-75024370D01*
X165734962Y-75024371D01*
X166014566Y-75085195D01*
X166014568Y-75085195D01*
X166014572Y-75085196D01*
X166268220Y-75103337D01*
X166299999Y-75105610D01*
X166300000Y-75105610D01*
X166300001Y-75105610D01*
X166328595Y-75103564D01*
X166585428Y-75085196D01*
X166865046Y-75024369D01*
X167133161Y-74924367D01*
X167384315Y-74787226D01*
X167613395Y-74615739D01*
X167815739Y-74413395D01*
X167987226Y-74184315D01*
X168124367Y-73933161D01*
X168224369Y-73665046D01*
X168268674Y-73461379D01*
X168285195Y-73385433D01*
X168285195Y-73385432D01*
X168285196Y-73385428D01*
X168305610Y-73100000D01*
X168304859Y-73089506D01*
X168300915Y-73034356D01*
X168296824Y-72977155D01*
X172275000Y-72977155D01*
X172275000Y-73750000D01*
X173149999Y-73750000D01*
X173124979Y-73810402D01*
X173100000Y-73935981D01*
X173100000Y-74064019D01*
X173124979Y-74189598D01*
X173149999Y-74250000D01*
X172275000Y-74250000D01*
X172275000Y-75022844D01*
X172281401Y-75082372D01*
X172281403Y-75082379D01*
X172331645Y-75217086D01*
X172331649Y-75217093D01*
X172417809Y-75332187D01*
X172417812Y-75332190D01*
X172532906Y-75418350D01*
X172532913Y-75418354D01*
X172667620Y-75468596D01*
X172667627Y-75468598D01*
X172727155Y-75474999D01*
X172727172Y-75475000D01*
X173500000Y-75475000D01*
X173500000Y-74600001D01*
X173560402Y-74625021D01*
X173685981Y-74650000D01*
X173814019Y-74650000D01*
X173939598Y-74625021D01*
X174000000Y-74600001D01*
X174000000Y-75475000D01*
X174772828Y-75475000D01*
X174772844Y-75474999D01*
X174832372Y-75468598D01*
X174832379Y-75468596D01*
X174967086Y-75418354D01*
X174967093Y-75418350D01*
X175082187Y-75332190D01*
X175082190Y-75332187D01*
X175168350Y-75217093D01*
X175168354Y-75217086D01*
X175218596Y-75082379D01*
X175218598Y-75082372D01*
X175224999Y-75022844D01*
X175225000Y-75022827D01*
X175225000Y-74250000D01*
X174350001Y-74250000D01*
X174375021Y-74189598D01*
X174400000Y-74064019D01*
X174400000Y-73999994D01*
X184769443Y-73999994D01*
X184769443Y-74000005D01*
X184789634Y-74243683D01*
X184789636Y-74243695D01*
X184849663Y-74480734D01*
X184947888Y-74704666D01*
X185081632Y-74909378D01*
X185243485Y-75085196D01*
X185247246Y-75089281D01*
X185440212Y-75239473D01*
X185655267Y-75355855D01*
X185655270Y-75355856D01*
X185886541Y-75435251D01*
X185886543Y-75435251D01*
X185886545Y-75435252D01*
X186127737Y-75475500D01*
X186127738Y-75475500D01*
X186372262Y-75475500D01*
X186372263Y-75475500D01*
X186613455Y-75435252D01*
X186844733Y-75355855D01*
X187059788Y-75239473D01*
X187252754Y-75089281D01*
X187418368Y-74909377D01*
X187552111Y-74704667D01*
X187650336Y-74480736D01*
X187710364Y-74243692D01*
X187710365Y-74243683D01*
X187730557Y-74000005D01*
X187730557Y-73999994D01*
X187710365Y-73756316D01*
X187710363Y-73756304D01*
X187707444Y-73744778D01*
X187650336Y-73519264D01*
X187552111Y-73295333D01*
X187424821Y-73100500D01*
X187418367Y-73090621D01*
X187313913Y-72977155D01*
X193375000Y-72977155D01*
X193375000Y-73750000D01*
X194249999Y-73750000D01*
X194224979Y-73810402D01*
X194200000Y-73935981D01*
X194200000Y-74064019D01*
X194224979Y-74189598D01*
X194249999Y-74250000D01*
X193375000Y-74250000D01*
X193375000Y-75022844D01*
X193381401Y-75082372D01*
X193381403Y-75082379D01*
X193431645Y-75217086D01*
X193431649Y-75217093D01*
X193517809Y-75332187D01*
X193517812Y-75332190D01*
X193632906Y-75418350D01*
X193632913Y-75418354D01*
X193767620Y-75468596D01*
X193767627Y-75468598D01*
X193827155Y-75474999D01*
X193827172Y-75475000D01*
X194600000Y-75475000D01*
X194600000Y-74600001D01*
X194660402Y-74625021D01*
X194785981Y-74650000D01*
X194914019Y-74650000D01*
X195039598Y-74625021D01*
X195100000Y-74600001D01*
X195100000Y-75475000D01*
X195872828Y-75475000D01*
X195872844Y-75474999D01*
X195932372Y-75468598D01*
X195932379Y-75468596D01*
X196067086Y-75418354D01*
X196067093Y-75418350D01*
X196182187Y-75332190D01*
X196182190Y-75332187D01*
X196268350Y-75217093D01*
X196268354Y-75217086D01*
X196318596Y-75082379D01*
X196318598Y-75082372D01*
X196324999Y-75022844D01*
X196325000Y-75022827D01*
X196325000Y-74250000D01*
X195450001Y-74250000D01*
X195475021Y-74189598D01*
X195500000Y-74064019D01*
X195500000Y-73999994D01*
X205869443Y-73999994D01*
X205869443Y-74000005D01*
X205889634Y-74243683D01*
X205889636Y-74243695D01*
X205949663Y-74480734D01*
X206047888Y-74704666D01*
X206181632Y-74909378D01*
X206343485Y-75085196D01*
X206347246Y-75089281D01*
X206540212Y-75239473D01*
X206755267Y-75355855D01*
X206755270Y-75355856D01*
X206986541Y-75435251D01*
X206986543Y-75435251D01*
X206986545Y-75435252D01*
X207227737Y-75475500D01*
X207227738Y-75475500D01*
X207472262Y-75475500D01*
X207472263Y-75475500D01*
X207713455Y-75435252D01*
X207944733Y-75355855D01*
X208159788Y-75239473D01*
X208352754Y-75089281D01*
X208518368Y-74909377D01*
X208652111Y-74704667D01*
X208750336Y-74480736D01*
X208810364Y-74243692D01*
X208810365Y-74243683D01*
X208830557Y-74000005D01*
X208830557Y-73999994D01*
X208810365Y-73756316D01*
X208810363Y-73756304D01*
X208807444Y-73744778D01*
X208750336Y-73519264D01*
X208652111Y-73295333D01*
X208524821Y-73100500D01*
X208518367Y-73090621D01*
X208413913Y-72977155D01*
X214475000Y-72977155D01*
X214475000Y-73750000D01*
X215349999Y-73750000D01*
X215324979Y-73810402D01*
X215300000Y-73935981D01*
X215300000Y-74064019D01*
X215324979Y-74189598D01*
X215349999Y-74250000D01*
X214475000Y-74250000D01*
X214475000Y-75022844D01*
X214481401Y-75082372D01*
X214481403Y-75082379D01*
X214531645Y-75217086D01*
X214531649Y-75217093D01*
X214617809Y-75332187D01*
X214617812Y-75332190D01*
X214732906Y-75418350D01*
X214732913Y-75418354D01*
X214867620Y-75468596D01*
X214867627Y-75468598D01*
X214927155Y-75474999D01*
X214927172Y-75475000D01*
X215700000Y-75475000D01*
X215700000Y-74600001D01*
X215760402Y-74625021D01*
X215885981Y-74650000D01*
X216014019Y-74650000D01*
X216139598Y-74625021D01*
X216200000Y-74600001D01*
X216200000Y-75475000D01*
X216972828Y-75475000D01*
X216972844Y-75474999D01*
X217032372Y-75468598D01*
X217032379Y-75468596D01*
X217167086Y-75418354D01*
X217167093Y-75418350D01*
X217282187Y-75332190D01*
X217282190Y-75332187D01*
X217368350Y-75217093D01*
X217368354Y-75217086D01*
X217418596Y-75082379D01*
X217418598Y-75082372D01*
X217424999Y-75022844D01*
X217425000Y-75022827D01*
X217425000Y-74250000D01*
X216550001Y-74250000D01*
X216575021Y-74189598D01*
X216600000Y-74064019D01*
X216600000Y-73999994D01*
X226969443Y-73999994D01*
X226969443Y-74000005D01*
X226989634Y-74243683D01*
X226989636Y-74243695D01*
X227049663Y-74480734D01*
X227147888Y-74704666D01*
X227281632Y-74909378D01*
X227443485Y-75085196D01*
X227447246Y-75089281D01*
X227640212Y-75239473D01*
X227855267Y-75355855D01*
X227855270Y-75355856D01*
X228086541Y-75435251D01*
X228086543Y-75435251D01*
X228086545Y-75435252D01*
X228327737Y-75475500D01*
X228327738Y-75475500D01*
X228572262Y-75475500D01*
X228572263Y-75475500D01*
X228813455Y-75435252D01*
X229044733Y-75355855D01*
X229259788Y-75239473D01*
X229452754Y-75089281D01*
X229618368Y-74909377D01*
X229752111Y-74704667D01*
X229850336Y-74480736D01*
X229910364Y-74243692D01*
X229910365Y-74243683D01*
X229930557Y-74000005D01*
X229930557Y-73999994D01*
X229910365Y-73756316D01*
X229910363Y-73756304D01*
X229907444Y-73744778D01*
X229850336Y-73519264D01*
X229752111Y-73295333D01*
X229624821Y-73100500D01*
X229618367Y-73090621D01*
X229452757Y-72910722D01*
X229452747Y-72910713D01*
X229259791Y-72760529D01*
X229259787Y-72760526D01*
X229044734Y-72644145D01*
X229044729Y-72644143D01*
X228813458Y-72564748D01*
X228613618Y-72531401D01*
X228572263Y-72524500D01*
X228327737Y-72524500D01*
X228286382Y-72531401D01*
X228086541Y-72564748D01*
X227855270Y-72644143D01*
X227855265Y-72644145D01*
X227640212Y-72760526D01*
X227640208Y-72760529D01*
X227447252Y-72910713D01*
X227447242Y-72910722D01*
X227281632Y-73090621D01*
X227147888Y-73295333D01*
X227049663Y-73519265D01*
X226989636Y-73756304D01*
X226989634Y-73756316D01*
X226969443Y-73999994D01*
X216600000Y-73999994D01*
X216600000Y-73935981D01*
X216575021Y-73810402D01*
X216550001Y-73750000D01*
X217425000Y-73750000D01*
X217425000Y-72977172D01*
X217424999Y-72977155D01*
X217418598Y-72917627D01*
X217418596Y-72917620D01*
X217368354Y-72782913D01*
X217368350Y-72782906D01*
X217282190Y-72667812D01*
X217282187Y-72667809D01*
X217167093Y-72581649D01*
X217167086Y-72581645D01*
X217032379Y-72531403D01*
X217032372Y-72531401D01*
X216972844Y-72525000D01*
X216200000Y-72525000D01*
X216200000Y-73399998D01*
X216139598Y-73374979D01*
X216014019Y-73350000D01*
X215885981Y-73350000D01*
X215760402Y-73374979D01*
X215700000Y-73399998D01*
X215700000Y-72525000D01*
X214927155Y-72525000D01*
X214867627Y-72531401D01*
X214867620Y-72531403D01*
X214732913Y-72581645D01*
X214732906Y-72581649D01*
X214617812Y-72667809D01*
X214617809Y-72667812D01*
X214531649Y-72782906D01*
X214531645Y-72782913D01*
X214481403Y-72917620D01*
X214481401Y-72917627D01*
X214475000Y-72977155D01*
X208413913Y-72977155D01*
X208352757Y-72910722D01*
X208352747Y-72910713D01*
X208159791Y-72760529D01*
X208159787Y-72760526D01*
X207944734Y-72644145D01*
X207944729Y-72644143D01*
X207713458Y-72564748D01*
X207513618Y-72531401D01*
X207472263Y-72524500D01*
X207227737Y-72524500D01*
X207186382Y-72531401D01*
X206986541Y-72564748D01*
X206755270Y-72644143D01*
X206755265Y-72644145D01*
X206540212Y-72760526D01*
X206540208Y-72760529D01*
X206347252Y-72910713D01*
X206347242Y-72910722D01*
X206181632Y-73090621D01*
X206047888Y-73295333D01*
X205949663Y-73519265D01*
X205889636Y-73756304D01*
X205889634Y-73756316D01*
X205869443Y-73999994D01*
X195500000Y-73999994D01*
X195500000Y-73935981D01*
X195475021Y-73810402D01*
X195450001Y-73750000D01*
X196325000Y-73750000D01*
X196325000Y-72977172D01*
X196324999Y-72977155D01*
X196318598Y-72917627D01*
X196318596Y-72917620D01*
X196268354Y-72782913D01*
X196268350Y-72782906D01*
X196182190Y-72667812D01*
X196182187Y-72667809D01*
X196067093Y-72581649D01*
X196067086Y-72581645D01*
X195932379Y-72531403D01*
X195932372Y-72531401D01*
X195872844Y-72525000D01*
X195100000Y-72525000D01*
X195100000Y-73399998D01*
X195039598Y-73374979D01*
X194914019Y-73350000D01*
X194785981Y-73350000D01*
X194660402Y-73374979D01*
X194600000Y-73399998D01*
X194600000Y-72525000D01*
X193827155Y-72525000D01*
X193767627Y-72531401D01*
X193767620Y-72531403D01*
X193632913Y-72581645D01*
X193632906Y-72581649D01*
X193517812Y-72667809D01*
X193517809Y-72667812D01*
X193431649Y-72782906D01*
X193431645Y-72782913D01*
X193381403Y-72917620D01*
X193381401Y-72917627D01*
X193375000Y-72977155D01*
X187313913Y-72977155D01*
X187252757Y-72910722D01*
X187252747Y-72910713D01*
X187059791Y-72760529D01*
X187059787Y-72760526D01*
X186844734Y-72644145D01*
X186844729Y-72644143D01*
X186613458Y-72564748D01*
X186413618Y-72531401D01*
X186372263Y-72524500D01*
X186127737Y-72524500D01*
X186086382Y-72531401D01*
X185886541Y-72564748D01*
X185655270Y-72644143D01*
X185655265Y-72644145D01*
X185440212Y-72760526D01*
X185440208Y-72760529D01*
X185247252Y-72910713D01*
X185247242Y-72910722D01*
X185081632Y-73090621D01*
X184947888Y-73295333D01*
X184849663Y-73519265D01*
X184789636Y-73756304D01*
X184789634Y-73756316D01*
X184769443Y-73999994D01*
X174400000Y-73999994D01*
X174400000Y-73935981D01*
X174375021Y-73810402D01*
X174350001Y-73750000D01*
X175225000Y-73750000D01*
X175225000Y-72977172D01*
X175224999Y-72977155D01*
X175218598Y-72917627D01*
X175218596Y-72917620D01*
X175168354Y-72782913D01*
X175168350Y-72782906D01*
X175082190Y-72667812D01*
X175082187Y-72667809D01*
X174967093Y-72581649D01*
X174967086Y-72581645D01*
X174832379Y-72531403D01*
X174832372Y-72531401D01*
X174772844Y-72525000D01*
X174000000Y-72525000D01*
X174000000Y-73399998D01*
X173939598Y-73374979D01*
X173814019Y-73350000D01*
X173685981Y-73350000D01*
X173560402Y-73374979D01*
X173500000Y-73399998D01*
X173500000Y-72525000D01*
X172727155Y-72525000D01*
X172667627Y-72531401D01*
X172667620Y-72531403D01*
X172532913Y-72581645D01*
X172532906Y-72581649D01*
X172417812Y-72667809D01*
X172417809Y-72667812D01*
X172331649Y-72782906D01*
X172331645Y-72782913D01*
X172281403Y-72917620D01*
X172281401Y-72917627D01*
X172275000Y-72977155D01*
X168296824Y-72977155D01*
X168285196Y-72814572D01*
X168273439Y-72760527D01*
X168224371Y-72534962D01*
X168224370Y-72534960D01*
X168224369Y-72534954D01*
X168124367Y-72266839D01*
X168069610Y-72166560D01*
X167987229Y-72015690D01*
X167987224Y-72015682D01*
X167815745Y-71786612D01*
X167815729Y-71786594D01*
X167613405Y-71584270D01*
X167613387Y-71584254D01*
X167384317Y-71412775D01*
X167384309Y-71412770D01*
X167133166Y-71275635D01*
X167133167Y-71275635D01*
X166930116Y-71199901D01*
X166865046Y-71175631D01*
X166865043Y-71175630D01*
X166865037Y-71175628D01*
X166585433Y-71114804D01*
X166300001Y-71094390D01*
X166299999Y-71094390D01*
X166014566Y-71114804D01*
X165734962Y-71175628D01*
X165466833Y-71275635D01*
X165215690Y-71412770D01*
X165215682Y-71412775D01*
X164986612Y-71584254D01*
X164986594Y-71584270D01*
X164784270Y-71786594D01*
X164784254Y-71786612D01*
X164612775Y-72015682D01*
X164612770Y-72015690D01*
X164475635Y-72266833D01*
X164375628Y-72534962D01*
X164314804Y-72814566D01*
X164294390Y-73099998D01*
X160261034Y-73099998D01*
X160293347Y-73030703D01*
X160350161Y-72818674D01*
X160369292Y-72600000D01*
X160350161Y-72381326D01*
X160293347Y-72169297D01*
X160200579Y-71970354D01*
X160200577Y-71970351D01*
X160200576Y-71970349D01*
X160074677Y-71790547D01*
X160074672Y-71790541D01*
X159919458Y-71635327D01*
X159919452Y-71635322D01*
X159739650Y-71509423D01*
X159739642Y-71509419D01*
X159540708Y-71416655D01*
X159540706Y-71416654D01*
X159540703Y-71416653D01*
X159389885Y-71376240D01*
X159328675Y-71359839D01*
X159328668Y-71359838D01*
X159110002Y-71340708D01*
X159109998Y-71340708D01*
X158891331Y-71359838D01*
X158891324Y-71359839D01*
X158768902Y-71392642D01*
X158679297Y-71416653D01*
X158679295Y-71416653D01*
X158679291Y-71416655D01*
X158480357Y-71509419D01*
X158480349Y-71509423D01*
X158300547Y-71635322D01*
X158300541Y-71635327D01*
X158145327Y-71790541D01*
X158145322Y-71790547D01*
X158019423Y-71970349D01*
X158019419Y-71970357D01*
X157952382Y-72114120D01*
X157906210Y-72166560D01*
X157839017Y-72185712D01*
X157772135Y-72165496D01*
X157727618Y-72114120D01*
X157681717Y-72015685D01*
X157660579Y-71970354D01*
X157660577Y-71970351D01*
X157660576Y-71970349D01*
X157534677Y-71790547D01*
X157534672Y-71790541D01*
X157379458Y-71635327D01*
X157379452Y-71635322D01*
X157199650Y-71509423D01*
X157199642Y-71509419D01*
X157000708Y-71416655D01*
X157000706Y-71416654D01*
X157000703Y-71416653D01*
X156849885Y-71376240D01*
X156788675Y-71359839D01*
X156788668Y-71359838D01*
X156570002Y-71340708D01*
X156569998Y-71340708D01*
X156351331Y-71359838D01*
X156351324Y-71359839D01*
X156228902Y-71392642D01*
X156139297Y-71416653D01*
X156139295Y-71416653D01*
X156139291Y-71416655D01*
X155940357Y-71509419D01*
X155940349Y-71509423D01*
X155760547Y-71635322D01*
X155760541Y-71635327D01*
X155605327Y-71790541D01*
X155605322Y-71790547D01*
X155479423Y-71970349D01*
X155479419Y-71970357D01*
X155412382Y-72114120D01*
X155366210Y-72166560D01*
X155299017Y-72185712D01*
X155232135Y-72165496D01*
X155187618Y-72114120D01*
X155141717Y-72015685D01*
X155120579Y-71970354D01*
X155120577Y-71970351D01*
X155120576Y-71970349D01*
X154994677Y-71790547D01*
X154994672Y-71790541D01*
X154839458Y-71635327D01*
X154839452Y-71635322D01*
X154659650Y-71509423D01*
X154659642Y-71509419D01*
X154460708Y-71416655D01*
X154460706Y-71416654D01*
X154460703Y-71416653D01*
X154309885Y-71376240D01*
X154248675Y-71359839D01*
X154248668Y-71359838D01*
X154030002Y-71340708D01*
X154029998Y-71340708D01*
X153811331Y-71359838D01*
X153811324Y-71359839D01*
X153688902Y-71392642D01*
X153599297Y-71416653D01*
X153599295Y-71416653D01*
X153599291Y-71416655D01*
X153400357Y-71509419D01*
X153400349Y-71509423D01*
X153220547Y-71635322D01*
X153220541Y-71635327D01*
X153065327Y-71790541D01*
X153065322Y-71790548D01*
X152969575Y-71927289D01*
X152914998Y-71970914D01*
X152845500Y-71978107D01*
X152783145Y-71946585D01*
X152747731Y-71886355D01*
X152744000Y-71856166D01*
X152744000Y-71798172D01*
X152743999Y-71798155D01*
X152737598Y-71738627D01*
X152737596Y-71738620D01*
X152687354Y-71603913D01*
X152687350Y-71603906D01*
X152601190Y-71488812D01*
X152601187Y-71488809D01*
X152486093Y-71402649D01*
X152486086Y-71402645D01*
X152351379Y-71352403D01*
X152351372Y-71352401D01*
X152291844Y-71346000D01*
X151740000Y-71346000D01*
X151740000Y-72166988D01*
X151682993Y-72134075D01*
X151555826Y-72100000D01*
X151424174Y-72100000D01*
X151297007Y-72134075D01*
X151240000Y-72166988D01*
X151240000Y-71346000D01*
X150688155Y-71346000D01*
X150628627Y-71352401D01*
X150628620Y-71352403D01*
X150493913Y-71402645D01*
X150493906Y-71402649D01*
X150378812Y-71488809D01*
X150378809Y-71488812D01*
X150292649Y-71603906D01*
X150292645Y-71603913D01*
X150242403Y-71738620D01*
X150242401Y-71738627D01*
X150236000Y-71798155D01*
X145824386Y-71798155D01*
X145815745Y-71786612D01*
X145815729Y-71786594D01*
X145613405Y-71584270D01*
X145613387Y-71584254D01*
X145384317Y-71412775D01*
X145384309Y-71412770D01*
X145133166Y-71275635D01*
X145133167Y-71275635D01*
X144930116Y-71199901D01*
X144865046Y-71175631D01*
X144865043Y-71175630D01*
X144865037Y-71175628D01*
X144585433Y-71114804D01*
X144300001Y-71094390D01*
X144299999Y-71094390D01*
X144014566Y-71114804D01*
X143734962Y-71175628D01*
X143466833Y-71275635D01*
X143215690Y-71412770D01*
X143215682Y-71412775D01*
X142986612Y-71584254D01*
X142986594Y-71584270D01*
X142784270Y-71786594D01*
X142784254Y-71786612D01*
X142612775Y-72015682D01*
X142612770Y-72015690D01*
X142475635Y-72266833D01*
X142375628Y-72534962D01*
X142314804Y-72814566D01*
X142294390Y-73099998D01*
X137509456Y-73099998D01*
X137716243Y-73067246D01*
X137918412Y-73001557D01*
X138107816Y-72905051D01*
X138183588Y-72850000D01*
X138279786Y-72780109D01*
X138279788Y-72780106D01*
X138279792Y-72780104D01*
X138430104Y-72629792D01*
X138430106Y-72629788D01*
X138430109Y-72629786D01*
X138555048Y-72457820D01*
X138555047Y-72457820D01*
X138555051Y-72457816D01*
X138651557Y-72268412D01*
X138717246Y-72066243D01*
X138750500Y-71856287D01*
X138750500Y-71343713D01*
X138717246Y-71133757D01*
X138651557Y-70931588D01*
X138555051Y-70742184D01*
X138555049Y-70742181D01*
X138555048Y-70742179D01*
X138430109Y-70570213D01*
X138279786Y-70419890D01*
X138107820Y-70294951D01*
X137918414Y-70198444D01*
X137918413Y-70198443D01*
X137918412Y-70198443D01*
X137716243Y-70132754D01*
X137716241Y-70132753D01*
X137716240Y-70132753D01*
X137534206Y-70103922D01*
X137506287Y-70099500D01*
X137293713Y-70099500D01*
X137265794Y-70103922D01*
X137083760Y-70132753D01*
X136881585Y-70198444D01*
X136692179Y-70294951D01*
X136520215Y-70419889D01*
X136381035Y-70559069D01*
X136319712Y-70592553D01*
X136250020Y-70587569D01*
X136194087Y-70545697D01*
X136187815Y-70536484D01*
X136092315Y-70381654D01*
X135968345Y-70257684D01*
X135819124Y-70165643D01*
X135819119Y-70165641D01*
X135652697Y-70110494D01*
X135652690Y-70110493D01*
X135549986Y-70100000D01*
X135150000Y-70100000D01*
X135150000Y-71166988D01*
X135092993Y-71134075D01*
X134965826Y-71100000D01*
X134834174Y-71100000D01*
X134707007Y-71134075D01*
X134650000Y-71166988D01*
X134650000Y-70100000D01*
X134250028Y-70100000D01*
X134250012Y-70100001D01*
X134147302Y-70110494D01*
X133980880Y-70165641D01*
X133980875Y-70165643D01*
X133831654Y-70257684D01*
X133707684Y-70381654D01*
X133615643Y-70530875D01*
X133615641Y-70530880D01*
X133560494Y-70697302D01*
X133560493Y-70697309D01*
X133550000Y-70800013D01*
X129909979Y-70800013D01*
X129951557Y-70718412D01*
X130017246Y-70516243D01*
X130050500Y-70306287D01*
X130050500Y-70093713D01*
X232249500Y-70093713D01*
X232249500Y-70306287D01*
X232282754Y-70516243D01*
X232341586Y-70697309D01*
X232348444Y-70718414D01*
X232444951Y-70907820D01*
X232569890Y-71079786D01*
X232720213Y-71230109D01*
X232892179Y-71355048D01*
X232892181Y-71355049D01*
X232892184Y-71355051D01*
X233081588Y-71451557D01*
X233283757Y-71517246D01*
X233493713Y-71550500D01*
X233493714Y-71550500D01*
X233706286Y-71550500D01*
X233706287Y-71550500D01*
X233916243Y-71517246D01*
X234118412Y-71451557D01*
X234307816Y-71355051D01*
X234417124Y-71275635D01*
X234479786Y-71230109D01*
X234479788Y-71230106D01*
X234479792Y-71230104D01*
X234630104Y-71079792D01*
X234630106Y-71079788D01*
X234630109Y-71079786D01*
X234755048Y-70907820D01*
X234755047Y-70907820D01*
X234755051Y-70907816D01*
X234851557Y-70718412D01*
X234917246Y-70516243D01*
X234950500Y-70306287D01*
X234950500Y-70093713D01*
X234917246Y-69883757D01*
X234851557Y-69681588D01*
X234755051Y-69492184D01*
X234755049Y-69492181D01*
X234755048Y-69492179D01*
X234630109Y-69320213D01*
X234479786Y-69169890D01*
X234307820Y-69044951D01*
X234118414Y-68948444D01*
X234118413Y-68948443D01*
X234118412Y-68948443D01*
X233916243Y-68882754D01*
X233916241Y-68882753D01*
X233916240Y-68882753D01*
X233754957Y-68857208D01*
X233706287Y-68849500D01*
X233493713Y-68849500D01*
X233445042Y-68857208D01*
X233283760Y-68882753D01*
X233081585Y-68948444D01*
X232892179Y-69044951D01*
X232720213Y-69169890D01*
X232569890Y-69320213D01*
X232444951Y-69492179D01*
X232348444Y-69681585D01*
X232282753Y-69883760D01*
X232272364Y-69949354D01*
X232249500Y-70093713D01*
X130050500Y-70093713D01*
X130017246Y-69883757D01*
X129951557Y-69681588D01*
X129855051Y-69492184D01*
X129855049Y-69492181D01*
X129855048Y-69492179D01*
X129730109Y-69320213D01*
X129579786Y-69169890D01*
X129407820Y-69044951D01*
X129218414Y-68948444D01*
X129218413Y-68948443D01*
X129218412Y-68948443D01*
X129016243Y-68882754D01*
X129016241Y-68882753D01*
X129016240Y-68882753D01*
X128854957Y-68857208D01*
X128806287Y-68849500D01*
X128593713Y-68849500D01*
X128545042Y-68857208D01*
X128383760Y-68882753D01*
X128181585Y-68948444D01*
X127992179Y-69044951D01*
X127820213Y-69169890D01*
X127669890Y-69320213D01*
X127544951Y-69492179D01*
X127448444Y-69681585D01*
X127382753Y-69883760D01*
X127372364Y-69949354D01*
X127349500Y-70093713D01*
X126023489Y-70093713D01*
X126033510Y-69928031D01*
X126039589Y-69827517D01*
X126041394Y-69812656D01*
X126079068Y-69607072D01*
X126093096Y-69530520D01*
X126096678Y-69515988D01*
X126104096Y-69492184D01*
X126182012Y-69242136D01*
X126187321Y-69228139D01*
X126213534Y-69169896D01*
X126305042Y-68966570D01*
X126311993Y-68953325D01*
X126460394Y-68707841D01*
X126468881Y-68695545D01*
X126645795Y-68469731D01*
X126655710Y-68458540D01*
X126858540Y-68255710D01*
X126869731Y-68245795D01*
X127095545Y-68068881D01*
X127107841Y-68060394D01*
X127353325Y-67911993D01*
X127366570Y-67905042D01*
X127628143Y-67787319D01*
X127642136Y-67782012D01*
X127915995Y-67696676D01*
X127930520Y-67693096D01*
X128212661Y-67641393D01*
X128227515Y-67639589D01*
X128517581Y-67622045D01*
X128525065Y-67621820D01*
X128587209Y-67621821D01*
X128587213Y-67621820D01*
X128595472Y-67621820D01*
X128595712Y-67621804D01*
X233696267Y-67600500D01*
X233703730Y-67600725D01*
G37*
%TD.AperFunction*%
%TD*%
D34*
X170397132Y-88502868D03*
X161800000Y-82660000D03*
X170800000Y-82400000D03*
X173200000Y-82300000D03*
X162600000Y-84700000D03*
X140500000Y-86800000D03*
X140500000Y-78000000D03*
D35*
X181350000Y-97740000D03*
X182620000Y-97740000D03*
X172630000Y-97340000D03*
X177710000Y-97340000D03*
X210900000Y-94700000D03*
X210900000Y-89800000D03*
X151490000Y-72600000D03*
X154030000Y-72600000D03*
X156570000Y-72600000D03*
X159110000Y-72600000D03*
X144300000Y-73100000D03*
X166300000Y-73100000D03*
X166300000Y-95100000D03*
X144300000Y-95100000D03*
X172500000Y-93900000D03*
X175040000Y-93900000D03*
X177580000Y-93900000D03*
X180120000Y-93900000D03*
X182660000Y-93900000D03*
X185200000Y-93900000D03*
X187740000Y-93900000D03*
X190280000Y-93900000D03*
X192820000Y-93900000D03*
X195360000Y-93900000D03*
X197900000Y-93900000D03*
X200440000Y-93900000D03*
X202980000Y-93900000D03*
X205520000Y-93900000D03*
X205520000Y-86280000D03*
X202980000Y-86280000D03*
X200440000Y-86280000D03*
X197900000Y-86280000D03*
X195360000Y-86280000D03*
X192820000Y-86280000D03*
X190280000Y-86280000D03*
X187740000Y-86280000D03*
X185200000Y-86280000D03*
X182660000Y-86280000D03*
X180120000Y-86280000D03*
X177580000Y-86280000D03*
X175040000Y-86280000D03*
X172500000Y-86280000D03*
X233600000Y-97300000D03*
X222900000Y-87800000D03*
X227980000Y-87800000D03*
X192750000Y-97100000D03*
X190250000Y-97100000D03*
X233600000Y-70200000D03*
X173750000Y-74000000D03*
X173750000Y-79000000D03*
X186250000Y-74000000D03*
X186250000Y-79000000D03*
X128700000Y-70200000D03*
X128700000Y-97300000D03*
X194850000Y-74000000D03*
X194850000Y-79000000D03*
X207350000Y-74000000D03*
X207350000Y-79000000D03*
X217075000Y-88970000D03*
X219615000Y-88970000D03*
X197900000Y-97100000D03*
X195400000Y-97100000D03*
X215950000Y-74000000D03*
X215950000Y-79000000D03*
X228450000Y-74000000D03*
X228450000Y-79000000D03*
X220380000Y-96520000D03*
X217880000Y-96520000D03*
X228200000Y-95900000D03*
X228200000Y-93400000D03*
X134900000Y-97000000D03*
X137400000Y-97000000D03*
X135700000Y-80120000D03*
X133160000Y-80120000D03*
X135700000Y-82660000D03*
X133160000Y-82660000D03*
X135700000Y-85200000D03*
X133160000Y-85200000D03*
X135700000Y-87740000D03*
X133160000Y-87740000D03*
X134900000Y-71600000D03*
X137400000Y-71600000D03*
M02*
