M48
METRIC,TZ
T1C0.300
T2C0.700
T3C0.900
T4C1.000
T5C1.100
T6C2.200
%
G90
G05
T1
X139200Y-75050
T2
X166350Y-71320
X166350Y-76400
T3
X163325Y-81400
X165865Y-81400
T4
X126600Y-68390
X126600Y-70930
X126600Y-73470
X126600Y-76010
X140420Y-69000
X140420Y-71540
X142960Y-69000
X142960Y-71540
X145500Y-69000
X145500Y-71540
X148040Y-69000
X148040Y-71540
T5
X131100Y-81850
X131100Y-86350
X137600Y-81850
X137600Y-86350
X141550Y-81850
X141550Y-86350
X148050Y-81850
X148050Y-86350
X152200Y-81800
X152200Y-86300
X158700Y-81800
X158700Y-86300
T6
X125200Y-63650
X125200Y-86800
X166000Y-63650
X166000Y-86800
M30
