%TF.GenerationSoftware,KiCad,Pcbnew,8.0.6*%
%TF.CreationDate,2025-09-22T16:43:25+05:30*%
%TF.ProjectId,interface_panel,696e7465-7266-4616-9365-5f70616e656c,rev?*%
%TF.SameCoordinates,Original*%
%TF.FileFunction,Soldermask,Bot*%
%TF.FilePolarity,Negative*%
%FSLAX46Y46*%
G04 Gerber Fmt 4.6, Leading zero omitted, Abs format (unit mm)*
G04 Created by KiCad (PCBNEW 8.0.6) date 2025-09-22 16:43:25*
%MOMM*%
%LPD*%
G01*
G04 APERTURE LIST*
G04 Aperture macros list*
%AMRoundRect*
0 Rectangle with rounded corners*
0 $1 Rounding radius*
0 $2 $3 $4 $5 $6 $7 $8 $9 X,Y pos of 4 corners*
0 Add a 4 corners polygon primitive as box body*
4,1,4,$2,$3,$4,$5,$6,$7,$8,$9,$2,$3,0*
0 Add four circle primitives for the rounded corners*
1,1,$1+$1,$2,$3*
1,1,$1+$1,$4,$5*
1,1,$1+$1,$6,$7*
1,1,$1+$1,$8,$9*
0 Add four rect primitives between the rounded corners*
20,1,$1+$1,$2,$3,$4,$5,0*
20,1,$1+$1,$4,$5,$6,$7,0*
20,1,$1+$1,$6,$7,$8,$9,0*
20,1,$1+$1,$8,$9,$2,$3,0*%
G04 Aperture macros list end*
%ADD10RoundRect,0.250000X0.600000X0.750000X-0.600000X0.750000X-0.600000X-0.750000X0.600000X-0.750000X0*%
%ADD11O,1.700000X2.000000*%
%ADD12R,1.000000X1.000000*%
%ADD13O,1.000000X1.000000*%
%ADD14C,1.400000*%
%ADD15O,1.400000X1.400000*%
%ADD16R,1.524000X2.524000*%
%ADD17O,1.524000X2.524000*%
%ADD18C,2.200000*%
%ADD19O,3.200000X1.900000*%
%ADD20C,1.600000*%
%ADD21R,1.800000X1.800000*%
%ADD22C,1.800000*%
%ADD23C,1.500000*%
%ADD24R,1.050000X1.500000*%
%ADD25O,1.050000X1.500000*%
%ADD26R,1.600000X1.600000*%
%ADD27O,1.600000X1.600000*%
%ADD28RoundRect,0.250000X-0.750000X0.600000X-0.750000X-0.600000X0.750000X-0.600000X0.750000X0.600000X0*%
%ADD29O,2.000000X1.700000*%
%ADD30RoundRect,0.250000X-0.600000X-0.600000X0.600000X-0.600000X0.600000X0.600000X-0.600000X0.600000X0*%
%ADD31C,1.700000*%
%ADD32R,1.500000X1.000000*%
G04 APERTURE END LIST*
D10*
%TO.C,J3*%
X221130000Y-71160000D03*
D11*
X218630000Y-71160000D03*
%TD*%
D10*
%TO.C,J2*%
X251100000Y-71160000D03*
D11*
X248600000Y-71160000D03*
%TD*%
D10*
%TO.C,J1*%
X189980000Y-71160000D03*
D11*
X187480000Y-71160000D03*
%TD*%
D12*
%TO.C,J6*%
X165730000Y-96650000D03*
D13*
X167000000Y-96650000D03*
%TD*%
D14*
%TO.C,R2*%
X161870000Y-91980000D03*
D15*
X161870000Y-97060000D03*
%TD*%
D14*
%TO.C,R10*%
X142970000Y-90890000D03*
D15*
X142970000Y-95970000D03*
%TD*%
D16*
%TO.C,U1*%
X101310000Y-91060000D03*
D17*
X103850000Y-91060000D03*
X106390000Y-91060000D03*
X108930000Y-91060000D03*
X111470000Y-91060000D03*
X111470000Y-75820000D03*
X108930000Y-75820000D03*
X106390000Y-75820000D03*
X103850000Y-75820000D03*
X101310000Y-75820000D03*
%TD*%
D14*
%TO.C,R7*%
X141310000Y-71020000D03*
D15*
X141310000Y-76100000D03*
%TD*%
D14*
%TO.C,R4*%
X97560000Y-92870000D03*
D15*
X92480000Y-92870000D03*
%TD*%
D14*
%TO.C,R5*%
X137420000Y-76110000D03*
D15*
X137420000Y-71030000D03*
%TD*%
D18*
%TO.C,H4*%
X87041320Y-97278680D03*
%TD*%
D19*
%TO.C,PWR1*%
X213155000Y-81670000D03*
X225655000Y-81670000D03*
X213155000Y-86670000D03*
X225655000Y-86670000D03*
%TD*%
D14*
%TO.C,R3*%
X96900000Y-73550000D03*
D15*
X91820000Y-73550000D03*
%TD*%
D19*
%TO.C,H5*%
X182830000Y-81670000D03*
X195330000Y-81670000D03*
X182830000Y-86670000D03*
X195330000Y-86670000D03*
%TD*%
D14*
%TO.C,R6*%
X137340000Y-95940000D03*
D15*
X137340000Y-90860000D03*
%TD*%
D14*
%TO.C,R1*%
X147270000Y-70820000D03*
D15*
X147270000Y-75900000D03*
%TD*%
D20*
%TO.C,C1*%
X154920000Y-91260000D03*
X157420000Y-91260000D03*
%TD*%
D18*
%TO.C,H3*%
X280600000Y-70178680D03*
%TD*%
D14*
%TO.C,R13*%
X89310000Y-81530000D03*
D15*
X89310000Y-76450000D03*
%TD*%
D14*
%TO.C,R8*%
X144220000Y-71000000D03*
D15*
X144220000Y-76080000D03*
%TD*%
D18*
%TO.C,H1*%
X87041320Y-70178680D03*
%TD*%
D16*
%TO.C,U4*%
X119150000Y-91060000D03*
D17*
X121690000Y-91060000D03*
X124230000Y-91060000D03*
X126770000Y-91060000D03*
X129310000Y-91060000D03*
X129310000Y-75820000D03*
X126770000Y-75820000D03*
X124230000Y-75820000D03*
X121690000Y-75820000D03*
X119150000Y-75820000D03*
%TD*%
D18*
%TO.C,H2*%
X280600000Y-97278680D03*
%TD*%
D14*
%TO.C,R12*%
X134360000Y-76150000D03*
D15*
X134360000Y-71070000D03*
%TD*%
D21*
%TO.C,D1*%
X156680000Y-73730000D03*
D22*
X154140000Y-73730000D03*
%TD*%
D20*
%TO.C,C2*%
X149720000Y-91260000D03*
X152220000Y-91260000D03*
%TD*%
D14*
%TO.C,R9*%
X145780000Y-90820000D03*
D15*
X145780000Y-95900000D03*
%TD*%
D14*
%TO.C,R14*%
X89260000Y-85590000D03*
D15*
X89260000Y-90670000D03*
%TD*%
D19*
%TO.C,H6*%
X243480000Y-81670000D03*
X255980000Y-81670000D03*
X243480000Y-86670000D03*
X255980000Y-86670000D03*
%TD*%
D14*
%TO.C,R11*%
X140200000Y-90870000D03*
D15*
X140200000Y-95950000D03*
%TD*%
D23*
%TO.C,Y1*%
X151230000Y-96340000D03*
X156130000Y-96340000D03*
%TD*%
D24*
%TO.C,Q2*%
X96110000Y-86980000D03*
D25*
X94840000Y-86980000D03*
X93570000Y-86980000D03*
%TD*%
D26*
%TO.C,U2*%
X169830000Y-87240000D03*
D27*
X167290000Y-87240000D03*
X164750000Y-87240000D03*
X162210000Y-87240000D03*
X159670000Y-87240000D03*
X157130000Y-87240000D03*
X154590000Y-87240000D03*
X152050000Y-87240000D03*
X149510000Y-87240000D03*
X146970000Y-87240000D03*
X144430000Y-87240000D03*
X141890000Y-87240000D03*
X139350000Y-87240000D03*
X136810000Y-87240000D03*
X136810000Y-79620000D03*
X139350000Y-79620000D03*
X141890000Y-79620000D03*
X144430000Y-79620000D03*
X146970000Y-79620000D03*
X149510000Y-79620000D03*
X152050000Y-79620000D03*
X154590000Y-79620000D03*
X157130000Y-79620000D03*
X159670000Y-79620000D03*
X162210000Y-79620000D03*
X164750000Y-79620000D03*
X167290000Y-79620000D03*
X169830000Y-79620000D03*
%TD*%
D28*
%TO.C,J5*%
X278760000Y-79340000D03*
D29*
X278760000Y-81840000D03*
%TD*%
D24*
%TO.C,Q1*%
X96110000Y-78970000D03*
D25*
X94840000Y-78970000D03*
X93570000Y-78970000D03*
%TD*%
D30*
%TO.C,J7*%
X268330000Y-88620000D03*
D31*
X270870000Y-88620000D03*
X268330000Y-86080000D03*
X270870000Y-86080000D03*
X268330000Y-83540000D03*
X270870000Y-83540000D03*
X268330000Y-81000000D03*
X270870000Y-81000000D03*
X268330000Y-78460000D03*
X270870000Y-78460000D03*
%TD*%
D32*
%TO.C,JP1*%
X166850000Y-82690000D03*
X166850000Y-83990000D03*
%TD*%
%TO.C,JP2*%
X164130000Y-82630000D03*
X164130000Y-83930000D03*
%TD*%
M02*
