M48
METRIC,TZ
T1C0.300
T2C0.650
T3C0.700
T4C0.800
T5C0.900
T6C1.000
T7C1.300
T8C2.000
%
G90
G05
T1
X131800Y-94600
X136160Y-94560
X140935Y-74185
X141320Y-79070
X152615Y-93835
X157630Y-98060
X158290Y-81030
X158970Y-83980
X166000Y-87700
X169399Y-89101
X171000Y-88100
X176765Y-83225
X190000Y-88400
X193700Y-88800
X197390Y-84130
X201200Y-97600
X203900Y-97900
T2
X181350Y-97740
X182620Y-97740
T3
X172630Y-97340
X177710Y-97340
X222900Y-87800
X227980Y-87800
T4
X172500Y-86280
X172500Y-93900
X175040Y-86280
X175040Y-93900
X177580Y-86280
X177580Y-93900
X180120Y-86280
X180120Y-93900
X182660Y-86280
X182660Y-93900
X185200Y-86280
X185200Y-93900
X187740Y-86280
X187740Y-93900
X190250Y-97100
X190280Y-86280
X190280Y-93900
X192750Y-97100
X192820Y-86280
X192820Y-93900
X195360Y-86280
X195360Y-93900
X195400Y-97100
X197900Y-86280
X197900Y-93900
X197900Y-97100
X200440Y-86280
X200440Y-93900
X202980Y-86280
X202980Y-93900
X205520Y-86280
X205520Y-93900
X210900Y-89800
X210900Y-94700
T5
X217075Y-88970
X219615Y-88970
T6
X133920Y-78710
X133920Y-81250
X133920Y-83790
X133920Y-86330
X133920Y-88870
X136460Y-78710
X136460Y-81250
X136460Y-83790
X136460Y-86330
X136460Y-88870
X146810Y-86450
X146860Y-79340
X149310Y-86450
X149360Y-79340
X151490Y-72600
X154030Y-72600
X156570Y-72600
X159110Y-72600
X217880Y-96520
X220380Y-96520
X228200Y-93400
X228200Y-95900
T7
X173750Y-74000
X173750Y-79000
X186250Y-74000
X186250Y-79000
X194850Y-74000
X194850Y-79000
X207350Y-74000
X207350Y-79000
X215950Y-74000
X215950Y-79000
X228450Y-74000
X228450Y-79000
T8
X144300Y-73100
X144300Y-95100
X166300Y-73100
X166300Y-95100
M30
